<?xml version="1.0" standalone="no"?>
<!DOCTYPE svg PUBLIC "-//W3C//DTD SVG 20010904//EN"
 "http://www.w3.org/TR/2001/REC-SVG-20010904/DTD/svg10.dtd">
<svg version="1.0" xmlns="http://www.w3.org/2000/svg"
 width="193.000000pt" height="72.000000pt" viewBox="0 0 193.000000 72.000000"
 preserveAspectRatio="xMidYMid meet">

<g transform="translate(0.000000,72.000000) scale(0.100000,-0.100000)"
fill="#000000" stroke="none">
<path d="M1325 695 c-94 -20 -123 -31 -180 -70 -72 -47 -109 -94 -133 -169
-23 -69 -36 -162 -25 -169 19 -10 74 17 110 54 98 104 153 143 229 164 70 19
107 16 178 -15 44 -19 136 -101 136 -122 0 -34 93 -115 121 -106 18 6 47 108
42 146 -3 21 -16 62 -30 93 -41 93 -159 175 -283 199 -64 12 -87 11 -165 -5z"/>
<path d="M1790 705 c-8 -2 -31 -6 -50 -10 -19 -3 -43 -11 -52 -18 -15 -12 -10
-21 52 -85 62 -65 73 -72 107 -72 82 0 83 2 83 101 l0 89 -62 -1 c-35 -1 -70
-3 -78 -4z"/>
<path d="M0 610 c0 -51 4 -90 10 -90 5 0 36 28 69 62 68 69 68 77 -6 102 -74
25 -73 27 -73 -74z"/>
<path d="M355 694 c-128 -32 -226 -88 -279 -157 -41 -54 -85 -216 -67 -246 12
-19 67 -1 99 33 16 17 41 42 54 56 24 25 90 78 114 93 29 17 111 37 149 36 82
-1 213 -81 235 -145 17 -48 106 -124 129 -109 5 3 13 20 16 38 4 17 12 38 17
45 14 17 3 92 -23 152 -26 60 -114 140 -196 177 -46 21 -76 27 -143 29 -47 2
-94 1 -105 -2z"/>
<path d="M788 690 c-26 -5 -57 -15 -68 -23 -22 -15 -22 -15 10 -39 18 -12 48
-44 67 -71 l35 -47 76 3 77 3 62 62 62 62 -32 17 c-77 39 -180 51 -289 33z"/>
<path d="M1460 440 c-26 -48 22 -216 79 -279 78 -86 170 -127 309 -138 l82 -6
0 97 0 96 -37 -2 c-50 -3 -121 11 -158 30 -42 21 -97 71 -113 101 -23 45 -63
92 -85 100 -59 22 -66 22 -77 1z"/>
<path d="M265 435 c-42 -19 -53 -30 -118 -112 -43 -55 -67 -75 -102 -88 l-45
-18 0 -100 0 -100 36 6 c58 10 155 62 211 114 85 78 120 184 88 267 -19 50
-25 52 -70 31z"/>
<path d="M490 426 c-11 -29 -7 -60 18 -154 25 -94 100 -177 202 -223 44 -19
153 -39 222 -39 110 0 195 39 295 134 45 43 83 130 83 191 0 26 -20 84 -36
103 -1 2 -18 -1 -38 -8 -35 -11 -110 -86 -144 -143 -10 -17 -43 -41 -79 -59
-71 -35 -123 -38 -210 -13 -59 17 -119 70 -181 159 -18 26 -43 51 -55 55 -62
23 -67 23 -77 -3z"/>
<path d="M1268 160 c-18 -24 -48 -54 -65 -65 -18 -11 -32 -22 -32 -25 -1 -3
21 -15 47 -26 60 -27 192 -40 253 -25 45 12 119 41 119 48 0 1 -18 19 -40 39
-22 20 -46 48 -53 63 -12 25 -17 26 -104 31 l-92 5 -33 -45z"/>
<path d="M287 148 c-21 -27 -52 -57 -68 -67 l-30 -19 45 -21 c90 -44 277 -41
357 6 l26 15 -44 41 c-24 22 -49 51 -56 64 -11 23 -18 24 -102 27 l-90 2 -38
-48z"/>
</g>
</svg>
