<?xml version="1.0" standalone="no"?>
<!DOCTYPE svg PUBLIC "-//W3C//DTD SVG 20010904//EN"
 "http://www.w3.org/TR/2001/REC-SVG-20010904/DTD/svg10.dtd">
<svg version="1.0" xmlns="http://www.w3.org/2000/svg"
 width="1397.000000pt" height="448.000000pt" viewBox="0 0 1397.000000 448.000000"
 preserveAspectRatio="xMidYMid meet">

<g transform="translate(0.000000,448.000000) scale(0.100000,-0.100000)"
fill="#000000" stroke="none">
<path d="M0 3938 l0 -524 93 9 c195 18 337 -7 521 -92 34 -15 84 -36 113 -45
28 -9 77 -35 109 -58 l58 -40 80 27 c45 15 113 40 153 56 82 33 244 74 330 84
32 3 94 12 138 20 44 7 136 19 205 25 69 6 128 15 133 19 4 4 -11 33 -33 65
-22 31 -62 101 -89 156 -27 54 -65 120 -84 147 -59 85 -340 309 -467 373 -25
13 -81 46 -126 75 -104 68 -177 105 -207 105 -13 0 -57 11 -98 26 -41 14 -139
39 -219 56 -131 28 -167 31 -377 35 l-233 5 0 -524z"/>
<path d="M4650 4449 c-91 -4 -199 -12 -240 -18 -472 -67 -527 -82 -784 -215
-171 -88 -303 -200 -516 -435 -103 -114 -260 -302 -260 -312 0 -4 69 -10 153
-13 83 -3 202 -8 262 -10 61 -3 151 -9 200 -16 50 -6 110 -13 135 -16 123 -15
428 -106 520 -155 l55 -30 60 31 c33 16 119 54 190 83 115 48 143 55 245 65
203 20 230 21 315 6 107 -19 436 -149 506 -200 46 -34 53 -36 77 -24 15 7 59
23 97 36 39 13 114 39 169 58 108 38 292 73 511 97 163 18 226 27 232 33 3 3
-15 37 -41 75 -25 38 -59 99 -75 135 -57 125 -113 197 -228 293 -146 122 -219
174 -325 234 -50 28 -116 68 -147 89 -76 52 -148 87 -196 95 -22 4 -74 18
-115 31 -158 50 -480 99 -610 92 -14 -1 -99 -5 -190 -9z"/>
<path d="M9190 4450 c-52 -5 -126 -14 -165 -20 -38 -5 -131 -20 -205 -31 -180
-28 -320 -74 -498 -166 -119 -61 -169 -94 -260 -171 -62 -52 -141 -127 -175
-165 -34 -39 -96 -107 -137 -151 -42 -45 -93 -103 -115 -131 -22 -27 -57 -70
-77 -94 -21 -24 -36 -46 -34 -50 3 -4 87 -8 188 -9 169 -3 412 -20 568 -41
135 -18 410 -102 542 -166 35 -17 38 -17 63 -1 23 15 78 39 280 123 33 13 74
26 90 28 17 1 82 8 145 15 207 22 344 -1 534 -89 34 -15 84 -36 113 -45 28 -9
77 -35 109 -58 l58 -40 80 27 c45 15 113 40 153 56 82 33 244 74 330 84 32 3
94 12 138 20 44 7 136 19 205 25 69 6 128 15 133 19 4 4 -11 33 -33 65 -22 31
-62 101 -89 156 -27 54 -65 120 -84 147 -59 85 -340 309 -467 373 -25 13 -81
46 -126 75 -104 68 -177 105 -207 105 -13 0 -57 11 -98 26 -41 14 -139 39
-219 56 -137 29 -160 31 -395 34 -137 1 -293 -2 -345 -6z"/>
<path d="M13765 4435 c-459 -58 -561 -85 -819 -219 -171 -88 -303 -200 -516
-435 -103 -114 -260 -302 -260 -312 0 -4 69 -10 153 -13 83 -3 202 -8 262 -10
61 -3 151 -9 200 -16 50 -6 110 -13 135 -16 122 -14 427 -106 520 -155 l54
-29 71 34 c134 66 300 130 350 136 l50 5 3 523 2 522 -52 -1 c-29 -1 -98 -7
-153 -14z"/>
<path d="M7419 3406 c-2 -3 -130 -7 -284 -10 -154 -3 -314 -10 -355 -16 -41
-5 -142 -14 -224 -20 -83 -5 -186 -16 -230 -25 -45 -8 -115 -19 -156 -25 -41
-6 -100 -18 -130 -26 -30 -8 -77 -21 -105 -29 -156 -41 -172 -47 -605 -217
-216 -84 -402 -213 -452 -313 -11 -22 -40 -69 -63 -105 -52 -79 -77 -132 -105
-229 -19 -62 -21 -91 -18 -190 4 -101 9 -131 42 -231 21 -63 50 -140 64 -170
49 -100 251 -282 417 -375 l64 -36 83 54 c106 69 170 126 213 191 19 28 51 71
70 96 38 50 125 194 125 209 0 5 13 40 28 77 31 78 125 211 175 247 46 35 210
115 281 138 329 106 482 142 666 159 202 18 623 32 652 21 14 -5 55 -13 90
-17 105 -11 314 -52 403 -79 149 -46 257 -151 331 -324 24 -57 52 -115 63
-129 10 -15 37 -63 59 -108 48 -96 137 -216 220 -297 l59 -58 39 16 c100 42
283 170 319 223 14 20 45 61 69 91 25 30 57 77 72 104 l27 50 -18 49 c-37 103
-2 326 77 481 17 35 26 66 23 77 -10 32 -99 162 -160 233 -77 91 -173 169
-260 212 -271 132 -461 205 -580 221 -27 3 -77 12 -110 20 -83 18 -199 32
-405 49 -163 13 -461 20 -471 11z"/>
<path d="M2705 3390 c-77 -4 -214 -8 -305 -9 -91 0 -221 -8 -290 -15 -69 -8
-177 -18 -240 -21 -63 -4 -140 -11 -170 -17 -30 -5 -104 -18 -165 -27 -128
-21 -344 -77 -465 -120 -200 -71 -533 -210 -614 -256 -109 -62 -209 -152 -242
-217 -14 -27 -40 -70 -58 -96 -79 -111 -121 -235 -131 -392 -5 -72 -3 -98 18
-170 59 -204 90 -278 144 -343 85 -102 284 -260 396 -313 l36 -17 68 44 c103
67 178 133 223 197 22 31 56 77 75 102 44 56 119 192 135 245 7 22 22 58 33
80 26 53 120 178 153 204 58 46 256 131 414 180 367 111 494 129 955 133 270
3 379 -8 593 -56 202 -46 274 -83 367 -189 44 -51 54 -67 91 -157 10 -25 31
-67 45 -95 134 -255 196 -349 303 -454 67 -66 69 -65 216 26 123 77 188 127
201 157 5 11 34 50 64 86 30 36 66 86 80 111 24 45 24 48 10 89 -39 110 -3
353 72 487 l34 62 -19 38 c-34 66 -131 196 -200 266 -78 80 -188 157 -266 186
-31 11 -91 38 -133 60 -167 83 -317 126 -605 171 -224 35 -588 53 -823 40z"/>
<path d="M12025 3390 c-77 -4 -214 -8 -305 -9 -91 0 -221 -8 -290 -15 -69 -8
-177 -18 -240 -21 -63 -4 -140 -11 -170 -17 -30 -5 -104 -18 -165 -27 -128
-21 -344 -77 -465 -120 -200 -71 -533 -210 -614 -256 -109 -62 -209 -152 -242
-217 -14 -27 -40 -70 -58 -96 -79 -111 -121 -235 -131 -392 -5 -72 -3 -98 18
-170 59 -204 90 -278 144 -343 85 -102 284 -260 396 -313 l36 -17 68 44 c103
67 178 133 223 197 22 31 56 77 75 102 44 56 119 192 135 245 7 22 22 58 33
80 26 53 120 178 153 204 58 46 256 131 414 180 367 111 494 129 955 133 270
3 379 -8 593 -56 202 -46 274 -83 367 -189 44 -51 54 -67 91 -157 10 -25 31
-67 45 -95 134 -255 196 -349 303 -454 48 -47 58 -53 82 -47 63 16 334 201
334 228 0 5 18 31 40 56 23 25 59 73 81 106 38 57 40 64 33 106 -8 48 -8 144
1 503 l6 228 -35 47 c-84 114 -241 240 -352 281 -29 12 -89 38 -131 60 -167
83 -317 126 -605 171 -224 35 -588 53 -823 40z"/>
<path d="M0 2630 l0 -134 36 74 c35 73 35 75 19 110 -9 19 -25 46 -35 60 l-20
25 0 -135z"/>
<path d="M7300 2512 l-95 -17 0 -145 c0 -98 6 -170 17 -220 9 -41 24 -122 33
-180 39 -244 185 -586 341 -795 162 -218 403 -505 424 -505 4 0 45 -37 91 -83
46 -46 107 -99 134 -117 28 -19 68 -48 90 -65 22 -16 128 -74 235 -127 212
-106 225 -110 575 -167 245 -39 630 -14 903 60 98 26 334 112 402 146 163 82
467 376 612 592 65 96 168 266 168 277 0 4 65 151 106 240 53 116 89 342 116
734 1 14 1 92 0 174 l-2 148 -47 -6 c-110 -16 -497 -107 -536 -127 -23 -12
-85 -46 -137 -76 -128 -73 -186 -146 -240 -303 -58 -168 -150 -311 -280 -434
-39 -36 -76 -66 -84 -66 -7 0 -19 -7 -27 -16 -35 -42 -221 -110 -369 -133
-122 -20 -314 -20 -350 -1 -11 6 -72 15 -135 20 -226 19 -361 84 -535 259
-128 128 -225 270 -300 436 -35 77 -71 151 -80 165 -9 14 -33 51 -54 82 -47
71 -131 124 -277 174 -247 84 -502 111 -699 76z"/>
<path d="M2690 2515 c-8 -2 -47 -8 -87 -15 -72 -12 -72 -12 -79 -47 -9 -50 1
-213 20 -313 9 -47 29 -155 46 -241 16 -88 43 -190 61 -235 84 -211 187 -408
267 -511 21 -26 45 -61 55 -76 95 -149 468 -546 592 -630 33 -22 76 -53 95
-68 51 -40 377 -204 441 -222 69 -20 185 -45 269 -57 36 -5 101 -16 145 -23
146 -26 478 -10 715 34 171 33 474 136 575 196 136 82 233 168 433 385 124
134 264 355 356 558 18 41 47 107 64 145 39 87 77 275 95 472 18 186 16 163
20 392 l3 193 -45 -5 c-100 -12 -450 -90 -508 -114 -74 -30 -229 -116 -261
-147 -54 -49 -119 -153 -141 -226 -47 -150 -131 -289 -252 -415 -131 -136
-289 -215 -504 -250 -107 -17 -327 -20 -357 -4 -11 6 -71 15 -132 20 -147 13
-278 53 -370 115 -213 143 -424 424 -517 687 -7 20 -17 37 -21 37 -4 0 -17 18
-28 40 -63 123 -139 179 -340 245 -170 57 -334 85 -482 84 -62 -1 -120 -3
-128 -4z"/>
<path d="M12010 2515 c-8 -2 -47 -8 -87 -15 -72 -12 -72 -12 -79 -47 -9 -50 1
-213 20 -313 9 -47 29 -155 46 -241 16 -88 43 -190 61 -235 84 -211 187 -408
267 -511 21 -26 45 -61 55 -76 95 -149 468 -546 592 -630 33 -22 76 -53 95
-68 51 -40 377 -204 441 -222 69 -20 185 -45 269 -57 36 -5 101 -16 145 -24
44 -9 92 -15 108 -16 l27 0 0 624 0 623 -93 7 c-124 8 -260 52 -350 112 -212
140 -425 424 -518 687 -7 20 -17 37 -21 37 -4 0 -17 18 -28 40 -63 123 -139
179 -340 245 -170 57 -334 85 -482 84 -62 -1 -120 -3 -128 -4z"/>
<path d="M2060 2453 c-123 -21 -479 -107 -513 -124 -23 -12 -85 -46 -137 -76
-128 -73 -186 -146 -240 -303 -58 -168 -150 -311 -280 -434 -39 -36 -76 -66
-84 -66 -7 0 -19 -7 -27 -16 -32 -39 -217 -109 -344 -129 -171 -27 -264 -27
-403 1 l-32 6 0 -618 0 -619 98 -3 c168 -4 456 32 630 79 98 26 334 112 402
146 163 82 467 376 612 592 65 96 168 266 168 277 0 4 65 151 106 240 53 116
89 342 116 734 1 14 1 91 0 173 -2 164 3 153 -72 140z"/>
<path d="M6965 1948 c-88 -6 -161 -11 -161 -11 -1 -1 -4 -56 -8 -122 -3 -66
-11 -149 -17 -185 -15 -93 -93 -312 -149 -416 -16 -31 -30 -63 -30 -70 0 -24
91 -27 370 -16 245 11 478 36 497 55 2 3 -18 43 -46 89 -95 155 -204 446 -232
619 -11 65 -13 69 -38 67 -14 0 -98 -5 -186 -10z"/>
<path d="M2475 1943 c-11 -2 -92 -7 -180 -11 l-160 -7 3 -28 c6 -53 -19 -281
-39 -355 -25 -92 -89 -255 -134 -346 -19 -37 -32 -72 -29 -77 7 -12 318 -11
509 1 146 9 331 35 355 50 8 5 1 23 -24 58 -94 130 -241 520 -258 686 -3 31
-10 36 -43 29z"/>
<path d="M11795 1943 c-11 -2 -92 -7 -180 -11 l-160 -7 3 -28 c6 -53 -19 -281
-39 -355 -25 -92 -89 -255 -134 -346 -19 -37 -32 -72 -29 -77 7 -12 318 -11
509 1 146 9 331 35 355 50 8 5 1 23 -24 58 -94 130 -241 520 -258 686 -3 31
-10 36 -43 29z"/>
</g>
</svg>
