<?xml version="1.0" standalone="no"?>
<!DOCTYPE svg PUBLIC "-//W3C//DTD SVG 20010904//EN"
 "http://www.w3.org/TR/2001/REC-SVG-20010904/DTD/svg10.dtd">
<svg version="1.0" xmlns="http://www.w3.org/2000/svg"
 width="1413.000000pt" height="280.000000pt" viewBox="0 0 1413.000000 280.000000"
 preserveAspectRatio="xMidYMid meet">

<g transform="translate(0.000000,280.000000) scale(0.100000,-0.100000)"
fill="#000000" stroke="none">
<path d="M2865 2780 c-60 -4 -238 -14 -395 -23 -432 -26 -537 -38 -765 -88
-78 -17 -598 -187 -627 -205 -6 -4 19 -19 56 -35 72 -31 96 -44 296 -162 160
-95 206 -127 324 -225 l88 -74 147 26 c89 16 238 32 381 41 129 9 285 20 345
25 148 12 317 12 472 0 308 -24 384 -32 490 -46 l112 -16 138 94 c222 152 367
229 579 310 62 24 114 48 115 53 6 15 -258 118 -448 175 -92 28 -222 60 -288
71 -66 11 -167 29 -225 40 -74 14 -177 23 -345 29 -132 5 -262 11 -290 13 -27
2 -99 1 -160 -3z"/>
<path d="M9925 2770 c-60 -4 -195 -12 -300 -18 -481 -29 -636 -45 -835 -88
-83 -18 -650 -207 -650 -216 0 -5 6 -8 14 -8 34 0 404 -208 531 -298 28 -20
90 -69 139 -110 l88 -74 147 26 c92 16 236 32 391 42 135 8 261 18 280 22 128
27 800 -4 1060 -49 l65 -11 170 113 c182 122 339 211 445 252 232 89 233 90
215 103 -37 27 -306 126 -475 175 -96 27 -231 59 -300 69 -69 11 -156 27 -195
35 -41 9 -171 19 -313 25 -134 5 -271 11 -305 14 -34 2 -111 0 -172 -4z"/>
<path d="M13355 2709 c-33 -5 -157 -13 -275 -18 -496 -22 -761 -64 -1034 -166
-50 -18 -179 -64 -286 -101 -231 -79 -319 -117 -500 -214 -173 -92 -228 -132
-382 -282 -99 -97 -133 -137 -158 -188 -56 -112 -101 -239 -107 -304 -6 -71
13 -253 30 -283 7 -11 29 -53 50 -93 l39 -73 81 7 c115 8 192 26 347 81 129
45 265 110 257 124 -23 43 -38 91 -43 139 -6 55 -4 59 36 121 64 95 90 111
405 250 141 63 310 121 420 146 39 8 95 22 125 30 129 35 356 67 555 80 116 8
255 18 310 24 230 24 550 18 848 -15 l57 -7 0 365 0 365 -57 7 c-102 10 -656
15 -718 5z"/>
<path d="M6260 2699 c-30 -5 -152 -13 -270 -18 -561 -25 -707 -52 -1190 -219
-343 -119 -423 -152 -605 -248 -184 -96 -237 -135 -395 -284 -118 -112 -136
-134 -175 -210 -65 -129 -105 -255 -105 -331 0 -90 25 -247 43 -267 8 -9 29
-46 47 -81 l32 -64 81 7 c101 7 211 30 268 54 24 11 82 32 129 47 87 29 214
92 207 104 -44 81 -57 172 -32 222 41 81 101 135 202 184 268 131 492 217 648
250 44 9 90 20 101 25 65 26 432 79 619 90 110 6 234 15 275 20 131 16 373 21
521 10 504 -36 550 -42 790 -109 181 -50 244 -72 466 -160 258 -103 280 -116
329 -186 41 -60 41 -60 34 -123 -10 -77 -42 -128 -118 -185 -29 -22 -51 -45
-49 -51 4 -16 259 -140 348 -170 82 -27 198 -50 315 -61 70 -7 70 -7 103 27
32 33 115 195 146 285 31 90 30 173 -4 332 -30 139 -33 146 -91 230 -33 47
-60 91 -60 97 0 17 -128 134 -195 178 -33 22 -85 56 -115 76 -86 57 -512 264
-645 314 -184 68 -422 133 -568 156 -73 11 -166 27 -207 35 -142 27 -751 44
-880 24z"/>
<path d="M0 2335 l0 -363 58 -6 c90 -11 156 -25 327 -71 191 -52 245 -71 480
-164 261 -104 282 -116 331 -186 41 -60 41 -60 34 -123 -9 -75 -41 -127 -115
-185 -27 -22 -50 -45 -50 -51 0 -14 226 -127 330 -165 79 -28 207 -54 337 -67
67 -6 68 -6 99 27 30 32 114 197 145 284 29 80 29 171 0 311 -36 170 -29 151
-101 262 -102 157 -142 195 -330 319 -98 65 -475 255 -623 314 -212 85 -470
158 -632 179 -47 6 -112 17 -145 24 -33 8 -79 16 -102 19 l-43 5 0 -363z"/>
<path d="M158 1883 c-23 -27 -92 -168 -123 -253 -16 -45 -29 -105 -32 -150 -6
-89 20 -266 43 -291 9 -10 28 -44 44 -77 75 -159 156 -254 347 -407 191 -154
363 -244 617 -325 264 -84 454 -129 606 -145 36 -4 187 -24 335 -46 149 -22
313 -42 365 -45 52 -3 118 -7 145 -9 28 -2 192 -7 365 -11 322 -7 531 2 705
31 136 23 491 110 667 164 262 81 276 87 498 210 174 97 373 257 540 436 115
123 129 141 172 237 54 118 78 202 78 269 0 74 -55 324 -81 365 -21 34 -24 36
-63 31 -99 -13 -299 -62 -391 -97 -55 -20 -138 -50 -185 -65 -130 -42 -125
-36 -80 -103 l39 -57 -10 -65 c-11 -76 -33 -107 -131 -190 -73 -62 -77 -64
-268 -151 -300 -136 -526 -192 -905 -224 -43 -4 -91 -11 -104 -17 -89 -33
-180 -40 -628 -45 -472 -6 -577 -1 -913 38 -225 26 -446 82 -659 165 -189 73
-240 103 -315 185 -45 48 -57 68 -66 115 -7 32 -10 72 -7 90 8 50 77 143 131
178 l29 19 -24 18 c-54 42 -447 185 -612 223 -87 20 -110 20 -129 -1z"/>
<path d="M7179 1788 c-73 -146 -109 -257 -109 -337 0 -91 27 -252 47 -273 8
-9 25 -39 38 -65 74 -160 168 -270 370 -432 203 -164 396 -253 795 -370 152
-45 263 -67 455 -91 94 -12 258 -35 365 -51 399 -62 1164 -77 1480 -28 62 9
180 36 449 101 178 43 507 152 593 196 191 99 313 180 478 315 115 94 320 310
345 363 10 22 29 62 42 89 78 158 86 244 45 442 -18 86 -39 157 -53 179 -21
35 -24 36 -68 31 -92 -11 -318 -66 -386 -95 -38 -17 -103 -40 -143 -52 -40
-11 -93 -30 -117 -40 l-45 -19 39 -58 40 -58 -10 -65 c-11 -76 -33 -107 -132
-191 -51 -43 -107 -74 -244 -137 -330 -152 -439 -180 -943 -241 -47 -6 -123
-20 -170 -32 -80 -19 -117 -21 -575 -24 -502 -4 -596 0 -920 40 -147 17 -190
26 -370 74 -137 37 -401 140 -466 182 -27 17 -74 58 -104 91 -55 62 -75 112
-75 192 0 47 73 152 132 190 l30 19 -23 19 c-56 42 -446 184 -612 222 -123 29
-120 31 -178 -86z"/>
<path d="M68 867 l-68 -9 0 -388 0 -388 77 15 c43 7 101 20 128 28 28 7 106
25 173 40 119 26 529 147 602 178 l35 15 -30 12 c-16 6 -61 25 -100 42 -281
123 -450 232 -599 388 -85 89 -80 88 -218 67z"/>
<path d="M7248 875 c-2 -2 -88 -13 -193 -24 -104 -12 -194 -26 -200 -30 -37
-29 -402 -50 -800 -46 -338 4 -458 11 -692 41 l-122 16 -98 -76 c-54 -41 -136
-105 -183 -142 -133 -103 -299 -197 -435 -244 -27 -9 -50 -20 -50 -24 0 -7 47
-23 265 -90 156 -47 293 -75 525 -105 127 -17 307 -42 400 -56 120 -18 246
-28 425 -35 529 -20 880 -9 1070 34 377 84 687 169 855 235 l50 19 -30 12
c-16 6 -64 27 -106 46 -42 19 -81 34 -86 34 -15 0 -250 136 -321 186 -37 26
-113 94 -169 150 -56 56 -104 100 -105 99z"/>
<path d="M14035 849 c-38 -5 -79 -13 -90 -18 -32 -15 -69 -20 -270 -35 -344
-27 -995 -9 -1277 35 l-68 10 -62 -47 c-35 -26 -106 -82 -158 -124 -164 -132
-323 -227 -478 -285 -41 -15 -70 -31 -65 -35 4 -4 64 -24 133 -45 69 -21 151
-46 182 -56 102 -32 248 -60 448 -85 107 -13 265 -35 350 -49 85 -13 209 -30
275 -36 144 -13 987 -18 1098 -6 l77 9 0 389 c0 305 -3 389 -12 388 -7 -1 -44
-5 -83 -10z"/>
</g>
</svg>
