<?xml version="1.0" standalone="no"?>
<!DOCTYPE svg PUBLIC "-//W3C//DTD SVG 20010904//EN"
 "http://www.w3.org/TR/2001/REC-SVG-20010904/DTD/svg10.dtd">
<svg version="1.0" xmlns="http://www.w3.org/2000/svg"
 width="2125.000000pt" height="760.000000pt" viewBox="0 0 2125.000000 760.000000"
 preserveAspectRatio="xMidYMid meet">

<g transform="translate(0.000000,760.000000) scale(0.100000,-0.100000)"
fill="#000000" stroke="none">
<path d="M4692 6769 c-126 -21 -263 -88 -336 -165 -23 -23 -81 -109 -131 -190
-88 -145 -168 -241 -230 -276 -16 -10 -57 -35 -90 -56 -84 -52 -336 -172 -378
-179 -30 -4 -39 -1 -63 26 -46 51 -127 61 -161 20 -6 -8 -16 -41 -22 -73 -6
-33 -17 -69 -25 -81 -15 -23 -199 -120 -346 -183 -227 -96 -413 -173 -525
-216 -66 -26 -167 -67 -225 -91 -138 -58 -240 -96 -677 -248 -116 -41 -332
-105 -478 -142 -27 -7 -86 -23 -130 -35 -299 -81 -411 -104 -624 -125 -85 -9
-166 -21 -180 -28 -48 -24 -19 -86 40 -87 30 0 230 27 250 34 8 3 68 12 134
21 121 15 185 29 440 92 77 19 170 41 206 48 92 19 364 108 674 220 72 26 155
56 185 67 84 29 179 67 240 98 30 15 91 39 135 55 44 15 92 33 106 41 14 7 77
30 140 52 146 51 200 73 441 188 110 52 210 94 223 94 26 0 22 17 49 -215 8
-71 24 -195 35 -275 33 -233 42 -398 48 -860 8 -657 -30 -1297 -103 -1738 -12
-75 -14 -141 -8 -345 7 -286 13 -312 69 -323 19 -3 38 -3 43 0 18 11 47 122
46 181 0 33 -6 125 -13 204 -13 160 -3 408 24 606 41 304 57 752 52 1415 -4
555 -17 810 -48 955 -20 96 -23 235 -6 305 9 36 19 84 22 107 9 58 33 74 183
124 150 49 288 117 430 213 88 59 230 135 572 306 31 15 89 48 130 72 41 24
131 72 200 106 134 66 200 118 200 159 0 29 -43 51 -175 89 -142 41 -238 50
-343 33z m68 -229 c24 -17 -45 -70 -189 -145 -140 -73 -181 -87 -181 -62 0 15
134 152 179 184 40 28 162 42 191 23z"/>
<path d="M16300 6025 c-87 -16 -242 -67 -385 -127 -155 -65 -483 -290 -753
-516 -247 -207 -353 -317 -507 -526 -154 -208 -152 -368 7 -540 71 -77 178
-169 256 -219 39 -25 207 -116 437 -236 50 -26 137 -67 195 -91 120 -50 236
-110 353 -182 45 -28 102 -62 127 -76 67 -37 175 -118 209 -158 47 -53 30 -96
-69 -164 -19 -13 -37 -27 -40 -30 -9 -12 -154 -97 -225 -132 -93 -47 -229
-100 -340 -133 -49 -15 -121 -38 -160 -52 -38 -13 -122 -37 -185 -53 -63 -15
-196 -49 -295 -75 -197 -52 -237 -60 -336 -70 -115 -11 -161 -63 -110 -126 18
-22 26 -24 118 -23 86 1 111 6 198 37 55 20 172 55 260 77 251 65 490 140 735
230 47 17 105 38 130 46 25 9 100 43 168 76 136 67 209 125 242 192 25 52 38
59 71 40 156 -91 256 -116 468 -117 152 -1 254 19 353 69 42 22 64 27 103 24
28 -2 91 -3 140 -3 98 1 117 6 310 88 148 63 238 95 264 95 28 0 74 -24 130
-67 75 -57 129 -37 93 34 -28 53 -128 151 -180 175 -53 24 -88 15 -177 -46
-63 -44 -97 -59 -285 -126 -116 -42 -200 -54 -222 -32 -7 7 -7 29 1 76 26 149
93 250 286 427 79 73 163 143 187 156 66 35 185 66 225 60 69 -12 113 -79 113
-174 0 -69 -16 -107 -73 -171 -57 -63 -55 -87 6 -79 51 7 83 31 124 91 42 62
63 133 63 217 0 123 -84 240 -193 270 -55 15 -152 6 -208 -18 -132 -59 -487
-412 -596 -593 -22 -36 -63 -169 -63 -205 0 -11 -5 -37 -10 -57 -10 -33 -16
-38 -73 -57 -188 -63 -368 -78 -460 -39 -70 29 -107 56 -107 77 0 14 15 22 66
34 88 22 198 73 339 157 249 147 352 260 363 396 8 93 -48 149 -175 175 -84
17 -186 1 -317 -52 -137 -55 -220 -113 -339 -241 -102 -109 -144 -167 -179
-246 -25 -56 -42 -61 -81 -25 -94 88 -254 182 -618 362 -300 148 -428 215
-644 339 -163 93 -290 206 -353 311 -62 105 -15 257 133 426 113 129 332 342
464 453 197 164 566 400 711 453 41 15 96 37 123 48 69 30 251 47 336 32 89
-16 145 -48 149 -85 6 -48 -7 -76 -62 -135 -29 -31 -62 -70 -74 -87 -19 -28
-20 -33 -7 -44 18 -15 63 -7 121 20 76 37 163 187 167 287 3 71 -48 118 -178
163 -78 27 -172 33 -265 15z m954 -2168 c42 -56 -71 -176 -267 -285 -162 -90
-267 -141 -304 -147 -21 -4 -71 -16 -111 -26 -39 -11 -76 -18 -81 -14 -25 15
33 122 118 216 38 43 180 162 224 188 20 12 83 38 140 57 88 29 114 33 185 31
66 -2 86 -6 96 -20z"/>
<path d="M11930 5924 c-74 -25 -162 -51 -195 -59 -33 -7 -132 -29 -220 -48
-88 -20 -216 -45 -285 -57 -69 -11 -192 -34 -275 -50 -306 -60 -344 -63 -705
-63 -318 0 -538 11 -660 34 -131 24 -147 41 -81 85 77 51 61 78 -40 70 -187
-16 -248 -91 -141 -172 124 -95 387 -133 927 -134 227 0 470 23 645 60 52 11
172 34 265 50 279 48 467 85 527 100 78 21 193 38 203 29 6 -6 -4 -50 -27
-122 -20 -61 -48 -155 -62 -208 -14 -54 -46 -162 -72 -240 -25 -79 -61 -196
-79 -259 -18 -63 -63 -200 -100 -305 -37 -104 -95 -273 -130 -375 -35 -102
-72 -210 -83 -240 -11 -30 -43 -128 -72 -218 -44 -136 -56 -163 -74 -166 -11
-3 -84 -7 -161 -11 -77 -3 -205 -12 -285 -20 -80 -7 -221 -17 -315 -20 -93 -4
-188 -11 -210 -17 -59 -15 -95 -44 -95 -77 0 -76 153 -110 257 -58 66 33 74
35 363 52 140 8 290 17 332 19 43 3 80 2 82 -3 6 -9 -28 -115 -61 -191 -11
-25 -36 -94 -56 -155 -19 -60 -78 -240 -131 -400 -98 -299 -176 -597 -196
-745 -6 -46 -13 -87 -15 -90 -2 -3 -9 -41 -15 -85 -6 -44 -18 -125 -26 -180
-32 -217 -31 -283 7 -323 29 -31 63 -28 89 8 36 51 69 254 95 585 16 200 61
442 110 585 14 41 43 131 65 200 21 69 59 186 84 260 25 74 59 182 77 240 39
130 110 284 135 294 43 17 232 27 562 32 212 2 361 8 373 14 21 12 49 60 49
84 0 9 -11 23 -25 32 -47 31 -476 17 -793 -26 -107 -15 -142 -13 -142 6 0 9
18 73 41 142 22 70 70 219 106 332 36 113 80 241 98 285 33 83 300 893 329
1000 41 151 93 293 123 335 75 105 113 166 113 182 0 22 -38 48 -70 48 -14 -1
-86 -21 -160 -46z"/>
<path d="M4730 5524 c-49 -14 -58 -119 -39 -422 27 -434 1 -1120 -45 -1175 -6
-8 -56 -29 -111 -47 -55 -18 -126 -48 -158 -66 -32 -19 -61 -34 -64 -34 -3 0
-43 -25 -89 -56 -113 -75 -125 -100 -78 -161 33 -43 65 -117 96 -223 14 -47
44 -147 67 -223 23 -76 61 -180 86 -231 36 -76 56 -104 115 -159 47 -45 78
-67 94 -67 35 0 64 42 70 103 3 29 10 95 15 147 5 52 16 156 25 230 8 74 22
243 32 375 9 132 21 250 25 262 10 28 120 84 209 107 102 27 377 76 461 83 51
4 78 2 83 -5 4 -7 -3 -42 -14 -79 -29 -91 -45 -325 -45 -668 0 -305 -2 -293
81 -421 82 -125 143 -171 304 -225 88 -29 102 -31 185 -26 90 6 148 21 278 71
104 40 136 58 225 130 45 37 92 70 104 75 16 5 46 1 98 -16 127 -40 250 -56
387 -49 289 15 486 82 615 210 51 51 72 84 126 194 67 138 88 216 61 233 -8 5
-26 9 -41 9 -33 0 -45 -17 -84 -115 -42 -106 -91 -184 -163 -256 -72 -72 -119
-100 -214 -129 -128 -38 -237 -53 -338 -46 -128 8 -267 53 -287 94 -13 24 -5
41 38 87 20 22 55 65 77 95 23 30 55 69 73 85 47 43 134 154 208 264 35 53 86
123 112 156 63 81 122 170 152 230 34 68 62 187 55 237 -11 85 -99 132 -247
133 -74 0 -93 -4 -150 -31 -36 -17 -110 -67 -165 -111 -104 -84 -444 -431
-507 -518 -78 -109 -137 -242 -138 -311 0 -34 23 -118 43 -157 14 -26 78 -106
113 -141 12 -12 29 -33 38 -47 15 -24 15 -27 -3 -51 -20 -24 -186 -140 -246
-170 -103 -53 -240 -65 -338 -30 -121 43 -260 167 -304 272 -26 61 -28 76 -31
240 -6 277 35 586 104 782 51 147 -19 171 -326 109 -85 -17 -224 -42 -309 -56
-84 -13 -178 -32 -207 -42 -30 -9 -57 -13 -61 -10 -3 4 2 103 12 220 21 238
25 563 11 1032 -9 325 -10 327 -76 309z m2628 -1446 c7 -7 12 -32 12 -56 0
-74 -51 -161 -170 -292 -58 -63 -121 -135 -140 -161 -47 -61 -103 -128 -172
-204 -45 -51 -58 -73 -67 -117 -10 -44 -25 -70 -82 -141 -39 -47 -79 -89 -90
-92 -40 -13 -151 111 -179 198 -24 75 9 163 127 339 80 121 162 198 331 313
290 197 394 249 430 213z m-2708 -383 c0 -46 -7 -128 -15 -182 -8 -54 -22
-186 -30 -293 -20 -237 -30 -329 -39 -338 -11 -10 -39 12 -59 46 -19 32 -133
353 -168 472 -10 35 -19 89 -19 119 0 55 0 55 70 124 71 69 187 136 238 137
21 0 22 -3 22 -85z"/>
<path d="M19373 4540 c-78 -18 -153 -77 -348 -270 -223 -221 -309 -369 -322
-551 -4 -46 -1 -91 6 -115 19 -61 43 -114 53 -114 4 0 8 -6 8 -12 1 -28 65
-95 153 -161 123 -91 271 -181 331 -201 63 -21 66 -24 60 -41 -6 -14 -100 -46
-174 -60 -76 -13 -181 -38 -300 -72 -419 -116 -514 -165 -466 -238 9 -14 26
-25 37 -25 25 0 167 37 324 85 154 46 273 73 390 85 55 6 159 25 230 42 72 16
173 34 225 38 107 9 150 23 198 68 69 65 18 106 -179 146 -328 66 -657 269
-760 468 -37 72 -16 209 45 302 49 73 168 209 256 292 155 147 184 164 282
164 65 0 77 -3 97 -24 46 -49 37 -132 -24 -225 -41 -62 -36 -82 15 -61 31 13
88 87 110 145 35 88 28 229 -12 272 -54 58 -149 84 -235 63z"/>
</g>
</svg>
