<?xml version="1.0" encoding="UTF-8"?>
<svg id="_图层_2" data-name="图层 2" xmlns="http://www.w3.org/2000/svg" viewBox="0 0 39.3 79.94">
  <defs>
    <style>
      .cls-1 {
        fill: #5a0f00;
      }
    </style>
  </defs>
  <g id="_图层_1-2" data-name="图层 1">
    <path class="cls-1" d="M38.21,42.95c-.01.09.48,1.49-.09,1.61-.18.04-.23-.49-.41-.48-.06,0-.62,1.58-.93-.15-.22-1.25.31-.75.39-1.08.06-.28-.16-1.54.15-2.07-.71-1.77,0-2.5.13-3.71.1-1.05-.13-5.58-.24-6.8-.25-2.79-.85-5.61-1.3-8.29,0,8.36-.24,16.9.51,25.13.03.3-.15.66-.14.81.2,2.13,1.3,1.45,1.36,3.28.1,2.79-2.13,3.05-2.04.11.02-.53.26-.83.28-1.15.13-1.75.25-3.31.02-5.07-.57.42.1,2.16-.55,2.28-.73.14-.02-1.86-.42-1.96-.27-.07-.28.93-.3.96-.31.43-.92.79-1.23.12-.55-1.2.23-1.54.37-2.35.04-.24-.07-.73-.03-1.07.05-.44.32-.82.26-1.43-.09-.94-.5-.46-.6-1.1-.07-.49.1-.9.04-1.35-.32-2.2-1.47-8.27-1.49-10.14-.01-1.17.46-3.36.5-4.54s-.17-2.69-.09-4.21c.14-2.74,1.44-9.6.57-11.71-.21-.52-.59-.58-.65-.86-.07-.32-.1-2.38-.21-3.04-.14-.8-.72-1.64-.64-2.71h.08c.16,1.44,1.4,3.53,1.58,4.68.89,5.4-.22,9.71-.49,15.25-.38,7.72-.11,11.99,1.55,19.11.25,1.08.42.9.64,1.41.16.37.08.82.2,1.03.36.65.35-.68.8-.76l-.16-9.83c-.07.36-.59,2.39-.59,2.53,0,.25.39.57.42,1.31.16,3.68-2.86,1.59-1.52-1,.46-.9.91-.42,1.28-2.08.49-2.19.52-11.63.39-14.16-.28-5.55-1.31-5.43-.46-11.65.34-2.44.23-3.4-.12-5.85h.5l.21,1.79c.23-.54.07-1.23-.04-1.79h.76c-.5,1.63-.49,3.33-.75,4.97-.41,2.6-.89,2.72-.67,6.15.43,6.48,2.29,14.11,2.91,20.39.09.87-.15,2.14.13,3.17.08.3,1.04,1.81,1.2,1.76"/>
    <polygon class="cls-1" points="35.45 66.78 35.45 66.53 35.38 66.65 35.45 66.78"/>
    <polygon class="cls-1" points="35.45 66.28 35.45 66.04 35.38 66.16 35.45 66.28"/>
    <polygon class="cls-1" points="33.66 66.28 33.66 66.04 33.6 66.16 33.66 66.28"/>
    <path class="cls-1" d="M35.38,65.05c-.18-.2-.31.78-.06.74.11-.02.08-.72.06-.74Z"/>
    <path class="cls-1" d="M16.41,2.02c-.18,1.16-.23,2.91-.41,3.99-.62,3.65-2.45,10.91-2.72,14.36-.08,1.05.81,5.17.95,6.68.39,4.14,1.64,15.69,1.4,19.18-.1,1.46-.73,3.21-.85,4.78-.06.81.36,6.43-.6,6.21-.08-.02-.11-.7-.44-.89-1.52-.86.33,3.8,0,4.59-.06.15-1.33-.01-1.27,2.57.08,3.18,3.32,2.15,3.69,2.85.08.16-.24,3.8.22,4.51-.22,1.93-1.35,6.15.61,6.11,2.14-.05.4-3.95.23-4.9-.48-2.65-.35-5.45-.42-8.04-.01-.49-.41-1.23-.36-1.72.21-1.92.32.87.36.98.34.96,1.13.15,1.23.85.02.14-.72,2.26.14,2.44.27.06.34-.75.62-.72.09,0,.94,2.39,1.41-.23.34-1.89-.47-1.14-.59-1.64-.1-.42.24-2.34-.22-3.14,1.07-2.68-.01-3.78-.19-5.62-.16-1.58.19-8.46.36-10.31.38-4.23,1.29-8.5,1.97-12.57,0,12.67.37,25.61-.77,38.08-.04.45.23,1,.21,1.23-.31,3.23-1.97,2.2-2.07,4.96-.15,4.23,3.23,4.62,3.1.16-.02-.8-.39-1.26-.43-1.75-.19-2.65-.38-5.02-.04-7.69.86.64-.15,3.27.83,3.46,1.1.21.04-2.81.63-2.96.41-.11.42,1.41.45,1.46.47.65,1.4,1.2,1.86.19.83-1.82-.35-2.34-.57-3.55-.06-.36.11-1.1.05-1.63-.07-.67-.48-1.25-.4-2.17.13-1.43.76-.7.9-1.67.11-.75-.15-1.37-.05-2.04.49-3.33,2.22-12.53,2.26-15.36.02-1.77-.69-5.09-.76-6.89s.25-4.07.13-6.37c-.22-4.16-2.19-14.54-.87-17.74.33-.79.89-.88.98-1.3.11-.49.15-3.61.32-4.61.21-1.22,1.09-2.49.97-4.11h-.13c-.24,2.18-2.11,5.35-2.4,7.08-1.36,8.19.33,14.72.74,23.11.56,11.5.04,18.71-2.35,28.96-.38,1.64-.64,1.36-.97,2.14-.24.56-.12,1.25-.3,1.57-.54.98-.53-1.02-1.21-1.15l.24-14.89c.11.55.9,3.62.89,3.83,0,.39-.59.87-.64,1.99-.24,5.57,4.33,2.41,2.3-1.52-.7-1.36-1.38-.64-1.94-3.15-.74-3.33-.79-17.62-.6-21.46.43-8.42,1.98-8.24.69-17.66-.51-3.7-.36-5.15.19-8.86h-.76l-.32,2.71c-.34-.82-.1-1.87.06-2.71h-1.15c.75,2.48.75,5.05,1.14,7.53.62,3.95,1.36,4.13,1.01,9.31-.65,9.81-3.46,21.39-4.42,30.9-.13,1.32.23,3.24-.19,4.8-.12.45-1.57,2.74-1.81,2.67-.63-.18-1.17-3.01-1.2-4.11-.05-2.19.62-4.48.74-6.4.33-5.4-.87-13.36-1.26-18.95-.1-1.38.11-3.54-.01-4.66-.12-1.03-.51-1.12-.55-1.44-.66-5.65,2.58-13.81,2.72-19.64h-.38ZM21.57,66.83v-.25l.06.12-.06.12ZM21.57,66.34v-.25l.06.12-.06.12ZM23.35,66.34v-.25l.06.12-.06.12ZM21.63,65.11c.18-.2.31.78.06.74-.11-.02-.08-.72-.06-.74ZM17.81,61.41c-1.01.45-1.23-1.43-.29-.55.12.11.27.27.29.55Z"/>
    <path class="cls-1" d="M5.19,2.58c-.08,1.16-.36,2.33-.35,3.52.05,7.23,1.76,13.67,2.8,20.34.26,1.65.64,8.96,1.18,9.51.93.93.43-.57,1.23,1.63.05.14.21.06.22.11.04.15.35,1.97.33,2.15,0,.08-.36,1.44-.39,1.5-.17.33-.4.14-.46.24-.24.4-.21,2.94-1.43,1.74-.74-.73-.29-2.35-.37-2.64-.05-.17-.44-.13-.46-.16-.03-.07.11-1.59-.46-1.05.53-.76,0-.83,0-.9s.15-1.12.17-1.17c0-.04.26-.21.36-.54.02-.05-.18-.3-.14-.37.03-.05.26.1.35-.15.9-2.39-.96-9.56-.92-12.4-.26-.41-.72-4.79-.85-4.77s.03,4.48.01,4.96c-.06,1.76-.39,3.83-.37,5.57,0,.83.26,1.42.24,2.09,0,.49-.21.72-.22,1.02,0,.42.39,1.86.43,2.74.11,2.29.04,3.9.33,6.38.14,1.22,1.06,4.31.26,4.58-1.15.39-.26-2.26-.27-3.07,0-1.56-.56-4.73-.68-6.62-.03-.53.19-1.7.04-2.33-.07-.3-.3-.18-.37-.49-.04-.18.17-1.92-.16-1.25-.09.18-.17,4.27-.15,4.84.03.81.37,1.43.31,2.26-.07.96-.58.9-.61.99-.05.14.12,3.02.16,3.31.07.46.48.58.45,1.51-.02.55-.34.75-.38.91,0,.04.26.56.05.94-.11.2-.38.12-.43.22-.12.24-.22,1.2-.67,1.33-.67.18-1.23-.78-1.18-2.07,0-.2.39-1.27.37-1.75-.03-.67-.35-1.28-.39-2.1-.05-1.02.17-2.52.16-3.59,0-.39-.28-.49-.16-.96.07-.27.23.66.35.15.07-.32.2-1.65.24-2.09.4-4.27.88-10.74.55-14.98-.06-.76-.34-.62-.37-1.08-.02-.27.18-.17.16-.43-.05-1.23-.01-2.18-.04-3.22-.01-.62-.91-3.49-.95-4.67-.02-.73.26-1.44.26-1.52,0-.23-.36-1.5-.12-1.85.26-.37.47.26.52.66.22,1.48.46,4.66.55,6.41.05,1.01-.21,2.19,0,3.57.04.27.28.1.3.31.03.43-.23.09-.23.29,0,1.5.47,4.07.47,5.38-.01,2.6-.66,9.65-.88,12.67-.06.86-.47,1.86-.51,3.18-.02.72.1,2.89.33,3.43.07.17.89.97.94.94.04-.02.32-1.23.33-1.3.04-.44-.02-2.79-.06-3.24-.07-.75-.42-.72-.39-1.65s.54-.89.62-1.81c.05-.63-.11-1.18-.07-1.77.05-.79.35-2.68.3-3.29-.03-.38-.81-1.33.25-2.28-.03-3.15.91-7.62.43-10.65-.06-.41-.33-.45-.34-.68,0-.15.33-.83.21-2.19-.17-1.91-.64-3.96-.85-6.12-.04-.43-.31-1.24-.29-1.54.02-.39.25-.15.24-.73,0-.05-.16-.02-.17-.29-.02-.58.09-1.51.09-2.07,0-.15-.23-.11-.24-.46-.02-.78.79-2.18.39-3.07h.39Z"/>
    <path class="cls-1" d="M31.12,2.02c.11.7.14,1.75.25,2.4.37,2.19,1.48,6.56,1.63,8.64.05.63-.49,3.11-.57,4.02-.23,2.49-.99,9.44-.84,11.54.06.88.44,1.93.51,2.87.04.49-.22,3.86.36,3.74.05-.01.07-.42.27-.54.92-.52-.2,2.29,0,2.76.04.09.8,0,.76,1.54-.05,1.91-1.99,1.29-2.22,1.72-.05.1.14,2.29-.13,2.71.13,1.16.81,3.7-.37,3.67-1.28-.03-.24-2.38-.14-2.94.29-1.59.21-3.28.26-4.84,0-.29.25-.74.22-1.04-.12-1.15-.19.53-.21.59-.21.58-.68.09-.74.51-.01.08.43,1.36-.09,1.47-.16.03-.21-.45-.37-.43-.05,0-.57,1.44-.85-.14-.2-1.14.28-.69.35-.99.06-.25-.15-1.41.13-1.89-.64-1.61,0-2.28.12-3.38.09-.95-.12-5.09-.22-6.2-.23-2.55-.77-5.11-1.19-7.56,0,7.62-.22,15.4.46,22.9.02.27-.14.6-.13.74.18,1.94,1.18,1.33,1.24,2.99.09,2.54-1.94,2.78-1.86.1.01-.48.24-.76.26-1.05.12-1.59.23-3.02.02-4.62-.52.38.09,1.96-.5,2.08-.66.13-.02-1.69-.38-1.78-.25-.06-.25.85-.27.88-.28.39-.84.72-1.12.11-.5-1.09.21-1.41.34-2.14.04-.22-.06-.66-.03-.98.04-.4.29-.75.24-1.31-.08-.86-.45-.42-.54-1.01-.07-.45.09-.82.03-1.23-.29-2-1.34-7.54-1.36-9.24-.01-1.07.41-3.06.46-4.14s-.15-2.45-.08-3.83c.13-2.5,1.32-8.75.52-10.67-.2-.47-.54-.53-.59-.78-.06-.29-.09-2.17-.19-2.77-.12-.73-.66-1.5-.59-2.47h.08c.14,1.31,1.27,3.22,1.44,4.26.82,4.93-.2,8.85-.44,13.9-.34,6.91-.02,11.25,1.41,17.42.23.99.38.82.58,1.29.14.34.07.75.18.94.33.59.32-.62.73-.69l-.14-8.96c-.07.33-.54,2.18-.54,2.31,0,.23.35.52.38,1.19.15,3.35-2.6,1.45-1.38-.92.42-.82.83-.38,1.17-1.89.44-2,.48-10.6.36-12.91-.26-5.06-1.19-4.95-.42-10.62.31-2.22.21-3.1-.11-5.33h.46l.19,1.63c.21-.49.06-1.12-.04-1.63h.69c-.45,1.49-.45,3.04-.68,4.53-.37,2.37-.82,2.48-.61,5.6.39,5.9,2.08,12.86,2.66,18.58.08.79-.14,1.95.11,2.89.07.27.95,1.65,1.09,1.6.38-.11.71-1.81.72-2.47.03-1.31-.38-2.69-.45-3.85-.2-3.25.52-8.04.76-11.4.06-.83-.07-2.13,0-2.8.07-.62.31-.67.33-.87.4-3.4-1.55-8.31-1.64-11.81h.23ZM28.02,41v-.15l-.04.07.04.07ZM28.02,40.7v-.15l-.04.07.04.07ZM26.95,40.7v-.15l-.04.07.04.07ZM27.98,39.96c-.11-.12-.19.47-.04.44.07-.01.05-.43.04-.44ZM30.28,37.74c.61.27.74-.86.17-.33-.07.07-.16.16-.17.33Z"/>
    <path class="cls-1" d="M17.02,2.11c-.05.76-.24,1.52-.23,2.29.03,4.71,1.15,8.91,1.83,13.25.17,1.07.41,5.84.77,6.2.6.61.28-.37.8,1.06.03.09.14.04.15.07.03.1.23,1.28.22,1.4,0,.05-.23.94-.25.98-.11.21-.26.09-.3.15-.16.26-.13,1.92-.93,1.13-.48-.48-.19-1.53-.24-1.72-.03-.11-.29-.08-.3-.11-.02-.04.07-1.04-.3-.68.35-.5,0-.54,0-.59s.1-.73.11-.76c0-.03.17-.14.23-.35.01-.04-.12-.2-.09-.24.02-.03.17.06.23-.1.59-1.56-.63-6.23-.6-8.08-.17-.27-.47-3.12-.56-3.11s.02,2.92,0,3.23c-.04,1.15-.25,2.5-.24,3.63,0,.54.17.92.16,1.36,0,.32-.14.47-.14.67,0,.27.26,1.21.28,1.78.07,1.49.02,2.54.21,4.16.09.8.69,2.81.17,2.99-.75.26-.17-1.47-.18-2,0-1.02-.37-3.08-.44-4.31-.02-.34.12-1.11.03-1.52-.04-.2-.2-.12-.24-.32-.02-.12.11-1.25-.11-.81-.06.11-.11,2.79-.1,3.15.02.53.24.93.2,1.47-.05.62-.38.59-.4.64-.03.09.08,1.97.1,2.16.04.3.31.38.29.98-.01.36-.22.49-.25.59,0,.03.17.37.03.61-.07.13-.25.08-.28.14-.08.15-.14.78-.43.86-.43.12-.8-.51-.77-1.35,0-.13.25-.83.24-1.14-.02-.44-.23-.83-.26-1.37-.03-.66.11-1.64.11-2.34,0-.26-.18-.32-.11-.62.04-.18.15.43.23.1.05-.21.13-1.08.16-1.36.26-2.78.58-7,.36-9.76-.04-.49-.22-.41-.24-.71-.01-.18.11-.11.11-.28-.03-.8,0-1.42-.02-2.1,0-.41-.6-2.27-.62-3.04-.01-.48.17-.94.17-.99,0-.15-.23-.98-.08-1.2.17-.24.3.17.34.43.14.96.3,3.04.36,4.18.03.66-.14,1.43,0,2.33.03.17.18.06.19.21.02.28-.15.06-.15.19,0,.98.31,2.65.3,3.51,0,1.69-.43,6.29-.57,8.26-.04.56-.31,1.21-.33,2.07-.01.47.06,1.89.21,2.24.05.11.58.63.61.61.02-.01.21-.8.21-.85.03-.28-.01-1.82-.04-2.11-.05-.49-.27-.47-.25-1.07s.35-.58.4-1.18c.03-.41-.07-.77-.05-1.15.03-.52.23-1.75.19-2.14-.02-.25-.53-.87.16-1.49-.02-2.05.59-4.97.28-6.94-.04-.27-.21-.29-.22-.45,0-.1.21-.54.14-1.42-.11-1.24-.42-2.58-.55-3.99-.03-.28-.2-.81-.19-1.01.01-.25.16-.1.15-.48,0-.03-.1-.02-.11-.19-.01-.38.06-.98.06-1.35,0-.1-.15-.07-.16-.3-.01-.51.51-1.42.25-2h.25Z"/>
    <path class="cls-1" d="M10.2,1.69c.05.76.24,1.52.23,2.29-.03,4.71-1.15,8.91-1.83,13.25-.17,1.07-.41,5.84-.77,6.2-.6.61-.28-.37-.8,1.06-.03.09-.14.04-.15.07-.03.1-.23,1.28-.22,1.4,0,.05.23.94.25.98.11.21.26.09.3.15.16.26.13,1.92.93,1.13.48-.48.19-1.53.24-1.72.03-.11.29-.08.3-.11.02-.04-.07-1.04.3-.68-.35-.5,0-.54,0-.59s-.1-.73-.11-.76c0-.03-.17-.14-.23-.35-.01-.04.12-.2.09-.24-.02-.03-.17.06-.23-.1-.59-1.56.63-6.23.6-8.08.17-.27.47-3.12.56-3.11s-.02,2.92,0,3.23c.04,1.15.25,2.5.24,3.63,0,.54-.17.92-.16,1.36,0,.32.14.47.14.67,0,.27-.26,1.21-.28,1.78-.07,1.49-.02,2.54-.21,4.16-.09.8-.69,2.81-.17,2.99.75.26.17-1.47.18-2,0-1.02.37-3.08.44-4.31.02-.34-.12-1.11-.03-1.52.04-.2.2-.12.24-.32.02-.12-.11-1.25.11-.81.06.11.11,2.79.1,3.15-.02.53-.24.93-.2,1.47.05.62.38.59.4.64.03.09-.08,1.97-.1,2.16-.04.3-.31.38-.29.98.01.36.22.49.25.59,0,.03-.17.37-.03.61.07.13.25.08.28.14.08.15.14.78.43.86.43.12.8-.51.77-1.35,0-.13-.25-.83-.24-1.14.02-.44.23-.83.26-1.37.03-.66-.11-1.64-.11-2.34,0-.26.18-.32.11-.62-.04-.18-.15.43-.23.1-.05-.21-.13-1.08-.16-1.36-.26-2.78-.58-7-.36-9.76.04-.49.22-.41.24-.71.01-.18-.11-.11-.11-.28.03-.8,0-1.42.02-2.1,0-.41.6-2.27.62-3.04.01-.48-.17-.94-.17-.99,0-.15.23-.98.08-1.2-.17-.24-.3.17-.34.43-.14.96-.3,3.04-.36,4.18-.03.66.14,1.43,0,2.33-.03.17-.18.06-.19.21-.02.28.15.06.15.19,0,.98-.31,2.65-.3,3.51,0,1.69.43,6.29.57,8.26.04.56.31,1.21.33,2.07.01.47-.06,1.89-.21,2.24-.05.11-.58.63-.61.61-.02-.01-.21-.8-.21-.85-.03-.28.01-1.82.04-2.11.05-.49.27-.47.25-1.07s-.35-.58-.4-1.18c-.03-.41.07-.77.05-1.15-.03-.52-.23-1.75-.19-2.14.02-.25.53-.87-.16-1.49.02-2.05-.59-4.97-.28-6.94.04-.27.21-.29.22-.45,0-.1-.21-.54-.14-1.42.11-1.24.42-2.58.55-3.99.03-.28.2-.81.19-1.01-.01-.25-.16-.1-.15-.48,0-.03.1-.02.11-.19.01-.38-.06-.98-.06-1.35,0-.1.15-.07.16-.3.01-.51-.51-1.42-.25-2h-.25Z"/>
    <path class="cls-1" d="M1.11,8.38C1.11,25.4,1.62-1.19,1.62,3.49s1.44,7.39,1.44,11.31.96-7.25.96-9.22,5.41-3.89,5.41,5.41,1.12-3.53,1.12-7,10.15-1.92,11.08,4.69c0,0,.42-.36.7-2.89s7.63-6.83,9.12.09c0,0,0-.48-.11-1.71s2.37-3.74,3.13-.17l.26-1.87-.64-2.13L2.34.69,0,3.15l1.11,5.23Z"/>
  </g>
</svg>