<?xml version="1.0" encoding="UTF-8"?>
<svg id="_图层_2" data-name="图层 2" xmlns="http://www.w3.org/2000/svg" viewBox="0 0 33.59 7.67">
  <defs>
    <style>
      .cls-1 {
        fill: #8c1900;
      }
    </style>
  </defs>
  <g id="_图层_1-2" data-name="图层 1">
    <path class="cls-1" d="M33.59,3.66V0h-2.55v2.56h-.37V.37h-2.56v1.83h1.1v-.73h.36v1.09h-1.46v1.46h-.36V.74h-2.56v1.81H8.4V.74h-2.56v3.28h-.36v-1.46h-1.46v-1.1h.36v.74h1.1V.37h-2.56v2.19h-.37V0H0v3.66h1.45v2.19h-.36v-1.83H0v2.93h2.55v-3.29h.37v1.46h1.46v1.09h-.36v-.73h-1.1v1.82h2.56v-2.18h.36v2.55h2.56v-3.65h-1.46V1.83h.36v1.82h18.99v-1.82h.36v2.19h-1.46v3.65h2.56v-2.55h.36v2.19h2.56v-1.82h-1.1v.72h-.36v-1.09h1.46v-1.46h.37v3.29h2.55v-2.93h-1.09v1.83h-.37v-2.19h1.46ZM28.85,1.1v.73h-.37V.74h1.83v1.82h-.37v-1.46h-1.09ZM3.28.74h1.83v1.09h-.37v-.73h-1.09v1.46h-.37V.74ZM2.19,6.58H.36v-2.2h.37v1.83h1.1v-2.55h.36v2.92ZM.36,3.29V.37h1.83v2.19h-.36V.74H.73v2.18h4.38v1.1h-.37v-.73H.36ZM1.45,1.1v1.46h-.36v-1.46h.36ZM4.38,3.66v.36h-.36v-.36h.36ZM5.11,6.95h-1.83v-1.1h.37v.73h1.09v-1.46h.37v1.83ZM8.03,4.38v2.92h-1.83v-2.18h.37v1.83h1.09v-2.2H3.28v-1.09h.37v.72h4.38ZM6.94,6.58v-1.46h.36v1.46h-.36ZM25.93,1.47v1.82H7.66v-1.83h-1.09v2.56h-.37V1.1h1.83v1.82h17.53v-1.82h1.83v2.92h-.37V1.47h-1.09ZM29.94,6.58v-.73h.37v1.1h-1.83v-1.83h.37v1.46h1.09ZM30.31,4.75h-4.38v2.2h1.09v-1.83h.37v2.19h-1.83v-2.92h4.38v-.73h.37v1.09ZM26.65,5.12v1.46h-.36v-1.46h.36ZM29.21,4.02v-.36h.36v.36h-.36ZM32.86,6.21v-1.82h.37v2.19h-1.83v-2.92h.37v2.55h1.09ZM28.85,3.29v.73h-.37v-1.09h4.38V.74h-1.09v1.82h-.37V.37h1.83v2.92h-4.38ZM32.13,2.56v-1.46h.37v1.46h-.37Z"/>
  </g>
</svg>
