<?xml version="1.0" encoding="UTF-8"?>
<svg id="_图层_2" data-name="图层 2" xmlns="http://www.w3.org/2000/svg" viewBox="0 0 37.11 72.53">
  <defs>
    <style>
      .cls-1 {
        fill: #8c1900;
      }
    </style>
  </defs>
  <g id="_图层_1-2" data-name="图层 1">
    <polygon class="cls-1" points="17.98 9.68 17.27 9.4 16.97 8.69 16.96 7.99 16.97 7.3 16.98 6.6 17.01 5.91 16.99 5.21 16.96 4.51 16.98 3.82 16.96 3.12 16.95 2.42 16.98 1.72 16.98 1.02 17.29 .33 17.98 0 18.68 .32 18.96 1.02 18.95 1.71 18.97 2.41 18.99 3.1 18.95 3.8 19.01 4.5 19 5.2 18.98 5.89 18.99 6.59 18.97 7.29 19 7.99 18.97 8.69 18.71 9.42 17.98 9.68"/>
    <polygon class="cls-1" points="35.96 72.53 35.2 72.42 35 71.7 34.71 71.06 34.43 70.4 34.12 69.74 34.15 69 34.03 68.29 33.83 67.59 33.76 66.88 33.53 66.18 33.7 65.43 33.47 64.73 33.49 64.01 33.37 63.3 33.17 62.59 33.28 61.86 33.29 61.13 33.06 60.43 33.06 59.71 33.1 58.98 33.09 58.26 33 57.55 32.86 56.85 32.88 56.13 32.7 55.42 32.52 54.71 32.58 53.99 32.73 53.26 32.41 52.56 32.42 51.84 32.41 51.12 32.4 50.4 32.49 49.68 32.45 48.96 32.3 48.25 32.21 47.53 32.29 46.81 32.36 46.08 32.08 45.38 32.22 44.65 32.12 43.93 32.05 43.21 32.16 42.48 31.94 41.76 32.12 41.03 31.9 40.32 31.95 39.59 31.9 38.87 32.01 38.14 31.94 37.41 31.84 36.69 31.77 35.97 31.83 35.24 31.84 34.51 32.03 33.78 31.87 33.06 31.7 32.33 31.8 31.6 31.63 30.88 31.59 30.15 31.78 29.42 31.71 28.7 31.89 27.97 31.58 27.25 31.78 26.52 31.83 25.79 31.84 25.07 31.71 24.35 31.53 23.63 31.82 22.9 31.44 22.18 31.5 21.46 31.56 20.74 31.51 20.02 31.62 19.31 31.4 18.59 31.63 17.87 31.37 17.16 31.64 16.44 31.53 15.72 31.72 15.01 31.35 14.29 31.39 13.58 31.52 12.87 31.48 12.11 31.44 11.33 31.23 10.56 30.48 10.23 29.85 9.85 29.11 9.66 28.34 9.65 27.63 9.82 26.92 9.7 26.21 9.8 25.5 9.66 24.78 9.63 24.07 9.71 23.36 9.85 22.65 9.51 21.93 9.52 21.22 9.71 20.51 9.6 19.81 9.81 19.1 9.78 18.38 9.87 17.67 9.87 16.96 9.63 16.25 9.55 15.53 9.59 14.82 9.57 14.1 9.86 13.39 9.68 12.67 9.61 11.96 9.5 11.24 9.78 10.53 9.63 9.81 9.54 9.09 9.84 8.37 9.61 7.65 9.62 6.9 9.61 6.2 9.93 5.42 9.91 4.75 10.35 4.41 11.06 4.25 11.8 4.18 12.55 4.1 13.3 4.36 13.97 4.32 14.65 4.46 15.32 4.29 16 4.44 16.71 4.34 17.43 4.54 18.14 4.43 18.86 4.55 19.57 4.29 20.29 4.32 21 4.49 21.71 4.35 22.42 4.62 23.13 4.46 23.85 4.52 24.56 4.37 25.27 4.48 25.99 4.39 26.7 4.46 27.41 4.71 28.13 4.65 28.84 4.72 29.56 4.62 30.27 4.63 30.99 4.71 31.7 4.43 32.42 4.58 33.14 4.59 33.85 4.66 34.57 4.53 35.28 4.4 35.99 4.7 36.71 4.53 37.42 4.65 38.14 4.58 38.85 4.44 39.56 4.27 40.27 4.26 40.99 4.56 41.71 4.55 42.43 4.29 43.13 4.39 43.85 4.14 44.56 4.21 45.28 4.15 46 4.27 46.72 4.34 47.44 4.33 48.16 3.97 48.85 4.15 49.58 3.85 50.28 4.01 51.01 3.92 51.72 3.89 52.44 3.71 53.14 3.82 53.87 3.92 54.6 3.56 55.29 3.55 56.01 3.46 56.73 3.52 57.45 3.46 58.17 3.24 58.87 3.27 59.59 3.41 60.33 3.13 61.02 3.07 61.74 3.27 62.49 3.09 63.19 3.05 63.91 2.91 64.63 2.9 65.35 2.66 66.05 2.7 66.78 2.54 67.49 2.37 68.2 2.56 68.95 2.24 69.64 2.12 70.35 1.97 71.07 1.84 71.78 1.53 72.36 .89 72.51 .09 72.36 0 71.53 .3 70.84 .31 70.11 .48 69.4 .24 68.64 .38 67.93 .52 67.22 .76 66.52 .91 65.81 .69 65.06 .95 64.36 1.15 63.66 .95 62.91 .97 62.18 1.09 61.47 1.22 60.75 1.18 60.02 1.38 59.31 1.33 58.58 1.56 57.87 1.6 57.14 1.51 56.41 1.82 55.7 1.76 54.97 1.81 54.25 1.86 53.52 1.87 52.8 1.9 52.07 1.97 51.35 1.83 50.61 1.92 49.89 1.93 49.16 2.07 48.45 1.98 47.72 2.08 46.99 2.39 46.28 2.31 45.55 2.21 44.82 2.49 44.11 2.32 43.38 2.32 42.65 2.28 41.93 2.56 41.21 2.41 40.48 2.48 39.76 2.34 39.03 2.33 38.31 2.32 37.59 2.62 36.87 2.52 36.14 2.37 35.42 2.55 34.7 2.66 33.98 2.51 33.26 2.63 32.54 2.54 31.82 2.74 31.1 2.71 30.38 2.52 29.66 2.51 28.94 2.74 28.22 2.56 27.5 2.66 26.78 2.44 26.07 2.59 25.35 2.69 24.64 2.38 23.93 2.59 23.2 2.56 22.48 2.49 21.76 2.39 21.05 2.28 20.34 2.57 19.62 2.27 18.91 2.35 18.2 2.3 17.48 2.4 16.77 2.14 16.07 2.44 15.36 2.18 14.68 2.32 13.98 2.37 13.3 2.22 12.6 2.35 11.91 2.6 11.25 2.59 10.53 3.05 9.98 3.24 9.3 3.76 8.84 4.34 8.49 4.98 8.27 5.57 7.87 6.28 7.95 6.96 7.87 7.65 7.84 8.37 7.62 9.08 7.77 9.79 7.65 10.5 7.6 11.21 7.58 11.92 7.77 12.64 7.72 13.35 7.73 14.06 7.79 14.77 7.64 15.48 7.51 16.19 7.75 16.9 7.55 17.61 7.64 18.32 7.86 19.04 7.57 19.75 7.54 20.46 7.5 21.18 7.64 21.89 7.88 22.6 7.73 23.32 7.53 24.04 7.84 24.75 7.83 25.47 7.71 26.18 7.88 26.9 7.54 27.62 7.7 28.34 7.79 29.05 7.74 29.72 7.96 30.41 8.03 31.06 8.26 31.67 8.57 32.18 9.03 32.58 9.57 33.05 10.1 33.26 10.77 33.23 11.49 33.68 12.15 33.6 12.87 33.41 13.59 33.53 14.31 33.4 15.03 33.46 15.75 33.68 16.47 33.66 17.18 33.68 17.9 33.51 18.62 33.69 19.34 33.4 20.06 33.51 20.78 33.4 21.5 33.41 22.22 33.6 22.93 33.51 23.65 33.62 24.36 33.66 25.07 33.74 25.79 33.85 26.5 33.55 27.22 33.71 27.94 33.7 28.65 33.87 29.37 33.9 30.08 33.9 30.8 33.91 31.52 33.96 32.24 33.64 32.96 33.8 33.68 33.82 34.39 34 35.11 33.92 35.83 34.1 36.54 33.85 37.27 33.86 37.99 34.13 38.71 33.9 39.44 34.16 40.15 33.9 40.88 34.05 41.6 34.14 42.32 34.03 43.05 34 43.78 34.25 44.49 34.13 45.22 34.39 45.94 34.31 46.66 34.48 47.38 34.34 48.11 34.41 48.84 34.45 49.56 34.41 50.29 34.36 51.02 34.45 51.74 34.46 52.47 34.59 53.19 34.76 53.9 34.85 54.62 34.62 55.36 34.74 56.08 34.71 56.81 34.95 57.52 34.79 58.25 34.83 58.97 35.2 59.67 34.98 60.41 35.25 61.11 35.36 61.82 35.14 62.56 35.3 63.27 35.2 64 35.35 64.7 35.7 65.39 35.5 66.13 35.54 66.85 35.71 67.55 35.75 68.27 35.98 68.96 36.15 69.65 36.3 70.36 36.69 70.95 37.11 71.68 36.54 72.25 35.96 72.53"/>
    <polygon class="cls-1" points="22.37 38.95 21.79 38.79 21.21 38.35 20.65 37.88 20.04 37.47 19.59 36.87 19.01 36.42 18.5 35.89 18.02 35.33 17.56 34.75 17.28 34.06 16.9 33.43 16.7 32.71 16.55 31.99 16.62 31.24 16.93 30.62 17.35 30.1 17.83 29.66 18.37 29.25 19.04 29.11 19.69 28.95 20.41 28.79 21.12 28.58 21.84 28.48 22.55 28.28 23.23 27.99 23.9 27.71 24.51 27.3 25.16 26.95 25.61 26.37 25.91 25.71 25.65 25.1 25.03 24.87 24.4 24.63 23.74 24.49 23.06 24.47 22.39 24.38 21.66 24.25 20.95 24.12 20.24 23.98 19.53 23.79 18.89 23.45 18.25 23.09 17.69 22.62 17.3 22 17.04 21.31 16.68 20.67 16.51 19.95 16.37 19.24 16.27 18.51 16.24 17.78 16.17 17.06 16.07 16.33 16.01 15.61 16.03 14.88 16.05 14.14 15.93 13.41 16 12.68 15.96 11.94 16.25 11.21 16.98 10.97 17.73 11.19 17.95 11.94 18.04 12.68 18.01 13.41 18.04 14.15 18 14.88 18.04 15.61 18.11 16.34 18.18 17.07 18.21 17.81 18.29 18.53 18.33 19.27 18.57 19.97 18.89 20.63 19.23 21.27 19.8 21.7 20.45 21.99 21.12 22.24 21.85 22.32 22.57 22.48 23.28 22.43 23.97 22.61 24.65 22.75 25.33 22.92 26.01 23.08 26.67 23.32 27.14 23.85 27.67 24.32 27.86 25.01 27.89 25.71 27.82 26.44 27.5 27.09 27.18 27.75 26.62 28.22 26.13 28.77 25.46 29.08 24.85 29.47 24.16 29.69 23.55 30.1 22.85 30.31 22.13 30.46 21.43 30.63 20.7 30.73 19.98 30.81 19.22 31.16 18.67 31.69 18.66 32.4 18.93 33.07 19.36 33.64 19.75 34.23 20.25 34.74 20.71 35.29 21.23 35.78 21.8 36.22 22.39 36.62 22.89 37.15 23.28 37.74 23.21 38.48 22.37 38.95"/>
    <polygon class="cls-1" points="15.66 28.54 14.93 28.21 14.41 27.72 13.99 27.15 13.54 26.6 13.11 26.03 12.69 25.46 12.17 24.96 11.77 24.37 11.34 23.8 10.91 23.23 10.47 22.67 10.08 22.07 9.66 21.48 9.26 20.86 8.87 20.22 8.58 19.53 8.39 18.81 8.31 18.07 8.27 17.32 8.53 16.62 8.74 15.92 9.1 15.34 9.55 14.83 10.08 14.4 10.72 14.16 11.34 13.87 12.01 13.75 12.69 13.65 13.41 13.65 14.14 13.72 14.86 13.77 15.58 13.76 16.3 13.69 17.02 13.77 17.74 13.75 18.46 13.72 19.18 13.67 19.91 13.73 20.63 13.73 21.35 13.7 22.08 13.71 22.8 13.67 23.52 13.76 24.25 13.71 24.98 13.74 25.7 13.73 26.43 13.68 27.15 13.74 27.88 13.77 28.61 13.71 29.34 13.73 30.02 14.04 30.28 14.72 30.02 15.39 29.34 15.7 28.62 15.68 27.9 15.72 27.17 15.77 26.45 15.73 25.74 15.67 25.02 15.76 24.3 15.75 23.58 15.74 22.85 15.73 22.13 15.69 21.41 15.69 20.68 15.73 19.96 15.75 19.23 15.71 18.51 15.68 17.78 15.76 17.06 15.7 16.33 15.73 15.61 15.74 14.88 15.7 14.15 15.76 13.42 15.69 12.69 15.76 12.06 15.8 11.46 16.01 10.9 16.33 10.53 16.85 10.34 17.56 10.4 18.3 10.58 19.02 10.9 19.69 11.24 20.37 11.68 20.91 12.14 21.44 12.52 22.03 12.98 22.55 13.41 23.1 13.78 23.7 14.23 24.24 14.61 24.83 15.12 25.31 15.51 25.9 15.93 26.44 16.37 26.98 16.63 27.66 16.33 28.37 15.66 28.54"/>
    <polygon class="cls-1" points="8.87 35.62 8.2 35.32 7.91 34.65 7.85 33.92 7.92 33.18 7.9 32.45 7.86 31.71 7.94 30.98 7.99 30.25 8.01 29.52 8.18 28.8 8.28 28.08 8.29 27.34 8.51 26.63 8.67 25.92 8.79 25.19 9.06 24.51 9.33 23.83 9.68 23.19 10.08 22.58 10.44 21.93 10.97 21.42 11.53 20.95 12.13 20.54 12.76 20.16 13.45 19.91 14.14 19.67 14.84 19.5 15.55 19.32 16.28 19.21 17.01 19.17 17.74 19.15 18.48 19.08 19.22 19.18 19.96 19.09 20.7 19.03 21.44 18.94 22.17 18.81 22.91 18.75 23.61 18.49 24.3 18.24 24.92 17.85 25.49 17.39 25.99 16.86 26.32 16.19 26.44 15.45 26.39 14.72 26.74 14.04 27.41 13.75 28.12 14.01 28.46 14.72 28.37 15.42 28.29 16.13 28.16 16.83 27.9 17.49 27.6 18.13 27.1 18.64 26.62 19.17 26.03 19.56 25.42 19.92 24.79 20.25 24.1 20.42 23.41 20.59 22.73 20.79 22.03 20.89 21.32 20.95 20.61 21 19.91 21.06 19.19 21.11 18.48 21.1 17.75 21.15 17.03 21.24 16.31 21.27 15.58 21.32 14.9 21.58 14.21 21.78 13.55 22.08 12.94 22.45 12.36 22.89 11.88 23.43 11.51 24.05 11.2 24.69 10.89 25.35 10.64 26.02 10.54 26.74 10.34 27.44 10.24 28.16 10.16 28.87 10.04 29.59 10.05 30.31 9.93 31.03 9.97 31.75 9.92 32.47 9.91 33.19 9.85 33.92 9.87 34.65 9.59 35.38 8.87 35.62"/>
    <polygon class="cls-1" points="15.66 69.59 14.78 69.28 14.48 68.6 14.2 67.92 14.04 67.2 13.9 66.48 13.7 65.78 13.56 65.06 13.29 64.37 13.1 63.67 12.93 62.95 12.82 62.22 12.81 61.48 12.6 60.77 12.61 60.03 12.48 59.3 12.4 58.57 12.25 57.85 12.19 57.12 12.17 56.39 12.13 55.67 12.03 54.99 12.15 54.31 12.18 53.63 12.23 52.93 12.51 52.3 12.84 51.7 13.23 51.12 13.84 50.78 14.31 50.41 14.54 49.91 14.06 49.4 13.57 48.9 13.06 48.4 12.74 47.76 12.42 47.12 12.2 46.44 12.01 45.76 11.67 45.11 11.56 44.4 11.43 43.7 11.32 42.99 11.18 42.29 11.16 41.57 11.09 40.86 11.05 40.15 10.96 39.44 10.92 38.72 10.93 38 10.96 37.28 11.19 36.51 11.96 36.36 12.68 36.57 12.99 37.28 13.01 38 13.06 38.72 12.96 39.45 13.09 40.17 13.12 40.89 13.27 41.6 13.35 42.32 13.36 43.05 13.42 43.77 13.58 44.48 13.87 45.15 14 45.87 14.3 46.53 14.68 47.15 15.16 47.67 15.64 48.2 16.12 48.59 16.49 49.08 16.61 49.69 16.56 50.51 16.07 51.16 15.61 51.81 14.96 52.29 14.49 52.85 14.28 53.53 14.07 54.22 13.99 54.94 14.07 55.67 14.06 56.37 14.07 57.08 14.12 57.78 14.23 58.48 14.37 59.17 14.44 59.88 14.63 60.56 14.81 61.24 14.89 61.94 14.93 62.65 15.21 63.32 15.33 64.02 15.47 64.71 15.62 65.4 15.73 66.1 15.93 66.78 16.2 67.43 16.51 68.04 16.64 68.81 16.21 69.41 15.66 69.59"/>
    <polygon class="cls-1" points="11.15 50.97 10.71 50.93 10.13 50.52 9.56 50.12 9.06 49.62 8.55 49.13 8.09 48.6 7.65 48.04 7.27 47.45 6.88 46.85 6.59 46.21 6.29 45.57 6.13 44.88 6.06 44.18 6.13 43.46 6.29 42.75 6.54 42.08 6.94 41.49 7.41 40.95 8 40.52 8.64 40.19 9.32 39.94 10.02 39.78 10.72 39.6 11.44 39.52 12.15 39.41 12.87 39.35 13.58 39.27 14.31 39.24 15.03 39.23 15.75 39.21 16.48 39.17 17.17 39.49 17.48 40.18 17.21 40.91 16.48 41.19 15.77 41.19 15.07 41.22 14.36 41.2 13.65 41.23 12.95 41.33 12.25 41.36 11.55 41.46 10.86 41.63 10.17 41.78 9.51 42.02 8.88 42.34 8.37 42.83 8.15 43.49 8.09 44.18 8.19 44.85 8.44 45.5 8.78 46.09 9.14 46.68 9.56 47.23 10.01 47.76 10.51 48.24 11.03 48.69 11.58 49.08 12.09 49.65 12.08 50.43 11.67 50.81 11.15 50.97"/>
    <polygon class="cls-1" points="6.59 63.81 5.9 63.56 5.58 62.88 5.66 62.17 5.56 61.46 5.59 60.74 5.63 60.03 5.7 59.32 5.66 58.61 5.73 57.9 5.76 57.19 5.7 56.47 5.78 55.77 5.93 55.07 5.88 54.34 6.07 53.64 6.09 52.92 6.28 52.23 6.36 51.52 6.54 50.84 6.73 50.15 6.99 49.49 7.19 48.81 7.55 48.19 7.8 47.52 8.23 46.95 8.68 46.4 9.24 45.96 9.84 45.59 10.45 45.26 11.12 45.04 11.78 44.79 12.51 44.62 13.23 44.42 13.91 44.14 14.47 43.65 14.61 42.91 14.76 42.17 14.76 41.42 14.77 40.66 14.73 40.2 15.02 39.51 15.71 39.26 16.38 39.52 16.73 40.2 16.66 40.66 16.69 41.39 16.75 42.13 16.65 42.86 16.53 43.58 16.36 44.29 15.92 44.89 15.44 45.41 14.92 45.92 14.23 46.16 13.55 46.4 12.86 46.67 12.13 46.77 11.45 46.96 10.79 47.24 10.21 47.67 9.83 48.28 9.42 48.85 9.1 49.48 8.85 50.14 8.67 50.83 8.45 51.51 8.31 52.2 8.17 52.9 8.11 53.61 8.03 54.32 7.93 55.02 7.84 55.73 7.85 56.45 7.68 57.15 7.71 57.87 7.69 58.59 7.68 59.3 7.68 60.01 7.57 60.73 7.62 61.44 7.6 62.16 7.66 62.88 7.34 63.64 6.59 63.81"/>
    <polygon class="cls-1" points="21.58 69.44 21.03 69.18 20.6 68.58 20.75 67.82 21.17 67.26 21.4 66.59 21.59 65.92 21.81 65.25 22.03 64.59 22.21 63.91 22.55 63.28 22.62 62.58 22.78 61.89 22.93 61.2 23.19 60.54 23.28 59.84 23.51 59.17 23.66 58.47 23.73 57.77 23.76 57.06 23.94 56.37 23.84 55.67 23.81 54.93 23.71 54.2 23.52 53.47 23.1 52.85 22.73 52.21 22.24 51.64 21.63 51.2 21.11 50.69 20.62 50.12 19.93 49.8 19.39 49.27 18.75 48.89 18.34 48.25 17.88 47.66 17.6 46.97 17.39 46.26 17.29 45.52 17.14 44.8 17.19 44.05 17.07 43.3 17.21 42.57 17.32 41.83 17.58 41.13 17.89 40.43 18.19 39.74 18.6 39.11 18.98 38.44 19.52 37.9 20.17 37.47 20.91 37.23 21.67 37.26 22.38 37.18 23.09 37.29 23.81 37.27 24.52 37.29 25.23 37.23 25.94 37.25 26.65 37.28 27.37 37.27 28.08 37.18 28.75 37.54 29.07 38.2 28.85 38.97 28.08 39.22 27.38 39.22 26.66 39.26 25.95 39.12 25.24 39.11 24.53 39.25 23.82 39.14 23.1 39.14 22.39 39.25 21.67 39.19 21 39.39 20.43 39.81 19.98 40.37 19.79 41.07 19.5 41.72 19.31 42.4 19.2 43.09 19.19 43.8 19.13 44.51 19.21 45.21 19.35 45.91 19.65 46.55 20.02 47.13 20.5 47.63 21.08 48.06 21.71 48.43 22.18 49 22.78 49.41 23.31 49.9 23.82 50.41 24.31 50.95 24.62 51.62 25.06 52.19 25.35 52.86 25.67 53.51 25.84 54.22 25.84 54.95 25.81 55.67 25.78 56.39 25.81 57.13 25.61 57.84 25.52 58.56 25.44 59.29 25.37 60.02 25.14 60.71 24.98 61.42 24.85 62.14 24.66 62.85 24.53 63.58 24.21 64.25 24.07 64.97 23.8 65.65 23.59 66.35 23.4 67.06 23.04 67.71 22.7 68.35 22.4 69.01 21.58 69.44"/>
    <polygon class="cls-1" points="27.41 42.7 26.69 42.71 25.96 42.68 25.24 42.71 24.51 42.69 23.78 42.73 23.05 42.71 22.33 42.68 21.6 42.7 20.87 42.71 20.14 42.68 19.41 42.7 18.68 42.72 17.96 42.42 17.66 41.7 17.95 40.98 18.68 40.73 19.4 40.69 20.13 40.69 20.86 40.68 21.58 40.71 22.31 40.7 23.04 40.72 23.76 40.73 24.49 40.72 25.22 40.7 25.95 40.73 26.68 40.69 27.41 40.7 28.11 41 28.38 41.7 28.12 42.41 27.41 42.7"/>
    <polygon class="cls-1" points="27.41 46.28 26.69 46.27 25.96 46.29 25.24 46.3 24.51 46.3 23.78 46.3 23.05 46.27 22.33 46.28 21.6 46.25 20.87 46.28 20.14 46.27 19.41 46.3 18.68 46.28 17.99 45.96 17.68 45.27 17.97 44.56 18.68 44.29 19.4 44.28 20.13 44.25 20.86 44.25 21.58 44.25 22.31 44.25 23.04 44.3 23.76 44.26 24.49 44.26 25.22 44.25 25.95 44.29 26.68 44.27 27.41 44.3 28.1 44.59 28.4 45.27 28.12 45.98 27.41 46.28"/>
    <polygon class="cls-1" points="16.12 54.73 15.31 54.26 15.09 53.51 15.55 52.87 16.16 52.5 16.76 52.1 17.3 51.64 17.9 51.25 18.48 50.83 19.04 50.4 19.59 49.93 20.11 49.45 20.63 48.96 21.12 48.44 21.55 47.87 21.92 47.27 22.25 46.65 22.52 46 22.77 45.33 22.9 44.64 23.05 43.94 23.06 43.23 23.13 42.53 23.1 41.82 23.14 41.11 23.2 40.4 23.16 39.68 23.15 38.97 23.19 38.2 23.46 37.5 24.16 37.17 24.89 37.47 25.19 38.2 25.2 38.96 25.12 39.7 25.18 40.43 25.17 41.16 25.17 41.9 25.08 42.63 25.06 43.36 24.95 44.09 24.84 44.81 24.73 45.53 24.58 46.24 24.29 46.92 24.07 47.61 23.71 48.25 23.29 48.85 22.83 49.41 22.38 49.99 21.85 50.49 21.33 50.99 20.83 51.53 20.25 51.98 19.64 52.38 19.11 52.89 18.47 53.26 17.91 53.74 17.28 54.11 16.7 54.56 16.12 54.73"/>
    <polygon class="cls-1" points="27.41 65.14 27.37 65.18 26.65 64.86 26.44 64.12 26.49 63.42 26.5 62.71 26.54 62.01 26.48 61.3 26.52 60.59 26.58 59.88 26.64 59.18 26.63 58.47 26.62 57.77 26.66 57.06 26.74 56.35 26.72 55.64 26.78 54.93 26.74 54.22 26.78 53.51 26.85 52.8 26.88 52.1 26.83 51.38 26.88 50.68 26.87 50.57 26.26 50.91 25.69 51.32 25.14 51.75 24.59 52.19 24.05 52.63 23.53 53.09 23.01 53.56 22.48 54.02 21.96 54.49 21.4 54.92 20.89 55.39 20.34 55.83 19.86 56.34 19.33 56.8 18.85 57.31 18.32 57.77 17.77 58.22 17.27 58.73 16.56 59.01 15.89 58.67 15.6 57.98 15.89 57.26 16.41 56.75 16.95 56.25 17.47 55.75 18.06 55.32 18.55 54.78 19.08 54.29 19.61 53.79 20.18 53.35 20.7 52.85 21.28 52.41 21.83 51.94 22.37 51.46 22.9 50.97 23.5 50.56 24.02 50.07 24.61 49.65 25.22 49.26 25.86 48.92 26.49 48.58 27.18 48.47 27.86 48.61 28.54 49.08 28.83 49.86 28.83 50.68 28.91 51.39 28.82 52.1 28.86 52.81 28.79 53.52 28.81 54.23 28.77 54.94 28.74 55.65 28.69 56.36 28.7 57.07 28.63 57.79 28.68 58.5 28.62 59.22 28.61 59.94 28.54 60.65 28.48 61.36 28.46 62.07 28.42 62.78 28.45 63.49 28.44 64.2 28.13 64.91 27.41 65.14"/>
    <polygon class="cls-1" points="16.95 65.19 16.46 65 16.01 64.41 16.06 63.65 16.45 63.03 16.81 62.4 17.19 61.78 17.61 61.19 17.99 60.58 18.38 59.96 18.84 59.4 19.26 58.8 19.7 58.23 20.2 57.7 20.69 57.17 21.18 56.63 21.71 56.14 22.22 55.62 22.8 55.18 23.41 54.8 24.06 54.49 24.73 54.25 25.48 54.42 25.87 55.1 25.65 55.84 25 56.25 25 56.24 24.4 56.56 23.82 56.94 23.26 57.36 22.74 57.84 22.28 58.37 21.79 58.87 21.34 59.4 20.9 59.95 20.48 60.51 20.08 61.09 19.68 61.66 19.29 62.25 18.92 62.85 18.56 63.45 18.2 64.06 17.84 64.67 16.95 65.19"/>
  </g>
</svg>