<?xml version="1.0" encoding="UTF-8"?>
<svg id="_图层_2" data-name="图层 2" xmlns="http://www.w3.org/2000/svg" viewBox="0 0 37.11 71.02">
  <defs>
    <style>
      .cls-1 {
        fill: #5a0f00;
      }
    </style>
  </defs>
  <g id="_图层_1-2" data-name="图层 1">
    <path class="cls-1" d="M1.18,8.96C1.18,27.15,1.73-1.27,1.73,3.73s1.54,7.9,1.54,12.09,1.02-7.75,1.02-9.86,5.79-4.16,5.79,5.79,1.19-3.77,1.19-7.49,10.73-2.06,10.16,5.72c0,0,.64-.02.96-2.71.51-4.34,9.26-9.8,9.76-1.47,0,0,.65.26.52-1.05s3.33-4.29,4.15-.47l.27-2-.68-2.27L2.5.74,0,3.37l1.18,5.59Z"/>
    <path class="cls-1" d="M30.87,1.32c.06.92.29,1.85.28,2.79-.04,5.74-1.4,10.84-2.22,16.13-.2,1.31-.5,7.11-.94,7.54-.73.74-.34-.45-.97,1.3-.04.11-.22.07-.18.09,1.68.91-.28,1.56-.26,1.7,0,.07.28,1.14.31,1.19.13.26.32.11.36.19.19.31.16,2.33,1.13,1.38.59-.58.23-1.87.29-2.1.04-.13.35-.1.36-.13.02-.05-.09-1.26.37-.83-.42-.6,0-.66,0-.71s-.12-.89-.13-.93c0-.03-.21-.17-.28-.43-.01-.04.14-.24.11-.29-.02-.04-.2.08-.28-.12-.72-1.9.76-7.58.73-9.84.21-.32.57-3.8.68-3.78s-.02,3.55-.01,3.93c.05,1.39.31,3.04.29,4.41,0,.66-.2,1.12-.19,1.66,0,.39.17.57.17.81,0,.33-.31,1.47-.34,2.17-.09,1.82-.03,3.09-.26,5.06-.11.97-.84,3.42-.21,3.64.91.31.21-1.79.21-2.43,0-1.24.45-3.75.54-5.25.02-.42-.15-1.35-.04-1.85.05-.24.24-.15.29-.39.03-.14-.13-1.52.13-.99.07.14.13,3.39.12,3.84-.03.64-.29,1.14-.24,1.79.06.76.46.71.49.78.04.11-.09,2.39-.13,2.62-.05.37-.38.46-.35,1.2.02.43.27.59.3.72,0,.03-.2.44-.04.74.09.16.3.1.34.17.09.19.18.95.53,1.05.53.15.97-.62.94-1.64,0-.16-.31-1.01-.29-1.39.02-.53.28-1.02.31-1.66.04-.81-.13-2-.13-2.85,0-.31.22-.39.13-.76-.05-.22-.19.52-.28.12-.06-.25-.16-1.31-.19-1.66-.32-3.39-.7-8.52-.44-11.88.05-.6.27-.49.29-.86.02-.22-.14-.13-.13-.34.04-.97.01-1.73.03-2.56.01-.49.73-2.76.75-3.7.02-.58-.2-1.14-.21-1.21,0-.18.29-1.19.09-1.46-.21-.29-.37.2-.42.52-.17,1.17-.37,3.7-.44,5.09-.04.8.17,1.74,0,2.83-.03.21-.22.08-.23.25-.02.34.18.07.18.23,0,1.19-.37,3.23-.37,4.27.01,2.06.52,7.65.7,10.05.05.68.38,1.48.4,2.52.02.57-.08,2.3-.26,2.72-.06.13-.71.77-.75.75-.03-.01-.26-.98-.26-1.03-.03-.35.02-2.21.05-2.57.06-.59.33-.57.31-1.31s-.43-.7-.49-1.43c-.04-.5.09-.94.06-1.4-.04-.63-.27-2.12-.23-2.61.03-.3.65-1.06-.2-1.81.02-2.5-.72-6.04-.34-8.44.05-.32.26-.36.27-.54,0-.12-.26-.66-.16-1.73.14-1.51.51-3.14.67-4.86.03-.34.24-.98.23-1.22-.01-.31-.2-.12-.19-.58,0-.04.12-.02.13-.23.02-.46-.07-1.2-.07-1.64,0-.12.18-.08.19-.37.02-.62-.63-1.73-.31-2.43h-.31Z"/>
    <path class="cls-1" d="M11.8,1.5c-.31,1.48-1.03,3.77-1.18,5.32-.71,7.62-2.1,18.25-2.27,25.88-.05,2.3.2,5.14.16,7.52-.01.63-.27,1.05-.22,1.55.14,1.42,1.35.16,1.01-.57-.23-.51-.37.22-.49-1.15-.38-4.26-.15-12.11.37-16.32.03-.24.24-2.46.44-2.12.18.31.23,8.19.38,9.33-.45,3.77,0,8.12-.15,11.73-.03.63-.76,3.02.41,2.98.63-.02.55-.77.68-1.29.06-.25.28-.26.25-.54-.02-.21-.26.14-.3.07-.03-.05-.41-1.06-.43-1.12-1.04-3.62-.16-11.55-.24-15.75-.05-2.39-.57-6.01-.54-8.39.03-1.69.67-3.46.82-4.79.09-.78-.02-2.48.02-2.98.1-1.18.25-3.52.38-4.5.2-1.5.82-3.37,1.11-4.88h-.22Z"/>
    <path class="cls-1" d="M4.94,1.5h-.47c-.69,2.81,1.33,2.18.47,0Z"/>
    <path class="cls-1" d="M36.67,16.51v-1.65c-.92-.91-.85,2.58,0,1.65Z"/>
    <path class="cls-1" d="M36.67,24.38v-1.83c-.75-.05-.63,1.76,0,1.83Z"/>
    <path class="cls-1" d="M36.67,4.61c-.23.32-.23.79,0,1.1v-1.1Z"/>
    <path class="cls-1" d="M36.67,18.71v-.37c-.3-.1-.27.49,0,.37Z"/>
    <path class="cls-1" d="M33.7,24.43s-.22.08-.16-.41c0-.07.26.49.37-1.02.13-1.76-.48-3.75-.73-1.22-.12,1.17.1,2.36.02,3.53-.14,2.09-.52,4.09-.51,6.22.63-.98.43-3.05.59-4.62.12-1.1.38-1.21.42-2.48Z"/>
    <path class="cls-1" d="M32.39,38.82c.38-.4.39-5.51.25-6.56-.2.68-1.29,7.67-.25,6.56Z"/>
    <path class="cls-1" d="M12.22,43.76c.34-.4.26-2.84-.59-2.73-.37.05-.57,2.27-.34,2.76.03.07.89.02.93-.03Z"/>
    <path class="cls-1" d="M35.05,1.68c-.49-.61-.53,2.61-.57,2.75-.02.06-.93.05-.19.64,1.12.89.92-3.18.75-3.39Z"/>
    <path class="cls-1" d="M24.49,28.67c.49-1.33.32-2.06.34-3.73-.3.84-1.38,6.57-.34,3.73Z"/>
    <path class="cls-1" d="M25.68,21.09c-.04-.06-.73.13-.75.19-.03.09.04,2.08.11,2.16.63.82.84-2.03.65-2.35Z"/>
    <path class="cls-1" d="M36,11.57c.06-.36.31-.58.27-1.15-.11-1.39-1.13-.72-1.01.46.1,1.02.48.53.74.69-.07.43-.2.43-.19.46.23.89,1.09.08.19-.46Z"/>
    <path class="cls-1" d="M5.29,9.6c-.42-.73-1.2-.05-.68,1.23.35.87,1.06-.57.68-1.23Z"/>
    <path class="cls-1" d="M6.71,12.09c.46.23.85-.78.44-1.42-.54-.87-1.18,1.05-.44,1.42Z"/>
    <path class="cls-1" d="M13.34,58.75c.45-.88-.39-2.01-.69-1.05s.38,1.65.69,1.05Z"/>
    <path class="cls-1" d="M8.61,3.66c.63.41.65-1.15.24-1.4-.45-.28-.7,1.1-.24,1.4Z"/>
    <path class="cls-1" d="M27.05,45.74c.55.04.54-1.72-.09-1.41-.43.22-.28,1.38.09,1.41Z"/>
    <path class="cls-1" d="M31.84,40.49c-.06.08-.28,2.32.05,2.37s.34-2.95-.05-2.37Z"/>
    <path class="cls-1" d="M6.45,5.34c-.28-1.57-.48-1.4-1.14-.54l1.14.54Z"/>
    <path class="cls-1" d="M9.78,5.73c-.21.24,0,1.32.32,1.08.36-.28.06-1.51-.32-1.08Z"/>
    <path class="cls-1" d="M9.7,10.15c-.25.47.12,1.2.3,1.04.37-.33.03-1.67-.3-1.04Z"/>
    <path class="cls-1" d="M27.29,55.69c-.14-.15-.54.23-.43.74.19.91.75-.39.43-.74Z"/>
    <path class="cls-1" d="M34.2,11.94c-.05-.09-1.07.55-.85.91.07.12,1.1-.47.85-.91Z"/>
    <path class="cls-1" d="M5.31,3.52c-.05-.19-.45-.12-.46.29-.03.89.7.64.46-.29Z"/>
    <path class="cls-1" d="M9,7.33c.07-.09.07-.78,0-.87-.52-.64-.52,1.51,0,.87Z"/>
    <path class="cls-1" d="M11.19,39.94c.05.1.48.05.47-.45-.02-.88-.77-.13-.47.45Z"/>
    <path class="cls-1" d="M34.96,12.29c.33-.9-.84-.61-.57.19.02.05.55-.14.57-.19Z"/>
    <path class="cls-1" d="M7.1,2.62c-.52-.59-.51,1.34.02.63.12-.16,0-.6-.02-.63Z"/>
    <path class="cls-1" d="M9.39,13.58c.04-.08.08-.99-.24-.73-.41.33.03,1.13.24.73Z"/>
    <path class="cls-1" d="M5.13,5.34c-.25.45.28,1.21.38.45.05-.37-.3-.59-.38-.45Z"/>
    <path class="cls-1" d="M34.48,13.74s-.06-.58.39-.25l-.52-.64c-.24.4-.13.92.13.89Z"/>
    <path class="cls-1" d="M34.86,17.61c.07-.46-.49-.97-.57-.45-.07.44.46.31.57.45Z"/>
    <path class="cls-1" d="M32.12,15.05c.07-.16.1-.87-.19-.91-.32-.04.02,1.33.19.91Z"/>
    <path class="cls-1" d="M25.87,52.39s-.12.85-.1.91c.24.53.39-1.2.1-.91Z"/>
    <path class="cls-1" d="M29.94,9c.15-.34-.12-1.12-.28-.73-.12.3.18.96.28.73Z"/>
    <path class="cls-1" d="M34.96,5.52c-.13-.74-.9.08-.44.17.11.02.3-.21.44-.17Z"/>
    <path class="cls-1" d="M7.31,10.29c.12-.22-.24-.78-.38-.55-.12.22.24.78.38.55Z"/>
    <path class="cls-1" d="M7.97,15.05c-.19-.28-.37.64-.14.73.25.09.23-.6.14-.73Z"/>
    <path class="cls-1" d="M34.39,14.86c.11.77-.28.52-.29.55-.14.57.86.1.29-.55Z"/>
    <path class="cls-1" d="M32.21,13.21c.04.08.25-.24.28-.18.02.05-.09,1.8.28.27.13-.52-.88-.72-.57-.09Z"/>
    <path class="cls-1" d="M33.63,6.07c.15-.29-.13-.84-.28-.55s.13.84.28.55Z"/>
    <path class="cls-1" d="M7.69,4.43c.15-.29-.13-.84-.28-.55s.13.84.28.55Z"/>
    <path class="cls-1" d="M5.79,3.33c.15-.29-.13-.84-.28-.55s.13.84.28.55Z"/>
    <path class="cls-1" d="M35.53,17.97c.09-.21-.17-.71-.28-.55-.17.25.15.87.28.55Z"/>
    <path class="cls-1" d="M32.21,7.54s-.34-.16-.28.27c.06.49.38.06.28-.27Z"/>
    <path class="cls-1" d="M32.21,7.17s.08-.65-.14-.55c-.25.12-.03.73.14.55Z"/>
    <path class="cls-1" d="M36.48,20.54s.08-.65-.14-.55c-.25.12-.03.73.14.55Z"/>
    <path class="cls-1" d="M34.87,10.29s.08-.65-.14-.55c-.25.12-.03.73.14.55Z"/>
    <path class="cls-1" d="M6.83,3.88c.25-.49-.53-.49-.28,0,.01.02.27.02.28,0Z"/>
    <path class="cls-1" d="M6.83,15.23c.25-.49-.53-.49-.28,0,.01.02.27.02.28,0Z"/>
    <path class="cls-1" d="M5.6,6.62c.22-.26-.23-.51-.38-.36-.02.28.35.4.38.36Z"/>
    <path class="cls-1" d="M7.59,20.9c.06-.11-.08-.54-.14-.54-.26-.03,0,.83.14.54Z"/>
    <path class="cls-1" d="M32.59,10.1s0-.53,0-.55c-.25-.49-.25,1.03,0,.55Z"/>
    <path class="cls-1" d="M30.32,13.22c-.08.02-.26-.04-.28,0-.16.31.19.63.28,0Z"/>
    <path class="cls-1" d="M33.82,3.7c-.1-.31-.27.24-.19.55.12-.02.24-.38.19-.55Z"/>
    <path class="cls-1" d="M30.98,8.64c.06-.17-.07-.53-.19-.55-.09.31.08.86.19.55Z"/>
    <path class="cls-1" d="M33.73,11.02c.16-.2-.12-.53-.28-.36.01.23.2.47.28.36Z"/>
    <path class="cls-1" d="M35.91,16.33c.15-.34-.25-.64-.19-.09.02.17.18.11.19.09Z"/>
    <path class="cls-1" d="M30.13,7.72c.08-.25-.3-.45-.28-.09,0,.16.28.11.28.09Z"/>
    <path class="cls-1" d="M5.22,19.07c.15-.34-.25-.64-.19-.09.02.17.18.11.19.09Z"/>
    <path class="cls-1" d="M36,20.72c.15-.34-.25-.64-.19-.09.02.17.18.11.19.09Z"/>
    <path class="cls-1" d="M5.6,17.06c.15-.34-.25-.64-.19-.09.02.17.18.11.19.09Z"/>
    <path class="cls-1" d="M4.94,4.98c-.13-.15-.23.58-.05.55.08-.01.06-.53.05-.55Z"/>
    <path class="cls-1" d="M34.2,5.16s-.28-.07-.28.09c-.02.36.36.17.28-.09Z"/>
    <path class="cls-1" d="M33.07,15.41c.15-.34-.25-.64-.19-.09.02.17.18.11.19.09Z"/>
    <path class="cls-1" d="M34.87,22.74s-.28-.07-.28.09c-.02.36.36.17.28-.09Z"/>
    <path class="cls-1" d="M36.29,17.79c.15-.34-.25-.64-.19-.09.02.17.18.11.19.09Z"/>
    <path class="cls-1" d="M34.96,14.5c.15-.34-.25-.64-.19-.09.02.17.18.11.19.09Z"/>
    <path class="cls-1" d="M7.88,17.79s-.04.53.05.55c.19.03.09-.7-.05-.55Z"/>
    <path class="cls-1" d="M6.36,9c.15-.34-.25-.64-.19-.09.02.17.18.11.19.09Z"/>
    <path class="cls-1" d="M31.27,18.71c.15-.34-.25-.64-.19-.09.02.17.18.11.19.09Z"/>
    <path class="cls-1" d="M6.26,7.17c.15-.34-.25-.64-.19-.09.02.17.18.11.19.09Z"/>
    <path class="cls-1" d="M35.43,16.14c.15-.34-.25-.64-.19-.09.02.17.18.11.19.09Z"/>
    <path class="cls-1" d="M7.78,8.27c-.13-.15-.23.58-.05.55.08-.01.06-.53.05-.55Z"/>
    <path class="cls-1" d="M33.82,8.45c.15-.34-.25-.64-.19-.09.02.17.18.11.19.09Z"/>
    <path class="cls-1" d="M34.39,16.33s.04-.37-.05-.36c-.17.01-.17.68.05.36Z"/>
    <path class="cls-1" d="M36.48,35.55c.17-.21-.45-.24-.28,0,.01.02.27.02.28,0Z"/>
    <path class="cls-1" d="M31.27,30.06c.02-.06-.01-.14-.05-.18-.12-.27-.16-.27-.14.09,0,.17.18.11.19.09Z"/>
    <path class="cls-1" d="M33.16,13.77c-.11-.33-.12.87,0,.55,0-.03.01-.51,0-.55Z"/>
    <rect class="cls-1" x="33.73" y="27.68" width=".09" height=".36"/>
    <rect class="cls-1" x="24.83" y="24.38" width=".09" height=".36"/>
    <rect class="cls-1" x="7.88" y="22.92" width=".19" height=".18"/>
    <rect class="cls-1" x="7.31" y="21.09" width=".09" height=".36"/>
    <rect class="cls-1" x="34.87" y="20.54" width=".19" height=".18"/>
    <rect class="cls-1" x="6.17" y="7.73" width=".19" height=".18"/>
    <rect class="cls-1" x="6.74" y="19.62" width=".09" height=".36"/>
    <rect class="cls-1" x="36" y="18.89" width=".19" height=".18"/>
    <rect class="cls-1" x="33.83" y="17.61" width=".09" height=".36"/>
    <rect class="cls-1" x="7.78" y="16.7" width=".19" height=".18"/>
    <rect class="cls-1" x="32.88" y="16.33" width=".09" height=".36"/>
    <rect class="cls-1" x="31.55" y="15.23" width=".09" height=".36"/>
    <rect class="cls-1" x="34.96" y="14.86" width=".09" height=".36"/>
    <rect class="cls-1" x="5.13" y="14.32" width=".09" height=".36"/>
    <rect class="cls-1" x="35.06" y="13.58" width=".09" height=".36"/>
    <rect class="cls-1" x="35.34" y="21.46" width=".19" height=".18"/>
    <rect class="cls-1" x="8.73" y="13.22" width=".19" height=".18"/>
    <rect class="cls-1" x="35.25" y="12.48" width=".09" height=".36"/>
    <rect class="cls-1" x="35.06" y="12.3" width=".09" height=".36"/>
    <polygon class="cls-1" points="7.26 13.76 7.31 13.67 7.26 13.58 7.26 13.76"/>
    <polygon class="cls-1" points="35.58 4.61 35.62 4.52 35.58 4.43 35.58 4.61"/>
    <polygon class="cls-1" points="33.49 18.71 33.54 18.62 33.49 18.52 33.49 18.71"/>
    <polygon class="cls-1" points="6.41 20.54 6.45 20.45 6.41 20.36 6.41 20.54"/>
    <polygon class="cls-1" points="35.29 13.76 35.34 13.67 35.29 13.58 35.29 13.76"/>
    <polygon class="cls-1" points="6.98 14.31 7.02 14.22 6.98 14.13 6.98 14.31"/>
    <polygon class="cls-1" points="36.33 3.88 36.38 3.79 36.33 3.7 36.33 3.88"/>
    <polygon class="cls-1" points="35.67 12.85 35.72 12.76 35.67 12.67 35.67 12.85"/>
    <polygon class="cls-1" points="35.86 7.91 35.91 7.81 35.86 7.72 35.86 7.91"/>
    <polygon class="cls-1" points="5.27 7.72 5.32 7.63 5.27 7.54 5.27 7.72"/>
    <polygon class="cls-1" points="6.79 16.69 6.83 16.6 6.79 16.51 6.79 16.69"/>
    <polygon class="cls-1" points="32.07 39.76 32.12 39.67 32.07 39.58 32.07 39.76"/>
    <polygon class="cls-1" points="35.58 22.19 35.62 22.09 35.58 22 35.58 22.19"/>
    <polygon class="cls-1" points="33.78 13.58 33.82 13.49 33.78 13.4 33.78 13.58"/>
    <polygon class="cls-1" points="34.44 24.75 34.49 24.66 34.44 24.57 34.44 24.75"/>
    <polygon class="cls-1" points="33.68 11.93 33.73 11.84 33.68 11.75 33.68 11.93"/>
    <polygon class="cls-1" points="36.52 25.66 36.57 25.57 36.52 25.48 36.52 25.66"/>
    <polygon class="cls-1" points="34.72 11.38 34.77 11.29 34.72 11.2 34.72 11.38"/>
    <polygon class="cls-1" points="35.39 26.95 35.43 26.85 35.39 26.76 35.39 26.95"/>
    <polygon class="cls-1" points="33.68 26.95 33.73 26.85 33.68 26.76 33.68 26.95"/>
    <polygon class="cls-1" points="36.33 32.44 36.38 32.35 36.33 32.26 36.33 32.44"/>
    <polygon class="cls-1" points="35.1 10.65 35.15 10.56 35.1 10.47 35.1 10.65"/>
    <path class="cls-1" d="M4.02,2.07c-.11.7-.14,1.75-.25,2.4-.37,2.19-1.48,6.56-1.63,8.64-.05.63.49,3.11.57,4.02.23,2.49.99,9.44.84,11.54-.06.88-.44,1.93-.51,2.87-.04.49.22,3.86-.36,3.74-.05-.01-.07-.42-.27-.54-.92-.52.2,2.29,0,2.76-.04.09-.8,0-.76,1.54.05,1.91,1.99,1.29,2.22,1.72.05.1-.14,2.29.13,2.71-.13,1.16-.81,3.7.37,3.67,1.28-.03.24-2.38.14-2.94-.29-1.59-.21-3.28-.26-4.84,0-.29-.25-.74-.22-1.04.12-1.15.19.53.21.59.21.58.68.09.74.51.01.08-.43,1.36.09,1.47.16.03.21-.45.37-.43.05,0,.57,1.44.85-.14.2-1.14-.28-.69-.35-.99-.06-.25.15-1.41-.13-1.89.64-1.61,0-2.28-.12-3.38-.09-.95.12-5.09.22-6.2.23-2.55.77-5.11,1.19-7.56,0,7.62.22,15.4-.46,22.9-.02.27.14.6.13.74-.18,1.94-1.18,1.33-1.24,2.99-.09,2.54,1.94,2.78,1.86.1-.01-.48-.24-.76-.26-1.05-.12-1.59-.23-3.02-.02-4.62.52.38-.09,1.96.5,2.08.66.13.02-1.69.38-1.78.25-.06.25.85.27.88.28.39.84.72,1.12.11.5-1.09-.21-1.41-.34-2.14-.04-.22.06-.66.03-.98-.04-.4-.29-.75-.24-1.31.08-.86.45-.42.54-1.01.07-.45-.09-.82-.03-1.23.29-2,1.34-7.54,1.36-9.24.01-1.07-.41-3.06-.46-4.14s.15-2.45.08-3.83c-.13-2.5-1.32-8.75-.52-10.67.2-.47.54-.53.59-.78.06-.29.09-2.17.19-2.77.12-.73.66-1.5.59-2.47h-.08c-.14,1.31-1.27,3.22-1.44,4.26-.82,4.93.2,8.85.44,13.9.34,6.91.02,11.25-1.41,17.42-.23.99-.38.82-.58,1.29-.14.34-.07.75-.18.94-.33.59-.32-.62-.73-.69l.14-8.96c.07.33.54,2.18.54,2.31,0,.23-.35.52-.38,1.19-.15,3.35,2.6,1.45,1.38-.92-.42-.82-.83-.38-1.17-1.89-.44-2-.48-10.6-.36-12.91.26-5.06,1.19-4.95.42-10.62-.31-2.22-.21-3.1.11-5.33h-.46l-.19,1.63c-.21-.49-.06-1.12.04-1.63h-.69c.45,1.49.45,3.04.68,4.53.37,2.37.82,2.48.61,5.6-.39,5.9-2.08,12.86-2.66,18.58-.08.79.14,1.95-.11,2.89-.07.27-.95,1.65-1.09,1.6-.38-.11-.71-1.81-.72-2.47-.03-1.31.38-2.69.45-3.85.2-3.25-.52-8.04-.76-11.4-.06-.83.07-2.13,0-2.8-.07-.62-.31-.67-.33-.87-.4-3.4,1.55-8.31,1.64-11.81h-.23ZM7.13,41.05v-.15l.04.07-.04.07ZM7.13,40.76v-.15l.04.07-.04.07ZM8.2,40.76v-.15l.04.07-.04.07ZM7.17,40.01c.11-.12.19.47.04.44-.07-.01-.05-.43-.04-.44ZM4.86,37.79c-.61.27-.74-.86-.17-.33.07.07.16.16.17.33Z"/>
    <path class="cls-1" d="M26.17,16.51v-1.65c-.92-.91-.85,2.58,0,1.65Z"/>
    <path class="cls-1" d="M26.17,24.38v-1.83c-.75-.05-.63,1.76,0,1.83Z"/>
    <path class="cls-1" d="M26.17,4.61c-.23.32-.23.79,0,1.1v-1.1Z"/>
    <path class="cls-1" d="M26.17,18.71v-.37c-.3-.1-.27.49,0,.37Z"/>
    <path class="cls-1" d="M23.21,24.43s-.22.08-.16-.41c0-.07.26.49.37-1.02.13-1.76-.48-3.75-.73-1.22-.12,1.17.1,2.36.02,3.53-.14,2.09-.52,4.09-.51,6.22.63-.98.43-3.05.59-4.62.12-1.1.38-1.21.42-2.48Z"/>
    <path class="cls-1" d="M21.9,38.82c.38-.4.39-5.51.25-6.56-.2.68-1.29,7.67-.25,6.56Z"/>
    <path class="cls-1" d="M24.56,1.68c-.49-.61-.53,2.61-.57,2.75-.02.06-.93.05-.19.64,1.12.89.92-3.18.75-3.39Z"/>
    <path class="cls-1" d="M13.99,28.67c.49-1.33.32-2.06.34-3.73-.3.84-1.38,6.57-.34,3.73Z"/>
    <path class="cls-1" d="M15.19,21.09c-.04-.06-.73.13-.75.19-.03.09.04,2.08.11,2.16.63.82.84-2.03.65-2.35Z"/>
    <path class="cls-1" d="M25.51,11.57c.06-.36.31-.58.27-1.15-.11-1.39-1.13-.72-1.01.46.1,1.02.48.53.74.69-.07.43-.2.43-.19.46.23.89,1.09.08.19-.46Z"/>
    <path class="cls-1" d="M16.56,45.74c.55.04.54-1.72-.09-1.41-.43.22-.28,1.38.09,1.41Z"/>
    <path class="cls-1" d="M21.34,40.49c-.06.08-.28,2.32.05,2.37s.34-2.95-.05-2.37Z"/>
    <path class="cls-1" d="M16.8,55.69c-.14-.15-.54.23-.43.74.19.91.75-.39.43-.74Z"/>
    <path class="cls-1" d="M23.71,11.94c-.05-.09-1.07.55-.85.91.07.12,1.1-.47.85-.91Z"/>
    <path class="cls-1" d="M24.47,12.29c.33-.9-.84-.61-.57.19.02.05.55-.14.57-.19Z"/>
    <path class="cls-1" d="M23.98,13.74s-.06-.58.39-.25l-.52-.64c-.24.4-.13.92.13.89Z"/>
    <path class="cls-1" d="M24.37,17.61c.07-.46-.49-.97-.57-.45-.07.44.46.31.57.45Z"/>
    <path class="cls-1" d="M21.63,15.05c.07-.16.1-.87-.19-.91-.32-.04.02,1.33.19.91Z"/>
    <path class="cls-1" d="M15.38,52.39s-.12.85-.1.91c.24.53.39-1.2.1-.91Z"/>
    <path class="cls-1" d="M19.45,9c.15-.34-.12-1.12-.28-.73-.12.3.18.96.28.73Z"/>
    <path class="cls-1" d="M24.47,5.52c-.13-.74-.9.08-.44.17.11.02.3-.21.44-.17Z"/>
    <path class="cls-1" d="M23.9,14.86c.11.77-.28.52-.29.55-.14.57.86.1.29-.55Z"/>
    <path class="cls-1" d="M21.72,13.21c.04.08.25-.24.28-.18.02.05-.09,1.8.28.27.13-.52-.88-.72-.57-.09Z"/>
    <path class="cls-1" d="M23.14,6.07c.15-.29-.13-.84-.28-.55s.13.84.28.55Z"/>
    <path class="cls-1" d="M25.04,17.97c.09-.21-.17-.71-.28-.55-.17.25.15.87.28.55Z"/>
    <path class="cls-1" d="M21.72,7.54s-.34-.16-.28.27c.06.49.38.06.28-.27Z"/>
    <path class="cls-1" d="M21.72,7.17s.08-.65-.14-.55c-.25.12-.03.73.14.55Z"/>
    <path class="cls-1" d="M25.98,20.54s.08-.65-.14-.55c-.25.12-.03.73.14.55Z"/>
    <path class="cls-1" d="M24.37,10.29s.08-.65-.14-.55c-.25.12-.03.73.14.55Z"/>
    <path class="cls-1" d="M22.1,10.1s0-.53,0-.55c-.25-.49-.25,1.03,0,.55Z"/>
    <path class="cls-1" d="M19.83,13.22c-.08.02-.26-.04-.28,0-.16.31.19.63.28,0Z"/>
    <path class="cls-1" d="M23.33,3.7c-.1-.31-.27.24-.19.55.12-.02.24-.38.19-.55Z"/>
    <path class="cls-1" d="M20.49,8.64c.06-.17-.07-.53-.19-.55-.09.31.08.86.19.55Z"/>
    <path class="cls-1" d="M23.24,11.02c.16-.2-.12-.53-.28-.36.01.23.2.47.28.36Z"/>
    <path class="cls-1" d="M25.41,16.33c.15-.34-.25-.64-.19-.09.02.17.18.11.19.09Z"/>
    <path class="cls-1" d="M19.64,7.72c.08-.25-.3-.45-.28-.09,0,.16.28.11.28.09Z"/>
    <path class="cls-1" d="M25.51,20.72c.15-.34-.25-.64-.19-.09.02.17.18.11.19.09Z"/>
    <path class="cls-1" d="M23.71,5.16s-.28-.07-.28.09c-.02.36.36.17.28-.09Z"/>
    <path class="cls-1" d="M22.57,15.41c.15-.34-.25-.64-.19-.09.02.17.18.11.19.09Z"/>
    <path class="cls-1" d="M24.37,22.74s-.28-.07-.28.09c-.02.36.36.17.28-.09Z"/>
    <path class="cls-1" d="M25.79,17.79c.15-.34-.25-.64-.19-.09.02.17.18.11.19.09Z"/>
    <path class="cls-1" d="M24.47,14.5c.15-.34-.25-.64-.19-.09.02.17.18.11.19.09Z"/>
    <path class="cls-1" d="M20.77,18.71c.15-.34-.25-.64-.19-.09.02.17.18.11.19.09Z"/>
    <path class="cls-1" d="M24.94,16.14c.15-.34-.25-.64-.19-.09.02.17.18.11.19.09Z"/>
    <path class="cls-1" d="M23.33,8.45c.15-.34-.25-.64-.19-.09.02.17.18.11.19.09Z"/>
    <path class="cls-1" d="M23.9,16.33s.04-.37-.05-.36c-.17.01-.17.68.05.36Z"/>
    <path class="cls-1" d="M25.98,35.55c.17-.21-.45-.24-.28,0,.01.02.27.02.28,0Z"/>
    <path class="cls-1" d="M20.77,30.06c.02-.06-.01-.14-.05-.18-.12-.27-.16-.27-.14.09,0,.17.18.11.19.09Z"/>
    <path class="cls-1" d="M22.67,13.77c-.11-.33-.12.87,0,.55,0-.03.01-.51,0-.55Z"/>
    <rect class="cls-1" x="23.24" y="27.68" width=".09" height=".36"/>
    <rect class="cls-1" x="14.34" y="24.38" width=".09" height=".36"/>
    <rect class="cls-1" x="24.37" y="20.54" width=".19" height=".18"/>
    <rect class="cls-1" x="25.51" y="18.89" width=".19" height=".18"/>
    <rect class="cls-1" x="23.33" y="17.61" width=".09" height=".36"/>
    <rect class="cls-1" x="22.39" y="16.33" width=".09" height=".36"/>
    <rect class="cls-1" x="21.06" y="15.23" width=".09" height=".36"/>
    <rect class="cls-1" x="24.47" y="14.86" width=".09" height=".36"/>
    <rect class="cls-1" x="24.56" y="13.58" width=".09" height=".36"/>
    <rect class="cls-1" x="24.85" y="21.46" width=".19" height=".18"/>
    <rect class="cls-1" x="24.75" y="12.48" width=".09" height=".36"/>
    <rect class="cls-1" x="24.56" y="12.3" width=".09" height=".36"/>
    <polygon class="cls-1" points="25.08 4.61 25.13 4.52 25.08 4.43 25.08 4.61"/>
    <polygon class="cls-1" points="23 18.71 23.05 18.62 23 18.52 23 18.71"/>
    <polygon class="cls-1" points="24.8 13.76 24.85 13.67 24.8 13.58 24.8 13.76"/>
    <polygon class="cls-1" points="25.84 3.88 25.89 3.79 25.84 3.7 25.84 3.88"/>
    <polygon class="cls-1" points="25.18 12.85 25.23 12.76 25.18 12.67 25.18 12.85"/>
    <polygon class="cls-1" points="25.37 7.91 25.41 7.81 25.37 7.72 25.37 7.91"/>
    <polygon class="cls-1" points="21.58 39.76 21.63 39.67 21.58 39.58 21.58 39.76"/>
    <polygon class="cls-1" points="25.08 22.19 25.13 22.09 25.08 22 25.08 22.19"/>
    <polygon class="cls-1" points="23.28 13.58 23.33 13.49 23.28 13.4 23.28 13.58"/>
    <polygon class="cls-1" points="23.95 24.75 23.99 24.66 23.95 24.57 23.95 24.75"/>
    <polygon class="cls-1" points="23.19 11.93 23.24 11.84 23.19 11.75 23.19 11.93"/>
    <polygon class="cls-1" points="26.03 25.66 26.08 25.57 26.03 25.48 26.03 25.66"/>
    <polygon class="cls-1" points="24.23 11.38 24.28 11.29 24.23 11.2 24.23 11.38"/>
    <polygon class="cls-1" points="24.89 26.95 24.94 26.85 24.89 26.76 24.89 26.95"/>
    <polygon class="cls-1" points="23.19 26.95 23.24 26.85 23.19 26.76 23.19 26.95"/>
    <polygon class="cls-1" points="25.84 32.44 25.89 32.35 25.84 32.26 25.84 32.44"/>
    <polygon class="cls-1" points="24.61 10.65 24.66 10.56 24.61 10.47 24.61 10.65"/>
    <path class="cls-1" d="M12.35,1.25c.3,1.44,1,3.67,1.14,5.17.69,7.4,2.04,17.74,2.21,25.16.05,2.24-.2,4.99-.15,7.31.01.61.26,1.02.21,1.51-.14,1.38-1.31.15-.99-.56.23-.49.36.21.48-1.11.37-4.14.15-11.77-.36-15.86-.03-.23-.23-2.4-.43-2.06-.17.31-.23,7.96-.37,9.07.44,3.66,0,7.89.14,11.4.02.62.74,2.93-.4,2.9-.61-.02-.53-.74-.67-1.25-.06-.24-.27-.26-.25-.52.02-.21.25.14.29.07.03-.04.4-1.03.42-1.09,1.01-3.52.15-11.22.23-15.3.05-2.32.56-5.85.52-8.15-.03-1.65-.65-3.36-.8-4.66-.09-.76.02-2.41-.02-2.9-.09-1.14-.24-3.43-.37-4.37-.19-1.46-.8-3.27-1.07-4.75h.22Z"/>
    <path class="cls-1" d="M4.48,33.98c-.26-.31-.2-2.18.45-2.1.29.04.44,1.74.26,2.12-.02.05-.69.01-.72-.02Z"/>
    <path class="cls-1" d="M9.81,7.72c.32-.56.92-.04.52.95-.27.67-.82-.44-.52-.95Z"/>
    <path class="cls-1" d="M8.71,9.64c-.35.18-.65-.6-.34-1.09.42-.66.91.81.34,1.09Z"/>
    <path class="cls-1" d="M7.26,3.16c-.48.31-.5-.89-.19-1.08.35-.21.54.85.19,1.08Z"/>
    <path class="cls-1" d="M8.91,4.45c.21-1.21.37-1.08.87-.42l-.87.42Z"/>
    <path class="cls-1" d="M6.36,4.75c.16.18,0,1.02-.24.83-.28-.22-.05-1.16.24-.83Z"/>
    <path class="cls-1" d="M6.42,8.15c.19.36-.1.92-.23.8-.28-.25-.02-1.28.23-.8Z"/>
    <path class="cls-1" d="M9.79,3.05c.04-.15.35-.09.36.23.02.69-.54.49-.36-.23Z"/>
    <path class="cls-1" d="M6.96,5.98c-.06-.07-.06-.6,0-.67.4-.49.4,1.16,0,.67Z"/>
    <path class="cls-1" d="M5.27,31.04c-.04.08-.37.04-.36-.35.02-.68.59-.1.36.35Z"/>
    <path class="cls-1" d="M6.66,10.78c-.03-.06-.06-.76.18-.56.32.26-.02.87-.18.56Z"/>
    <path class="cls-1" d="M9.93,4.45c.19.34-.21.93-.29.35-.04-.28.23-.45.29-.35Z"/>
    <path class="cls-1" d="M8.26,8.25c-.09-.17.19-.6.29-.42.09.17-.19.6-.29.42Z"/>
    <path class="cls-1" d="M7.75,11.91c.14-.22.28.49.11.56-.19.07-.17-.46-.11-.56Z"/>
    <path class="cls-1" d="M7.97,3.75c-.12-.22.1-.64.22-.42s-.1.64-.22.42Z"/>
    <path class="cls-1" d="M10.3,3.47c.04-.08.21.11.22.21.01.38-.33.01-.22-.21Z"/>
    <path class="cls-1" d="M10.37,5.58c.04.08-.06.41-.11.42-.2.02,0-.64.11-.42Z"/>
    <path class="cls-1" d="M8.62,3.33c-.19-.37.41-.37.22,0,0,.01-.21.01-.22,0Z"/>
    <path class="cls-1" d="M8.62,12.05c-.19-.37.41-.37.22,0,0,.01-.21.01-.22,0Z"/>
    <path class="cls-1" d="M9.57,5.44c-.17-.2.18-.39.29-.28.02.21-.27.31-.29.28Z"/>
    <path class="cls-1" d="M8.04,16.41c-.04-.08.06-.41.11-.42.2-.02,0,.64-.11.42Z"/>
    <path class="cls-1" d="M9.86,15c-.11-.26.19-.49.15-.07-.02.13-.14.09-.15.07Z"/>
    <path class="cls-1" d="M9.57,13.46c-.11-.26.19-.49.15-.07-.02.13-.14.09-.15.07Z"/>
    <path class="cls-1" d="M10.08,4.17c.1-.11.18.44.04.42-.06-.01-.04-.41-.04-.42Z"/>
    <path class="cls-1" d="M10.22,17.54c-.11-.26.19-.49.15-.07-.02.13-.14.09-.15.07Z"/>
    <path class="cls-1" d="M7.82,14.02s.03.41-.04.42c-.14.02-.07-.54.04-.42Z"/>
    <path class="cls-1" d="M8.99,7.27c-.11-.26.19-.49.15-.07-.02.13-.14.09-.15.07Z"/>
    <path class="cls-1" d="M9.06,5.86c-.11-.26.19-.49.15-.07-.02.13-.14.09-.15.07Z"/>
    <path class="cls-1" d="M7.9,6.7c.1-.11.18.44.04.42-.06-.01-.04-.41-.04-.42Z"/>
    <path class="cls-1" d="M10.59,5.72c.09-.25.09.67,0,.42,0-.02,0-.4,0-.42Z"/>
    <rect class="cls-1" x="7.68" y="17.96" width=".14" height=".14"/>
    <rect class="cls-1" x="8.19" y="16.55" width=".07" height=".28"/>
    <rect class="cls-1" x="8.99" y="6.28" width=".14" height=".14"/>
    <rect class="cls-1" x="8.62" y="15.43" width=".07" height=".28"/>
    <rect class="cls-1" x="7.75" y="13.18" width=".14" height=".14"/>
    <rect class="cls-1" x="9.86" y="11.35" width=".07" height=".28"/>
    <rect class="cls-1" x="10.44" y="4.59" width=".07" height=".28"/>
    <rect class="cls-1" x="7.02" y="10.5" width=".14" height=".14"/>
    <polygon class="cls-1" points="10.7 4.17 10.66 4.1 10.7 4.03 10.7 4.17"/>
    <polygon class="cls-1" points="8.29 10.92 8.26 10.85 8.29 10.78 8.29 10.92"/>
    <polygon class="cls-1" points="8.95 16.13 8.91 16.06 8.95 15.99 8.95 16.13"/>
    <polygon class="cls-1" points="8.51 11.35 8.48 11.28 8.51 11.21 8.51 11.35"/>
    <polygon class="cls-1" points="9.82 6.28 9.79 6.21 9.82 6.14 9.82 6.28"/>
    <polygon class="cls-1" points="8.66 13.18 8.62 13.11 8.66 13.03 8.66 13.18"/>
    <path class="cls-1" d="M21.06,1.59c.11,1.73.54,3.48.53,5.25-.08,10.8-2.63,20.43-4.19,30.39-.39,2.46-.95,13.39-1.77,14.21-1.38,1.39-.65-.85-1.83,2.44-.08.21-.31.08-.33.16-.06.23-.52,2.94-.5,3.21.01.12.53,2.16.58,2.24.25.49.6.21.68.35.36.59.31,4.4,2.13,2.59,1.1-1.09.43-3.52.55-3.95.07-.25.66-.19.68-.24.04-.1-.16-2.37.69-1.56-.8-1.14,0-1.25,0-1.34s-.23-1.67-.25-1.75c-.01-.06-.39-.32-.54-.81-.02-.08.26-.45.21-.55-.04-.07-.38.14-.52-.22-1.35-3.58,1.44-14.27,1.38-18.53.39-.61,1.08-7.16,1.28-7.12s-.05,6.69-.02,7.41c.09,2.63.58,5.73.55,8.32-.01,1.25-.39,2.12-.37,3.12.01.74.32,1.07.33,1.53.01.62-.59,2.78-.65,4.09-.16,3.42-.06,5.82-.49,9.53-.21,1.82-1.59,6.44-.39,6.85,1.72.59.39-3.37.4-4.59.01-2.33.84-7.06,1.01-9.88.05-.79-.28-2.55-.07-3.48.1-.45.45-.28.55-.73.06-.26-.25-2.87.24-1.86.13.26.25,6.39.22,7.23-.05,1.2-.55,2.14-.46,3.37.11,1.43.87,1.34.92,1.47.07.21-.18,4.51-.24,4.94-.1.69-.72.87-.67,2.26.03.82.51,1.11.56,1.35.01.07-.38.84-.08,1.4.17.3.57.18.64.32.18.35.33,1.8.99,1.98,1,.28,1.84-1.16,1.77-3.08-.01-.3-.58-1.9-.55-2.62.04-1,.53-1.91.59-3.13.08-1.52-.25-3.77-.25-5.37,0-.59.41-.73.24-1.43-.1-.41-.35.98-.52.22-.11-.47-.3-2.47-.36-3.12-.6-6.38-1.32-16.05-.82-22.37.09-1.13.5-.93.55-1.62.03-.41-.26-.25-.25-.65.08-1.83.02-3.26.06-4.82.02-.93,1.37-5.21,1.41-6.97.03-1.09-.38-2.14-.39-2.28-.01-.34.54-2.25.18-2.76-.39-.55-.7.38-.78.98-.33,2.2-.69,6.96-.82,9.58-.07,1.5.32,3.27-.01,5.33-.06.4-.42.15-.44.47-.04.64.34.14.34.44.01,2.24-.71,6.08-.7,8.04.02,3.88.98,14.42,1.31,18.93.09,1.28.71,2.78.76,4.75.03,1.07-.15,4.32-.49,5.13-.11.25-1.33,1.44-1.41,1.41-.05-.03-.48-1.84-.49-1.94-.06-.65.03-4.17.1-4.84.11-1.11.62-1.08.58-2.46s-.81-1.32-.92-2.7c-.08-.94.17-1.77.11-2.65-.08-1.18-.52-4-.44-4.91.05-.57,1.22-1.99-.37-3.41.05-4.71-1.36-11.38-.64-15.91.1-.61.49-.67.51-1.02.01-.22-.49-1.24-.31-3.27.26-2.85.96-5.91,1.27-9.15.06-.64.46-1.85.44-2.31-.03-.58-.38-.22-.35-1.09,0-.08.23-.04.25-.44.03-.87-.14-2.26-.14-3.09,0-.23.34-.16.36-.69.03-1.16-1.18-3.25-.58-4.59h-.58Z"/>
  </g>
</svg>