<?xml version="1.0" encoding="UTF-8"?>
<svg id="_图层_2" data-name="图层 2" xmlns="http://www.w3.org/2000/svg" viewBox="0 0 8.4 7.67">
  <defs>
    <style>
      .cls-1 {
        fill: #8c1900;
      }
    </style>
  </defs>
  <g id="_图层_1-2" data-name="图层 1">
    <path class="cls-1" d="M5.84.74v3.29h-.36v-1.46h-1.46v-1.1h.36v.74h1.1V.36h-2.56v2.19h-.37V0H0v3.66h1.46v2.19h-.36v-1.82H0v2.92h2.55v-3.29h.37v1.46h1.46v1.09h-.36v-.73h-1.1v1.82h2.56v-2.19h.36v2.56h2.56v-3.65h-1.46V1.83h.36v1.83h1.1v-.37h-.74v-1.83h-1.09v2.56h-.36V1.09h1.83v1.83h.36V.74h-2.56ZM3.29.74h1.83v1.09h-.37v-.74h-1.09v1.46h-.36V.74ZM2.19,6.58H.36v-2.2h.36v1.83h1.1v-2.55h.36v2.92ZM.36,3.29V.36h1.83v2.19h-.36V.74H.73v2.19h4.38v1.1h-.37v-.74H.36ZM1.46,1.09v1.46h-.36v-1.46h.36ZM4.38,3.66v.36h-.36v-.36h.36ZM5.11,6.94h-1.83v-1.1h.36v.74h1.09v-1.46h.37v1.83ZM8.03,4.38v2.92h-1.83v-2.19h.36v1.83h1.09v-2.19H3.29v-1.09h.36v.72h4.38ZM6.94,6.58v-1.46h.36v1.46h-.36Z"/>
  </g>
</svg>