<?xml version="1.0" encoding="UTF-8"?>
<svg id="_图层_2" data-name="图层 2" xmlns="http://www.w3.org/2000/svg" viewBox="0 0 66.75 133.37">
  <defs>
    <style>
      .cls-1 {
        fill: #8c1900;
      }
    </style>
  </defs>
  <g id="_图层_1-2" data-name="图层 1">
    <g>
      <polygon class="cls-1" points="65.56 74.64 64.86 74.33 64.58 73.62 64.57 72.83 64.56 72.03 64.58 71.23 64.57 70.43 64.86 69.73 65.56 69.42 66.27 69.73 66.56 70.43 66.57 71.23 66.56 72.02 66.57 72.82 66.55 73.62 66.27 74.33 65.56 74.64"/>
      <polygon class="cls-1" points="65.56 67.17 64.96 66.97 64.74 66.37 64.63 65.65 64.66 64.93 64.73 64.21 64.7 63.49 64.51 62.77 64.69 62.05 64.59 61.33 64.39 60.61 64.52 59.89 64.53 59.17 64.43 58.45 64.72 57.73 64.76 57.01 64.46 56.29 64.7 55.57 64.69 54.85 64.46 54.13 64.58 53.41 64.55 52.69 64.64 51.96 64.7 51.24 64.4 50.52 64.51 49.8 64.53 49.08 64.53 48.36 64.45 47.63 64.58 46.91 64.57 46.2 64.58 45.48 64.47 44.76 64.44 44.04 64.5 43.31 64.56 42.59 64.39 41.87 64.72 41.15 64.54 40.42 64.51 39.7 64.46 38.97 64.4 38.25 64.67 37.52 64.48 36.8 64.53 36.08 64.36 35.35 64.36 34.62 64.58 33.89 64.71 33.16 64.7 32.43 64.47 31.71 64.66 30.97 64.57 30.25 64.42 29.53 64.19 28.83 64.28 28.08 64.19 27.36 63.98 26.66 63.88 25.94 63.59 25.26 63.69 24.5 63.37 23.82 63.26 23.1 63.01 22.41 62.65 21.77 62.59 21.02 62.39 20.31 61.94 19.7 61.71 19.01 61.48 18.32 61.19 17.64 60.8 17.02 60.36 16.44 60.04 15.78 59.53 15.25 59 14.73 58.66 14.09 58.37 13.39 57.69 13.01 57.26 12.43 56.79 11.88 56.31 11.33 55.89 10.73 55.36 10.24 54.74 9.84 54.15 9.42 53.65 8.88 53.14 8.36 52.41 8.13 51.91 7.58 51.26 7.25 50.62 6.91 50.07 6.42 49.33 6.25 48.79 5.72 48.05 5.59 47.43 5.21 46.76 4.95 46.14 4.54 45.45 4.33 44.74 4.16 44.04 3.98 43.38 3.68 42.69 3.46 42.04 3.06 41.3 3.03 40.56 3.03 39.87 2.77 39.13 2.8 38.42 2.72 37.73 2.41 37 2.38 36.3 2.12 35.56 2.36 34.84 2.11 34.12 2.03 33.39 1.99 32.67 2.12 31.95 2.31 31.21 2.05 30.51 2.48 29.79 2.47 29.06 2.48 28.35 2.63 27.61 2.61 26.94 2.96 26.18 2.85 25.53 3.27 24.76 3.16 24.09 3.45 23.33 3.45 22.75 4.03 22.05 4.22 21.33 4.33 20.65 4.61 19.95 4.8 19.24 5 18.72 5.6 18.02 5.82 17.34 6.07 16.71 6.45 16.17 6.96 15.49 7.23 14.94 7.72 14.27 8.01 13.66 8.42 13.14 8.93 12.67 9.49 11.88 9.69 11.35 10.19 10.96 10.83 10.36 11.26 10.02 11.94 9.51 12.45 9.11 13.05 8.66 13.62 8.02 14.03 7.52 14.57 7.15 15.2 6.73 15.8 6.62 16.57 6.09 17.1 5.68 17.71 5.25 18.31 5.19 19.09 4.76 19.68 4.4 20.32 4.42 21.11 3.95 21.71 3.73 22.4 3.49 23.08 3.53 23.85 3.1 24.49 2.87 25.18 2.78 25.91 2.66 26.63 2.56 27.35 2.39 28.06 2.55 28.81 2.43 29.52 2.49 30.26 2.25 30.97 2.35 31.7 2.21 32.42 2.38 33.16 2.26 33.86 2.35 34.57 2.07 35.27 2.08 35.98 2.24 36.68 2.08 37.39 2.35 38.09 2.17 38.79 2.22 39.49 2.06 40.2 2.17 40.9 2.07 41.61 2.13 42.31 2.39 43.02 2.32 43.72 2.39 44.43 2.29 45.14 2.3 45.85 2.38 46.55 2.09 47.26 2.25 47.97 2.27 48.68 2.35 49.39 2.22 50.1 2.09 50.81 2.07 51.66 1.22 51.84 .39 51.64 .1 50.81 .23 50.11 .4 49.4 .38 48.7 .05 47.99 .04 47.29 .28 46.58 .15 45.88 .39 45.18 .28 44.48 .32 43.78 .15 43.07 .05 42.37 .03 41.66 .36 40.96 .13 40.25 .41 39.54 .2 38.84 .25 38.13 .23 37.42 .37 36.71 .21 36.01 .05 35.3 .37 34.59 .33 33.87 .37 33.16 .25 32.44 .27 31.72 .47 31.01 .42 30.29 .26 29.55 .55 28.86 .62 28.14 .44 27.39 .65 26.69 .75 25.98 .94 25.28 1.02 24.56 1.35 23.9 1.41 23.17 1.69 22.5 1.98 21.83 1.93 21.05 2.4 20.45 2.68 19.79 3 19.14 3.31 18.5 3.59 17.84 3.92 17.2 3.98 16.42 4.45 15.86 5 15.34 5.3 14.69 5.76 14.13 5.88 13.34 6.35 12.79 6.84 12.26 7.41 11.8 7.93 11.3 8.17 10.56 8.8 10.16 9.39 9.74 9.71 9.04 10.21 8.51 10.79 8.07 11.37 7.66 11.87 7.12 12.53 6.8 13.05 6.29 13.74 6.02 14.33 5.62 14.85 5.1 15.61 4.97 16.18 4.52 16.81 4.18 17.45 3.85 18.08 3.51 18.73 3.19 19.4 2.94 20 2.5 20.69 2.28 21.35 2.01 22.07 1.89 22.72 1.55 23.43 1.41 24.2 1.5 24.87 1.22 25.54 .93 26.29 1.05 26.96 .71 27.67 .58 28.37 .41 29.11 .58 29.81 .33 30.53 .33 31.23 .11 31.95 .05 32.67 0 33.39 .3 34.11 .19 34.84 .05 35.55 .26 36.25 .41 36.98 .31 37.68 .51 38.41 .5 39.09 .81 39.8 .89 40.54 .83 41.25 .96 41.9 1.36 42.64 1.35 43.3 1.64 44.05 1.64 44.69 2.01 45.33 2.33 46.12 2.28 46.71 2.76 47.38 3.01 48.06 3.24 48.75 3.45 49.44 3.68 49.94 4.29 50.71 4.37 51.29 4.81 51.92 5.16 52.47 5.64 53.21 5.83 53.61 6.51 54.34 6.73 54.81 7.3 55.34 7.79 56 8.12 56.49 8.65 56.92 9.24 57.57 9.6 57.91 10.27 58.55 10.65 58.98 11.23 59.39 11.82 59.78 12.42 60.39 12.86 60.64 13.56 61.06 14.14 61.46 14.73 62.03 15.22 62.26 15.92 62.71 16.49 63.09 17.11 63.43 17.75 63.55 18.48 63.89 19.12 64.15 19.79 64.35 20.48 64.73 21.1 65.09 21.74 65.05 22.51 65.44 23.14 65.54 23.86 65.48 24.61 65.92 25.25 66.09 25.96 66.26 26.66 66.22 27.39 66.07 28.14 66.3 28.83 66.58 29.53 66.31 30.28 66.36 30.99 66.52 31.71 66.36 32.43 66.72 33.16 66.56 33.88 66.46 34.59 66.54 35.31 66.38 36.03 66.44 36.75 66.44 37.47 66.45 38.2 66.43 38.92 66.4 39.64 66.57 40.36 66.55 41.07 66.36 41.79 66.75 42.51 66.65 43.23 66.45 43.95 66.57 44.67 66.43 45.4 66.49 46.12 66.71 46.84 66.69 47.56 66.7 48.28 66.51 49 66.69 49.72 66.38 50.45 66.49 51.17 66.36 51.89 66.36 52.61 66.55 53.33 66.44 54.05 66.54 54.77 66.57 55.49 66.64 56.21 66.74 56.93 66.42 57.66 66.57 58.38 66.53 59.1 66.7 59.83 66.71 60.55 66.69 61.28 66.68 62 66.72 62.73 66.37 63.45 66.52 64.18 66.52 64.91 66.69 65.64 66.58 66.37 66.4 67.2 65.56 67.17"/>
      <polygon class="cls-1" points="33.39 133.35 33.39 133.34 32.67 133.37 31.97 132.99 31.24 133.23 30.52 133.19 29.8 133.18 29.12 132.83 28.39 132.86 27.72 132.55 27.03 132.37 26.32 132.32 25.59 132.29 24.96 131.87 24.19 131.97 23.52 131.71 22.87 131.4 22.25 131.01 21.51 130.94 20.9 130.56 20.23 130.3 19.45 130.27 18.84 129.89 18.34 129.31 17.53 129.29 17.06 128.67 16.31 128.52 15.83 127.94 15.14 127.69 14.58 127.24 14.02 126.79 13.53 126.25 12.88 125.93 12.45 125.32 11.7 125.09 11.26 124.51 10.71 124.04 10.33 123.41 9.93 122.8 9.43 122.29 9.02 121.71 8.36 121.33 7.85 120.82 7.38 120.27 7.01 119.66 6.82 118.92 6.28 118.42 6.12 117.68 5.72 117.09 5.4 116.45 4.95 115.89 4.65 115.24 4.42 114.56 4.09 113.93 3.6 113.36 3.51 112.62 3.14 112 2.69 111.41 2.58 110.68 2.37 110 2.05 109.35 2.16 108.57 2.01 107.87 1.51 107.27 1.6 106.51 1.44 105.82 1.04 105.17 1.04 104.44 .88 103.74 .87 103.01 .84 102.29 .42 101.62 .46 100.9 .41 100.18 .35 99.46 .21 98.75 .31 98.03 .27 97.31 .26 96.58 .13 95.86 .08 95.13 .15 94.42 .22 93.71 .03 92.99 .4 92.28 .2 91.57 .16 90.85 .11 90.14 .04 89.42 .34 88.7 .13 87.98 .18 87.26 0 86.55 0 85.83 .24 85.12 .39 84.4 .38 83.68 .15 82.97 .39 82.25 .34 81.53 .24 80.81 .07 80.09 .27 79.38 .28 78.66 .18 77.94 .21 77.22 .06 76.51 .36 75.79 .2 75.07 .3 74.35 .25 73.63 .1 72.92 .32 72.2 .39 71.49 .2 70.77 .27 70.05 .38 69.33 .43 68.61 .38 67.89 .28 67.17 .36 66.45 .21 65.73 .05 65.01 .17 64.28 .38 63.56 .06 62.84 .12 62.12 .15 61.39 .18 60.67 .32 59.94 .58 59.3 1.22 58.91 2 59.16 2.2 59.94 2.09 60.65 2.37 61.37 2.18 62.08 2.26 62.79 2.32 63.51 2.16 64.22 2.38 64.94 2.15 65.66 2.38 66.37 2.29 67.09 2.32 67.81 2.17 68.53 2.22 69.24 2.31 69.96 2.37 70.67 2.28 71.39 2.25 72.11 2.01 72.82 2.17 73.54 2.34 74.26 2.22 74.98 2.39 75.7 2.42 76.41 2.18 77.13 2.25 77.85 2.02 78.57 2.36 79.29 2.12 80.01 2.05 80.73 2.01 81.44 2.15 82.16 2.34 82.87 2.01 83.59 2.42 84.31 2.34 85.03 2.26 85.75 2.32 86.46 2.17 87.18 2.42 87.91 2.14 88.63 2.44 89.35 2.12 90.07 2.24 90.79 2.01 91.51 2.42 92.23 2.38 92.96 2.22 93.68 2.24 94.41 2.14 95.13 2.03 95.86 2.41 96.58 2.3 97.3 2.23 98.03 2.3 98.75 2.54 99.46 2.46 100.19 2.65 100.9 2.58 101.63 2.65 102.36 2.85 103.06 3.12 103.74 2.87 104.52 3.02 105.24 3.39 105.9 3.44 106.64 3.85 107.28 4.01 107.99 4.31 108.65 4.53 109.34 4.5 110.11 4.65 110.83 4.96 111.49 5.21 112.17 5.8 112.7 5.91 113.45 6.15 114.13 6.37 114.84 6.98 115.33 7.19 116.04 7.47 116.72 8.14 117.15 8.32 117.9 8.73 118.49 9.13 119.1 9.78 119.51 10 120.25 10.41 120.85 10.94 121.36 11.44 121.88 11.95 122.39 12.41 122.95 13.13 123.24 13.62 123.76 14.26 124.12 14.68 124.75 15.34 125.07 15.84 125.61 16.54 125.86 17.06 126.37 17.73 126.66 18.19 127.3 18.83 127.64 19.54 127.83 20.11 128.31 20.89 128.35 21.47 128.82 22.15 129.04 22.76 129.47 23.48 129.61 24.13 129.94 24.85 130.08 25.61 130.01 26.29 130.25 27.01 130.34 27.69 130.59 28.39 130.71 29.12 130.73 29.79 131.14 30.52 131.04 31.24 131.08 31.96 131.03 32.67 131.21 33.39 131.35 34.11 130.98 34.83 131.14 35.54 130.94 36.26 130.94 36.99 131 37.73 131.09 38.45 130.96 39.09 130.48 39.79 130.32 40.55 130.42 41.22 130.1 41.98 130.15 42.64 129.83 43.34 129.64 43.96 129.22 44.58 128.86 45.24 128.56 46.05 128.61 46.59 128.07 47.37 128.02 47.9 127.47 48.56 127.16 49.17 126.78 49.86 126.52 50.36 125.97 50.85 125.42 51.64 125.27 52.18 124.79 52.78 124.37 53.24 123.79 53.78 123.31 54.43 122.94 54.87 122.36 55.2 121.67 55.87 121.31 56.33 120.75 56.56 120 57.1 119.51 57.5 118.92 57.97 118.38 58.32 117.74 58.86 117.24 59.12 116.55 59.57 115.98 60 115.4 60.05 114.61 60.62 114.09 60.95 113.45 61.3 112.81 61.62 112.16 61.87 111.48 62.14 110.81 62.06 110.01 62.44 109.38 62.88 108.76 62.99 108.04 63.27 107.37 63.07 106.57 63.3 105.89 63.52 105.2 63.83 104.53 64.04 103.83 63.82 103.06 64.14 102.37 64.37 101.68 64.15 100.92 64.16 100.2 64.29 99.49 64.4 98.77 64.33 98.04 64.52 97.32 64.42 96.59 64.62 95.87 64.61 95.13 64.44 94.45 64.74 93.76 64.61 93.06 64.61 92.37 64.61 91.68 64.56 91 64.54 90.3 64.58 89.61 64.37 88.91 64.42 88.22 64.73 87.38 65.56 87.16 66.41 87.37 66.69 88.22 66.38 88.91 66.5 89.6 66.65 90.29 66.36 90.98 66.59 91.67 66.61 92.36 66.68 93.05 66.39 93.74 66.59 94.44 66.52 95.13 66.7 95.85 66.71 96.58 66.73 97.3 66.36 98 66.44 98.72 66.58 99.45 66.32 100.15 66.14 100.86 66.24 101.59 66.01 102.28 66.02 103.01 65.68 103.68 65.6 104.39 65.68 105.13 65.54 105.84 65.13 106.48 65.16 107.23 64.87 107.89 64.9 108.65 64.52 109.29 64.2 109.94 64.29 110.73 63.81 111.32 63.58 112 63.37 112.69 63.19 113.39 62.99 114.09 62.37 114.6 62.35 115.38 61.92 115.97 61.6 116.62 61.13 117.17 61 117.93 60.31 118.35 60.15 119.09 59.59 119.58 59.13 120.13 58.85 120.81 58.34 121.32 57.76 121.77 57.46 122.45 56.8 122.82 56.47 123.49 55.92 123.95 55.36 124.4 54.78 124.82 54.41 125.47 53.72 125.76 53.18 126.22 52.62 126.66 52.19 127.28 51.51 127.56 50.99 128.06 50.41 128.49 49.81 128.88 49.08 129.06 48.48 129.45 47.84 129.76 47.17 130.01 46.59 130.46 46 130.89 45.23 130.9 44.64 131.37 43.93 131.51 43.17 131.49 42.59 132.02 41.91 132.25 41.22 132.48 40.49 132.48 39.73 132.37 39.07 132.66 38.4 133.01 37.64 132.75 36.94 132.85 36.24 133.06 35.52 132.92 34.83 133.36 34.11 133.2 33.39 133.35"/>
      <polygon class="cls-1" points="22.31 15.09 22.26 15.13 21.52 15.07 20.78 15 20.06 14.78 19.39 14.47 18.73 14.12 18.13 13.68 17.64 13.12 17.19 12.54 16.81 11.9 16.54 11.2 16.36 10.48 16.25 9.74 16.29 8.99 16.53 8.27 17.25 7.97 17.98 8.26 18.23 8.99 18.3 9.72 18.4 10.44 18.65 11.13 19.05 11.74 19.58 12.24 20.16 12.67 20.86 12.89 21.56 13.05 22.28 13.13 22.31 13.16 23.04 13.08 23.76 12.97 24.46 12.77 25.12 12.44 25.77 12.11 26.4 11.75 26.91 11.22 27.45 10.73 27.83 10.11 28.22 9.49 28.44 8.79 28.6 8.08 28.67 7.36 28.98 6.66 29.68 6.36 30.37 6.69 30.71 7.38 30.65 8.08 30.55 8.78 30.35 9.45 30.09 10.1 29.8 10.74 29.44 11.33 29.07 11.93 28.62 12.47 28.12 12.96 27.56 13.4 26.95 13.75 26.36 14.12 25.71 14.38 25.05 14.63 24.38 14.82 23.7 14.98 23.01 15.07 22.31 15.09"/>
      <polygon class="cls-1" points="23.46 17.72 22.73 17.43 22.43 16.7 22.43 15.96 22.46 15.23 22.45 14.49 22.49 13.75 22.45 13.01 22.47 12.27 22.43 11.53 22.46 10.79 22.49 10.05 22.46 9.31 22.45 8.57 22.49 7.83 22.47 7.08 22.44 6.34 22.74 5.61 23.46 5.31 24.19 5.61 24.43 6.34 24.48 7.07 24.48 7.81 24.49 8.55 24.45 9.29 24.47 10.03 24.44 10.77 24.43 11.51 24.44 12.25 24.47 12.99 24.43 13.72 24.48 14.47 24.47 15.21 24.45 15.96 24.43 16.7 24.17 17.41 23.46 17.72"/>
      <polygon class="cls-1" points="43.86 15.51 43.08 15.45 42.32 15.3 41.58 15.1 40.83 14.91 40.14 14.55 39.52 14.17 38.94 13.74 38.39 13.27 37.88 12.75 37.43 12.19 37.04 11.58 36.67 10.95 36.36 10.3 36.11 9.62 35.91 8.92 35.79 8.2 35.67 7.48 35.63 6.76 35.54 6.03 35.83 5.32 36.52 4.96 37.23 5.27 37.52 5.96 37.6 6.69 37.7 7.42 37.8 8.15 38.01 8.85 38.28 9.53 38.59 10.19 38.96 10.82 39.4 11.39 39.86 11.97 40.46 12.39 41.08 12.76 41.77 13.06 42.48 13.32 43.23 13.42 43.98 13.49 44.74 13.44 45.48 13.26 46.18 12.98 46.87 12.68 47.4 12.21 47.89 11.72 48.3 11.16 48.61 10.53 48.73 9.83 48.78 9.13 49.04 8.43 49.72 8.05 49.76 8.07 50.42 8.4 50.8 9.05 50.72 9.75 50.68 10.45 50.46 11.12 50.24 11.78 49.89 12.39 49.48 12.96 48.99 13.46 48.49 13.94 47.89 14.31 47.31 14.71 46.64 14.98 45.97 15.21 45.27 15.33 44.56 15.4 43.86 15.51"/>
      <polygon class="cls-1" points="43.18 17.6 42.47 17.33 42.15 16.63 42.16 15.92 42.2 15.21 42.16 14.51 42.18 13.8 42.14 13.09 42.15 12.39 42.19 11.68 42.19 10.97 42.14 10.26 42.17 9.55 42.17 8.85 42.17 8.14 42.17 7.42 42.15 6.71 42.15 6 42.44 5.29 43.15 4.98 43.89 5.26 44.19 5.99 44.19 6.7 44.16 7.41 44.17 8.11 44.13 8.82 44.17 9.53 44.15 10.23 44.2 10.94 44.17 11.65 44.14 12.36 44.17 13.07 44.18 13.77 44.15 14.48 44.17 15.19 44.2 15.91 44.2 16.62 43.9 17.34 43.18 17.65 43.18 17.6"/>
      <polygon class="cls-1" points="32.98 38.34 32.27 38.35 31.55 38.38 30.83 38.27 30.1 38.27 29.38 38.36 28.66 38.3 27.94 38.35 27.22 38.36 26.49 38.28 25.77 38.33 25.04 38.37 24.32 38.3 23.6 38.36 22.87 38.37 22.15 38.29 21.42 38.27 20.69 38.29 19.96 38.27 19.21 38.31 18.49 38.11 17.83 37.76 17.28 37.28 16.78 36.73 16.42 36.08 16.26 35.35 16.27 34.6 16.22 33.88 16.26 33.16 16.18 32.43 16.21 31.71 16.27 30.98 16.28 30.26 16.2 29.53 16.24 28.81 16.26 28.08 16.26 27.35 16.25 26.63 16.23 25.9 16.23 25.18 16.24 24.45 16.21 23.72 16.18 22.99 16.18 22.25 16.19 21.46 16.3 20.67 16.49 19.9 16.96 19.27 17.54 18.78 18.27 18.56 19.01 18.38 19.78 18.37 20.56 18.41 21.28 18.37 22.01 18.35 22.74 18.4 23.47 18.37 24.2 18.33 24.93 18.33 25.66 18.33 26.39 18.32 27.12 18.41 27.85 18.34 28.58 18.34 29.31 18.32 30.04 18.39 30.77 18.35 31.51 18.41 32.25 18.42 32.98 18.39 33.7 18.65 33.92 19.37 33.71 20.09 32.98 20.38 32.26 20.35 31.53 20.31 30.8 20.36 30.07 20.33 29.34 20.34 28.61 20.42 27.88 20.4 27.15 20.32 26.42 20.42 25.69 20.34 24.96 20.41 24.23 20.35 23.5 20.39 22.76 20.38 22.03 20.37 21.29 20.34 20.56 20.38 19.81 20.34 19.08 20.49 18.39 20.65 18.28 21.44 18.22 22.25 18.19 22.97 18.2 23.7 18.18 24.42 18.25 25.15 18.27 25.87 18.29 26.59 18.27 27.32 18.2 28.05 18.25 28.77 18.18 29.5 18.19 30.23 18.18 30.95 18.22 31.68 18.21 32.41 18.19 33.14 18.2 33.87 18.25 34.6 18.29 35.3 18.67 35.9 19.28 36.18 19.96 36.31 20.68 36.31 21.4 36.28 22.12 36.37 22.84 36.38 23.56 36.29 24.28 36.36 25 36.36 25.73 36.29 26.45 36.33 27.17 36.32 27.9 36.35 28.62 36.36 29.35 36.27 30.07 36.31 30.8 36.31 31.52 36.31 32.25 36.29 32.98 36.33 33.69 36.62 33.98 37.32 33.71 38.05 32.98 38.34"/>
      <polygon class="cls-1" points="26.26 25.38 25.56 25.07 25.25 24.37 25.27 23.66 25.24 22.94 25.24 22.23 25.25 21.52 25.25 20.8 25.24 20.08 25.28 19.37 25.56 18.67 26.26 18.35 26.96 18.66 27.27 19.37 27.27 20.08 27.25 20.79 27.26 21.5 27.28 22.22 27.25 22.93 27.27 23.65 27.27 24.37 26.96 25.07 26.26 25.38"/>
      <polygon class="cls-1" points="32.39 32.53 31.67 32.59 30.95 32.59 30.23 32.59 29.52 32.59 28.8 32.61 28.08 32.59 27.36 32.56 26.64 32.57 25.92 32.62 25.2 32.59 24.48 32.63 23.76 32.62 23.03 32.58 22.31 32.56 21.59 32.55 20.87 32.61 20.14 32.54 19.42 32.6 18.69 32.56 17.97 32.63 17.24 32.62 16.52 32.3 16.21 31.58 16.49 30.83 17.24 30.63 17.96 30.62 18.68 30.54 19.39 30.6 20.11 30.55 20.82 30.54 21.54 30.62 22.27 30.58 22.98 30.53 23.7 30.6 24.42 30.55 25.15 30.54 25.87 30.61 26.59 30.63 27.31 30.61 28.04 30.63 28.76 30.53 29.48 30.55 30.2 30.57 30.93 30.61 31.66 30.58 32.39 30.53 32.77 30.2 33.01 29.67 33.06 28.93 33.08 28.17 32.91 27.45 32.72 26.73 32.35 26.08 31.63 26.06 30.91 26.14 30.2 26.1 29.48 26.09 28.77 26.08 28.05 26.09 27.33 26.11 26.61 26.11 25.9 26.11 25.18 26.13 24.46 26.16 23.74 26.16 23.02 26.16 22.3 26.11 21.58 26.12 20.86 26.07 20.14 26.13 19.41 26.1 18.69 26.16 17.96 26.12 17.24 26.07 16.53 25.81 16.22 25.11 16.56 24.43 17.24 24.12 17.96 24.08 18.68 24.08 19.39 24.08 20.11 24.07 20.82 24.16 21.54 24.09 22.27 24.08 22.98 24.07 23.7 24.13 24.42 24.1 25.15 24.15 25.87 24.16 26.59 24.14 27.31 24.1 28.04 24.17 28.76 24.09 29.48 24.1 30.2 24.12 30.93 24.16 31.66 24.11 32.39 24.14 33.09 24.27 33.74 24.59 34.21 25.16 34.5 25.83 34.84 26.49 34.93 27.21 35.09 27.93 35.07 28.66 35.07 29.42 34.94 30.17 34.69 30.9 34.3 31.54 33.81 32.12 33.12 32.43 32.39 32.53"/>
      <polygon class="cls-1" points="26.26 38.32 25.54 38.05 25.27 37.32 25.26 36.61 25.26 35.89 25.28 35.17 25.28 34.46 25.26 33.74 25.25 33.02 25.25 32.3 25.26 31.58 25.54 30.86 26.26 30.57 26.96 30.88 27.26 31.58 27.28 32.3 27.26 33.01 27.28 33.73 27.27 34.44 27.26 35.16 27.25 35.88 27.25 36.6 27.27 37.32 26.96 38.02 26.26 38.32"/>
      <polygon class="cls-1" points="48.56 37.88 47.97 37.78 47.59 37.1 47.77 36.38 48.06 35.71 48.31 35.03 48.53 34.34 48.67 33.63 48.87 32.93 49.02 32.22 49.09 31.49 49.3 30.79 49.39 30.07 49.44 29.35 49.57 28.63 49.68 27.91 49.73 27.18 49.9 26.46 49.96 25.74 50.03 25.02 50.16 24.3 50.23 23.58 50.23 22.85 50.27 22.13 50.25 21.49 50 20.92 49.42 20.72 48.79 20.66 48.05 20.62 47.31 20.64 46.58 20.69 45.84 20.65 45.1 20.7 44.36 20.68 43.63 20.65 42.89 20.62 42.15 20.61 41.41 20.67 40.67 20.61 39.93 20.66 39.19 20.62 38.45 20.69 37.7 20.69 36.96 20.66 36.23 20.37 35.9 19.64 36.29 18.97 36.96 18.69 37.69 18.61 38.43 18.66 39.17 18.62 39.9 18.61 40.64 18.68 41.38 18.64 42.12 18.59 42.86 18.66 43.6 18.61 44.34 18.6 45.08 18.67 45.81 18.69 46.55 18.67 47.3 18.69 48.04 18.59 48.79 18.61 49.5 18.68 50.19 18.85 50.86 19.08 51.47 19.47 51.89 20.05 52.1 20.73 52.27 21.43 52.26 22.13 52.28 22.85 52.2 23.55 52.08 24.26 52 24.97 52 25.69 51.88 26.39 51.78 27.1 51.69 27.81 51.6 28.51 51.52 29.22 51.42 29.93 51.3 30.63 51.21 31.34 51.1 32.05 50.97 32.76 50.82 33.46 50.61 34.15 50.44 34.84 50.19 35.52 50.02 36.21 49.71 36.86 49.42 37.51 48.56 37.88"/>
      <path class="cls-1" d="M36.74,36.3l-.39-.06-.53-.55.05-.74.24-.69.33-.65.23-.69.32-.65.24-.69.27-.67.35-.64.21-.7.32-.65.3-.66.23-.69.26-.67.28-.67.23-.69.29-.66.25-.68.18-.7.31-.66.19-.7.15-.7.19-.69.13-.7-.1-.61.5-.6.74-.15.72.56.1.71-.07.72-.1.72-.18.7-.2.7-.22.69-.21.7-.26.68-.28.68-.24.69-.22.7-.29.67-.23.7-.28.67-.3.67-.3.67-.29.67-.23.7-.34.65-.24.7-.32.67-.23.7-.29.68-.32.67-.37.45-.56.12ZM42.05,20.64v-.03s0,.03,0,.03ZM42.04,20.64v-.03s0,.03,0,.03ZM42.04,20.64v-.02s0,.02,0,.02Z"/>
      <polygon class="cls-1" points="42.3 43.12 41.58 43.19 40.87 43.12 40.15 43.1 39.43 43.08 38.71 43.13 37.99 43.18 37.28 43.13 36.56 43.18 35.85 43.18 35.13 43.1 34.41 43.12 33.69 43.12 32.97 43.08 32.25 43.14 31.53 43.09 30.81 43.16 30.09 43.11 29.37 43.17 28.64 43.18 27.92 43.09 27.2 43.18 26.48 43.11 25.76 43.08 25.03 43.13 24.3 43.13 23.61 42.83 23.29 42.13 23.61 41.44 24.3 41.16 25.02 41.09 25.74 41.18 26.46 41.15 27.18 41.09 27.9 41.11 28.61 41.13 29.33 41.08 30.04 41.16 30.76 41.14 31.48 41.13 32.2 41.19 32.92 41.18 33.63 41.12 34.35 41.12 35.07 41.12 35.79 41.12 36.51 41.09 37.24 41.12 37.96 41.15 38.68 41.14 39.4 41.09 40.12 41.12 40.85 41.07 41.58 41.09 42.3 41.13 43 41.44 43.27 42.13 43.03 42.86 42.3 43.12"/>
      <polygon class="cls-1" points="43.26 48.01 42.54 47.99 41.81 47.96 41.09 47.94 40.36 47.92 39.64 47.99 38.91 47.94 38.19 48.04 37.46 48.05 36.75 48.01 36.03 48.01 35.3 47.97 34.58 47.97 33.85 47.93 33.13 47.97 32.4 48.07 31.68 47.97 30.95 47.93 30.23 47.9 29.5 47.97 28.77 48.06 28.04 47.98 27.32 48.06 26.59 48.05 25.86 47.94 25.13 47.97 24.4 47.96 23.66 47.9 22.96 47.9 22.31 47.6 21.62 47.38 21.06 46.93 20.45 46.54 19.93 46.04 19.57 45.41 19.06 44.88 18.81 44.2 18.61 43.52 18.38 42.85 18.32 42.13 18.63 41.44 19.32 41.11 20 41.46 20.28 42.13 20.47 42.79 20.56 43.48 20.94 44.06 21.44 44.54 21.9 45.03 22.42 45.47 23.05 45.73 23.66 46.03 24.39 45.99 25.11 45.98 25.83 46.07 26.56 46.06 27.28 45.97 28.01 45.96 28.73 45.97 29.46 45.97 30.18 45.93 30.9 45.96 31.62 46.02 32.34 45.99 33.07 45.91 33.79 45.97 34.52 45.89 35.24 45.92 35.97 45.97 36.7 46.01 37.42 46.03 38.15 45.93 38.88 46.04 39.61 45.95 40.33 46.01 41.06 45.9 41.79 45.91 42.53 45.96 43.26 45.94 43.93 45.79 44.65 45.66 45.24 45.24 45.67 44.66 46.19 44.18 46.52 43.55 46.82 42.91 47.16 42.27 47.18 41.56 47.42 40.79 48.18 40.59 48.93 40.81 49.25 41.56 49.08 42.28 48.88 42.97 48.67 43.66 48.33 44.3 48.08 45.01 47.63 45.59 47.11 46.11 46.53 46.56 45.99 47.06 45.4 47.5 44.71 47.78 43.98 47.87 43.26 48.01"/>
      <polygon class="cls-1" points="14.75 55.64 13.99 55.34 13.72 54.6 14.07 53.9 14.6 53.43 15.13 52.96 15.65 52.48 16.15 51.98 16.7 51.53 17.21 51.03 17.74 50.56 18.27 50.09 18.8 49.62 19.32 49.15 19.83 48.65 20.37 48.19 20.88 47.68 21.4 47.19 21.94 46.72 22.47 46.24 23.2 45.99 23.89 46.31 24.13 47.03 23.82 47.72 23.32 48.22 22.78 48.67 22.24 49.14 21.71 49.61 21.21 50.1 20.7 50.61 20.16 51.06 19.65 51.56 19.13 52.03 18.58 52.48 18.06 52.97 17.54 53.45 16.99 53.91 16.48 54.42 15.94 54.88 15.43 55.39 14.75 55.64"/>
      <polygon class="cls-1" points="52.09 55.62 51.43 55.4 50.9 54.9 50.34 54.43 49.79 53.96 49.22 53.5 48.69 53.01 48.13 52.54 47.57 52.06 47.03 51.58 46.46 51.12 45.91 50.64 45.37 50.15 44.83 49.66 44.28 49.18 43.72 48.7 43.14 48.24 42.61 47.73 42.25 47.05 42.5 46.33 43.19 45.99 43.9 46.24 44.45 46.72 45.02 47.18 45.55 47.67 46.13 48.12 46.68 48.59 47.22 49.08 47.77 49.56 48.31 50.05 48.87 50.53 49.41 51.02 49.97 51.49 50.54 51.94 51.07 52.44 51.62 52.94 52.17 53.43 52.74 53.89 53.11 54.57 52.84 55.3 52.09 55.62"/>
      <polygon class="cls-1" points="25.11 60.91 24.8 60.91 24.23 60.4 24.19 59.65 24.36 58.94 24.62 58.25 24.78 57.54 25.07 56.86 25.23 56.14 25.5 55.45 25.69 54.74 25.95 54.05 26.16 53.35 26.37 52.64 26.56 51.93 26.81 51.23 27.01 50.53 27.23 49.82 27.47 49.12 27.65 48.4 27.88 47.7 28.13 47 28.63 46.43 29.39 46.36 29.97 46.84 30.07 47.61 29.81 48.29 29.62 49 29.39 49.7 29.15 50.39 28.92 51.09 28.69 51.79 28.51 52.5 28.26 53.19 28.09 53.91 27.87 54.61 27.63 55.31 27.41 56.01 27.17 56.71 26.95 57.41 26.71 58.11 26.5 58.82 26.33 59.54 26.06 60.24 25.69 60.73 25.11 60.91"/>
      <polygon class="cls-1" points="39.56 60.92 38.99 60.73 38.59 60.26 38.41 59.59 38.21 58.93 37.91 58.29 37.71 57.62 37.48 56.96 37.3 56.28 37.09 55.61 36.83 54.96 36.63 54.29 36.44 53.61 36.17 52.97 35.98 52.29 35.7 51.64 35.55 50.95 35.26 50.31 35.09 49.62 34.83 48.96 34.65 48.28 34.41 47.61 34.46 46.86 35.02 46.33 35.79 46.41 36.3 46.98 36.53 47.64 36.73 48.3 36.99 48.95 37.21 49.62 37.4 50.29 37.6 50.96 37.82 51.62 38.05 52.29 38.31 52.94 38.49 53.62 38.74 54.28 38.95 54.95 39.16 55.62 39.37 56.29 39.58 56.95 39.84 57.61 40.04 58.29 40.31 58.94 40.53 59.61 40.46 60.39 39.88 60.9 39.56 60.92"/>
      <polygon class="cls-1" points="58.3 61.04 57.59 61.07 56.87 60.9 56.17 61.04 55.46 60.84 54.75 60.86 54.04 60.81 53.33 60.9 52.62 60.82 51.9 60.79 51.19 60.93 50.47 61.06 49.76 61 49.04 60.97 48.33 60.91 47.62 61.02 46.91 60.9 46.2 60.9 45.48 60.87 44.77 60.85 44.06 60.99 43.35 60.88 42.64 60.8 41.93 61.09 41.22 61 40.5 61.03 39.79 60.88 39.07 60.84 38.36 61 37.64 60.91 36.93 60.8 36.21 60.98 35.5 60.86 34.79 61.06 34.07 60.8 33.36 61.04 32.64 60.84 31.93 60.97 31.21 60.81 30.49 60.87 29.78 60.92 29.06 61.03 28.35 60.93 27.63 60.98 26.92 60.99 26.2 60.92 25.48 61.09 24.77 61.07 24.05 60.96 23.33 60.89 22.62 60.89 21.91 60.91 21.2 61.05 20.48 60.89 19.76 60.99 19.04 60.95 18.33 60.9 17.61 60.86 16.89 60.83 16.17 60.96 15.46 60.87 14.73 61.04 14.02 61.05 13.3 60.99 12.58 60.98 11.86 60.92 11.13 60.91 10.41 60.85 9.68 60.92 8.88 60.75 8.71 59.94 9.04 59.3 9.68 59.07 10.4 58.96 11.11 58.81 11.82 58.95 12.53 58.82 13.24 58.82 13.95 59.02 14.66 58.96 15.37 58.97 16.08 59.08 16.8 58.93 17.51 59.05 18.23 58.88 18.94 58.99 19.66 58.85 20.37 58.82 21.08 59.04 21.79 58.83 22.5 58.99 23.21 59.06 23.92 58.94 24.64 58.94 25.35 58.99 26.06 58.9 26.77 59.01 27.48 59.01 28.2 58.83 28.91 59.07 29.63 58.99 30.34 58.84 31.06 58.89 31.77 58.93 32.49 58.8 33.2 59.01 33.92 58.95 34.63 58.94 35.34 59.08 36.06 59.07 36.77 58.92 37.49 58.91 38.21 58.91 38.92 58.92 39.64 58.85 40.35 58.9 41.07 59 41.79 58.96 42.5 58.82 43.22 58.91 43.94 58.79 44.65 58.84 45.36 58.92 46.08 58.99 46.79 59.01 47.51 58.86 48.23 59.04 48.94 58.89 49.66 58.99 50.37 58.81 51.09 58.82 51.81 58.9 52.53 58.87 53.25 58.8 53.97 59.09 54.69 59.06 55.41 58.84 56.13 58.99 56.85 58.87 57.58 58.84 58.3 59.04 59.01 59.23 59.43 59.94 58.97 60.61 58.3 61.04"/>
      <polygon class="cls-1" points="18.08 128.87 17.52 129.05 17.18 128.27 17.12 127.49 17.51 126.87 17.78 126.18 18.31 125.64 18.48 124.91 18.79 124.24 19.23 123.65 19.37 122.91 19.81 122.31 19.94 121.57 20.51 121.03 20.5 120.22 20.88 119.6 21.24 118.96 21.58 118.31 21.86 117.64 22.14 116.97 22.46 116.31 22.78 115.66 22.98 114.96 23.3 114.3 23.45 113.58 23.7 112.9 23.97 112.22 24.27 111.56 24.25 110.78 24.45 110.09 24.72 109.41 24.9 108.71 25.33 108.09 25.38 107.35 25.84 106.73 26.01 106.02 26.26 105.34 26.35 104.61 26.64 103.94 26.86 103.24 26.86 102.49 26.88 101.74 27.12 101.05 27.33 100.35 27.55 99.66 27.56 98.92 27.86 98.24 28.01 97.53 28.17 96.83 28.33 96.12 28.27 95.38 28.53 94.69 28.74 93.99 28.48 93.23 28.69 92.53 28.74 91.82 29.01 91.13 29.14 90.42 29.02 89.68 29.2 88.97 29.39 88.27 29.21 87.53 29.4 86.83 29.18 86.1 29.54 85.39 29.24 84.67 29.51 83.96 29.33 83.26 29.5 82.55 29.37 81.85 29.22 81.16 28.95 80.5 28.9 79.79 28.59 79.16 28.26 78.55 27.92 77.94 27.29 77.61 26.74 77.24 26.17 76.84 25.52 76.57 24.83 76.46 24.13 76.42 23.42 76.59 22.69 76.37 21.95 76.45 21.22 76.33 20.5 76.15 19.79 75.96 19.09 75.74 18.35 75.68 17.71 75.3 16.95 75.18 16.3 74.82 15.73 74.33 15.18 73.85 14.72 73.26 14.29 72.67 14 72.01 13.65 71.37 13.27 70.7 13.42 69.94 13.54 69.24 13.71 68.55 13.76 67.83 13.84 67.09 14.34 66.52 14.6 65.83 15.08 65.27 15.78 64.96 16.31 64.48 16.94 64.13 17.65 63.97 18.27 63.56 19 63.56 19.69 63.24 20.42 63.34 21.15 63.16 21.88 63.18 22.56 63.54 23.32 63.38 24 63.72 24.67 63.99 25.41 64.03 26.1 64.24 26.77 64.52 27.49 64.66 28.11 65.06 28.79 65.34 29.55 65.41 29.86 66.16 29.94 66.83 29.5 67.51 28.66 67.43 28 67.09 27.26 66.96 26.67 66.45 25.94 66.27 25.23 66.07 24.57 65.68 23.85 65.52 23.09 65.55 22.36 65.44 21.63 65.35 20.9 65.31 20.17 65.42 19.44 65.43 18.7 65.47 18.02 65.77 17.47 66.26 16.83 66.62 16.47 67.27 16.04 67.85 15.65 68.49 15.39 69.19 15.29 69.94 15.6 70.62 15.65 71.38 16.21 71.88 16.62 72.49 17.32 72.75 17.91 73.13 18.5 73.53 19.18 73.75 19.89 73.86 20.51 74.38 21.24 74.47 21.98 74.26 22.69 74.49 23.42 74.36 24.15 74.34 24.85 74.64 25.57 74.6 26.31 74.6 26.93 75.04 27.67 75.15 28.33 75.48 28.76 76.1 29.21 76.64 29.7 77.15 30.02 77.77 30.63 78.27 30.84 78.97 30.94 79.69 30.96 80.41 31.21 81.09 31.45 81.79 31.46 82.52 31.27 83.25 31.45 83.96 31.31 84.68 31.54 85.4 31.42 86.11 31.21 86.82 31.13 87.53 31.34 88.26 31.14 88.97 31.03 89.68 30.95 90.39 30.91 91.1 30.9 91.82 30.81 92.53 30.69 93.24 30.68 93.96 30.65 94.68 30.55 95.39 30.43 96.1 30.12 96.77 30.03 97.48 29.73 98.16 29.78 98.89 29.53 99.56 29.59 100.3 29.3 100.97 28.98 101.62 28.93 102.34 28.82 103.05 28.48 103.7 28.39 104.42 28.34 105.14 28.16 105.83 27.96 106.52 27.78 107.22 27.28 107.81 27.31 108.57 27.11 109.26 26.94 109.96 26.5 110.57 26.38 111.29 25.98 111.9 25.71 112.56 25.55 113.26 25.42 113.98 24.97 114.57 24.97 115.34 24.67 115.99 24.33 116.63 23.94 117.24 23.83 117.97 23.46 118.6 23.2 119.27 23.16 120.04 22.81 120.67 22.29 121.22 22.3 122.02 21.75 122.56 21.66 123.31 21.16 123.88 21 124.6 20.65 125.23 20.3 125.87 19.88 126.46 19.68 127.17 19.2 127.74 19.11 128.53 18.63 128.89 18.08 128.87"/>
      <polygon class="cls-1" points="9.89 113.41 9.53 113.2 9.01 112.72 8.98 111.98 9.33 111.33 9.52 110.63 9.87 110 10.01 109.28 10.38 108.65 10.6 107.96 10.93 107.31 11.08 106.59 11.43 105.95 11.57 105.23 11.88 104.58 11.98 103.84 12.33 103.2 12.5 102.5 12.76 101.83 12.95 101.13 13.28 100.48 13.42 99.76 13.63 99.07 13.9 98.4 14.02 97.67 14.29 97 14.4 96.28 14.74 95.62 14.76 94.88 15 94.19 15.21 93.5 15.42 92.8 15.59 92.09 15.75 91.38 15.94 90.68 16.12 89.97 16.23 89.25 16.4 88.54 16.48 87.81 16.6 87.09 16.73 86.37 16.86 85.66 16.82 84.92 16.89 84.19 16.98 83.47 17.02 82.75 17.18 82.03 17.13 81.31 17.55 80.67 18.22 80.4 18.86 80.72 19.16 81.38 19.08 82.1 19.02 82.82 19.05 83.54 19.06 84.27 18.94 84.99 18.83 85.7 18.69 86.42 18.65 87.14 18.46 87.84 18.33 88.56 18.18 89.27 18.03 89.98 17.97 90.7 17.75 91.4 17.54 92.09 17.55 92.84 17.33 93.54 17.17 94.25 16.9 94.93 16.68 95.63 16.59 96.36 16.33 97.04 16.06 97.72 15.97 98.46 15.69 99.13 15.6 99.87 15.22 100.51 15.15 101.25 14.8 101.91 14.65 102.62 14.32 103.28 14.12 103.98 13.91 104.67 13.74 105.38 13.43 106.04 13.21 106.73 12.97 107.41 12.68 108.07 12.52 108.79 12.25 109.46 11.92 110.11 11.6 110.76 11.33 111.43 11.07 112.1 10.88 112.79 10.42 113.18 9.89 113.41"/>
      <polygon class="cls-1" points="25.39 86.55 24.68 86.57 23.96 86.56 23.24 86.58 22.52 86.56 21.8 86.58 21.08 86.57 20.36 86.53 19.64 86.54 18.91 86.56 18.19 86.54 17.48 86.27 17.21 85.56 17.47 84.84 18.19 84.58 18.91 84.56 19.63 84.59 20.35 84.56 21.07 84.59 21.78 84.55 22.5 84.58 23.22 84.53 23.95 84.57 24.67 84.55 25.39 84.56 26.11 84.84 26.37 85.56 26.1 86.27 25.39 86.55"/>
      <polygon class="cls-1" points="28.66 98.2 28.33 98.16 27.65 97.9 26.94 97.68 26.25 97.45 25.56 97.2 24.86 96.96 24.19 96.65 23.49 96.42 22.8 96.17 22.1 95.96 21.41 95.69 20.7 95.47 20.02 95.19 19.32 94.96 18.63 94.7 17.95 94.4 17.25 94.16 16.54 93.93 16.01 93.4 15.94 92.65 16.47 92.12 17.23 92.03 17.9 92.33 18.6 92.56 19.28 92.84 19.99 93.04 20.66 93.33 21.37 93.54 22.05 93.82 22.76 94.01 23.44 94.31 24.14 94.53 24.83 94.79 25.53 95.03 26.2 95.32 26.91 95.54 27.61 95.79 28.3 96.07 29.01 96.28 29.56 96.82 29.63 97.59 29.22 98.03 28.66 98.2"/>
      <polygon class="cls-1" points="21.76 106.17 21.21 105.96 20.59 105.55 19.97 105.14 19.36 104.71 18.75 104.28 18.14 103.85 17.54 103.43 16.92 103.01 16.31 102.59 15.68 102.18 15.05 101.77 14.44 101.34 13.82 100.92 13.43 100.26 13.58 99.52 14.21 99.11 14.96 99.25 15.57 99.68 16.19 100.08 16.79 100.52 17.42 100.93 18.03 101.36 18.62 101.81 19.24 102.22 19.86 102.63 20.46 103.08 21.09 103.48 21.7 103.92 22.34 104.32 22.73 104.98 22.58 105.72 21.76 106.17"/>
      <polygon class="cls-1" points="35.81 86.87 35.06 86.58 34.8 85.83 34.75 85.12 34.74 84.4 34.84 83.68 34.83 82.96 34.78 82.24 34.8 81.52 34.79 80.8 34.77 80.08 34.87 79.36 34.82 78.65 34.78 77.93 34.81 77.21 34.84 76.49 34.85 75.77 34.87 75.05 34.84 74.33 34.86 73.61 34.81 72.88 34.78 72.16 34.78 71.44 34.77 70.72 34.87 69.99 34.84 69.27 34.83 68.55 34.78 67.82 34.81 67.09 34.75 66.37 35.1 65.66 35.81 65.32 36.53 65.64 36.74 66.37 36.77 67.08 36.8 67.8 36.75 68.52 36.81 69.24 36.76 69.96 36.84 70.68 36.76 71.4 36.79 72.12 36.74 72.84 36.82 73.55 36.75 74.27 36.82 74.99 36.77 75.71 36.87 76.43 36.79 77.15 36.83 77.87 36.81 78.59 36.84 79.31 36.76 80.04 36.82 80.76 36.82 81.48 36.78 82.21 36.84 82.93 36.79 83.65 36.85 84.38 36.76 85.11 36.87 85.83 36.53 86.56 35.81 86.87"/>
      <polygon class="cls-1" points="65.56 89.3 64.84 89.29 64.12 89.17 63.4 89.23 62.68 89.13 61.96 89.18 61.24 89.17 60.52 89.26 59.8 89.15 59.08 89.21 58.37 89.16 57.65 89.19 56.93 89.18 56.21 89.19 55.49 89.23 54.77 89.13 54.06 89.12 53.33 89.07 52.61 88.97 51.88 89.09 51.17 88.98 50.44 89.03 49.72 88.98 49.02 88.79 48.3 88.84 47.58 88.74 46.87 88.71 46.15 88.65 45.45 88.47 44.73 88.41 44.02 88.27 43.36 87.95 42.68 87.74 41.98 87.55 41.36 87.18 40.77 86.78 40.23 86.3 39.92 85.65 39.56 85.04 39.3 84.38 39.21 83.67 39.18 82.96 39.18 82.24 39.26 81.52 39.38 80.81 39.7 80.16 40.05 79.52 40.55 78.98 41.17 78.57 41.82 78.23 42.55 78.12 43.25 77.9 43.97 77.75 44.69 77.6 45.43 77.6 46.17 77.5 46.54 77.59 47.21 77.53 47.87 77.54 48.56 77.6 49.21 77.42 49.82 77.13 50.42 76.8 50.72 76.23 51 75.65 50.93 75 51.02 74.26 50.88 73.53 50.74 72.8 50.23 72.25 49.66 71.76 48.92 71.66 48.2 71.5 47.46 71.63 46.74 71.51 46.01 71.57 45.29 71.54 44.56 71.58 43.83 71.47 43.11 71.55 42.38 71.56 41.65 71.49 40.92 71.59 40.19 71.51 39.46 71.61 38.74 71.46 38.01 71.63 37.27 71.58 36.54 71.54 35.81 71.52 35.11 71.23 34.83 70.54 35.13 69.86 35.81 69.61 36.53 69.58 37.26 69.61 37.99 69.55 38.71 69.55 39.44 69.57 40.17 69.6 40.89 69.47 41.62 69.45 42.35 69.47 43.08 69.45 43.81 69.56 44.53 69.48 45.27 69.6 46 69.58 46.73 69.61 47.46 69.56 48.15 69.63 48.84 69.71 49.53 69.74 50.23 69.86 50.85 70.18 51.42 70.58 51.88 71.09 52.33 71.63 52.55 72.29 52.74 72.95 52.85 73.62 52.9 74.31 53.01 75 52.9 75.7 52.72 76.37 52.64 77.08 52.24 77.67 51.8 78.22 51.19 78.59 50.58 78.91 49.96 79.26 49.27 79.39 48.57 79.43 47.88 79.6 47.18 79.55 46.48 79.66 46.17 79.49 45.46 79.66 44.74 79.58 44.04 79.75 43.31 79.79 42.64 80.05 42.01 80.41 41.55 80.94 41.18 81.54 41.14 82.24 41.16 82.95 41.2 83.66 41.5 84.3 41.86 84.88 42.34 85.39 42.94 85.77 43.6 86.02 44.29 86.21 45 86.28 45.68 86.5 46.39 86.55 47.09 86.65 47.8 86.77 48.5 86.85 49.21 86.93 49.92 86.89 50.63 86.99 51.35 86.93 52.06 86.95 52.76 87.02 53.47 87.05 54.18 87.11 54.89 87.13 55.59 87.19 56.3 87.16 57.01 87.07 57.72 87.18 58.43 87.23 59.14 87.27 59.86 87.21 60.57 87.12 61.28 87.21 61.99 87.13 62.7 87.14 63.41 87.26 64.12 87.23 64.84 87.24 65.56 87.31 66.28 87.51 66.5 88.22 66.3 88.95 65.56 89.3"/>
      <polygon class="cls-1" points="43.35 112.76 42.63 112.67 41.91 112.57 41.18 112.48 40.47 112.3 39.83 111.95 39.19 111.6 38.52 111.3 37.99 110.8 37.41 110.35 36.96 109.78 36.42 109.27 36.13 108.6 35.74 107.98 35.49 107.3 35.17 106.64 35.08 105.92 34.84 105.22 34.78 104.49 34.84 103.75 34.8 103.03 34.87 102.31 34.83 101.59 34.84 100.87 34.77 100.14 34.84 99.41 34.8 98.69 34.83 97.96 34.8 97.23 34.8 96.51 34.78 95.78 34.74 95.05 34.81 94.32 34.8 93.59 34.82 92.87 34.87 92.14 34.76 91.4 34.82 90.67 34.76 89.94 35.07 89.2 35.81 88.99 36.53 89.22 36.8 89.94 36.84 90.66 36.86 91.38 36.81 92.1 36.87 92.83 36.87 93.55 36.77 94.28 36.77 95 36.84 95.73 36.81 96.46 36.82 97.18 36.84 97.91 36.74 98.64 36.79 99.37 36.83 100.1 36.8 100.82 36.77 101.56 36.76 102.29 36.73 103.02 36.77 103.75 36.77 104.47 36.91 105.18 37.09 105.87 37.3 106.55 37.59 107.2 37.86 107.87 38.31 108.43 38.81 108.94 39.39 109.36 39.96 109.78 40.62 110.06 41.26 110.37 41.95 110.52 42.65 110.66 43.35 110.8 44.06 110.75 44.77 110.67 45.48 110.63 46.16 110.41 46.86 110.26 47.47 109.88 48.11 109.57 48.62 109.07 49.11 108.55 49.39 107.9 49.72 107.27 49.84 106.56 50.02 105.88 49.98 105.16 50.11 104.46 50.08 103.75 50.1 103.05 50.07 102.35 50.16 101.64 50.09 100.94 50.09 100.23 50.14 99.53 50.07 98.83 50.12 98.12 50.05 97.41 50.16 96.71 50.04 96 50.07 95.29 50.1 94.59 50.12 93.87 50.12 93.16 50.41 92.47 51.11 92.2 51.77 92.49 52.08 93.16 52.05 93.87 52.09 94.57 52.09 95.27 52.08 95.98 52.06 96.68 52.16 97.39 52.17 98.09 52.15 98.8 52.17 99.51 52.09 100.21 52.15 100.92 52.06 101.62 52.07 102.33 52.05 103.04 52.09 103.75 52.04 104.48 51.99 105.19 51.98 105.92 51.93 106.64 51.74 107.35 51.51 108.03 51.22 108.69 50.93 109.36 50.48 109.93 50.01 110.47 49.47 110.95 48.88 111.36 48.29 111.77 47.61 112.02 46.92 112.21 46.25 112.52 45.52 112.61 44.81 112.71 44.08 112.69 43.35 112.76"/>
      <polygon class="cls-1" points="51.11 97.74 50.39 97.79 49.68 97.79 48.98 97.72 48.27 97.8 47.56 97.77 46.85 97.74 46.13 97.74 45.42 97.78 44.71 97.74 44 97.74 43.28 97.78 42.57 97.81 41.86 97.75 41.14 97.73 40.43 97.8 39.71 97.74 39 97.78 38.28 97.73 37.56 97.81 36.84 97.71 36.13 97.75 35.45 97.44 35.1 96.76 35.45 96.08 36.13 95.72 36.84 95.72 37.55 95.79 38.25 95.75 38.96 95.8 39.67 95.78 40.38 95.78 41.1 95.73 41.81 95.78 42.52 95.75 43.23 95.77 43.95 95.75 44.66 95.75 45.37 95.74 46.09 95.71 46.8 95.76 47.52 95.76 48.23 95.77 48.95 95.81 49.67 95.73 50.39 95.77 51.11 95.72 51.84 96.03 52.07 96.76 51.82 97.48 51.11 97.74"/>
    </g>
  </g>
</svg>