<?xml version="1.0" encoding="UTF-8"?>
<svg id="_图层_2" data-name="图层 2" xmlns="http://www.w3.org/2000/svg" viewBox="0 0 30.15 55.85">
  <defs>
    <style>
      .cls-1 {
        fill: #8c1900;
      }
    </style>
  </defs>
  <g id="_图层_1-2" data-name="图层 1">
    <path class="cls-1" d="M17.74,28.94c-.29-.18-.34-.1-.64-.27-.3-.18-.35-.07-.65-.25-.3-.18-.26-.24-.55-.42-.14-.08-.26-.04-.33-.09-.04.01-.06-.06-.1-.03-.3.18-.29.2-.59.38-.31.19-.32.16-.63.35-.3.18-.28.22-.58.4-.1.06-.2.09-.27.1.12.03.21.05.43.05.36,0,.36-.15.72-.15s.36.14.71.14.36.01.72.01.36.05.72.05.36-.11.72-.11c.3,0,.36.09.58.11-.05-.06-.12-.2-.26-.28ZM19.42,32.14c-.13-.12-.26-.37-.52-.37-.36,0-.36.22-.72.22s-.36-.17-.72-.17-.36.08-.72.08c-.34,0-.37-.01-.67,0-.1.09,0,.15,0,.28,0,.39.08.39.08.78,0,.18-.07.27-.09.36.02.03.03.03.07.03.35,0,.35-.07.69-.07s.35.11.69.11.35-.04.7-.04.34.04.69.04c.26,0,.47-.08.61-.23.12-.12.24-.31.24-.51,0-.16-.17-.34-.33-.51ZM19.42,32.14c-.13-.12-.26-.37-.52-.37-.36,0-.36.22-.72.22s-.36-.17-.72-.17-.36.08-.72.08c-.34,0-.37-.01-.67,0-.1.09,0,.15,0,.28,0,.39.08.39.08.78,0,.18-.07.27-.09.36.02.03.03.03.07.03.35,0,.35-.07.69-.07s.35.11.69.11.35-.04.7-.04.34.04.69.04c.26,0,.47-.08.61-.23.12-.12.24-.31.24-.51,0-.16-.17-.34-.33-.51ZM19.42,32.14c-.13-.12-.26-.37-.52-.37-.36,0-.36.22-.72.22s-.36-.17-.72-.17-.36.08-.72.08c-.34,0-.37-.01-.67,0-.1.09,0,.15,0,.28,0,.39.08.39.08.78,0,.18-.07.27-.09.36.02.03.03.03.07.03.35,0,.35-.07.69-.07s.35.11.69.11.35-.04.7-.04.34.04.69.04c.26,0,.47-.08.61-.23.12-.12.24-.31.24-.51,0-.16-.17-.34-.33-.51ZM19.42,32.14c-.13-.12-.26-.37-.52-.37-.36,0-.36.22-.72.22s-.36-.17-.72-.17-.36.08-.72.08c-.34,0-.37-.01-.67,0-.1.09,0,.15,0,.28,0,.39.08.39.08.78,0,.18-.07.27-.09.36.02.03.03.03.07.03.35,0,.35-.07.69-.07s.35.11.69.11.35-.04.7-.04.34.04.69.04c.26,0,.47-.08.61-.23.12-.12.24-.31.24-.51,0-.16-.17-.34-.33-.51ZM19.42,32.14c-.13-.12-.26-.37-.52-.37-.36,0-.36.22-.72.22s-.36-.17-.72-.17-.36.08-.72.08c-.34,0-.37-.01-.67,0-.1.09,0,.15,0,.28,0,.39.08.39.08.78,0,.18-.07.27-.09.36.02.03.03.03.07.03.35,0,.35-.07.69-.07s.35.11.69.11.35-.04.7-.04.34.04.69.04c.26,0,.47-.08.61-.23.12-.12.24-.31.24-.51,0-.16-.17-.34-.33-.51ZM19.42,32.14c-.13-.12-.26-.37-.52-.37-.36,0-.36.22-.72.22s-.36-.17-.72-.17-.36.08-.72.08c-.34,0-.37-.01-.67,0-.1.09,0,.15,0,.28,0,.39.08.39.08.78,0,.18-.07.27-.09.36.02.03.03.03.07.03.35,0,.35-.07.69-.07s.35.11.69.11.35-.04.7-.04.34.04.69.04c.26,0,.47-.08.61-.23.12-.12.24-.31.24-.51,0-.16-.17-.34-.33-.51ZM17.84,51.96c-.03-.22,0-.45-.01-.68-.02-.22-.05-.44-.06-.67-.02-.23.11-.46.1-.69,0-.23-.31-.45-.32-.68,0-.22.2-.45.2-.68s.06-.45.07-.68c0-.23-.23-.46-.23-.69.01-.23.04-.46.06-.69,0-.16.07-.35-.24-.53-.18-.11-.41-.18-.67-.21-.23-.03-.46.1-.69.14-.26.04-.54-.07-.73.05-.25.15-.18.32-.17.36.02.24-.08.47-.06.68.01.24.04.46.05.67.01.23.08.45.08.66,0,.23-.15.45-.16.67,0,.22.16.44.15.67-.02.21-.01.43-.03.66-.02.21-.18.42-.21.65-.02.21,0,.43-.02.66-.03.21-.09.43-.12.66-.03.24.05.5.02.77-.03.23-.04.48-.08.75,0,.03,0,.01-.01.04.45-.45.15-.59.62-.75.34-.11.35.06.7.1s.36.06.71.04c.31-.02.21-.11.53-.31.16-.09.3-.24.51-.34-.02-.21.04-.41.02-.64ZM19.42,32.14c-.13-.12-.26-.37-.52-.37-.36,0-.36.22-.72.22s-.36-.17-.72-.17-.36.08-.72.08c-.34,0-.37-.01-.67,0-.1.09,0,.15,0,.28,0,.39.08.39.08.78,0,.18-.07.27-.09.36.02.03.03.03.07.03.35,0,.35-.07.69-.07s.35.11.69.11.35-.04.7-.04.34.04.69.04c.26,0,.47-.08.61-.23.12-.12.24-.31.24-.51,0-.16-.17-.34-.33-.51ZM19.42,32.14c-.13-.12-.26-.37-.52-.37-.36,0-.36.22-.72.22s-.36-.17-.72-.17-.36.08-.72.08c-.34,0-.37-.01-.67,0-.1.09,0,.15,0,.28,0,.39.08.39.08.78,0,.18-.07.27-.09.36.02.03.03.03.07.03.35,0,.35-.07.69-.07s.35.11.69.11.35-.04.7-.04.34.04.69.04c.26,0,.47-.08.61-.23.12-.12.24-.31.24-.51,0-.16-.17-.34-.33-.51ZM19.42,32.14c-.13-.12-.26-.37-.52-.37-.36,0-.36.22-.72.22s-.36-.17-.72-.17-.36.08-.72.08c-.34,0-.37-.01-.67,0-.1.09,0,.15,0,.28,0,.39.08.39.08.78,0,.18-.07.27-.09.36.02.03.03.03.07.03.35,0,.35-.07.69-.07s.35.11.69.11.35-.04.7-.04.34.04.69.04c.26,0,.47-.08.61-.23.12-.12.24-.31.24-.51,0-.16-.17-.34-.33-.51ZM19.42,32.14c-.13-.12-.26-.37-.52-.37-.36,0-.36.22-.72.22s-.36-.17-.72-.17-.36.08-.72.08c-.34,0-.37-.01-.67,0-.1.09,0,.15,0,.28,0,.39.08.39.08.78,0,.18-.07.27-.09.36.02.03.03.03.07.03.35,0,.35-.07.69-.07s.35.11.69.11.35-.04.7-.04.34.04.69.04c.26,0,.47-.08.61-.23.12-.12.24-.31.24-.51,0-.16-.17-.34-.33-.51ZM19.42,32.14c-.13-.12-.26-.37-.52-.37-.36,0-.36.22-.72.22s-.36-.17-.72-.17-.36.08-.72.08c-.34,0-.37-.01-.67,0-.1.09,0,.15,0,.28,0,.39.08.39.08.78,0,.18-.07.27-.09.36.02.03.03.03.07.03.35,0,.35-.07.69-.07s.35.11.69.11.35-.04.7-.04.34.04.69.04c.26,0,.47-.08.61-.23.12-.12.24-.31.24-.51,0-.16-.17-.34-.33-.51ZM19.42,32.14c-.13-.12-.26-.37-.52-.37-.36,0-.36.22-.72.22s-.36-.17-.72-.17-.36.08-.72.08c-.34,0-.37-.01-.67,0-.1.09,0,.15,0,.28,0,.39.08.39.08.78,0,.18-.07.27-.09.36.02.03.03.03.07.03.35,0,.35-.07.69-.07s.35.11.69.11.35-.04.7-.04.34.04.69.04c.26,0,.47-.08.61-.23.12-.12.24-.31.24-.51,0-.16-.17-.34-.33-.51ZM19.42,32.14c-.13-.12-.26-.37-.52-.37-.36,0-.36.22-.72.22s-.36-.17-.72-.17-.36.08-.72.08c-.34,0-.37-.01-.67,0-.1.09,0,.15,0,.28,0,.39.08.39.08.78,0,.18-.07.27-.09.36.02.03.03.03.07.03.35,0,.35-.07.69-.07s.35.11.69.11.35-.04.7-.04.34.04.69.04c.26,0,.47-.08.61-.23.12-.12.24-.31.24-.51,0-.16-.17-.34-.33-.51ZM19.42,32.14c-.13-.12-.26-.37-.52-.37-.36,0-.36.22-.72.22s-.36-.17-.72-.17-.36.08-.72.08c-.34,0-.37-.01-.67,0-.1.09,0,.15,0,.28,0,.39.08.39.08.78,0,.18-.07.27-.09.36.02.03.03.03.07.03.35,0,.35-.07.69-.07s.35.11.69.11.35-.04.7-.04.34.04.69.04c.26,0,.47-.08.61-.23.12-.12.24-.31.24-.51,0-.16-.17-.34-.33-.51ZM19.42,32.14c-.13-.12-.26-.37-.52-.37-.36,0-.36.22-.72.22s-.36-.17-.72-.17-.36.08-.72.08c-.34,0-.37-.01-.67,0-.1.09,0,.15,0,.28,0,.39.08.39.08.78,0,.18-.07.27-.09.36.02.03.03.03.07.03.35,0,.35-.07.69-.07s.35.11.69.11.35-.04.7-.04.34.04.69.04c.26,0,.47-.08.61-.23.12-.12.24-.31.24-.51,0-.16-.17-.34-.33-.51ZM19.42,32.14c-.13-.12-.26-.37-.52-.37-.36,0-.36.22-.72.22s-.36-.17-.72-.17-.36.08-.72.08c-.34,0-.37-.01-.67,0-.1.09,0,.15,0,.28,0,.39.08.39.08.78,0,.18-.07.27-.09.36.02.03.03.03.07.03.35,0,.35-.07.69-.07s.35.11.69.11.35-.04.7-.04.34.04.69.04c.26,0,.47-.08.61-.23.12-.12.24-.31.24-.51,0-.16-.17-.34-.33-.51ZM28.22,7.26c-.17-.17-.28-.4-.45-.56s-.38-.3-.55-.46-.37-.31-.54-.47-.36-.31-.54-.47-.3-.38-.48-.54-.44-.23-.61-.38-.31-.37-.49-.52-.37-.3-.55-.45c-.19-.16-.38-.3-.55-.44-.19-.15-.39-.29-.57-.43-.19-.15-.32-.37-.5-.51-.2-.15-.39-.29-.57-.42-.2-.15-.43-.25-.61-.37-.21-.15-.44-.23-.62-.36-.23-.15-.42-.28-.58-.39-.38-.25-.2-.42-.54-.48s-.28.09-.71.13c-.2.02-.43.07-.69.09-.22.02-.45.05-.69.07-.22.02-.46.03-.7.04s-.46.02-.69.03-.47-.01-.7,0-.47.02-.7.01c-.24,0-.48-.01-.7-.02-.25-.01-.47-.13-.68-.15-.26-.03-.48-.07-.66-.13-.28-.08-.55-.03-.75.01-.26.05-.5.17-.66.34-.17.18-.33.42-.41.63-.13.31-.06.57-.08.67.08.05.05.12.14.12.25,0,.47.02.69.03.25.01.49-.16.7-.14.26.03.51-.02.71.02.27.05.37.43.54.52.22.12.5.13.59.34.07.19.15.44.15.71,0,.09.07.22.04.39.05-.01.03.04.09.04.35,0,.35.07.71.07s.36.02.72.02.36-.14.72-.14.36,0,.72,0,.36-.1.72-.1.36.07.72.07.36-.04.72-.04.36.09.72.09.36-.08.72-.08.36-.02.72-.02.36.05.73.05.36.19.72.19c.27,0,.5.08.5.35s-.23.59-.5.59c-.36,0-.36-.13-.72-.13s-.35.09-.71.09-.36-.19-.72-.19-.36.07-.72.07-.36.11-.72.11-.36-.07-.72-.07-.36-.04-.72-.04-.36.21-.72.21-.36-.26-.72-.26-.36,0-.72,0-.36.26-.72.26-.36-.26-.73-.26c-.18,0-.3,0-.39.04,0,.01.05.08.05.09-.01.22.11.46.09.7-.02.22-.27.44-.29.68-.02.22.09.47.07.71-.02.22.09.46.07.7-.02.23-.09.46-.11.7-.03.23.02.46,0,.7-.02.23-.29.43-.31.67-.03.23-.18.44-.2.68-.03.23,0,.46-.04.7-.03.23.06.48.04.71-.03.24-.18.46-.2.69-.03.23.1.49.07.71-.03.24.09.49.06.72-.03.22-.29.4-.31.63-.02.22-.06.45-.07.67-.01.23-.09.45-.09.67s.15.45.16.67c.01.23.21.45.22.67.02.22-.15.46-.12.68.02.23.01.45.05.67.03.23.19.43.23.64.04.24.06.46.1.66.06.25-.17.54-.12.72.03.11.11.27.16.34.35,0,.36-.18.71-.18s.35,0,.71,0,.35-.02.71-.02.35,0,.7,0,.36.08.71.08.36.19.71.19.36-.19.71-.19.36.14.71.14.36-.14.71-.14.35-.03.71-.03.36-.04.71-.04.36.17.72.17.36.11.71.11c.27,0,.52.05.52.32s-.25.32-.52.32c-.35,0-.35.04-.7.04s-.35,0-.71,0-.35.16-.7.16-.35-.12-.7-.12-.35-.01-.71-.01-.35.29-.71.29-.35-.14-.7-.14-.36-.16-.71-.16-.35.14-.71.14c-.11,0-.21-.07-.27-.09-.01.06.04.17.04.27,0,.35-.12.33-.12.68.11.12.14-.05.3-.05.24,0,.47-.03.69-.03.24,0,.47.16.69.16.24,0,.48-.2.7-.2.24,0,.46.23.68.24.24,0,.47-.06.69-.05.25.01.49-.14.7-.13.26.02.47.21.68.24.26.03.47.06.66.11.27.06.55-.02.71.08.22.13.27.4.35.61.06.19.15.4.15.66,0,.35.05.35.05.7s0,.34,0,.69-.09.35-.09.7.07.35.07.7-.05.35-.05.7-.05.35-.05.7c0,.26-.2.67-.47.67s-.3-.41-.3-.67c0-.35-.12-.35-.12-.7s0-.34,0-.69.09-.35.09-.7-.3-.35-.3-.7.16-.35.16-.7.06-.35.06-.7c0-.2-.08-.33-.44-.45-.15-.05-.33-.27-.63-.3-.18-.03-.41.03-.67,0-.2-.01-.42-.06-.67-.07-.2-.01-.43.02-.67,0-.21,0-.43-.06-.67-.07-.21,0-.43.03-.67.03-.21,0-.44.16-.67.16s-.44-.08-.67-.08c-.03,0,0,.02-.03.01-.01.19-.04.23-.04.51,0,.35-.12.35-.12.7s-.02.35-.02.69-.08.35-.08.7.11.35.11.7c0,.06-.08.14-.07.18.12.04.21.05.41.17.29.18.25.26.54.43.29.18.26.24.55.41.3.17.37.04.67.22.29.17.29.19.58.37.29.17.3.16.59.33.29.18.27.22.57.4.29.17.33.12.62.29.3.18.32.14.61.32.3.17.24.29.53.46.3.18.31.16.61.33.3.18.27.24.56.42.23.13.3.29.17.52-.09.15-.18.21-.35.21-.08,0-.15.02-.23-.03-.29-.17-.31-.15-.6-.32-.3-.18-.26-.23-.56-.4-.29-.18-.33-.1-.63-.28-.29-.17-.32-.12-.62-.29-.26-.15-.24-.26-.44-.41-.34,0-.35.06-.69.06-.36,0-.36-.18-.72-.18s-.36.15-.72.15-.36.03-.72.03-.36-.13-.71-.13-.36.06-.72.06-.36-.02-.72-.02-.36-.03-.72-.03-.36.13-.72.13-.36-.21-.72-.21-.36.08-.72.08c0,0,0-.02,0-.02-.24.15-.31.08-.59.26-.31.18-.23.31-.54.5-.3.19-.32.16-.62.35-.31.19-.26.28-.56.46-.31.19-.28.23-.59.42-.08.05-.21.05-.29.05-.17,0-.42-.08-.51-.23-.14-.22.04-.54.27-.68.28-.17.19-.31.48-.48.28-.17.32-.1.61-.28.28-.17.22-.28.5-.45.29-.18.4,0,.69-.17.28-.18.28-.18.57-.35.02-.01.13.05.15.04.05-.16.13-.35.3-.38.01-.01.05.07.06.07.02-.02,0-.11.03-.13.29-.18.24-.26.52-.43.29-.18.4.01.69-.16.28-.18.26-.21.55-.39.28-.17.22-.28.5-.46.29-.18.34-.09.63-.27.29-.17.25-.16.41-.46.17-.31.12-.27.12-.63s.03-.36.03-.72.05-.35.05-.71.11-.36.11-.72c0-.3-.15-.3-.16-.53-.09.06-.12-.01-.21-.01-.24,0-.47.02-.69.02-.24,0-.47-.15-.69-.15-.24,0-.47.11-.69.11-.24,0-.47-.04-.69-.03-.25,0-.48.05-.68.06-.26.01-.48.15-.68.16-.28.02-.48.04-.67.07-.32.05-.5.04-.62.13-.18.15-.18.29-.18.57,0,.33.09.33.09.66s-.32.33-.32.65.06.33.06.66-.09.33-.09.66,0,.33,0,.67.26.33.26.66c0,.26-.27.31-.53.31s-.45-.05-.45-.31c0-.33,0-.33,0-.66s-.16-.33-.16-.66.07-.32.07-.65.21-.33.21-.66-.2-.34-.2-.67.04-.33.04-.66c0-.27-.11-.53-.07-.73.05-.26.25-.47.42-.63.14-.14.33-.34.6-.42.19-.06.43-.15.7-.19.2-.03.46.07.72.05.21-.02.45.11.7.1.22-.01.45-.09.7-.1.22,0,.46.08.7.08s.46-.26.71-.26c.22,0,.46.16.7.16s.46-.15.71-.15c.1,0,.17.03.27.07,0-.19-.04-.23-.04-.52,0-.15.11-.16.07-.31-.07,0-.15-.06-.27-.06-.36,0-.36.27-.71.27s-.36.03-.71.03-.36,0-.71,0-.36-.27-.71-.27-.36.12-.71.12-.36-.19-.71-.19-.36.16-.71.16-.36-.22-.72-.22-.36.06-.71.06c-.27,0-.53-.06-.53-.32s.26-.39.53-.39c.35,0,.35-.06.7-.06s.35-.1.7-.1.36-.07.71-.07.35.09.7.09.35.09.71.09c.34,0,.35-.08.67-.09-.01-.02-.05,0-.06-.02-.05-.2.02-.46-.03-.72-.05-.21-.29-.41-.34-.66-.04-.22.08-.47.04-.72-.03-.22-.33-.42-.36-.66-.02-.23-.04-.47-.06-.71-.02-.23-.03-.48-.03-.72,0-.23.13-.48.14-.72,0-.23-.11-.47-.1-.71s-.02-.48,0-.72c.02-.23.22-.45.26-.69.03-.22.08-.44.11-.68.03-.22.05-.45.08-.68.03-.22.08-.45.11-.67.03-.23.04-.46.06-.69.03-.23-.12-.47-.09-.7.02-.23.02-.46.04-.69.03-.23.34-.43.36-.66.03-.24-.08-.47-.06-.7s.18-.45.2-.67c.02-.24-.24-.49-.22-.72.02-.23.25-.45.27-.67.02-.24.12-.46.13-.68.02-.24-.32-.5-.31-.71.02-.25.25-.47.26-.66.02-.31-.07-.55-.07-.69,0-.22.06-.24-.32-.33-.15-.04-.33-.24-.63-.26-.18-.01-.41.02-.67,0-.15-.01-.29-.02-.48-.07.02.13.07.18.06.3-.01.23,0,.47,0,.69-.01.23-.38.44-.39.66-.01.24.08.47.07.69-.01.23-.08.46-.09.68,0,.23.08.47.06.69-.01.23-.1.46-.11.68-.01.23-.12.45-.14.67-.01.23.31.49.29.71-.02.23-.17.45-.19.67-.02.23.05.46.03.68-.02.24-.03.47-.05.69-.02.23-.22.44-.24.66-.02.23.02.47,0,.68-.02.24-.15.45-.17.67-.03.23-.07.45-.09.67-.03.24.26.5.23.71-.03.24-.39.42-.42.63-.04.24-.1.46-.13.66-.04.25.02.49-.01.69-.04.26-.07.48-.1.66-.09.43-.09.64-.09.67-.07.2-.24.44-.44.44-.05,0-.08-.17-.13-.19-.25-.07-.61-.34-.54-.59.01,0,.38-.12.47-.6.04-.19.08-.42.12-.69.04-.2-.19-.47-.15-.73.03-.21.36-.4.39-.65.03-.22-.24-.48-.21-.73.02-.22.33-.42.35-.66.03-.22-.01-.46,0-.71.02-.22-.12-.47-.09-.71.02-.22.14-.45.16-.69.02-.23.24-.45.26-.69.01-.22-.14-.47-.12-.71.02-.23.14-.45.16-.69.02-.23-.19-.48-.18-.72.02-.23.1-.46.12-.69.01-.23-.04-.47-.02-.71.01-.23.05-.47.06-.7.02-.23.02-.47.03-.71.02-.23.09-.46.1-.7.01-.23.04-.46.05-.7.01-.23.03-.47.04-.71,0-.13.17-.17.08-.27-.18.06-.36.27-.56.27-.21,0-.43-.35-.67-.35-.2,0-.28,0-.31-.17-.21.11-.39.24-.56.37-.2.14-.38.28-.53.43-.19.18-.32.37-.44.53-.26.32-.37.19-.45.52s0,.26-.42.42c-.16.06-.35.07-.64.07-.25,0-.46.24-.66.45-.17.18-.3.41-.44.64s-.32.45-.44.66c-.21.35-.38.58-.55.41-.15-.16-.38-.25-.61-.18-.18.06-.3.27-.45.46-.12.15-.23.32-.3.55-.05.19-.15.39-.15.63,0,.2.02.44-.04.7-.05.21-.12.45-.2.68-.08.22-.22.42-.31.64s-.1.48-.2.69c-.1.23-.2.44-.3.65-.11.24-.23.45-.32.64-.2.38-.34.24-.31.59.04.39.16.24.42.63.13.19.21.46.36.7.14.21.29.43.43.66s.23.48.35.7c.14.27.39.45.45.66.04.12-.05.39-.07.74-.01.2-.03.44-.05.72-.02.22-.03.46-.06.72-.03.23-.12.46-.15.71-.03.23-.02.47-.05.72-.03.23.04.48,0,.73s-.17.46-.2.7-.07.47-.1.71-.04.48-.07.72-.05.47-.09.71-.15.46-.18.7-.06.48-.09.72-.03.48-.06.72-.09.48-.13.71-.08.48-.12.72-.04.48-.07.72-.05.48-.08.72-.08.48-.11.72.02.49,0,.73c-.03.25-.06.49-.08.72-.02.25-.06.49-.08.72-.02.25-.03.49-.04.72-.01.26,0,.45,0,.67.27.22.24.04.64.17.19.06.38.19.61.32.19.1.4.19.6.35.17.13.32.31.48.5.15.16.33.31.47.52.12.18.26.37.37.59.1.19.09.45.18.68.08.21.19.41.25.64.06.21.13.43.18.67.04.22.09.44.12.68.03.22.02.45.05.69.02.22.08.45.09.69,0,.23,0,.46,0,.7,0,.26-.03.5-.03.75,0,.26-.05.5-.06.75-.01.26.02.51,0,.75-.02.26-.01.51-.04.75-.02.26.01.51-.01.75-.03.26-.12.5-.16.73-.04.26-.11.5-.16.73-.05.26.02.53-.04.76-.06.26-.16.49-.23.71-.08.26-.19.49-.27.7-.11.28-.27.48-.37.65-.25.44-.31.24-.33.6s.04.27.28.66c.12.18.25.4.4.64.12.2.35.36.49.58.13.21.23.44.36.66s.25.43.38.65.28.42.41.64.28.43.4.65c.13.23.12.52.23.73.13.25.26.46.35.67.14.32.18.55.18.69,0,.23.26.35.55.44.19.06.41.21.68.22.22.01.46-.02.72-.03.22,0,.46-.11.7-.13.23-.02.48.05.72.02s.47-.05.71-.09.44-.18.68-.22c.04-.02.03,0,.03-.05,0-.24.15-.48.15-.71-.01-.23-.25-.47-.25-.7-.01-.23.06-.47.05-.7,0-.24.38-.48.38-.71-.01-.24-.21-.47-.21-.7-.01-.17-.02-.36-.05-.53-.03,0-.07-.06-.1-.07-.2-.06-.45,0-.64-.11-.18-.11-.41-.19-.56-.35-.15-.15-.19-.39-.3-.59-.1-.18-.09-.4-.14-.61-.05-.2-.13-.4-.13-.63,0-.32,0-.32,0-.64s.07-.32.07-.65-.08-.32-.08-.64-.08-.33-.08-.65c0-.27.28-.46.55-.46s.53.19.53.46c0,.32-.03.32-.03.64s.07.33.07.65-.09.32-.09.64,0,.33,0,.65c0,.26.07.47.15.66.09.23.21.41.38.55.16.13.36.2.57.24-.02-.23-.24-.44-.25-.66,0-.24-.04-.48-.04-.71-.01-.24-.07-.47-.07-.7,0-.25.37-.48.37-.71s-.31-.48-.31-.7c0-.25.09-.48.09-.71s-.16-.47-.16-.7c0-.11.03-.22.02-.33-.21-.07-.41-.21-.6-.35-.18-.14-.35-.3-.49-.49-.12-.19-.25-.39-.31-.62-.06-.21-.08-.45-.08-.7,0-.29-.04-.55-.03-.78.01-.32.16-.57.17-.79.04-.51,0-.77,0-.79.05-.26.33-.49.58-.44.27.05.34.35.29.61-.06.36.04.25,0,.73-.01.2.02.44.01.72,0,.22-.05.46-.05.73s.13.46.23.65c.08.14.12.26.23.34.05-.21.36-.41.37-.61,0-.24-.21-.48-.2-.7.01-.25-.12-.49-.11-.71.01-.25.17-.47.18-.69.02-.26.23-.47.25-.69.03-.25-.25-.52-.22-.73.04-.26.19-.47.24-.67.07-.27.16-.48.24-.66.12-.25.36-.27.52-.39.18-.14.32-.16.56-.21.26-.06.52-.12.57.14.06.26-.15.59-.41.65-.18.03-.57.04-.69.35-.07.18.14.5.09.78-.03.2-.28.4-.31.66-.02.22.28.48.27.73-.02.22-.28.44-.29.69-.01.22,0,.45,0,.7,0,.22.19.46.19.71-.01.22-.27.45-.27.69,0,.08-.02.11.05.15.18-.04.36-.08.48-.2.13-.12.13-.31.19-.49.05-.16.2-.31.2-.51,0-.29-.08-.54-.07-.77.01-.31.05-.57.07-.77.05-.5.08-.72.1-.77.1-.24.44-.33.69-.23.25.09.44.41.34.65-.11.3-.07.14-.1.62-.02.17-.06.38-.07.64-.01.19-.09.41-.09.65s.1.45.05.63c-.05.22-.16.42-.25.58-.11.21-.23.4-.35.52-.19.19-.47.29-.72.39-.14.05-.27.12-.42.14.02.07,0,.12,0,.19.01.22.18.46.18.7s.03.46.03.7-.24.47-.24.71.27.46.27.7-.23.46-.23.7c.01.23.07.46.07.7s-.05.47-.05.71c0,.03-.03,0-.02.03.21-.06.44-.11.59-.25.15-.15.15-.39.23-.61.06-.18.22-.37.22-.6,0-.29,0-.54,0-.77-.01-.31-.15-.55-.17-.75-.06-.54-.1-.74-.1-.75-.1-.24.02-.57.26-.67.24-.1.52.05.62.29.03.06.14.23.2.64.03.18,0,.4.02.67.02.19.05.42.06.67,0,.2.02.43.02.67s-.14.46-.18.66c-.06.25-.04.49-.14.67-.13.23-.3.38-.43.51-.15.14-.26.3-.44.4-.17.09-.38.08-.57.13-.02.01-.06.05-.08.05-.09.13-.19.3-.18.44,0,.23.27.46.27.7.01.23-.07.46-.06.7,0,.23-.14.47-.13.71,0,.23.13.47.14.7,0,.21,0,.41,0,.62.07-.01.13-.06.2-.07.26-.06.5-.12.72-.19.25-.08.46-.19.66-.28,0-.1.1-.16.11-.25.03-.26.15-.5.18-.74.03-.27,0-.52.03-.76.04-.26.23-.49.26-.73.03-.25-.14-.52-.12-.74.04-.26.14-.49.16-.71.03-.26.05-.5.07-.73.02-.25.19-.48.2-.72.02-.24-.11-.48-.11-.73,0-.23-.1-.46-.11-.71-.01-.23.16-.48.14-.74-.01-.23-.09-.47-.11-.72-.02-.26.07-.44.19-.66.12-.19.22-.4.45-.55.17-.1.38-.14.59-.2.11-.04.26-.05.37-.05.01-.14-.1-.33-.09-.45.02-.26.11-.49.17-.69.08-.24.19-.44.34-.6.15-.16.35-.27.59-.35.2-.06.42-.02.69-.02s.56.14.56.41-.29.48-.56.48-.47,0-.61.18c-.09.12-.22.3-.25.62-.01.09.04.25.04.36.21,0,.47-.18.67-.12.21.05.31.38.49.47.18.1.29.19.41.33.13.15.47.19.53.37.05.18,0,.42,0,.62-.02.24.02.47.01.71-.01.23-.08.47-.08.7-.01.24-.03.47-.02.7,0,.24-.12.48-.12.71.01.24.15.48.16.71.02.24-.02.48,0,.71.02.24-.04.48-.02.71.02.24.28.45.31.67,0,0-.03.06-.02.05.23-.06.46-.22.72-.25s.5.12.75.13.48.03.73.09c.24.06.51.02.75.13.22.1.4.3.61.45.19.14.39.29.58.47.28-.2.15-.32.34-.61s.2-.29.39-.58.18-.3.37-.59.21-.28.4-.58.22-.27.41-.57.17-.31.36-.6.16-.31.35-.61.23-.27.42-.56.16-.31.35-.61.15-.32.34-.61.23-.27.42-.57.16-.32.35-.62.22-.28.41-.58.35-.22.48-.55-.15-.28-.24-.72c-.04-.2-.04-.44-.09-.7-.04-.21-.04-.46-.09-.71-.04-.22-.18-.44-.23-.68-.04-.22-.07-.46-.12-.7-.04-.23-.13-.45-.17-.69s-.07-.47-.11-.7-.05-.47-.09-.71-.09-.46-.13-.7-.08-.47-.12-.7-.05-.48-.09-.71-.12-.47-.16-.7-.09-.47-.13-.7-.02-.48-.06-.71-.03-.48-.07-.71c-.03-.24-.14-.47-.16-.7-.03-.25,0-.49-.03-.72-.03-.25-.03-.49-.05-.71-.02-.27-.02-.5-.02-.71,0-.32-.03-.56.02-.7.04-.12.17-.34.28-.67.07-.2.11-.44.19-.7.07-.21.13-.44.21-.69.07-.22.16-.44.23-.68.07-.22.09-.46.17-.7.07-.22.12-.46.19-.7.07-.22.19-.44.26-.68s.08-.47.14-.71.15-.45.21-.69.2-.44.26-.67.01-.49.07-.72.24-.44.29-.67,0-.49.06-.73.18-.45.24-.69-.02-.5.02-.73.13-.47.17-.7.07-.48.12-.72.08-.48.12-.71.18-.46.21-.7-.08-.5-.05-.74.07-.48.1-.72.09-.48.11-.72.04-.48.05-.72-.04-.49-.03-.73.15-.49.14-.73-.06-.49-.07-.73.02-.49,0-.73-.15-.47-.18-.71-.13-.47-.18-.7,0-.5-.07-.73-.13-.48-.21-.7-.29-.41-.4-.61-.2-.45-.34-.64-.31-.37-.48-.54ZM20.85,26.5c-.32,0-.32,0-.64,0s-.31-.01-.63-.01-.32-.02-.64-.02-.32-.04-.64-.04-.31.06-.63.06-.32.09-.64.09c-.27,0-.44-.31-.44-.58s.17-.36.44-.36c.31,0,.31-.2.63-.2s.32.11.63.11.32-.02.64-.02.32.02.64.02.32-.07.64-.07.32,0,.64,0c.26,0,.5.25.5.52s-.24.5-.5.5ZM20.85,25.05c-.32,0-.32,0-.64,0s-.32-.09-.64-.09-.32.17-.64.17-.32-.05-.64-.05-.32.09-.64.09-.32-.12-.65-.12c-.26,0-.5-.18-.5-.45s.24-.43.5-.43c.32,0,.32-.07.64-.07s.32.02.64.02.32-.03.64-.03.32,0,.64,0,.32.1.64.1.32-.04.65-.04c.26,0,.53.18.53.45s-.27.46-.53.46ZM10.2,24.17c.33,0,.33-.05.67-.05s.33.03.66.03.33-.12.67-.12.33.06.66.06.34-.05.68-.05.33.02.67.02c.26,0,.41.26.41.53s-.15.52-.41.52c-.34,0-.34.04-.67.04s-.33-.11-.66-.11-.34,0-.67,0-.33.05-.67.05-.33.05-.67.05-.33-.09-.67-.09c-.27,0-.48-.21-.48-.48s.21-.42.48-.42ZM10.2,25.48c.33,0,.33.06.67.06s.33.04.66.04.33-.17.67-.17.33.09.66.09.34.01.68.01.33,0,.67,0c.26,0,.41.22.41.49s-.15.49-.41.49c-.34,0-.34-.07-.67-.07s-.33.03-.66.03-.34-.04-.67-.04-.33,0-.67,0-.33.1-.67.1-.33-.02-.67-.02c-.27,0-.47-.22-.47-.49s.2-.52.47-.52ZM15.39,5.36c.23-.12.61,0,.73.23.16.31.19.29.36.6.16.31.18.3.34.61s.13.32.3.63c.16.31.16.32.32.63.17.31.17.31.34.62.16.31.03.38.19.69.16.31.23.27.39.58.08.16.1.3.15.38.01-.08.1-.18.17-.33.15-.31.14-.31.3-.62.15-.31.03-.37.18-.68.15-.31.2-.29.35-.6s.19-.29.35-.6c.15-.31.25-.26.4-.57.15-.32.08-.35.23-.66.16-.32.18-.31.33-.62.11-.24.46-.47.7-.36.24.12.28.54.16.77-.15.31-.05.37-.2.67-.15.31-.34.22-.49.53s-.1.33-.25.64c-.15.32-.02.37-.17.69-.15.31-.25.26-.4.57-.15.31-.08.35-.23.66-.15.31-.34.22-.49.53-.15.31-.03.38-.18.69-.06.12-.15.17-.17.24.1.22.03.31.17.58.17.31.36.22.52.53.17.31.03.38.2.69.16.31.03.39.19.7.17.31.34.22.51.53.16.31.03.38.2.7.16.31.24.26.41.57.16.32.06.37.22.68.17.32.3.25.46.57.13.23,0,.5-.24.62-.07.04-.13-.02-.21-.02-.17,0-.35.04-.44-.12-.16-.31-.07-.36-.23-.67-.16-.31-.26-.25-.43-.56-.16-.31-.22-.28-.38-.59-.17-.31-.22-.29-.38-.6-.17-.31-.09-.34-.26-.65-.16-.31-.05-.37-.21-.68-.17-.31-.25-.27-.42-.58-.16-.31,0-.39-.17-.7-.01-.01-.02,0-.03-.01-.15.31-.25.26-.4.57-.16.31.1.43-.05.74-.16.31-.33.23-.49.54-.15.31-.04.36-.19.67s-.15.31-.31.63c-.15.31-.12.32-.28.64-.15.31-.18.3-.34.61-.15.31-.1.33-.25.65-.09.17-.3.2-.48.2-.07,0-.14.03-.21,0-.24-.12-.19-.34-.07-.58.15-.31.08-.34.23-.65.16-.31.08-.34.24-.65.15-.31.18-.3.33-.61.15-.32.17-.3.32-.61.16-.31.04-.37.19-.68.16-.31.2-.28.36-.59.15-.31.12-.32.27-.63.15-.32.31-.24.46-.55.16-.3,0-.38.16-.68-.02-.07-.08-.1-.14-.22-.17-.31-.07-.36-.23-.67-.17-.31-.37-.21-.53-.52-.17-.31-.07-.36-.23-.67-.17-.31-.27-.25-.44-.57-.16-.31-.13-.32-.3-.63-.16-.32-.22-.29-.39-.6-.17-.31-.17-.32-.33-.63-.17-.31,0-.4-.15-.72-.13-.23-.17-.53.07-.66ZM22.76,19.22c-.34,0-.34-.12-.68-.12s-.34.05-.68.05-.34,0-.68,0-.34.12-.68.12-.34-.1-.68-.1-.34.04-.68.04-.34-.04-.68-.04-.34.11-.68.11-.34-.2-.68-.2-.34.07-.69.07-.34-.01-.68-.01-.34.12-.69.12c-.26,0-.56-.32-.56-.59s.3-.61.56-.61c.34,0,.34.12.68.12s.34.02.68.02.34-.09.68-.09.34.04.68.04.34,0,.68,0,.34.15.68.15.34-.09.68-.09.34-.05.68-.05.34.04.68.04.34.09.69.09.34-.11.68-.11.34.08.69.08c.26,0,.61.13.61.4s-.35.54-.61.54ZM18.73,44.42c-.11-.09-.09-.41-.18-.72-.05-.19-.08-.42-.12-.67-.04-.22-.15-.44-.18-.69-.02-.18-.03-.38-.03-.58-.05,0-.13.09-.23.09-.33,0-.33-.05-.67-.05s-.34-.01-.67-.01-.34-.05-.68-.05-.33-.06-.67-.06c-.14,0-.24.02-.31.01-.02,0,.09.07.09.09-.01.24-.04.47-.06.67-.01.25-.14.46-.16.65-.03.27-.05.49-.08.66-.08.43.03.65,0,.69-.08.18-.34.17-.52.17-.07,0-.09-.05-.15-.08-.24-.1-.36-.26-.25-.51,0-.01.02-.21.09-.71.03-.19.04-.42.07-.71.02-.2.02-.44.04-.7.01-.16.07-.33.09-.51,0,0,.07,0,.07,0,.01-.06-.08-.13-.08-.2,0-.08-.01-.08-.01-.16,0-.18-.03-.37-.03-.56.01-.23.12-.47.12-.73s.14-.57.4-.57.54.31.54.57c0,.24-.03.46-.04.67,0,.12-.08.25-.1.37.05,0,.17-.06.26-.06.34,0,.34,0,.67,0,.04,0,.09.03.11,0,.09-.2.25-.4.31-.59.07-.25,0-.53.05-.76.06-.26,0-.52.06-.74.05-.28.21-.5.23-.71.04-.3.14-.54.13-.74-.01-.36-.16-.57-.25-.69-.07-.1-.17-.18-.51-.18s-.33-.06-.67-.06-.34-.12-.67-.12-.34.1-.68.1-.34.02-.67.02c-.24,0-.44-.06-.63-.12-.23-.06-.39-.15-.55-.27-.18-.14-.39-.24-.49-.42-.1-.19,0-.42,0-.63s-.17-.45-.08-.63c.09-.18.29-.31.44-.44.17-.14.43-.1.66-.17.21-.06.4-.28.65-.28.34,0,.34.05.68.05s.35,0,.69,0c.16,0,.26.05.34.05,0-.12-.05-.22-.05-.45,0-.39.07-.39.07-.78,0-.15-.04-.21-.05-.29-.18-.02-.23-.13-.51-.13-.37,0-.37.15-.73.15s-.36-.15-.72-.15-.36.11-.73.11-.36-.05-.72-.05c-.27,0-.51-.17-.51-.43s.24-.38.51-.38c.36,0,.36-.17.72-.17s.36.18.72.18.36.06.72.06.36-.1.72-.1.36-.11.72-.11c.2,0,.3-.03.4,0,.08.01.16.03.32.03.36,0,.36-.01.72-.01s.36.06.73.06.36-.05.72-.05.37.09.73.09c.25,0,.45.04.65.12.22.08.44.13.6.29.17.16.17.41.25.62.09.22.3.4.3.62s-.01.48-.1.7c-.08.2-.33.31-.5.47-.16.15-.27.41-.5.49-.19.07-.45,0-.7,0-.35,0-.35-.12-.69-.12s-.34.23-.69.23-.34.06-.68.06-.35.02-.69.02-.34-.11-.69-.11-.34-.21-.69-.21-.35.06-.69.06-.35.14-.69.14c-.22,0-.43-.09-.55-.03-.21.1-.41.34-.41.49,0,.14.25.27.45.37.13.06.29.21.51.21.33,0,.33-.12.67-.12s.34.05.67.05.34-.04.68-.04.34.06.67.06c.28,0,.45.17.66.26.23.1.38.16.53.37.12.17.34.29.4.52.05.2.02.42.03.67,0,.2.02.42,0,.66-.01.21-.1.42-.14.66-.03.21-.07.42-.12.66-.04.2,0,.44-.06.67-.05.21-.28.38-.35.6-.03.1,0,.28.02.4.1.05.14-.13.25-.13.34,0,.34.02.67.02.11,0,.1.09.19.02.01-.19-.01-.34,0-.51.01-.25.16-.47.19-.69.03-.26.18-.41.43-.37.27.03.5.22.46.48-.02.23-.1.45-.11.67-.01.23.07.46.08.68,0,.23-.07.46-.06.68.02.24,0,.46.03.67.03.25.04.48.07.67.06.33.28.49.32.58.13.18.06.51-.07.68-.1.12-.27.1-.4.1-.11,0-.28.09-.37,0ZM23.65,46.21c-.06.12-.2.33-.37.61-.11.17-.02.52-.17.74-.12.19-.39.3-.53.51-.14.19-.18.46-.33.66-.14.19-.4.3-.55.48-.16.19-.28.41-.44.58-.17.19-.36.35-.54.5-.2.17-.4.33-.59.42-.06.03-.16,0-.24,0-.17,0-.43-.05-.52-.22-.11-.24.01-.69.25-.81.17-.09.47-.09.68-.29.16-.16.4-.29.57-.49.16-.18.32-.38.47-.58.15-.19.14-.51.29-.71.14-.2.31-.39.44-.59.15-.21.4-.35.52-.54.16-.25.13-.55.22-.71.08-.15.12-.37-.05-.65-.11-.19-.21-.44-.39-.63-.05-.06-.17-.1-.22-.16-.06.1-.2.21-.28.34-.11.16-.15.4-.3.59-.12.15-.33.26-.49.43-.13.15-.17.41-.33.58-.15.15-.35.26-.52.42-.09.09-.23.06-.35.06s-.26.03-.36-.07c-.18-.19-.15-.5.05-.68.2-.2.33-.43.49-.6.21-.21.38-.39.52-.56.21-.24.47-.37.58-.54.14-.19.13-.39.17-.49,0-.01,0,.06,0,.06-.07-.03-.15-.07-.22-.11-.22-.13-.48-.21-.63-.35-.18-.17-.32-.43-.4-.62-.08-.21.06-.48.08-.72.01-.2-.02-.43.05-.66.06-.2.3-.35.39-.57.09-.19,0-.48.1-.7.1-.19.28-.35.39-.56.12-.23.37-.24.6-.12.24.13.26.28.13.51-.11.21-.15.44-.23.61-.11.22-.04.49-.12.66-.1.24-.31.38-.36.55-.08.29-.09.52-.03.66.09.18.3.31.52.43.12.07.25.09.39.16.16.02.35.13.44.26,0,.01-.07.07-.06.07.14.1.25.26.39.39.18.18.25.43.4.62.16.2.4.32.5.53.11.23.34.44.36.67.02.25-.23.45-.36.67ZM16.82,33.31c.35,0,.35.19.69.19s.35-.25.7-.25.34.14.69.14c.26,0,.38-.17.52-.32.12-.12.31-.22.31-.42,0-.16-.17-.32-.33-.49-.13-.12-.24-.27-.5-.27-.36,0-.36.07-.72.07s-.36-.12-.72-.12-.36,0-.72,0c-.34,0-.31.13-.61.14-.1.09-.09.09-.09.22,0,.39,0,.39,0,.78,0,.18-.01.3-.03.39.02.03.08,0,.12,0,.35,0,.35-.05.69-.05ZM19.42,32.14c-.13-.12-.26-.37-.52-.37-.36,0-.36.22-.72.22s-.36-.17-.72-.17-.36.08-.72.08c-.34,0-.37-.01-.67,0-.1.09,0,.15,0,.28,0,.39.08.39.08.78,0,.18-.07.27-.09.36.02.03.03.03.07.03.35,0,.35-.07.69-.07s.35.11.69.11.35-.04.7-.04.34.04.69.04c.26,0,.47-.08.61-.23.12-.12.24-.31.24-.51,0-.16-.17-.34-.33-.51ZM19.42,32.14c-.13-.12-.26-.37-.52-.37-.36,0-.36.22-.72.22s-.36-.17-.72-.17-.36.08-.72.08c-.34,0-.37-.01-.67,0-.1.09,0,.15,0,.28,0,.39.08.39.08.78,0,.18-.07.27-.09.36.02.03.03.03.07.03.35,0,.35-.07.69-.07s.35.11.69.11.35-.04.7-.04.34.04.69.04c.26,0,.47-.08.61-.23.12-.12.24-.31.24-.51,0-.16-.17-.34-.33-.51ZM19.42,32.14c-.13-.12-.26-.37-.52-.37-.36,0-.36.22-.72.22s-.36-.17-.72-.17-.36.08-.72.08c-.34,0-.37-.01-.67,0-.1.09,0,.15,0,.28,0,.39.08.39.08.78,0,.18-.07.27-.09.36.02.03.03.03.07.03.35,0,.35-.07.69-.07s.35.11.69.11.35-.04.7-.04.34.04.69.04c.26,0,.47-.08.61-.23.12-.12.24-.31.24-.51,0-.16-.17-.34-.33-.51ZM19.42,32.14c-.13-.12-.26-.37-.52-.37-.36,0-.36.22-.72.22s-.36-.17-.72-.17-.36.08-.72.08c-.34,0-.37-.01-.67,0-.1.09,0,.15,0,.28,0,.39.08.39.08.78,0,.18-.07.27-.09.36.02.03.03.03.07.03.35,0,.35-.07.69-.07s.35.11.69.11.35-.04.7-.04.34.04.69.04c.26,0,.47-.08.61-.23.12-.12.24-.31.24-.51,0-.16-.17-.34-.33-.51ZM19.42,32.14c-.13-.12-.26-.37-.52-.37-.36,0-.36.22-.72.22s-.36-.17-.72-.17-.36.08-.72.08c-.34,0-.37-.01-.67,0-.1.09,0,.15,0,.28,0,.39.08.39.08.78,0,.18-.07.27-.09.36.02.03.03.03.07.03.35,0,.35-.07.69-.07s.35.11.69.11.35-.04.7-.04.34.04.69.04c.26,0,.47-.08.61-.23.12-.12.24-.31.24-.51,0-.16-.17-.34-.33-.51ZM19.42,32.14c-.13-.12-.26-.37-.52-.37-.36,0-.36.22-.72.22s-.36-.17-.72-.17-.36.08-.72.08c-.34,0-.37-.01-.67,0-.1.09,0,.15,0,.28,0,.39.08.39.08.78,0,.18-.07.27-.09.36.02.03.03.03.07.03.35,0,.35-.07.69-.07s.35.11.69.11.35-.04.7-.04.34.04.69.04c.26,0,.47-.08.61-.23.12-.12.24-.31.24-.51,0-.16-.17-.34-.33-.51ZM19.42,32.14c-.13-.12-.26-.37-.52-.37-.36,0-.36.22-.72.22s-.36-.17-.72-.17-.36.08-.72.08c-.34,0-.37-.01-.67,0-.1.09,0,.15,0,.28,0,.39.08.39.08.78,0,.18-.07.27-.09.36.02.03.03.03.07.03.35,0,.35-.07.69-.07s.35.11.69.11.35-.04.7-.04.34.04.69.04c.26,0,.47-.08.61-.23.12-.12.24-.31.24-.51,0-.16-.17-.34-.33-.51ZM19.42,32.14c-.13-.12-.26-.37-.52-.37-.36,0-.36.22-.72.22s-.36-.17-.72-.17-.36.08-.72.08c-.34,0-.37-.01-.67,0-.1.09,0,.15,0,.28,0,.39.08.39.08.78,0,.18-.07.27-.09.36.02.03.03.03.07.03.35,0,.35-.07.69-.07s.35.11.69.11.35-.04.7-.04.34.04.69.04c.26,0,.47-.08.61-.23.12-.12.24-.31.24-.51,0-.16-.17-.34-.33-.51ZM19.42,32.14c-.13-.12-.26-.37-.52-.37-.36,0-.36.22-.72.22s-.36-.17-.72-.17-.36.08-.72.08c-.34,0-.37-.01-.67,0-.1.09,0,.15,0,.28,0,.39.08.39.08.78,0,.18-.07.27-.09.36.02.03.03.03.07.03.35,0,.35-.07.69-.07s.35.11.69.11.35-.04.7-.04.34.04.69.04c.26,0,.47-.08.61-.23.12-.12.24-.31.24-.51,0-.16-.17-.34-.33-.51ZM19.42,32.14c-.13-.12-.26-.37-.52-.37-.36,0-.36.22-.72.22s-.36-.17-.72-.17-.36.08-.72.08c-.34,0-.37-.01-.67,0-.1.09,0,.15,0,.28,0,.39.08.39.08.78,0,.18-.07.27-.09.36.02.03.03.03.07.03.35,0,.35-.07.69-.07s.35.11.69.11.35-.04.7-.04.34.04.69.04c.26,0,.47-.08.61-.23.12-.12.24-.31.24-.51,0-.16-.17-.34-.33-.51ZM19.42,32.14c-.13-.12-.26-.37-.52-.37-.36,0-.36.22-.72.22s-.36-.17-.72-.17-.36.08-.72.08c-.34,0-.37-.01-.67,0-.1.09,0,.15,0,.28,0,.39.08.39.08.78,0,.18-.07.27-.09.36.02.03.03.03.07.03.35,0,.35-.07.69-.07s.35.11.69.11.35-.04.7-.04.34.04.69.04c.26,0,.47-.08.61-.23.12-.12.24-.31.24-.51,0-.16-.17-.34-.33-.51ZM19.42,32.14c-.13-.12-.26-.37-.52-.37-.36,0-.36.22-.72.22s-.36-.17-.72-.17-.36.08-.72.08c-.34,0-.37-.01-.67,0-.1.09,0,.15,0,.28,0,.39.08.39.08.78,0,.18-.07.27-.09.36.02.03.03.03.07.03.35,0,.35-.07.69-.07s.35.11.69.11.35-.04.7-.04.34.04.69.04c.26,0,.47-.08.61-.23.12-.12.24-.31.24-.51,0-.16-.17-.34-.33-.51ZM19.42,32.14c-.13-.12-.26-.37-.52-.37-.36,0-.36.22-.72.22s-.36-.17-.72-.17-.36.08-.72.08c-.34,0-.37-.01-.67,0-.1.09,0,.15,0,.28,0,.39.08.39.08.78,0,.18-.07.27-.09.36.02.03.03.03.07.03.35,0,.35-.07.69-.07s.35.11.69.11.35-.04.7-.04.34.04.69.04c.26,0,.47-.08.61-.23.12-.12.24-.31.24-.51,0-.16-.17-.34-.33-.51ZM19.42,32.14c-.13-.12-.26-.37-.52-.37-.36,0-.36.22-.72.22s-.36-.17-.72-.17-.36.08-.72.08c-.34,0-.37-.01-.67,0-.1.09,0,.15,0,.28,0,.39.08.39.08.78,0,.18-.07.27-.09.36.02.03.03.03.07.03.35,0,.35-.07.69-.07s.35.11.69.11.35-.04.7-.04.34.04.69.04c.26,0,.47-.08.61-.23.12-.12.24-.31.24-.51,0-.16-.17-.34-.33-.51Z"/>
  </g>
</svg>