<?xml version="1.0" encoding="UTF-8"?>
<svg id="_图层_2" data-name="图层 2" xmlns="http://www.w3.org/2000/svg" viewBox="0 0 19.8 475.25">
  <defs>
    <style>
      .cls-1 {
        stroke: #231815;
        stroke-miterlimit: 10;
        stroke-width: .1px;
      }

      .cls-1, .cls-2 {
        fill: none;
      }
    </style>
  </defs>
  <g id="_图层_1-2" data-name="图层 1">
    <g>
      <path d="M0,460.4v6.93h.99v-6.93h-.99ZM0,452.48v.99h.99v4.95h-.99v.99h1.98v-6.93H0Z"/>
      <path d="M12.87,465.35v-11.88h6.93v-.99h-7.92v3.96h-5.94v-.99h4.95v-2.97H2.97v6.93h8.91v.99h-3.96v3.96h-2.97v-.99h1.98v-2.97H1.98v6.93h5.94v.99H.99v6.93h9.9v-3.96h5.94v.99h-4.95v2.97h7.92v-6.93h-8.91v-.99h3.96v-3.96h2.97v.99h-1.98v2.97h3.96v-.99h-2.97v-.99h1.98v-2.97h-3.96v-.99h4.95v-.99h-4.95v-.99h4.95v-.99h-4.95v-.99h4.95v-2.97h-5.94v11.88h-2.97v-.99h1.98ZM3.96,458.42v-4.95h5.94v.99h-4.95v2.97h6.93v.99H3.96ZM14.85,455.45h3.96v.99h-3.96v-.99ZM11.88,464.36h-.99v-.99h.99v.99ZM2.97,466.34v-4.95h2.97v.99h-1.98v2.97h3.96v.99H2.97ZM18.81,469.31v4.95h-5.94v-.99h4.95v-2.97h-6.93v-.99h7.92ZM9.9,462.38v11.88H1.98v-4.95h5.94v.99H2.97v2.97h5.94v-11.88h2.97v.99h-1.98ZM7.92,471.29v.99h-3.96v-.99h3.96Z"/>
      <g>
        <path d="M0,446.54v2.97h.99v-2.97h-.99ZM0,430.7v.99h1.98v.99H0v.99h2.97v-2.97H0ZM0,444.56v.99h1.98v4.95H0v.99h2.97v-6.93H0ZM0,436.64v.99h2.97v4.95H0v.99h3.96v-6.93H0ZM0,438.62v.99h.99v.99h-.99v.99h1.98v-2.97H0ZM0,428.72v.99h3.96v4.95H0v.99h4.95v-6.93H0Z"/>
        <path d="M18.81,440.6v2.97h.99v-2.97h-.99ZM15.84,441.59v-11.88h3.96v-.99h-4.95v3.96h-5.94v-.99h4.95v-2.97h-7.92v6.93h8.91v.99h-3.96v3.96h-2.97v-.99h1.98v-2.97h-4.95v6.93h5.94v.99H3.96v6.93h9.9v-3.96h5.94v-.99h-5.94v-.99h5.94v-.99h-5.94v-.99h3.96v-3.96h1.98v-.99h-1.98v-.99h1.98v-.99h-1.98v-.99h1.98v-.99h-1.98v-.99h1.98v-.99h-1.98v-.99h1.98v-.99h-2.97v11.88h-2.97v-.99h1.98ZM6.93,434.66v-4.95h5.94v.99h-4.95v2.97h6.93v.99h-7.92ZM14.85,440.6h-.99v-.99h.99v.99ZM5.94,442.58v-4.95h2.97v.99h-1.98v2.97h3.96v.99h-4.95ZM12.87,438.62v11.88h-7.92v-4.95h5.94v.99h-4.95v2.97h5.94v-11.88h2.97v.99h-1.98ZM10.89,447.53v.99h-3.96v-.99h3.96ZM19.8,449.51v-.99h-4.95v2.97h4.95v-.99h-3.96v-.99h3.96Z"/>
      </g>
      <path d="M0,420.8v.99h4.95v4.95H0v.99h5.94v-6.93H0ZM0,422.78v.99h2.97v.99H0v.99h3.96v-2.97H0ZM7.92,411.89v-6.93H0v.99h6.93v4.95H.99v-.99h4.95v-2.97H0v12.87h.99v-3.96h2.97v.99h-1.98v2.97h4.95v-6.93H.99v-.99h6.93ZM.99,407.93h3.96v.99H.99v-.99ZM5.94,413.87v4.95h-2.97v-.99h1.98v-2.97H.99v-.99h4.95Z"/>
      <path d="M19.8,425.75v-.99h-1.98v2.97h1.98v-.99h-.99v-.99h.99ZM18.81,417.83v-11.88h.99v-.99h-1.98v3.96h-5.94v-.99h4.95v-2.97h-7.92v6.93h8.91v.99h-3.96v3.96h-2.97v-.99h1.98v-2.97h-4.95v6.93h5.94v.99h-6.93v6.93h9.9v-3.96h2.97v-.99h-2.97v-.99h2.97v-.99h-2.97v-.99h2.97v-.99h-2.97v-.99h1.98ZM9.9,410.9v-4.95h5.94v.99h-4.95v2.97h6.93v.99h-7.92ZM17.82,416.84h-.99v-.99h.99v.99ZM8.91,418.82v-4.95h2.97v.99h-1.98v2.97h3.96v.99h-4.95ZM15.84,414.86v11.88h-7.92v-4.95h5.94v.99h-4.95v2.97h5.94v-11.88h2.97v.99h-1.98ZM13.86,423.77v.99h-3.96v-.99h3.96Z"/>
      <g>
        <path d="M0,397.04v.99h7.92v4.95H1.98v-.99h4.95v-2.97H0v.99h5.94v.99H.99v2.97h7.92v-6.93H0ZM10.89,388.13v-6.93H.99v3.96h-.99v.99h.99v.99h-.99v.99h.99v.99h-.99v.99h.99v.99h-.99v.99h.99v.99h-.99v.99h1.98v-11.88h7.92v4.95H3.96v-.99h4.95v-2.97H2.97v11.88H0v.99h3.96v-3.96h2.97v.99h-1.98v2.97h4.95v-6.93H3.96v-.99h6.93ZM3.96,384.17h3.96v.99h-3.96v-.99ZM8.91,390.11v4.95h-2.97v-.99h1.98v-2.97h-3.96v-.99h4.95Z"/>
        <path d="M11.88,399.02v2.97h5.94v-11.88h1.98v-.99h-2.97v3.96h-2.97v-.99h1.98v-2.97h-4.95v6.93h5.94v.99h-6.93v6.93h9.9v-12.87h-.99v11.88h-7.92v-4.95h5.94v.99h-4.95ZM16.83,401h-3.96v-.99h3.96v.99ZM11.88,395.06v-4.95h2.97v.99h-1.98v2.97h3.96v.99h-4.95ZM19.8,384.17v-2.97h-7.92v6.93h7.92v-.99h-6.93v-4.95h5.94v.99h-4.95v2.97h5.94v-.99h-4.95v-.99h4.95Z"/>
      </g>
      <path d="M0,357.44v.99h1.98v.99H0v.99h2.97v-2.97H0ZM13.86,364.37v-6.93H3.96v3.96H0v.99h3.96v.99H0v.99h3.96v.99H0v12.87h.99v-11.88h2.97v.99h-1.98v11.88H0v.99h2.97v-3.96h5.94v.99H3.96v2.97h7.92v-6.93H2.97v-.99h3.96v-3.96h2.97v.99h-1.98v2.97h4.95v-6.93h-5.94v-.99h6.93ZM10.89,374.27v4.95h-5.94v-.99h4.95v-2.97H2.97v-.99h7.92ZM2.97,368.33h.99v.99h-.99v-.99ZM11.88,366.35v4.95h-2.97v-.99h1.98v-2.97h-3.96v-.99h4.95ZM5.94,359.42v11.88h-2.97v-.99h1.98v-11.88h7.92v4.95h-5.94v-.99h4.95v-2.97h-5.94ZM6.93,361.4v-.99h3.96v.99h-3.96Z"/>
      <path d="M19.8,374.27v-.99h-6.93v6.93h6.93v-.99h-5.94v-4.95h5.94ZM19.8,376.25v-.99h-4.95v2.97h4.95v-.99h-3.96v-.99h3.96ZM15.84,367.34v2.97h3.96v-.99h-2.97v-.99h1.98v-2.97h-4.95v6.93h5.94v-.99h-4.95v-4.95h2.97v.99h-1.98ZM19.8,358.43v-.99h-4.95v6.93h4.95v-.99h-3.96v-4.95h3.96ZM19.8,360.41v-.99h-2.97v2.97h2.97v-.99h-1.98v-.99h1.98Z"/>
      <g>
        <path d="M0,341.6v.99h.99v.99h-.99v.99h1.98v-2.97H0ZM16.83,340.61v-6.93H6.93v3.96H.99v-.99h4.95v-2.97H0v.99h4.95v.99H0v2.97h6.93v.99H0v.99h6.93v.99h-3.96v3.96H0v.99h2.97v.99H0v.99h2.97v.99H0v.99h2.97v.99H0v.99h2.97v.99H0v.99h3.96v-11.88h2.97v.99h-1.98v11.88H0v.99h5.94v-3.96h5.94v.99h-4.95v2.97h7.92v-6.93H5.94v-.99h3.96v-3.96h2.97v.99h-1.98v2.97h4.95v-6.93h-5.94v-.99h6.93ZM13.86,350.51v4.95h-5.94v-.99h4.95v-2.97h-6.93v-.99h7.92ZM5.94,344.57h.99v.99h-.99v-.99ZM14.85,342.59v4.95h-2.97v-.99h1.98v-2.97h-3.96v-.99h4.95ZM8.91,335.66v11.88h-2.97v-.99h1.98v-11.88h7.92v4.95h-5.94v-.99h4.95v-2.97h-5.94ZM9.9,337.64v-.99h3.96v.99h-3.96Z"/>
        <path d="M19.8,342.59v-.99h-2.97v6.93h2.97v-.99h-1.98v-4.95h1.98ZM18.81,343.58v2.97h.99v-2.97h-.99ZM19.8,350.51v-.99h-3.96v6.93h3.96v-.99h-2.97v-4.95h2.97ZM19.8,352.49v-.99h-1.98v2.97h1.98v-.99h-.99v-.99h.99ZM19.8,334.67v-.99h-1.98v6.93h1.98v-.99h-.99v-4.95h.99Z"/>
      </g>
      <path d="M19.8,316.85v-6.93h-9.9v3.96H3.96v-.99h4.95v-2.97H.99v6.93h8.91v.99h-3.96v3.96h-2.97v-.99h1.98v-2.97H0v6.93h5.94v.99H0v.99h5.94v.99H.99v2.97h5.94v-11.88h2.97v.99h-1.98v11.88H0v.99h8.91v-3.96h5.94v.99h-4.95v2.97h7.92v-6.93h-8.91v-.99h3.96v-3.96h2.97v.99h-1.98v2.97h4.95v-6.93h-5.94v-.99h6.93ZM5.94,329.72H1.98v-.99h3.96v.99ZM5.94,323.78H.99v-4.95h2.97v.99h-1.98v2.97h3.96v.99ZM16.83,326.75v4.95h-5.94v-.99h4.95v-2.97h-6.93v-.99h7.92ZM1.98,315.86v-4.95h5.94v.99H2.97v2.97h6.93v.99H1.98ZM8.91,320.81h.99v.99h-.99v-.99ZM17.82,318.83v4.95h-2.97v-.99h1.98v-2.97h-3.96v-.99h4.95ZM11.88,311.9v11.88h-2.97v-.99h1.98v-11.88h7.92v4.95h-5.94v-.99h4.95v-2.97h-5.94ZM12.87,313.88v-.99h3.96v.99h-3.96Z"/>
      <path d="M18.81,325.76v6.93h.99v-6.93h-.99Z"/>
      <g>
        <path d="M13.86,299.03v-11.88h5.94v-.99h-6.93v3.96h-5.94v-.99h4.95v-2.97H3.96v6.93h8.91v.99h-3.96v3.96h-2.97v-.99h1.98v-2.97H2.97v6.93h5.94v.99H1.98v6.93h9.9v-3.96h5.94v.99h-4.95v2.97h6.93v-.99h-5.94v-.99h4.95v-2.97h-6.93v-.99h7.92v-.99h-7.92v-.99h3.96v-3.96h2.97v.99h-1.98v2.97h2.97v-.99h-1.98v-.99h1.98v-2.97h-3.96v-.99h3.96v-.99h-3.96v-.99h3.96v-.99h-3.96v-.99h3.96v-.99h-3.96v-.99h3.96v-.99h-4.95v11.88h-2.97v-.99h1.98ZM4.95,292.1v-4.95h5.94v.99h-4.95v2.97h6.93v.99h-7.92ZM12.87,298.04h-.99v-.99h.99v.99ZM3.96,300.02v-4.95h2.97v.99h-1.98v2.97h3.96v.99H3.96ZM10.89,296.06v11.88H2.97v-4.95h5.94v.99H3.96v2.97h5.94v-11.88h2.97v.99h-1.98ZM8.91,304.97v.99h-3.96v-.99h3.96Z"/>
        <path d="M0,288.14v2.97h.99v-2.97h-.99ZM0,302v6.93h.99v-6.93h-.99ZM0,294.08v.99h.99v4.95h-.99v.99h1.98v-6.93H0ZM0,286.16v.99h1.98v4.95H0v.99h2.97v-6.93H0Z"/>
      </g>
      <g>
        <path d="M16.83,275.27v-11.88h2.97v-.99h-3.96v3.96h-5.94v-.99h4.95v-2.97h-7.92v6.93h8.91v.99h-3.96v3.96h-2.97v-.99h1.98v-2.97h-4.95v6.93h5.94v.99h-6.93v6.93h9.9v-3.96h4.95v-.99h-4.95v-.99h4.95v-.99h-4.95v-.99h3.96v-3.96h.99v-.99h-.99v-.99h.99v-.99h-.99v-.99h.99v-.99h-.99v-.99h.99v-.99h-.99v-.99h.99v-.99h-1.98v11.88h-2.97v-.99h1.98ZM7.92,268.34v-4.95h5.94v.99h-4.95v2.97h6.93v.99h-7.92ZM15.84,274.28h-.99v-.99h.99v.99ZM6.93,276.26v-4.95h2.97v.99h-1.98v2.97h3.96v.99h-4.95ZM13.86,272.3v11.88h-7.92v-4.95h5.94v.99h-4.95v2.97h5.94v-11.88h2.97v.99h-1.98ZM11.88,281.21v.99h-3.96v-.99h3.96ZM19.8,283.19v-.99h-3.96v2.97h3.96v-.99h-2.97v-.99h2.97Z"/>
        <path d="M0,280.22v.99h.99v.99h-.99v.99h1.98v-2.97H0ZM0,264.38v.99h2.97v.99H0v.99h3.96v-2.97H0ZM0,278.24v.99h2.97v4.95H0v.99h3.96v-6.93H0ZM0,270.32v.99h3.96v4.95H.99v-.99h1.98v-2.97H0v.99h1.98v.99H0v2.97h4.95v-6.93H0ZM0,262.4v.99h4.95v4.95H0v.99h5.94v-6.93H0Z"/>
      </g>
      <path d="M18.81,258.44v2.97h.99v-2.97h-.99ZM19.8,251.51v-12.87h-.99v3.96h-5.94v-.99h4.95v-2.97h-7.92v6.93h8.91v.99h-3.96v3.96h-2.97v-.99h1.98v-2.97h-4.95v6.93h5.94v.99h-6.93v6.93h9.9v-3.96h1.98v-.99h-1.98v-.99h1.98v-.99h-1.98v-.99h1.98v-.99h-1.98v-.99h1.98ZM10.89,244.58v-4.95h5.94v.99h-4.95v2.97h6.93v.99h-7.92ZM18.81,250.52h-.99v-.99h.99v.99ZM9.9,252.5v-4.95h2.97v.99h-1.98v2.97h3.96v.99h-4.95ZM16.83,248.54v11.88h-7.92v-4.95h5.94v.99h-4.95v2.97h5.94v-11.88h2.97v.99h-1.98ZM14.85,257.45v.99h-3.96v-.99h3.96Z"/>
      <path d="M0,254.48v.99h5.94v4.95H0v.99h6.93v-6.93H0ZM0,256.46v.99h3.96v.99H0v.99h4.95v-2.97H0ZM8.91,245.57v-6.93H0v.99h7.92v4.95H1.98v-.99h4.95v-2.97H.99v11.88h-.99v.99h1.98v-3.96h2.97v.99h-1.98v2.97h4.95v-6.93H1.98v-.99h6.93ZM1.98,241.61h3.96v.99H1.98v-.99ZM6.93,247.55v4.95h-2.97v-.99h1.98v-2.97H1.98v-.99h4.95Z"/>
      <g>
        <path d="M19.8,217.85v-.99h-4.95v2.97h4.95v-.99h-3.96v-.99h3.96ZM19.8,215.87v-.99h-6.93v6.93h6.93v-.99h-5.94v-4.95h5.94ZM12.87,232.7v2.97h5.94v-11.88h.99v-.99h-1.98v3.96h-2.97v-.99h1.98v-2.97h-4.95v6.93h5.94v.99h-6.93v6.93h8.91v-.99h-7.92v-4.95h5.94v.99h-4.95ZM17.82,234.68h-3.96v-.99h3.96v.99ZM12.87,228.74v-4.95h2.97v.99h-1.98v2.97h3.96v.99h-4.95Z"/>
        <path d="M0,214.88v2.97h.99v-2.97h-.99ZM11.88,221.81v-6.93H1.98v3.96H0v.99h1.98v.99H0v.99h1.98v.99H0v.99h1.98v.99H0v12.87h.99v-3.96h5.94v.99H1.98v2.97h7.92v-6.93H.99v-.99h3.96v-3.96h2.97v.99h-1.98v2.97h4.95v-6.93h-5.94v-.99h6.93ZM8.91,231.71v4.95H2.97v-.99h4.95v-2.97H.99v-.99h7.92ZM.99,225.77h.99v.99h-.99v-.99ZM9.9,223.79v4.95h-2.97v-.99h1.98v-2.97h-3.96v-.99h4.95ZM3.96,216.86v11.88H.99v-.99h1.98v-11.88h7.92v4.95h-5.94v-.99h4.95v-2.97H3.96ZM4.95,218.84v-.99h3.96v.99h-3.96Z"/>
      </g>
      <path d="M19.8,202.01v-2.97h-4.95v6.93h4.95v-.99h-3.96v-4.95h2.97v.99h-1.98v2.97h2.97v-.99h-1.98v-.99h1.98ZM19.8,207.95v-.99h-5.94v6.93h5.94v-.99h-4.95v-4.95h4.95ZM19.8,209.93v-.99h-3.96v2.97h3.96v-.99h-2.97v-.99h2.97ZM19.8,192.11v-.99h-3.96v6.93h3.96v-.99h-2.97v-4.95h2.97ZM19.8,194.09v-.99h-1.98v2.97h1.98v-.99h-.99v-.99h.99Z"/>
      <path d="M14.85,198.05v-6.93H4.95v3.96H0v.99h4.95v.99H0v.99h4.95v.99H.99v3.96h-.99v.99h.99v.99h-.99v.99h.99v.99h-.99v.99h.99v.99h-.99v.99h.99v.99h-.99v.99h1.98v-11.88h2.97v.99h-1.98v11.88H0v.99h3.96v-3.96h5.94v.99h-4.95v2.97h7.92v-6.93H3.96v-.99h3.96v-3.96h2.97v.99h-1.98v2.97h4.95v-6.93h-5.94v-.99h6.93ZM11.88,207.95v4.95h-5.94v-.99h4.95v-2.97H3.96v-.99h7.92ZM3.96,202.01h.99v.99h-.99v-.99ZM12.87,200.03v4.95h-2.97v-.99h1.98v-2.97h-3.96v-.99h4.95ZM6.93,193.1v11.88h-2.97v-.99h1.98v-11.88h7.92v4.95h-5.94v-.99h4.95v-2.97h-5.94ZM7.92,195.08v-.99h3.96v.99h-3.96ZM0,191.12v.99h2.97v.99H0v.99h3.96v-2.97H0Z"/>
      <g>
        <path d="M18.81,185.18v2.97h.99v-2.97h-.99ZM18.81,167.36v6.93h.99v-6.93h-.99ZM19.8,184.19v-.99h-2.97v6.93h2.97v-.99h-1.98v-4.95h1.98ZM19.8,176.27v-.99h-1.98v6.93h1.98v-.99h-.99v-4.95h.99Z"/>
        <path d="M17.82,174.29v-6.93H7.92v3.96H1.98v-.99h4.95v-2.97H0v.99h5.94v.99H.99v2.97h6.93v.99H0v.99h7.92v.99h-3.96v3.96H.99v-.99h1.98v-2.97H0v.99h1.98v.99H0v2.97h3.96v.99H0v.99h3.96v.99H0v.99h3.96v.99H0v.99h3.96v.99H0v.99h4.95v-11.88h2.97v.99h-1.98v11.88H0v.99h6.93v-3.96h5.94v.99h-4.95v2.97h7.92v-6.93H6.93v-.99h3.96v-3.96h2.97v.99h-1.98v2.97h4.95v-6.93h-5.94v-.99h6.93ZM14.85,184.19v4.95h-5.94v-.99h4.95v-2.97h-6.93v-.99h7.92ZM6.93,178.25h.99v.99h-.99v-.99ZM15.84,176.27v4.95h-2.97v-.99h1.98v-2.97h-3.96v-.99h4.95ZM9.9,169.34v11.88h-2.97v-.99h1.98v-11.88h7.92v4.95h-5.94v-.99h4.95v-2.97h-5.94ZM10.89,171.32v-.99h3.96v.99h-3.96Z"/>
      </g>
      <path d="M0,143.6v6.93h.99v-6.93h-.99Z"/>
      <path d="M11.88,156.47v-11.88h7.92v-.99h-8.91v3.96h-5.94v-.99h4.95v-2.97H1.98v6.93h8.91v.99h-3.96v3.96h-2.97v-.99h1.98v-2.97H.99v6.93h5.94v.99H0v6.93h9.9v-3.96h5.94v.99h-4.95v2.97h7.92v-6.93h-8.91v-.99h3.96v-3.96h2.97v.99h-1.98v2.97h4.95v-6.93h-5.94v-.99h5.94v-.99h-5.94v-.99h4.95v-2.97h-5.94v11.88h-2.97v-.99h1.98ZM2.97,149.54v-4.95h5.94v.99H3.96v2.97h6.93v.99H2.97ZM13.86,146.57h3.96v.99h-3.96v-.99ZM13.86,152.51h4.95v4.95h-2.97v-.99h1.98v-2.97h-3.96v-.99ZM10.89,155.48h-.99v-.99h.99v.99ZM1.98,157.46v-4.95h2.97v.99h-1.98v2.97h3.96v.99H1.98ZM17.82,160.43v4.95h-5.94v-.99h4.95v-2.97h-6.93v-.99h7.92ZM8.91,153.5v11.88H.99v-4.95h5.94v.99H1.98v2.97h5.94v-11.88h2.97v.99h-1.98ZM6.93,162.41v.99h-3.96v-.99h3.96Z"/>
      <g>
        <path d="M0,121.82v.99h.99v.99h-.99v.99h1.98v-2.97H0ZM0,135.68v.99h.99v4.95h-.99v.99h1.98v-6.93H0ZM0,129.74v2.97h.99v-2.97h-.99ZM0,127.76v.99h1.98v4.95H0v.99h2.97v-6.93H0ZM0,119.84v.99h2.97v4.95H0v.99h3.96v-6.93H0Z"/>
        <path d="M14.85,132.71v-11.88h4.95v-.99h-5.94v3.96h-5.94v-.99h4.95v-2.97h-7.92v6.93h8.91v.99h-3.96v3.96h-2.97v-.99h1.98v-2.97H3.96v6.93h5.94v.99H2.97v6.93h9.9v-3.96h5.94v.99h-4.95v2.97h5.94v-.99h-4.95v-.99h4.95v-2.97h-6.93v-.99h6.93v-.99h-6.93v-.99h3.96v-3.96h2.97v-.99h-2.97v-.99h2.97v-.99h-2.97v-.99h2.97v-.99h-2.97v-.99h2.97v-.99h-2.97v-.99h2.97v-.99h-3.96v11.88h-2.97v-.99h1.98ZM5.94,125.78v-4.95h5.94v.99h-4.95v2.97h6.93v.99h-7.92ZM13.86,131.72h-.99v-.99h.99v.99ZM4.95,133.7v-4.95h2.97v.99h-1.98v2.97h3.96v.99h-4.95ZM11.88,129.74v11.88H3.96v-4.95h5.94v.99h-4.95v2.97h5.94v-11.88h2.97v.99h-1.98ZM9.9,138.65v.99h-3.96v-.99h3.96ZM19.8,132.71v-.99h-1.98v2.97h1.98v-.99h-.99v-.99h.99Z"/>
      </g>
      <g>
        <path d="M0,113.9v.99h1.98v.99H0v.99h2.97v-2.97H0ZM0,98.06v.99h3.96v.99H0v.99h4.95v-2.97H0ZM0,111.92v.99h3.96v4.95H0v.99h4.95v-6.93H0ZM0,104v.99h4.95v4.95H1.98v-.99h1.98v-2.97H0v.99h2.97v.99H.99v2.97h4.95v-6.93H0ZM0,96.08v.99h5.94v4.95H0v.99h6.93v-6.93H0Z"/>
        <path d="M17.82,108.95v-11.88h1.98v-.99h-2.97v3.96h-5.94v-.99h4.95v-2.97h-7.92v6.93h8.91v.99h-3.96v3.96h-2.97v-.99h1.98v-2.97h-4.95v6.93h5.94v.99h-6.93v6.93h9.9v-3.96h3.96v-.99h-3.96v-.99h3.96v-.99h-3.96v-.99h3.96v-12.87h-.99v11.88h-2.97v-.99h1.98ZM8.91,102.02v-4.95h5.94v.99h-4.95v2.97h6.93v.99h-7.92ZM16.83,107.96h-.99v-.99h.99v.99ZM7.92,109.94v-4.95h2.97v.99h-1.98v2.97h3.96v.99h-4.95ZM14.85,105.98v11.88h-7.92v-4.95h5.94v.99h-4.95v2.97h5.94v-11.88h2.97v.99h-1.98ZM12.87,114.89v.99h-3.96v-.99h3.96ZM19.8,116.87v-.99h-2.97v2.97h2.97v-.99h-1.98v-.99h1.98Z"/>
      </g>
      <path d="M0,88.16v.99h6.93v4.95H.99v-.99h4.95v-2.97H0v.99h4.95v.99H0v2.97h7.92v-6.93H0ZM9.9,79.25v-6.93H0v12.87h.99v-11.88h7.92v4.95H2.97v-.99h4.95v-2.97H1.98v11.88H0v.99h2.97v-3.96h2.97v.99h-1.98v2.97h4.95v-6.93H2.97v-.99h6.93ZM2.97,75.29h3.96v.99h-3.96v-.99ZM7.92,81.23v4.95h-2.97v-.99h1.98v-2.97h-3.96v-.99h4.95Z"/>
      <path d="M10.89,90.14v2.97h5.94v-11.88h2.97v-.99h-3.96v3.96h-2.97v-.99h1.98v-2.97h-4.95v6.93h5.94v.99h-6.93v6.93h9.9v-3.96h.99v-.99h-.99v-.99h.99v-.99h-.99v-.99h.99v-.99h-.99v-.99h.99v-.99h-.99v-.99h.99v-.99h-1.98v11.88h-7.92v-4.95h5.94v.99h-4.95ZM15.84,92.12h-3.96v-.99h3.96v.99ZM10.89,86.18v-4.95h2.97v.99h-1.98v2.97h3.96v.99h-4.95ZM12.87,74.3v2.97h6.93v-.99h-5.94v-.99h4.95v-2.97h-7.92v6.93h8.91v-.99h-7.92v-4.95h5.94v.99h-4.95Z"/>
      <g>
        <path d="M0,48.56v.99h.99v.99h-.99v.99h1.98v-2.97H0ZM12.87,55.49v-6.93H2.97v3.96H0v.99h2.97v.99H0v.99h2.97v.99H0v.99h2.97v.99H.99v11.88h-.99v.99h1.98v-3.96h5.94v.99H2.97v2.97h7.92v-6.93H1.98v-.99h3.96v-3.96h2.97v.99h-1.98v2.97h4.95v-6.93h-5.94v-.99h6.93ZM9.9,65.39v4.95H3.96v-.99h4.95v-2.97H1.98v-.99h7.92ZM1.98,59.45h.99v.99h-.99v-.99ZM10.89,57.47v4.95h-2.97v-.99h1.98v-2.97h-3.96v-.99h4.95ZM4.95,50.54v11.88H1.98v-.99h1.98v-11.88h7.92v4.95h-5.94v-.99h4.95v-2.97h-5.94ZM5.94,52.52v-.99h3.96v.99h-3.96Z"/>
        <path d="M19.8,51.53v-.99h-3.96v2.97h3.96v-.99h-2.97v-.99h2.97ZM19.8,49.55v-.99h-5.94v6.93h5.94v-.99h-4.95v-4.95h4.95ZM13.86,66.38v2.97h5.94v-12.87h-.99v3.96h-2.97v-.99h1.98v-2.97h-4.95v6.93h5.94v.99h-6.93v6.93h7.92v-.99h-6.93v-4.95h5.94v.99h-4.95ZM18.81,68.36h-3.96v-.99h3.96v.99ZM13.86,62.42v-4.95h2.97v.99h-1.98v2.97h3.96v.99h-4.95Z"/>
      </g>
      <path d="M15.84,31.73v-6.93H5.94v3.96H0v.99h5.94v.99H0v.99h5.94v.99H1.98v3.96H0v.99h1.98v.99H0v.99h1.98v.99H0v.99h1.98v.99H0v.99h1.98v.99H0v.99h2.97v-11.88h2.97v.99h-1.98v11.88H0v.99h4.95v-3.96h5.94v.99h-4.95v2.97h7.92v-6.93H4.95v-.99h3.96v-3.96h2.97v.99h-1.98v2.97h4.95v-6.93h-5.94v-.99h6.93ZM12.87,41.63v4.95h-5.94v-.99h4.95v-2.97h-6.93v-.99h7.92ZM4.95,35.69h.99v.99h-.99v-.99ZM13.86,33.71v4.95h-2.97v-.99h1.98v-2.97h-3.96v-.99h4.95ZM7.92,26.78v11.88h-2.97v-.99h1.98v-11.88h7.92v4.95h-5.94v-.99h4.95v-2.97h-5.94ZM8.91,28.76v-.99h3.96v.99h-3.96ZM4.95,24.8H0v.99h3.96v.99H0v.99h4.95v-2.97ZM.99,32.72h-.99v2.97h.99v-2.97Z"/>
      <path d="M19.8,35.69v-.99h-1.98v2.97h1.98v-.99h-.99v-.99h.99ZM19.8,33.71v-.99h-3.96v6.93h3.96v-.99h-2.97v-4.95h2.97ZM18.81,26.78v2.97h.99v-2.97h-.99ZM19.8,41.63v-.99h-4.95v6.93h4.95v-.99h-3.96v-4.95h3.96ZM19.8,43.61v-.99h-2.97v2.97h2.97v-.99h-1.98v-.99h1.98ZM19.8,25.79v-.99h-2.97v6.93h2.97v-.99h-1.98v-4.95h1.98Z"/>
      <g>
        <path d="M18.81,7.97V1.04h-9.9v3.96H2.97v-.99h4.95V1.04H0v6.93h8.91v.99h-3.96v3.96H1.98v-.99h1.98v-2.97H0v.99h2.97v.99H.99v2.97h3.96v.99H0v.99h4.95v.99H0v.99h4.95v.99H0v2.97h5.94v-11.88h2.97v.99h-1.98v11.88H0v.99h7.92v-3.96h5.94v.99h-4.95v2.97h7.92v-6.93H7.92v-.99h3.96v-3.96h2.97v.99h-1.98v2.97h4.95v-6.93h-5.94v-.99h6.93ZM4.95,20.84H.99v-.99h3.96v.99ZM15.84,17.87v4.95h-5.94v-.99h4.95v-2.97h-6.93v-.99h7.92ZM.99,6.98V2.03h5.94v.99H1.98v2.97h6.93v.99H.99ZM7.92,11.93h.99v.99h-.99v-.99ZM16.83,9.95v4.95h-2.97v-.99h1.98v-2.97h-3.96v-.99h4.95ZM10.89,3.02v11.88h-2.97v-.99h1.98V2.03h7.92v4.95h-5.94v-.99h4.95v-2.97h-5.94ZM11.88,5v-.99h3.96v.99h-3.96Z"/>
        <path d="M18.81,8.96v6.93h.99v-6.93h-.99ZM19.8,17.87v-.99h-1.98v6.93h1.98v-.99h-.99v-4.95h.99Z"/>
      </g>
      <line class="cls-1" x1=".99" y1=".05" x2="19.8" y2=".05"/>
      <rect class="cls-2" y=".05" width="19.8" height="475.15"/>
    </g>
  </g>
</svg>