<?xml version="1.0" encoding="UTF-8"?>
<svg id="_图层_2" data-name="图层 2" xmlns="http://www.w3.org/2000/svg" viewBox="0 0 24.13 30.19">
  <defs>
    <style>
      .cls-1 {
        fill: #8c1900;
      }
    </style>
  </defs>
  <g id="_图层_1-2" data-name="图层 1">
    <g>
      <path class="cls-1" d="M16.49.58c1.3,0,1.4.57,1.4,1.12s-1.47,2.08-2,2.8c-.23.32-.3.86-.35,1.6-.05.69-.2,11.83.14,13.23.29,1.19,1.02,2.22,3.42,2.22,3.21,0,4.1-1.08,4.76-2.26.61-1.09.35,1.42-2.48,4.28s-6.77-.13-6.77-3.04c0-1.53.25-12.19.23-13.16-.02-1.64-.15-1.43-.32-1.83s-.18-.5-.18-.8,1.02-4.16,2.16-4.16Z"/>
      <path class="cls-1" d="M6.83.58c-1.3,0-3.19,4.37-2.68,4.18.96-.36,2.75-.36,3.28.36.23.32.3.68.35,1.42.05.69-.25,11.56-.59,12.96-.29,1.19-1.4,1.77-4.58,1.41-1.45-.16-2.85,1.28-1.4,2.74,2.84,2.86,6.63.47,6.97-2.05.44-3.24.36-12.5.3-14.24-.06-1.64-.06-2.63.23-3.29.18-.4.28-.83.28-1.13,0-.5-1.02-2.37-2.16-2.37Z"/>
      <g>
        <path class="cls-1" d="M13.26,3.89c0-.3-.33-.39-.67-.39s-2.22.25-2.51.4c-.05.03-.05.11,0,.23.05.12.09,2.73.07,2.79-.03.07-.05-.08.07.09.12.17.19.11.36,0,.17-.1,1.82.03,1.95.1.09.04.21.07.31.07s.21-.17.13-.42c-.08-.25-.03-2.01.16-2.36.07-.12.13-.26.13-.51ZM12.41,6.18c-.02.16-.03.32-.02.43,0,.04-.09.03-.15.03-.2-.02-.54-.03-.86.03-.15.03-.38.05-.44.05s-.12-.02-.15-.05c-.03-.03-.03-.38-.02-.4,0-.07.04-.1.15-.14.07-.02,1.42-.04,1.46-.04s.05.06.04.09ZM12.43,5.7s-.09.07-.16.06c-.09-.01-.23-.02-.28-.02-.58,0-1,.04-1.11.08-.11.04-.15,0-.16-.03,0-.06.03-.52.05-.56.06-.1.15-.1.23-.1.33.01,1.08,0,1.3-.02.11,0,.17.02.17.07s-.01.47-.04.52ZM12.56,4.19c-.01.08-.02.29-.01.36.01.14-.07.19-.17.19-.31,0-1.19.02-1.51.06-.09.01-.13-.08-.15-.16-.02-.08-.02-.4-.02-.45.01-.13.09-.14.23-.15.17,0,1.43-.02,1.56.02.08.02.07.08.07.12Z"/>
        <path class="cls-1" d="M10.8,7.41c.25,0,.28.03.28.25,0,.2-.99,1.73-1.12,1.73-.08,0-.02-.81.17-1.24.3-.68.48-.74.66-.74Z"/>
        <path class="cls-1" d="M12.33,7.36c.17,0,1,1.13,1,1.43s-.02.4-.23.4-.55-.33-.69-.78-.16-1.04-.08-1.04Z"/>
      </g>
      <g>
        <path class="cls-1" d="M13.73,10.01c-.21-.22-.29-.25-.56-.21-.63.1-1.03.13-1.66.11-.09,0,.2-.12.34-.14.73-.11.81-.09.47-.51-.14-.18-.37-.36-.42-.23-.03.09-.13.36-.39.59-.16.14-.51.3-.68.3-.08,0-.21,0-.25.06-.07.1-.1.3-.02.37.08.07.11.11.14.27.09.44.12.8.1,1.08s.29.37.39.34c.75-.22,1.4-.26,2.07-.12.3.06.38-.27.33-.75-.02-.19.03-.59.17-.79.11-.16.09-.26-.03-.38ZM12.96,11.49c-.4-.05-.81-.03-1.07,0-.15.02-.37.09-.51.07-.07-.01-.06-.09-.05-.12.03-.08.09-.1.28-.12.39-.05.93-.07,1.42-.04.09,0,.04.23-.07.21ZM13.02,10.99c-.53.03-1.14.05-1.67.02-.03,0-.05-.01-.03-.12.01-.1.43-.13,1.4-.13.19,0,.41,0,.41.08,0,.1-.03.13-.12.14ZM13.04,10.46c-.53.03-1.17.06-1.69.03-.1,0-.08-.17.02-.19.11-.03,1.36-.09,1.62-.07.08,0,.13.08.15.1.07.13-.01.12-.1.13Z"/>
        <path class="cls-1" d="M12.68,12.54s-.02.12.18.16c.06.01.07.03.03.09-.06.09.12.1.26.06.39-.11.82.44.4.45-.19,0-.31,0-.46-.04-.29-.07-.27,0-.17.72.02.12.03.22-.03.41-.07.21-.32.32-.59.32-.39,0-.52-.11-.59-.23-.1-.15.11-.16.29-.16.2,0,.47-.07.57-.26.04-.07.06-.19-.02-.19-.16,0-.53.09-.71.27-.13.13-.31.28-.5.28-.29,0,.07-.81.23-.8.74.08,1,.07,1.05-.06.03-.08.03-.3-.06-.3-.15,0-.17,0-1.2.3-.26.08-.59.2-.31-.39.13-.27.15-.25.32-.22.31.05.82.02,1.03-.02.05,0,.05-.03.03-.06-.04-.05-.07-.08-.02-.11.32-.17.2-.21,0-.2-.58.01-1.41.09-1.56.21-.06.05-.08.4-.08.6,0,.29-.02.81-.19.81-.09,0-.34-.02-.4-.18-.08-.2-.05-.43.04-.67.12-.3.17-.36.17-.66,0-.02,0-.07-.02-.1-.02-.04-.02-.14.06-.17.33-.1,2.63-.33,3.62-.19.12.02.13.15.13.38,0,.25.09.56.17.69.1.16.05.24-.07.5-.03.06-.18.26-.3.12-.13-.15-.14-.31-.14-.48,0-.35,0-.73-.13-.83-.04-.04-1-.04-1.02-.02Z"/>
        <path class="cls-1" d="M9.52,13.27c.27.15.31.25.31.52,0,.16-.02.3-.14.46-.09.13-.12.18-.02.17.13-.02.23-.02.38-.02.54,0,.57.02,1.61.42.47.18,1.02.22,1.35.21.55,0,1.45-.11,2.05-.34.3-.12.61-.28-.31.74-.41.45-.85.73-.99.73-.23,0-.36.04-2.43-.96-1.06-.51-1.14-.46-1.48-.46-.17,0-.41.1-.62.32-.25.27-.44.32-.47.32-.13,0-.2-.05-.25-.1-.38-.38-.19-.54.45-.7.43-.11.44-.13.44-.37,0-.32-.02-.72-.21-.91-.03-.03-.08-.05-.16-.05-.07,0-.12,0-.23.02-.4.07-.52-.08.08-.27.24-.08.54-.21.46-.38-.03-.07-.04-.15-.04-.2,0-.06.05-.1.16-.1.18,0,.52.51.52.59,0,.07-.16.15-.53.25-.09.02,0,.06.05.1Z"/>
        <path class="cls-1" d="M9.6,9.95c.14,0,.34.52.34.64,0,.09-.43.24-.88.34-.76.16-.59.03-.15-.23.31-.18.45-.39.45-.5,0-.23.14-.24.25-.24Z"/>
        <path class="cls-1" d="M8.72,11.98c.2-.07.67-.38.65-.57,0-.09.01-.21.19-.21.2,0,.4.41.4.53,0,.1-.89.42-1.34.43-.17,0-.08-.12.1-.18Z"/>
      </g>
      <g>
        <path class="cls-1" d="M14.08,17.11c-.2-.24-.24-.27-.56-.23-.37.05-.43.08-.58.08-.11,0-.08-.05.08-.2.06-.06.12-.12.13-.16,0-.07-.52-.34-.61-.34-.05,0-.15.12-.15.17,0,.06.06.15.12.24.06.08.06.2.05.27,0,.09,0,.11-.68.22-.23.04-.41.05-.41,0,0-.05-.03-.12.03-.21.05-.07.07-.13.08-.2,0-.19-.02-.22-.16-.29-.43-.22-.46-.23-.46.11,0,.17.02.24.21.59.06.12-.28.2-.44.14-.12-.05-.14-.06-.19-.07-.17,0-.62.71-.23.71.16,0,.19,0,.2.07,0,.05-.03.07-.06.05-.05-.02-.07,0-.09,0-.01,0-.2.16-.2.19,0,.08.13.04.18.15s.13,1.13.13,1.35c0,1.05-.15,1.27-.58,1.77-.17.2-.54.51-.55.21.11-.51-.13-2.45-.13-2.75,0-.21.03-.32.05-.21.08.29.33.69.55.5.62-.52.46-.74-.47-.74-.11,0-.15-.02-.15-.13,0-.12,0-.14.13-.15.82,0,1-.13.64-.44-.16-.13-.19-.14-.27-.14-.04,0-.09.01-.24.08-.12.05-.23.12-.25.11-.03-.02-.02-.52.05-.65.18-.28.16-.27-.24-.53-.05-.03-.27-.17-.27.18,0,.17,0,.15.05.3.09.28.11.35.02.78-.01.07-.35.12-.88.11-.1,0-.29.45-.29.59,0,.26.1.25.87-.15.32-.17.36-.18.36-.04,0,.08-.03.2-.08.29-.31.51-.79,1.01-1.41,1.01-.16,0-.39.77-.27.77.52,0,1.54-.94,1.66-1.25.11-.28.15-.35.15.04,0,1.32,0,1.72-.26,2.33-.05.11-.04.15.17.36.2.2.29.07.45-.09.01-.01.03-.02.06,0,.1.07.54.29.83.03.44-.38.46-.88.55-2.13q.03-.48.12-.51c.14-.05.53-.08.61-.05.17.05.28.04.34-.04.01-.01.05,0,.07.04.13.23-.28.29-.56.29-.3,0-.36-.02-.33.38,0,0,0,.03-.03.05-.04.03-.07.1,0,.19.18.25.06.7.06,1.02,0,.08.08.24.14.24.06,0,.11-.04.12-.1.02-.09.06-.12.09-.13.65-.15.68-.12.67.09-.02.48-.02.51-.02.92,0,.24.4-.2.36-.36-.09-.34-.09-.34-.09-.73,0-.21.93.12.9-.24-.02-.22,0-.38.04-.57.09-.33.13-.28-.11-.52-.08-.08-.12-.07-.44.09-.05.03-.44.09-.44-.08,0-.14,0-.13.27-.13.97,0,1.02,0,.76-.24q-.16-.15-.31-.11c-.3.08-.43.1-.59.11-.12.01-.13-.02-.13-.12,0-.22-.2-.23-.23-.23-.06,0-.11,0-.13.03-.02.04-.03,0-.02-.04.02-.06.02-.15,0-.19-.06-.22-.08-.46,0-.63.06-.13.02-.18-.05-.29-.13-.23-.15-.23-.31-.14-.27.16-.29.17-.51.19-.32.03-.41-.06-.35-.11.04-.03.14-.08.35-.15.33-.1,1.35-.35,1.85-.33.62.02.69.02,1.02.13s.29-.03.29-.13c0-.12-.03-.19-.12-.31ZM12.66,20.7c-.35.03-.37.02-.37-.1,0-.03.22-.05.34-.05.22-.02.26-.02.26.06,0,.07-.01.07-.23.09ZM12.51,20.16c.39,0,.41.01.41.05,0,.08,0,.1-.53.1-.09,0-.12,0-.12-.09,0-.05.07-.06.24-.06ZM11.43,19.97c0,.06-.12.05-.12.02,0-.02.12-.1.12-.02ZM11.96,20.78c-.54.11-.6.11-.6.01s.14-.11.35-.11c.08,0,.16-.01.22-.02.08-.02.06.11.02.12ZM11.98,20.31c0,.07-.61.15-.63.11-.05-.07-.05-.12.07-.12.09,0,.14,0,.18,0,.05,0,.11-.02.19-.07.07-.04.19-.08.19.07ZM11.77,19.98c-.21,0-.26-.03-.26-.07,0-.07.27-.15.41-.15.04,0,.04.01.04.08,0,.08-.02.15-.2.15ZM11.52,18.89s-.55.13-.61.13c-.17-.01-.2-.03-.15-.14s.46-.15.7-.14c.11,0,.07.14.06.15ZM10.71,18.36s.83-.23.83-.11c0,.18-.01.19-.27.19-.51,0-.56.02-.56-.08Z"/>
        <path class="cls-1" d="M13.91,18.4c0-.08-.02-.22.01-.28.05-.1.06-.14.06-.31,0-.05-.26-.25-.35-.25-.13,0-1.31.22-1.35.25-.07.04-.09.12-.09.21,0,.07,0,.11.07.22s.07.31.06.37c-.09.42-.19.68.37.55.14-.03.29-.04.47-.04.11,0,.36-.05.39-.09.02-.04.04,0,.04.04.13,1.66.15,1.83-.04,2.73-.04.2-.04.41.01.41.07,0,.48-.17.53-.4.22-1,.1-1.15-.19-3.4ZM13.5,17.99s.06.15.03.27c0,0-.01.02-.15.01-.18,0-.28,0-.64.02-.11,0-.12-.06-.12-.13,0-.05.81-.17.88-.17ZM13.56,18.84s-.13-.05-.22-.05c-.16,0-.36.05-.5.05-.19,0-.21-.01-.21-.11,0-.16.03-.12.29-.12s.37,0,.5-.04c.08-.03.09-.03.12-.03.04,0,.04-.03.02.12,0,.02,0,.06.01.11.02.05.02.09,0,.07Z"/>
        <path class="cls-1" d="M13.06,21.98c-.05,0-.13-.04-.13-.21,0-.14-.01-.22-.05-.29-.18-.33-.18-.33-.08-.33.08,0,.52.21.52.28,0,.25-.11.55-.26.55Z"/>
        <path class="cls-1" d="M11.67,21.43c.11.18.13.19-.34.54-.15.11-.24.13-.3.13-.14,0-.16-.02.19-.36.12-.12.17-.26.17-.36,0-.09.11-.22.28.05Z"/>
      </g>
      <path class="cls-1" d="M3.13,5.66c-1.04,0-3.64,3.18-3.04,3.18s1.72-.42,2.86-.96c1.45-.69,4.31-.71,8.14-.71,1.88,0,6.11,1.15,7.21,1.67s2.26.62,3.4-.4,2.32-2.46,2-2.46-1.74.44-2.95.93c-1.37.56-2.59.53-7.22-.15-1.09-.16-2.99-.17-3.94-.14-2.45.09-3.67,0-4.59-.22-.84-.21-1.04-.29-1.24-.51-.23-.24-.29-.25-.63-.25Z"/>
      <circle class="cls-1" cx="4.35" cy="28.79" r="1.41"/>
      <circle class="cls-1" cx="18.9" cy="28.79" r="1.41"/>
      <circle class="cls-1" cx="11.66" cy="1.04" r="1.04"/>
    </g>
  </g>
</svg>