<?xml version="1.0" encoding="UTF-8"?>
<svg id="_图层_2" data-name="图层 2" xmlns="http://www.w3.org/2000/svg" viewBox="0 0 121.79 121.79">
  <defs>
    <style>
      .cls-1 {
        fill: #8c1900;
      }
    </style>
  </defs>
  <g id="_图层_1-2" data-name="图层 1">
    <g>
      <polygon class="cls-1" points="5.25 114.94 4.63 115.02 3.92 115.23 3.21 115.12 2.49 115.2 1.78 114.92 1.06 115.15 .28 115.09 .54 114.31 .5 113.59 .45 112.86 .67 112.14 .64 111.42 .55 110.7 .17 109.98 .37 109.26 .18 108.54 .36 107.82 .66 107.1 .62 106.38 .21 105.67 .08 104.95 .06 104.23 .3 103.51 .35 102.79 .01 102.07 .64 101.36 .55 100.64 .44 99.92 .36 99.2 .15 98.49 .09 97.77 .49 97.05 .59 96.33 .27 95.61 .12 94.9 .47 94.18 .54 93.46 .52 92.74 0 92.02 .1 91.31 .31 90.59 .22 89.87 .5 89.15 .21 88.43 .31 87.71 .4 86.99 .14 86.27 .2 85.55 .45 84.83 .57 84.11 .55 83.38 .11 82.66 .12 81.94 .22 81.22 .25 80.5 .59 79.78 .46 79.06 .03 78.34 .29 77.62 .07 76.9 .26 76.18 .08 75.46 .53 74.74 .51 74.02 .28 73.3 .59 72.58 .39 71.86 .37 71.14 .18 70.42 .23 69.7 .59 68.98 .5 68.26 .2 67.54 .38 66.82 .61 66.1 .42 65.38 .15 64.66 .06 63.93 .04 63.21 .14 62.49 .16 61.77 .18 61.05 .53 60.33 .26 59.6 .49 58.88 .49 58.16 .09 57.44 .44 56.72 .19 56 .28 55.28 .55 54.56 .47 53.84 .22 53.12 .04 52.4 .54 51.67 .03 50.95 .21 50.23 .6 49.51 .41 48.78 .03 48.06 .25 47.34 .45 46.62 .43 45.91 .12 45.19 .24 44.47 .11 43.75 .66 43.03 .23 42.31 .56 41.58 .54 40.86 .43 40.14 .53 39.42 .13 38.7 .28 37.98 .35 37.26 .29 36.54 .38 35.82 .31 35.1 .59 34.38 .33 33.66 .2 32.94 .14 32.22 .42 31.5 .41 30.78 .04 30.06 .09 29.33 .4 28.61 .59 27.89 .17 27.16 .28 26.44 .44 25.72 .63 25 .33 24.28 .33 23.56 .58 22.83 .08 22.11 .27 21.38 .47 20.66 .56 19.94 .29 19.21 .67 18.49 .61 17.77 .2 17.04 .49 16.32 0 15.59 .05 14.87 .08 14.14 .16 13.42 .42 12.7 .65 11.98 .33 11.26 .66 10.53 .52 9.81 .23 9.08 .59 8.36 .36 7.63 .3 6.9 .47 6.18 .32 5.45 .29 4.72 .36 3.99 .12 3.27 .32 2.54 .22 1.81 .04 1.07 .51 .51 1.06 .61 1.78 .07 2.5 .5 3.21 .26 3.93 .44 4.65 .19 5.37 .41 6.09 .58 6.8 .18 7.52 .5 8.24 .55 8.95 .59 9.67 .68 10.39 .15 11.1 .64 11.82 .55 12.53 .55 13.25 .46 13.96 .18 14.68 .28 15.39 .65 16.11 .42 16.83 .25 17.54 .18 18.26 .4 18.97 .61 19.69 .04 20.4 .41 21.12 .09 21.83 .63 22.55 .48 23.26 .66 23.98 .67 24.7 .49 25.41 .19 26.13 .16 26.85 .67 27.56 .56 28.28 .44 29 .2 29.72 .4 30.44 .34 31.16 .17 31.87 0 32.59 .6 33.31 .18 34.03 .42 34.75 .59 35.47 .33 36.19 .08 36.9 .03 37.62 .53 38.34 .4 39.06 .34 39.77 .58 40.49 .43 41.21 .62 41.92 .28 42.64 .22 43.36 .55 44.07 .05 44.79 .56 45.51 .02 46.23 .19 46.94 .11 47.66 .3 48.38 .39 49.1 .64 49.82 .49 50.54 .26 51.26 .11 51.98 .1 52.7 .1 53.42 .43 54.14 .45 54.85 .38 55.57 .6 56.29 .5 57.01 .58 57.73 .12 58.44 .68 59.16 .55 59.88 .63 60.6 .33 61.32 .56 62.04 .18 62.76 .68 63.48 .54 64.2 .16 64.92 .08 65.64 .28 66.36 .46 67.08 .04 67.79 .41 68.51 .56 69.22 .33 69.94 .26 70.66 .53 71.37 .47 72.09 .61 72.81 .07 73.53 .55 74.25 .21 74.97 .32 75.69 .49 76.41 .51 77.12 .62 77.84 .14 78.56 .3 79.27 .28 79.99 .66 80.71 .03 81.42 .44 82.14 .15 82.86 .19 83.58 .2 84.3 .03 85.02 .32 85.74 0 86.46 .64 87.18 .17 87.9 .06 88.62 .68 89.34 .52 90.06 .14 90.78 .22 91.5 .62 92.22 .31 92.94 .24 93.66 .13 94.38 .24 95.1 .17 95.83 .47 96.55 .25 97.27 .22 97.99 .41 98.71 .6 99.44 .28 100.16 .31 100.88 .26 101.6 .24 102.31 .42 103.03 .22 103.75 .65 104.48 .44 105.2 .54 105.92 .09 106.64 .48 107.37 .02 108.09 .1 108.82 .11 109.54 .33 110.27 .31 110.99 .27 111.72 .24 112.44 .26 113.17 .67 113.9 .35 114.76 .21 114.78 1.05 114.51 1.77 114.92 2.48 114.38 3.19 114.4 3.91 114.69 4.62 114.46 5.17 113.91 5.31 113.2 5.64 112.48 5.66 111.76 5.57 111.05 5.42 110.33 5.51 109.61 5.18 108.9 5.63 108.18 5.38 107.47 5.27 106.75 5.01 106.03 5.05 105.32 5.63 104.6 5.04 103.89 5.09 103.17 5.14 102.46 5.09 101.74 5.61 101.03 5.54 100.31 5.65 99.59 5.45 98.88 5.31 98.16 5.58 97.45 5.59 96.73 5.1 96.02 5.47 95.3 5.13 94.58 5.09 93.87 5.62 93.15 5.51 92.43 5.33 91.71 5.36 90.99 5.41 90.28 5.27 89.56 5.34 88.84 5.33 88.12 5.43 87.4 5.2 86.68 5.64 85.96 5.65 85.24 5.08 84.52 5.03 83.81 5.32 83.09 5.68 82.37 5.49 81.65 5.06 80.94 5.02 80.22 5.42 79.5 5.28 78.78 5.24 78.07 5.19 77.35 5.65 76.63 5.39 75.92 5.01 75.2 5.06 74.48 5.22 73.76 5.1 73.05 5.64 72.33 5.68 71.61 5.07 70.89 5.32 70.17 5.16 69.45 5.25 68.73 5.03 68.01 5.39 67.29 5.53 66.57 5.43 65.85 5.03 65.13 5.25 64.42 5.47 63.7 5.58 62.98 5.55 62.26 5.46 61.54 5.6 60.82 5.01 60.11 5.43 59.39 5.31 58.67 5.5 57.95 5.59 57.23 5.45 56.51 5.07 55.79 5.56 55.07 5 54.35 5.45 53.63 5.23 52.91 5.58 52.19 5.2 51.48 5.66 50.76 5.35 50.05 5.46 49.33 5.39 48.61 5.35 47.89 5.51 47.17 5.42 46.45 5.21 45.73 5.39 45.01 5.51 44.29 5.63 43.58 5.28 42.86 5.05 42.14 5.64 41.42 5.42 40.71 5.56 39.99 5.2 39.27 5.32 38.56 5.33 37.84 5.06 37.12 5.45 36.4 5.53 35.68 5.41 34.96 5.36 34.24 5.29 33.52 5.36 32.8 5.66 32.08 5.04 31.36 5.07 30.64 5.21 29.92 5.54 29.2 5.42 28.48 5.24 27.76 5.65 27.04 5.65 26.32 5.68 25.59 5.02 24.87 5.03 24.15 5.1 23.43 5 22.71 5.29 21.99 5.29 21.26 5.27 20.54 5.68 19.82 5.11 19.1 5.63 18.38 5.01 17.66 5.25 16.94 5.56 16.22 5.42 15.5 5.2 14.77 5.22 14.05 5.55 13.33 5.48 12.61 5.43 11.88 5.37 11.16 5.37 10.43 5.65 9.71 5.2 8.98 5.49 8.26 5.29 7.53 5.16 6.8 5.63 6.07 5.59 5.41 5.42 5.01 6.06 5.36 6.78 5.28 7.5 5.29 8.22 5.1 8.94 5.28 9.66 5.57 10.38 5.36 11.1 5.54 11.82 5.4 12.53 5.53 13.25 5.64 13.97 5.18 14.69 5.12 15.41 5.43 16.12 5.17 16.84 5.13 17.56 5.34 18.28 5.32 19 5.56 19.71 5.47 20.43 5.01 21.15 5.07 21.87 5.11 22.59 5.33 23.31 5.04 24.03 5.28 24.74 5.51 25.46 5.2 26.18 5.45 26.9 5.36 27.62 5.36 28.34 5.17 29.06 5.02 29.78 5.13 30.51 5.3 31.23 5.1 31.95 5.15 32.67 5.54 33.39 5.2 34.12 5.65 34.84 5.43 35.56 5.15 36.28 5.01 37 5.25 37.72 5.42 38.44 5.28 39.16 5.02 39.88 5.08 40.6 5.05 41.32 5.31 42.04 5.32 42.76 5.37 43.48 5.15 44.2 5.05 44.92 5.68 45.64 5.14 46.36 5.21 47.08 5.5 47.8 5.14 48.52 5.03 49.24 5.46 49.96 5.51 50.69 5.11 51.41 5.02 52.13 5.55 52.85 5.57 53.58 5.6 54.3 5.43 55.02 5.48 55.74 5.39 56.46 5.46 57.18 5.62 57.9 5.32 58.62 5.02 59.34 5.07 60.06 5.66 60.79 5.09 61.51 5.14 62.23 5.1 62.95 5.18 63.67 5.52 64.4 5.23 65.12 5.39 65.84 5.38 66.56 5.01 67.29 5.64 68.01 5.16 68.73 5.04 69.44 5.59 70.16 5.28 70.88 5.01 71.6 5.32 72.32 5.63 73.04 5.21 73.77 5.2 74.49 5.47 75.21 5.68 75.93 5.67 76.65 5.38 77.38 5.36 78.09 5.18 78.81 5.33 79.53 5.11 80.25 5.39 80.97 5.56 81.69 5.68 82.41 5.62 83.13 5.17 83.85 5.57 84.57 5.07 85.3 5.04 86.02 5.27 86.75 5.07 87.47 5.26 88.19 5.67 88.91 5.26 89.64 5.3 90.36 5.58 91.08 5.44 91.8 5.63 92.53 5.22 93.25 5.24 93.98 5.28 94.7 5.66 95.42 5.42 96.15 5.46 96.87 5.12 97.6 5.28 98.32 5.35 99.05 5.3 99.77 5.22 100.5 5.14 101.22 5.38 101.94 5.37 102.66 5.52 103.38 5.52 104.11 5.12 104.83 5.07 105.56 5.09 106.28 5.57 107.01 5.06 107.74 5.61 108.46 5.55 109.19 5.12 109.92 5.29 110.65 5.66 111.37 5.37 112.1 5.04 112.83 5.55 113.56 5.44 114.3 5.25 114.94"/>
      <polygon class="cls-1" points="121.28 121.28 120.71 121.38 119.99 121.18 119.27 121.43 118.56 121.53 117.84 121.07 117.12 121.64 116.4 121.79 115.68 121.07 114.96 121.24 114.24 121.28 113.52 121.59 112.8 121.76 112.08 121.09 111.36 121.57 110.64 121.53 109.92 121.51 109.2 121.35 108.48 121.64 107.76 121.11 107.04 121.29 106.32 121.1 105.61 121.77 104.89 121.69 104.17 121.73 103.45 121.37 102.73 121.45 102.02 121.14 101.3 121.49 100.58 121.16 99.86 121.54 99.15 121.25 98.43 121.41 97.71 121.35 97 121.68 96.28 121.55 95.56 121.54 94.84 121.16 94.13 121.24 93.41 121.48 92.69 121.46 91.97 121.3 91.25 121.29 90.54 121.69 89.82 121.07 89.1 121.4 88.38 121.47 87.66 121.46 86.94 121.44 86.22 121.29 85.5 121.56 84.78 121.5 84.06 121.54 83.34 121.4 82.62 121.6 81.89 121.28 81.17 121.22 80.45 121.2 79.73 121.75 79.01 121.72 78.29 121.12 77.57 121.42 76.85 121.34 76.14 121.38 75.42 121.4 74.7 121.7 73.98 121.46 73.26 121.62 72.54 121.29 71.82 121.42 71.1 121.64 70.38 121.52 69.66 121.61 68.94 121.32 68.22 121.56 67.5 121.52 66.78 121.21 66.06 121.26 65.34 121.32 64.62 121.08 63.9 121.11 63.17 121.21 62.45 121.61 61.73 121.39 61.01 121.6 60.29 121.4 59.57 121.09 58.85 121.13 58.13 121.57 57.41 121.7 56.69 121.72 55.97 121.47 55.25 121.42 54.53 121.77 53.81 121.11 53.09 121.21 52.37 121.32 51.64 121.41 50.92 121.63 50.2 121.69 49.48 121.27 48.76 121.17 48.03 121.5 47.31 121.66 46.6 121.29 45.88 121.22 45.16 121.24 44.44 121.79 43.73 121.68 43 121.46 42.28 121.56 41.56 121.26 40.84 121.56 40.12 121.46 39.4 121.37 38.68 121.64 37.96 121.58 37.24 121.31 36.52 121.19 35.8 121.2 35.08 121.67 34.36 121.66 33.64 121.55 32.93 121.52 32.21 121.16 31.49 121.3 30.76 121.76 30.04 121.48 29.32 121.71 28.59 121.51 27.87 121.7 27.15 121.22 26.43 121.25 25.71 121.49 24.99 121.16 24.26 121.37 23.54 121.4 22.82 121.6 22.1 121.54 21.37 121.17 20.65 121.26 19.92 121.58 19.2 121.39 18.48 121.14 17.76 121.34 17.03 121.62 16.31 121.72 15.58 121.75 14.86 121.64 14.13 121.61 13.42 121.6 12.7 121.23 11.97 121.51 11.25 121.27 10.52 121.27 9.8 121.69 9.08 121.32 8.35 121.58 7.62 121.49 6.9 121.2 6.17 121.29 5.44 121.56 4.72 121.75 3.99 121.22 3.27 121.76 2.54 121.56 1.81 121.16 1.07 121.36 .11 121.66 .24 120.71 .45 120 .43 119.29 .11 118.58 .24 117.86 .09 117.14 .58 116.67 1.06 116.31 1.78 116.65 2.5 116.64 3.22 116.52 3.94 116.62 4.66 116.2 5.38 116.36 6.1 116.44 6.82 116.37 7.54 116.46 8.26 116.4 8.98 116.69 9.7 116.41 10.42 116.28 11.14 116.21 11.86 116.51 12.57 116.5 13.29 116.11 14.01 116.16 14.73 116.49 15.45 116.69 16.16 116.24 16.88 116.36 17.6 116.54 18.32 116.73 19.03 116.41 19.75 116.41 20.47 116.68 21.19 116.15 21.9 116.35 22.62 116.56 23.34 116.66 24.06 116.37 24.77 116.78 25.49 116.71 26.21 116.28 26.93 116.58 27.65 116.07 28.37 116.12 29.09 116.15 29.81 116.23 30.53 116.51 31.25 116.75 31.97 116.41 32.69 116.77 33.41 116.61 34.13 116.31 34.86 116.69 35.58 116.44 36.3 116.38 37.02 116.56 37.74 116.41 38.46 116.37 39.18 116.45 39.9 116.19 40.62 116.4 41.33 116.3 42.05 116.11 42.77 116.67 43.49 116.71 44.21 116.14 44.93 116.59 45.65 116.34 46.37 116.53 47.09 116.27 47.81 116.5 48.53 116.68 49.25 116.25 49.97 116.59 50.69 116.64 51.41 116.69 52.13 116.78 52.86 116.22 53.58 116.74 54.3 116.64 55.02 116.65 55.74 116.55 56.46 116.25 57.18 116.37 57.9 116.76 58.62 116.51 59.34 116.33 60.06 116.25 60.79 116.49 61.51 116.71 62.23 116.11 62.95 116.49 63.67 116.16 64.39 116.73 65.11 116.57 65.84 116.76 66.56 116.77 67.28 116.58 68 116.27 68.72 116.24 69.44 116.77 70.16 116.66 70.88 116.53 71.59 116.28 72.31 116.48 73.03 116.42 73.75 116.25 74.47 116.07 75.2 116.7 75.92 116.26 76.64 116.51 77.36 116.68 78.08 116.41 78.8 116.15 79.52 116.1 80.24 116.63 80.96 116.49 81.68 116.42 82.4 116.68 83.12 116.52 83.84 116.72 84.55 116.36 85.28 116.3 86 116.65 86.72 116.12 87.44 116.66 88.17 116.09 88.89 116.27 89.61 116.19 90.33 116.38 91.06 116.47 91.78 116.74 92.5 116.59 93.22 116.34 93.94 116.18 94.67 116.17 95.39 116.17 96.12 116.52 96.84 116.54 97.56 116.47 98.28 116.7 99.01 116.59 99.73 116.68 100.46 116.19 101.18 116.78 101.91 116.65 102.63 116.73 103.35 116.41 104.07 116.65 104.79 116.25 105.52 116.79 106.24 116.63 106.97 116.23 107.69 116.15 108.41 116.36 109.14 116.55 109.87 116.11 110.59 116.5 111.32 116.66 112.05 116.42 112.78 116.34 113.5 116.63 114.23 116.56 114.96 116.71 115.69 116.14 116.58 116.58 116.28 115.71 116.41 114.99 116.59 114.27 116.6 113.55 116.72 112.83 116.21 112.11 116.38 111.38 116.36 110.66 116.76 109.94 116.1 109.22 116.53 108.51 116.22 107.79 116.27 107.07 116.27 106.35 116.1 105.63 116.4 104.91 116.07 104.19 116.74 103.48 116.24 102.76 116.13 102.04 116.79 101.32 116.62 100.6 116.21 99.89 116.3 99.17 116.72 98.45 116.39 97.73 116.32 97.02 116.2 96.3 116.32 95.58 116.24 94.86 116.57 94.15 116.33 93.43 116.29 92.71 116.5 91.99 116.7 91.27 116.36 90.56 116.4 89.84 116.34 89.12 116.32 88.4 116.51 87.68 116.3 86.96 116.75 86.24 116.53 85.52 116.64 84.8 116.17 84.08 116.58 83.36 116.09 82.63 116.17 81.91 116.18 81.19 116.42 80.47 116.4 79.75 116.35 79.03 116.32 78.31 116.34 77.59 116.77 76.87 116.43 76.15 116.24 75.43 116.27 74.71 116.56 74 116.13 73.28 116.69 72.56 116.68 71.84 116.36 71.12 116.68 70.4 116.46 69.68 116.11 68.96 116.1 68.24 116.18 67.52 116.35 66.8 116.25 66.08 116.59 65.36 116.12 64.63 116.38 63.91 116.5 63.19 116.78 62.47 116.74 61.75 116.12 61.03 116.74 60.3 116.69 59.58 116.65 58.86 116.7 58.14 116.14 57.42 116.22 56.7 116.1 55.98 116.31 55.26 116.46 54.54 116.18 53.82 116.16 53.1 116.68 52.38 116.29 51.66 116.65 50.93 116.69 50.21 116.13 49.49 116.25 48.77 116.45 48.05 116.41 47.32 116.36 46.61 116.51 45.89 116.43 45.17 116.44 44.45 116.33 43.74 116.58 43.01 116.11 42.29 116.1 41.57 116.7 40.85 116.75 40.13 116.45 39.4 116.07 38.68 116.27 37.96 116.73 37.25 116.77 36.53 116.35 35.81 116.49 35.09 116.53 34.37 116.59 33.65 116.1 32.93 116.37 32.21 116.78 31.49 116.72 30.77 116.55 30.05 116.68 29.32 116.12 28.6 116.07 27.88 116.71 27.16 116.45 26.43 116.62 25.71 116.53 24.99 116.75 24.27 116.38 23.55 116.23 22.83 116.33 22.1 116.76 21.38 116.53 20.65 116.29 19.93 116.18 19.21 116.21 18.48 116.3 17.76 116.16 17.03 116.78 16.31 116.34 15.59 116.46 14.86 116.27 14.14 116.16 13.42 116.32 12.7 116.72 11.98 116.2 11.25 116.79 10.53 116.32 9.8 116.55 9.08 116.18 8.35 116.58 7.63 116.1 6.9 116.42 6.17 116.3 5.45 116.37 4.72 116.42 3.99 116.26 3.27 116.35 2.54 116.57 1.81 116.38 1.07 116.3 .22 117.14 .04 117.85 .41 118.56 .65 119.28 .02 119.99 .26 120.71 .11 121.32 .45 121.4 1.06 121.41 1.78 121.13 2.49 121.54 3.21 121.63 3.93 121.5 4.65 121.44 5.37 121.37 6.09 121.45 6.81 121.77 7.53 121.1 8.25 121.14 8.97 121.28 9.69 121.63 10.41 121.51 11.13 121.32 11.85 121.75 12.57 121.75 13.29 121.78 14.01 121.09 14.73 121.1 15.44 121.17 16.16 121.07 16.88 121.37 17.6 121.37 18.32 121.35 19.03 121.79 19.75 121.19 20.47 121.73 21.19 121.08 21.9 121.32 22.62 121.65 23.34 121.51 24.06 121.28 24.77 121.3 25.49 121.65 26.21 121.57 26.93 121.52 27.64 121.46 28.36 121.45 29.08 121.75 29.8 121.28 30.51 121.58 31.23 121.38 31.95 121.23 32.67 121.73 33.39 121.69 34.11 121.54 34.83 121.08 35.55 121.45 36.27 121.36 36.99 121.37 37.71 121.17 38.43 121.36 39.15 121.67 39.87 121.45 40.59 121.64 41.32 121.48 42.04 121.62 42.76 121.74 43.47 121.26 44.19 121.19 44.91 121.52 45.63 121.24 46.35 121.2 47.07 121.43 47.79 121.4 48.51 121.66 49.23 121.56 49.95 121.07 50.67 121.14 51.39 121.18 52.1 121.41 52.82 121.11 53.54 121.36 54.26 121.6 54.99 121.27 55.71 121.55 56.43 121.45 57.15 121.44 57.87 121.25 58.59 121.09 59.31 121.21 60.04 121.38 60.76 121.17 61.48 121.22 62.2 121.64 62.92 121.27 63.64 121.76 64.36 121.52 65.08 121.23 65.8 121.08 66.52 121.33 67.24 121.5 67.96 121.37 68.68 121.09 69.4 121.15 70.12 121.12 70.85 121.39 71.57 121.4 72.29 121.46 73.01 121.22 73.73 121.11 74.45 121.78 75.17 121.21 75.89 121.29 76.61 121.59 77.32 121.22 78.04 121.09 78.76 121.56 79.48 121.61 80.21 121.18 80.93 121.09 81.65 121.65 82.37 121.67 83.09 121.7 83.81 121.52 84.53 121.58 85.25 121.47 85.97 121.55 86.69 121.72 87.4 121.4 88.12 121.08 88.84 121.14 89.56 121.76 90.28 121.16 91 121.21 91.73 121.17 92.45 121.26 93.17 121.62 93.9 121.31 94.62 121.48 95.34 121.47 96.06 121.07 96.78 121.74 97.5 121.23 98.23 121.11 98.95 121.69 99.67 121.36 100.4 121.08 101.12 121.41 101.84 121.73 102.57 121.29 103.29 121.27 104.01 121.56 104.74 121.78 105.46 121.77 106.19 121.46 106.91 121.45 107.63 121.25 108.35 121.42 109.07 121.18 109.79 121.48 110.52 121.66 111.24 121.79 111.97 121.72 112.69 121.25 113.42 121.67 114.14 121.13 114.87 121.1 115.6 121.35 116.32 121.14 117.05 121.34 117.78 121.77 118.5 121.34 119.23 121.38 119.96 121.68 120.72 121.28 121.28"/>
      <path class="cls-1" d="M114.74,25.21l-.73-.06-.72.15-.72-.14-.72.02-.72.13-.72-.14-.72.14-.72-.14-.72.14-.72-.1-.72-.05-.72.1-.71-.07-.71.14-.71-.26-.71.03-.72.18h-.72s-.72-.05-.72-.05l-.72.11-.72-.19-.72-.04-.72.08-.72-.09-.72.12-.72.04-.72-.21-.72.26-.71.07-.72-.33-.72.08-.72.02-.72.14-.72.08-.72-.31-.72.22-.72-.02h-.72s-.72-.08-.72-.08l-.72.13-.72-.24-.72.08-.72-.08-.72.3-.72-.03-.72.02-.72-.17-.72.04-.72-.14-.72.16-.72-.15-.72.17-.72-.13-.72.07-.72-.03-.72.15-.72-.06h-.72s-.72-.18-.72-.18l-.72.04-.72.11h-.72s-.72-.08-.72-.08h-.72s-.72.18-.72.18l-.72-.28-.72.15-.72.03h-.72s-.72-.01-.72-.01l-.72-.07-.72.12-.72-.03-.73.02-.73-.06-.73.09-.68-.13.05-.68v-.73s-.24-.73-.24-.73v-.73s.29-.73.29-.73l-.14-.73.04-.72-.02-.72v-.72s-.15-.73-.15-.73l.11-.73-.07-.73.15-.73-.06-.73-.1-.73.05-.73-.04-.73.13-.73-.11-.73.02-.73.14-.73-.02-.73-.02-.73.11-.74-.05-.63h.61s.72-.18.72-.18l.72.1.72-.09.72.09.72.14.72-.02.72-.2.72-.06h.72s.72.11.72.11l.72.02.71-.16.71.3.71-.04.71-.05.72-.04.72-.1.72-.03.72.19.72.05.72-.15.72-.07.72.17.72.03h.72s.72-.26.72-.26l.72.05.71.1.72-.04.72.14.72-.14.72.05.72.04.72-.13.72.03.72.12.72.06h.72s.72-.22.72-.22h.72s.72.05.72.05h.72s.72.18.72.18l.72-.06.72-.21.72.13.72-.11.72.09.72-.09.72.22h.72s.72-.12.72-.12l.72.15.72-.1h.72s.72-.1.72-.1l.72.03.72.17.72-.04.72-.15.72.09.72.11.72-.09.72-.13.72-.04h.72s.72.04.72.04h.72s.72.02.72.02l.72.17.72-.13.72.11h.73s.73-.19.73-.19l.73.17.78-.1-.02.78-.13.73.04.73.12.73.09.73-.24.73.25.72-.09.72-.19.72.09.73.18.73-.11.73-.1.73v.73s.16.73.16.73l-.06.73.06.73-.27.73.21.73-.16.73v.73s.06.73.06.73l-.04.73.19.74-.09.74ZM64.38,20.19l.71.06.72-.15.72.14.72-.02.72-.13.72.14.72-.14.72.14.72-.14.72.1.72.05.72-.1.72.07.72-.14.72.26.72-.03.72-.18h.72s.72.05.72.05l.72-.11.72.19.72.04.72-.08.72.09.72-.12.72-.04.72.21.72-.26.72-.07.72.33.72-.08.72-.02.72-.14.72-.08.72.31.72-.22.72.02h.72s.72.08.72.08l.72-.13.72.24.72-.08.72.08.72-.3.72.03.72-.02.72.17.72-.04.72.14.72-.16.72.15.72-.17.72.13.72-.07.72.03.73-.15.72.06h.72s.72.18.72.18l.73-.04.73-.11h.73s.77.06.77.06l.02-.79-.18-.74.28-.74-.15-.75-.03-.75v-.75s.01-.74.01-.74l.07-.75-.12-.75.03-.75v-.71s-.68-.05-.68-.05l-.72.09-.72-.15-.72-.03h-.72s-.72.24-.72.24h-.72s-.72-.29-.72-.29l-.72.14-.72-.04-.72.02h-.72s-.72.15-.72.15l-.72-.11-.72.07-.72-.15-.72.06-.72.1-.72-.05-.72.04-.72-.13-.72.11-.72-.02-.72-.14-.72.02-.72.02-.72-.11h-.72s-.72.06-.72.06l-.72.18-.72-.1-.72.09-.72-.09-.72-.14-.72.02-.72.2-.72.06h-.72s-.72-.11-.72-.11l-.72-.02-.72.16-.72-.3-.72.04-.72.05-.72.04-.72.1-.72.03-.72-.19-.72-.05-.72.15-.72.07-.72-.17-.72-.03h-.72s-.72.26-.72.26l-.73-.05-.72-.1-.72.04-.72-.14-.73.14-.73-.05-.73-.04-.66.1v.68s-.12.74-.12.74l-.06.74v.75s.22.75.22.75v.75s-.05.74-.05.74v.75s-.18.75-.18.75l.06.75.07.74Z"/>
      <polygon class="cls-1" points="114.78 52.95 114.01 52.96 113.3 52.81 112.58 52.9 111.86 52.82 111.14 53 110.43 52.86 109.71 53.05 108.99 52.74 108.27 52.86 107.55 52.96 106.83 52.84 106.12 52.94 105.4 52.88 104.69 52.91 103.98 53.04 103.26 53.05 102.54 52.77 101.83 52.91 101.11 52.85 100.39 53 99.67 52.85 98.95 52.87 98.24 53 97.52 52.86 96.8 53 96.09 52.87 95.37 53.01 94.66 52.91 93.94 52.85 93.23 52.96 92.51 52.89 91.8 53.03 91.08 52.76 90.36 52.79 89.65 52.97 88.93 52.97 88.21 52.92 87.49 53.03 86.77 52.84 86.05 52.8 85.33 52.88 84.61 52.78 83.89 52.9 83.18 52.94 82.46 52.73 81.74 52.99 81.02 53.06 80.3 52.73 79.58 52.81 78.86 52.83 78.14 52.97 77.42 53.05 76.7 52.74 75.98 52.96 75.26 52.94 74.54 52.93 73.82 52.86 73.09 52.99 72.38 52.75 71.66 52.83 70.95 52.75 70.22 53.05 69.5 53.02 68.78 53.04 68.06 52.87 67.34 52.91 66.62 52.76 65.89 52.92 65.17 52.78 64.45 52.95 63.72 52.81 63 52.89 62.28 52.86 61.55 53.01 60.83 52.95 60.1 52.95 59.45 52.81 59.45 52.18 59.34 51.47 59.35 50.76 59.42 50.05 59.43 49.33 59.25 48.61 59.48 48.01 60.08 47.91 60.8 47.88 61.52 47.88 62.24 47.89 62.95 47.96 63.67 47.84 64.39 47.86 65.11 47.84 65.83 47.91 66.55 47.82 67.27 47.96 67.98 47.99 68.7 48 69.41 47.75 70.12 47.76 70.84 48.04 71.55 47.9 72.27 47.93 72.99 47.92 73.71 47.91 74.43 47.77 75.15 47.88 75.86 47.81 76.58 47.96 77.3 47.9 78.01 47.8 78.73 47.85 79.44 47.81 80.16 47.95 80.87 47.84 81.59 47.86 82.3 47.99 83.02 47.97 83.74 47.95 84.45 48.05 85.17 48.04 85.89 47.99 86.61 47.81 87.33 47.91 88.05 47.82 88.77 47.91 89.49 48.05 90.2 48.03 90.92 47.83 91.64 47.77 92.36 47.76 93.08 47.88 93.8 47.9 94.52 47.74 95.24 48.04 95.96 47.99 96.68 47.94 97.4 47.91 98.12 47.8 98.84 47.77 99.56 47.97 100.28 48.01 101 47.86 101.72 47.79 102.44 47.96 103.15 47.99 103.87 47.98 104.6 47.73 105.32 47.78 106.04 47.88 106.76 47.84 107.48 47.97 108.2 47.83 108.93 47.88 109.65 47.92 110.38 47.8 111.1 47.83 111.82 47.95 112.55 48 113.27 48 114 47.79 114.81 47.82 114.79 48.61 114.77 49.32 114.61 50.03 114.67 50.75 114.88 51.46 114.75 52.18 114.78 52.95"/>
      <polygon class="cls-1" points="114.82 18.6 114.01 18.37 113.3 18.59 112.58 18.62 111.86 18.58 111.14 18.37 110.42 18.44 109.7 18.42 108.98 18.57 108.26 18.41 107.54 18.51 106.82 18.65 106.11 18.57 105.4 18.37 104.68 18.41 103.97 18.65 103.25 18.39 102.53 18.5 101.81 18.58 101.09 18.57 100.37 18.42 99.65 18.51 98.94 18.43 98.22 18.61 97.5 18.47 96.79 18.66 96.07 18.35 95.35 18.47 94.64 18.57 93.92 18.45 93.21 18.55 92.49 18.49 91.77 18.52 91.06 18.65 90.34 18.66 89.62 18.38 88.9 18.52 88.18 18.46 87.46 18.61 86.74 18.47 86.02 18.48 85.3 18.61 84.58 18.47 83.86 18.61 83.14 18.48 82.42 18.62 81.7 18.52 80.98 18.46 80.26 18.57 79.54 18.5 78.82 18.64 78.1 18.37 77.38 18.41 76.66 18.58 75.93 18.58 75.21 18.52 74.49 18.63 73.77 18.45 73.05 18.41 72.34 18.49 71.62 18.39 70.9 18.51 70.17 18.55 69.45 18.35 68.73 18.6 68.01 18.67 67.28 18.34 66.56 18.42 65.84 18.44 65.11 18.58 64.39 18.66 63.66 18.35 62.94 18.57 62.21 18.55 61.49 18.54 60.76 18.47 59.96 18.57 60.17 17.79 60.09 17.08 60.17 16.37 59.87 15.66 59.91 14.94 59.89 14.22 60.05 13.52 60.75 13.5 61.46 13.64 62.18 13.48 62.9 13.62 63.62 13.46 64.34 13.59 65.06 13.51 65.78 13.54 66.5 13.39 67.22 13.45 67.93 13.46 68.65 13.63 69.36 13.59 70.08 13.48 70.79 13.49 71.51 13.56 72.23 13.57 72.95 13.39 73.67 13.67 74.39 13.52 75.1 13.49 75.82 13.49 76.54 13.5 77.26 13.57 77.97 13.45 78.69 13.47 79.4 13.45 80.12 13.52 80.84 13.43 81.55 13.57 82.27 13.6 82.99 13.61 83.7 13.36 84.42 13.37 85.14 13.64 85.86 13.51 86.58 13.54 87.3 13.53 88.02 13.52 88.74 13.38 89.46 13.49 90.18 13.42 90.9 13.57 91.62 13.51 92.34 13.41 93.06 13.46 93.78 13.42 94.5 13.55 95.22 13.45 95.94 13.47 96.66 13.6 97.38 13.58 98.1 13.56 98.83 13.66 99.55 13.65 100.27 13.6 100.99 13.42 101.71 13.52 102.42 13.43 103.14 13.52 103.86 13.66 104.59 13.64 105.31 13.44 106.03 13.38 106.75 13.37 107.47 13.49 108.2 13.51 108.92 13.35 109.65 13.65 110.37 13.6 111.1 13.55 111.82 13.52 112.54 13.41 113.27 13.38 114 13.58 114.65 13.59 114.77 14.22 114.84 14.93 114.67 15.64 114.64 16.36 114.65 17.07 114.89 17.78 114.82 18.6"/>
      <polygon class="cls-1" points="114.72 73.14 114.02 73.14 113.31 73.12 112.6 73.21 111.88 73.19 111.17 73.17 110.46 73.09 109.75 73.22 109.03 73.16 108.32 73.09 107.6 73.12 106.89 73.2 106.18 73.22 105.46 73.22 104.75 73.17 104.03 73.17 103.32 73.2 102.6 73.13 101.89 73.24 101.18 73.14 100.47 73.2 99.76 73.1 99.05 73.2 98.33 73.16 97.61 73.16 96.9 73.14 96.19 73.09 95.47 73.11 94.75 73.22 94.04 73.09 93.32 73.2 92.6 73.21 91.88 73.2 91.17 73.09 90.45 73.13 89.73 73.12 89.01 73.19 88.32 73.13 88.28 72.45 88.22 71.73 88.25 71.02 88.35 70.3 88.33 69.59 88.21 68.87 88.34 68.15 88.29 67.44 88.25 66.72 88.25 66.01 88.32 65.29 88.28 64.58 88.32 63.86 88.23 63.14 88.3 62.43 88.21 61.71 88.36 61 88.3 60.29 88.25 59.57 88.31 58.86 88.26 58.14 88.29 57.42 88.27 56.71 88.21 55.99 88.21 55.27 88.34 54.55 88.28 53.84 88.31 53.12 88.23 52.4 88.3 51.68 88.29 50.96 88.23 50.24 88.3 49.52 88.23 48.79 88.29 48.08 89 48.01 89.71 48.06 90.42 48.09 91.13 48.04 91.85 48.07 92.57 48 93.24 48.11 93.23 48.78 93.32 49.5 93.32 50.21 93.29 50.93 93.34 51.65 93.26 52.36 93.24 53.08 93.27 53.8 93.23 54.51 93.28 55.22 93.3 55.94 93.21 56.65 93.33 57.37 93.36 58.08 93.2 58.8 93.24 59.52 93.25 60.23 93.32 60.95 93.36 61.67 93.21 62.39 93.31 63.11 93.31 63.83 93.3 64.55 93.27 65.27 93.33 65.99 93.21 66.71 93.25 67.43 93.23 68.21 94 68.08 94.71 68.1 95.42 68.09 96.14 68.17 96.85 68.15 97.56 68.22 98.27 68.14 98.98 68.22 99.7 68.13 100.41 68.2 101.12 68.16 101.84 68.18 102.55 68.1 103.27 68.13 103.98 68.13 104.7 68.22 105.42 68.2 106.13 68.15 106.85 68.15 107.57 68.19 108.29 68.19 109.01 68.1 109.78 68.21 109.74 67.46 109.72 66.76 109.72 66.07 109.73 65.37 109.76 64.67 109.7 63.97 109.72 63.27 109.71 62.57 109.74 61.87 109.69 61.17 109.76 60.47 109.76 59.73 109.03 59.71 108.33 59.83 107.63 59.83 106.92 59.7 106.22 59.76 105.52 59.74 104.81 59.75 104.1 59.76 103.4 59.82 102.7 59.77 101.99 59.81 101.28 59.73 100.57 59.76 99.89 59.8 99.88 60.39 99.9 61.01 99.85 61.65 100.59 61.6 101.31 61.61 102.03 61.68 102.75 61.67 103.47 61.66 104.19 61.71 104.91 61.7 105.63 61.68 106.36 61.59 107.08 61.64 107.83 61.61 107.8 62.35 107.74 63.06 107.74 63.77 107.84 64.48 107.87 65.2 107.87 65.92 107.81 66.64 107.1 66.63 106.38 66.71 105.66 66.56 104.95 66.59 104.23 66.61 103.51 66.63 102.8 66.68 102.08 66.69 101.36 66.6 100.64 66.58 99.92 66.65 99.2 66.68 98.48 66.6 97.76 66.59 97.04 66.59 96.31 66.71 95.59 66.69 94.86 66.64 94.84 65.89 94.9 65.15 94.83 64.41 94.86 63.68 94.88 62.94 94.82 62.2 94.83 61.45 94.89 60.71 94.92 59.97 94.91 59.23 94.81 58.49 94.81 57.75 94.84 57 94.84 56.26 94.92 55.51 94.88 54.78 95.57 54.69 96.28 54.75 96.99 54.7 97.69 54.74 98.4 54.7 99.11 54.81 99.82 54.8 100.53 54.75 101.24 54.82 101.94 54.77 102.64 54.77 103.35 54.72 104.06 54.74 104.77 54.82 105.48 54.8 106.18 54.73 106.89 54.77 107.6 54.82 108.32 54.78 109.03 54.72 109.74 54.7 110.45 54.69 111.16 54.72 111.87 54.72 112.58 54.73 113.3 54.81 114.01 54.74 114.71 54.79 114.7 55.47 114.79 56.17 114.71 56.88 114.77 57.59 114.75 58.29 114.68 59 114.7 59.71 114.76 60.41 114.8 61.11 114.69 61.81 114.8 62.52 114.76 63.23 114.67 63.93 114.72 64.64 114.8 65.34 114.75 66.05 114.71 66.76 114.71 67.47 114.78 68.18 114.75 68.89 114.78 69.6 114.66 70.31 114.76 71.02 114.68 71.73 114.68 72.44 114.72 73.14"/>
      <polygon class="cls-1" points="86.47 73.34 85.82 73.39 85.11 73.44 84.4 73.46 83.69 73.42 82.97 73.37 82.26 73.43 81.55 73.33 80.83 73.43 80.12 73.38 79.4 73.32 78.69 73.48 77.98 73.42 77.26 73.36 76.55 73.43 75.84 73.34 75.12 73.46 74.41 73.38 73.69 73.46 72.98 73.47 72.27 73.37 71.56 73.32 70.85 73.37 70.13 73.39 69.42 73.4 68.7 73.44 67.99 73.37 67.27 73.36 66.55 73.38 65.84 73.38 65.12 73.36 64.4 73.45 63.69 73.44 62.97 73.42 62.25 73.33 61.53 73.47 60.81 73.4 60.09 73.33 59.39 73.37 59.33 72.7 59.31 71.99 59.3 71.28 59.36 70.58 59.36 69.87 59.32 69.16 59.39 68.46 59.29 67.76 59.39 67.05 59.32 66.35 59.43 65.64 59.32 64.94 59.37 64.23 59.37 63.52 59.39 62.82 59.44 62.11 59.41 61.4 59.3 60.69 59.44 59.98 59.32 59.27 59.31 58.56 59.33 57.86 59.44 57.15 59.4 56.43 59.41 55.72 59.35 54.98 60.08 55.05 60.78 55 61.49 54.94 62.2 54.97 62.91 55.07 63.62 55.05 64.33 54.93 65.03 55.06 65.74 55.01 66.45 54.97 67.16 54.97 67.86 55.05 68.57 55 69.27 55.04 69.99 54.95 70.69 55.02 71.4 54.93 72.11 55.08 72.82 55.02 73.53 54.97 74.24 55.03 74.96 54.98 75.67 55.01 76.38 55 77.09 54.93 77.8 54.93 78.52 55.07 79.23 55 79.93 55.02 80 55.74 79.93 56.48 79.94 57.22 80 57.96 79.94 58.7 80 59.44 79.94 60.18 80.01 60.92 79.96 61.67 79.93 62.41 79.98 63.15 79.95 63.89 80.02 64.64 79.89 65.38 79.9 66.13 79.98 66.9 79.23 66.91 78.51 66.88 77.79 66.94 77.06 66.85 76.33 66.83 75.61 66.87 74.88 66.82 74.16 66.88 73.43 66.9 72.7 66.8 71.97 66.92 71.24 66.96 70.51 66.8 69.78 66.83 69.06 66.84 68.32 66.91 67.59 66.95 66.86 66.8 66.1 66.9 66.1 66.16 66.11 65.45 66.14 64.74 66.08 64.03 66.2 63.31 66.15 62.59 66.17 61.93 66.86 61.8 67.59 61.82 68.32 61.81 69.06 61.89 69.79 61.87 70.53 61.94 71.26 61.86 72 61.93 72.73 61.85 73.47 61.92 74.21 61.88 74.96 61.89 74.89 61.25 74.92 60.63 74.94 60.02 74.25 59.95 73.54 59.96 72.84 60.02 72.14 60.01 71.43 59.98 70.73 59.98 70.03 60.06 69.32 59.92 68.61 60 67.91 60.01 67.2 60.01 66.5 60.01 65.79 59.98 65.08 60.03 64.38 60.02 64.39 60.7 64.36 61.4 64.41 62.1 64.34 62.8 64.32 63.5 64.32 64.19 64.44 64.89 64.43 65.59 64.3 66.29 64.37 66.99 64.35 67.7 64.36 68.41 65.08 68.41 65.8 68.34 66.51 68.39 67.22 68.36 67.94 68.43 68.65 68.4 69.36 68.35 70.07 68.38 70.78 68.36 71.5 68.43 72.21 68.37 72.92 68.38 73.64 68.45 74.35 68.44 75.07 68.43 75.78 68.48 76.5 68.47 77.22 68.45 77.94 68.36 78.65 68.41 79.37 68.36 80.09 68.41 80.81 68.48 81.58 68.45 81.5 67.69 81.47 66.97 81.47 66.26 81.52 65.54 81.53 64.82 81.46 64.11 81.6 63.39 81.58 62.67 81.56 61.96 81.54 61.25 81.49 60.53 81.47 59.82 81.57 59.1 81.59 58.38 81.52 57.67 81.48 56.95 81.56 56.24 81.58 55.52 81.57 54.8 81.45 54.08 81.48 53.36 81.53 52.64 81.5 51.92 81.57 51.2 81.5 50.48 81.52 49.76 81.55 49.03 81.5 48.28 82.25 48.28 82.96 48.34 83.67 48.36 84.38 48.36 85.1 48.26 85.82 48.26 86.55 48.29 86.55 49.02 86.47 49.74 86.51 50.45 86.61 51.17 86.54 51.88 86.6 52.6 86.55 53.31 86.59 54.03 86.49 54.74 86.49 55.46 86.55 56.18 86.47 56.89 86.52 57.61 86.53 58.33 86.57 59.04 86.56 59.76 86.47 60.47 86.5 61.18 86.57 61.89 86.52 62.61 86.47 63.33 86.51 64.04 86.58 64.76 86.6 65.48 86.6 66.2 86.58 66.91 86.57 67.63 86.57 68.35 86.49 69.07 86.55 69.79 86.5 70.51 86.5 71.23 86.59 71.95 86.51 72.68 86.47 73.34"/>
      <polygon class="cls-1" points="90.18 52.84 89.53 52.97 88.81 52.98 88.1 52.98 87.39 53 86.67 52.94 85.96 52.86 85.16 52.97 85.36 52.18 85.1 51.47 85.18 50.76 85.15 50.04 85.24 49.33 85.21 48.61 85.38 47.9 85.26 47.18 85.18 46.46 85.13 45.75 85.21 45.03 85.29 44.32 85.2 43.6 85.36 42.89 85.19 42.18 85.28 41.46 85.37 40.75 85.11 40.04 85.2 39.32 85.3 38.61 85.18 37.89 85.34 37.18 85.13 36.46 85.26 35.74 85.14 35.02 85.12 34.31 85.28 33.59 85.37 32.87 85.29 32.16 85.26 31.44 85.23 30.73 85.18 30.01 85.28 29.29 85.31 28.57 85.28 27.86 85.28 27.14 85.31 26.42 85.16 25.7 85.18 24.98 85.21 24.27 85.36 23.55 85.13 22.83 85.23 22.11 85.35 21.39 85.3 20.67 85.17 19.96 85.14 19.24 85.13 18.53 85.22 17.81 85.22 17.09 85.16 16.37 85.28 15.65 85.1 14.93 85.27 14.21 85.16 13.49 85.35 12.77 85.16 12.05 85.24 11.32 85.24 10.6 85.27 9.88 85.36 9.16 85.32 8.43 85.13 7.71 85.32 7.06 85.95 6.91 86.66 6.89 87.37 6.92 88.09 7.1 88.8 7.03 89.52 7.05 90.27 6.94 90.16 7.69 90.24 8.4 90.35 9.12 90.29 9.83 90.12 10.55 90.16 11.26 90.36 11.98 90.14 12.7 90.23 13.41 90.3 14.13 90.29 14.84 90.17 15.56 90.24 16.27 90.18 16.98 90.33 17.7 90.21 18.41 90.36 19.12 90.11 19.84 90.21 20.55 90.29 21.27 90.19 21.98 90.27 22.7 90.23 23.41 90.25 24.13 90.36 24.85 90.36 25.57 90.13 26.29 90.25 27 90.2 27.72 90.32 28.43 90.2 29.15 90.22 29.87 90.33 30.58 90.21 31.3 90.33 32.02 90.21 32.74 90.33 33.46 90.25 34.17 90.2 34.89 90.29 35.61 90.23 36.33 90.35 37.05 90.13 37.77 90.15 38.49 90.3 39.2 90.3 39.92 90.25 40.63 90.35 41.35 90.19 42.07 90.16 42.79 90.22 43.51 90.14 44.22 90.24 44.94 90.28 45.67 90.1 46.39 90.32 47.11 90.38 47.83 90.1 48.55 90.17 49.27 90.18 49.99 90.3 50.72 90.37 51.44 90.11 52.16 90.18 52.84"/>
      <polygon class="cls-1" points="83.89 46.35 83.15 46.28 82.44 46.38 81.72 46.35 81 46.3 80.29 46.37 79.57 46.36 78.85 46.38 78.14 46.31 77.42 46.31 76.71 46.3 75.99 46.36 75.27 46.35 74.55 46.28 73.84 46.3 73.12 46.26 72.41 46.32 71.69 46.33 70.98 46.28 70.26 46.3 69.54 46.38 68.83 46.27 68.11 46.28 67.39 46.37 66.67 46.37 65.95 46.37 65.24 46.38 64.51 46.34 63.79 46.3 63.07 46.38 62.36 46.26 61.63 46.4 60.91 46.35 60.19 46.37 59.46 46.32 59.44 45.6 59.53 44.88 59.47 44.16 59.43 43.44 59.4 42.72 59.45 42 59.49 41.28 59.44 40.55 59.52 39.84 59.43 39.12 59.48 38.4 59.53 37.68 59.39 36.96 59.44 36.23 59.49 35.51 59.43 34.79 59.51 34.07 59.4 33.34 59.47 32.62 59.41 31.9 59.4 31.17 59.48 30.45 59.53 29.72 59.49 29 59.47 28.27 59.46 27.54 59.44 26.79 60.18 26.83 60.9 26.85 61.62 26.83 62.34 26.83 63.06 26.85 63.78 26.77 64.5 26.78 65.22 26.8 65.94 26.87 66.67 26.75 67.39 26.81 68.11 26.87 68.83 26.84 69.56 26.78 70.29 26.76 71.05 26.77 71.02 27.53 71.02 28.25 71.05 28.98 70.99 29.7 71.08 30.43 71 31.15 71.05 31.88 70.95 32.6 71.05 33.33 71.01 34.06 71.01 34.79 70.99 35.51 70.95 36.24 70.97 36.97 71.07 37.7 70.95 38.43 71.05 39.16 71.05 39.93 70.3 39.93 69.59 39.83 68.88 39.86 68.16 39.85 67.45 39.92 66.73 39.85 66.01 39.89 65.95 39.16 65.99 38.43 66.07 37.69 66.05 36.96 65.95 36.23 66.07 35.49 66.01 34.76 65.98 34.02 65.98 33.29 66.05 32.55 66.01 31.81 65.24 31.78 64.49 31.84 64.45 32.54 64.53 33.27 64.39 34 64.44 34.73 64.49 35.46 64.44 36.19 64.48 36.92 64.45 37.65 64.47 38.38 64.53 39.12 64.53 39.85 64.4 40.59 64.46 41.32 65.18 41.34 65.89 41.28 66.61 41.34 67.32 41.33 68.04 41.28 68.76 41.34 69.48 41.28 70.2 41.34 70.92 41.27 71.64 41.32 72.36 41.34 73.08 41.3 73.8 41.33 74.52 41.27 75.24 41.38 75.96 41.37 76.69 41.29 77.41 41.29 78.14 41.31 78.83 41.28 78.89 40.6 78.91 39.88 78.87 39.16 78.92 38.44 78.86 37.72 78.85 36.99 78.94 36.27 78.82 35.54 78.79 34.82 78.94 34.09 78.9 33.37 78.9 32.64 78.83 31.91 78.8 31.19 78.93 30.46 78.84 29.73 78.84 29 78.85 28.27 78.88 27.54 78.84 26.78 79.58 26.87 80.29 26.84 81 26.87 81.72 26.74 82.43 26.76 83.15 26.75 83.86 26.82 83.87 27.53 83.81 28.25 83.88 28.97 83.81 29.69 83.89 30.42 83.83 31.14 83.86 31.86 83.85 32.58 83.92 33.3 83.89 34.01 83.89 34.73 83.81 35.45 83.83 36.18 83.88 36.9 83.87 37.62 83.84 38.34 83.84 39.07 83.92 39.79 83.79 40.51 83.86 41.24 83.87 41.96 83.87 42.69 83.87 43.41 83.84 44.14 83.89 44.86 83.88 45.59 83.89 46.35"/>
      <polygon class="cls-1" points="114.71 46.24 114.01 46.3 113.29 46.21 112.57 46.23 111.85 46.22 111.13 46.32 110.4 46.29 109.68 46.24 108.96 46.25 108.24 46.28 107.52 46.21 106.8 46.21 106.08 46.23 105.35 46.18 104.64 46.23 103.92 46.25 103.2 46.22 102.48 46.3 101.76 46.27 101.04 46.21 100.31 46.32 99.59 46.29 98.87 46.29 98.14 46.22 97.42 46.3 96.69 46.28 95.97 46.23 95.25 46.3 94.52 46.28 93.8 46.31 93.07 46.24 92.34 46.24 91.62 46.24 91.58 45.54 91.59 44.83 91.65 44.12 91.63 43.41 91.67 42.7 91.61 41.99 91.61 41.28 91.65 40.57 91.63 39.86 91.56 39.15 91.66 38.45 91.65 37.73 91.57 37.02 91.56 36.31 91.56 35.6 91.56 34.89 91.59 34.17 91.63 33.46 91.56 32.75 91.67 32.03 91.54 31.32 91.58 30.61 91.57 29.89 91.61 29.18 91.59 28.46 91.68 27.74 91.62 27.03 92.32 26.99 93.03 26.97 93.74 27.01 94.46 27.05 95.17 27 95.89 27.08 96.63 27 96.59 27.73 96.54 28.44 96.67 29.14 96.63 29.85 96.58 30.56 96.64 31.27 96.56 31.98 96.66 32.69 96.6 33.4 96.66 34.11 96.67 34.82 96.59 35.54 96.54 36.25 96.58 36.96 96.6 37.68 96.61 38.39 96.64 39.1 96.59 39.82 96.57 40.53 96.6 41.27 97.33 41.27 98.06 41.29 98.78 41.21 99.51 41.22 100.24 41.24 100.96 41.31 101.69 41.2 102.42 41.25 103.15 41.31 103.88 41.28 104.61 41.22 105.34 41.2 106.07 41.2 106.8 41.25 107.53 41.25 108.26 41.22 109 41.27 109.68 41.2 109.75 40.55 109.69 39.84 109.79 39.13 109.69 38.42 109.73 37.71 109.73 37 109.75 36.29 109.79 35.58 109.77 34.88 109.68 34.16 109.79 33.45 109.69 32.74 109.7 32.06 108.78 32.05 108.7 32.74 108.73 33.45 108.72 34.17 108.79 34.89 108.72 35.6 108.76 36.32 108.82 37.03 108.79 37.75 108.7 38.47 108.72 39.19 108.8 39.95 108.05 39.86 107.34 39.91 106.63 39.94 105.91 39.94 105.2 39.88 104.48 39.91 103.78 39.89 103.72 39.2 103.77 38.49 103.7 37.78 103.83 37.06 103.78 36.35 103.73 35.63 103.78 34.92 103.74 34.2 103.77 33.49 103.75 32.77 103.7 32.05 103.7 31.34 103.81 30.62 103.76 29.91 103.78 29.19 103.72 28.47 103.78 27.74 103.77 27.03 104.49 26.98 105.22 27.04 105.95 26.98 106.67 27.03 107.41 26.98 108.14 27.02 108.87 27.04 109.6 27 110.33 27.02 111.06 26.97 111.79 27.08 112.52 27.06 113.26 26.99 113.99 26.99 114.74 27.02 114.79 27.73 114.71 28.44 114.69 29.15 114.72 29.86 114.68 30.58 114.73 31.29 114.75 32 114.66 32.71 114.77 33.41 114.8 34.12 114.66 34.83 114.7 35.54 114.7 36.25 114.76 36.96 114.8 37.67 114.67 38.39 114.76 39.1 114.75 39.81 114.75 40.53 114.72 41.24 114.77 41.96 114.67 42.67 114.7 43.38 114.67 44.1 114.8 44.81 114.78 45.53 114.71 46.24"/>
      <polygon class="cls-1" points="77.44 52.89 76.73 52.83 76.02 52.88 75.3 52.91 74.59 52.85 73.88 52.88 73.16 52.96 72.43 52.9 72.39 52.17 72.37 51.45 72.51 50.73 72.51 50 72.47 49.28 72.37 48.55 72.5 47.82 72.47 47.1 72.49 46.38 72.34 45.65 72.38 44.93 72.45 44.21 72.44 43.48 72.4 42.76 72.51 42.03 72.5 41.3 72.47 40.58 72.54 39.85 72.48 39.12 72.45 38.4 72.49 37.67 72.37 36.95 72.41 36.22 72.5 35.49 72.35 34.77 72.38 34.04 72.39 33.32 72.49 32.6 72.37 31.87 72.4 31.15 72.47 30.42 72.38 29.69 72.4 28.96 72.36 28.24 72.46 27.51 72.46 26.78 72.47 26.05 72.4 25.32 72.41 24.59 72.5 23.86 72.47 23.13 72.52 22.4 72.44 21.67 72.44 20.93 72.48 20.24 73.15 20.23 73.86 20.13 74.58 20.27 75.29 20.25 76 20.14 76.72 20.14 77.48 20.16 77.51 20.92 77.47 21.64 77.41 22.37 77.52 23.09 77.36 23.82 77.54 24.55 77.48 25.27 77.5 26 77.44 26.72 77.46 27.44 77.34 28.17 77.43 28.89 77.48 29.61 77.52 30.34 77.46 31.07 77.41 31.79 77.47 32.52 77.36 33.25 77.47 33.97 77.41 34.7 77.35 35.42 77.53 36.15 77.47 36.88 77.4 37.6 77.48 38.33 77.37 39.06 77.52 39.78 77.42 40.5 77.51 41.22 77.53 41.95 77.41 42.68 77.35 43.4 77.4 44.13 77.43 44.86 77.44 45.59 77.48 46.32 77.41 47.04 77.39 47.77 77.41 48.5 77.41 49.23 77.39 49.96 77.5 50.69 77.48 51.43 77.46 52.16 77.44 52.89"/>
      <polygon class="cls-1" points="102.77 52.72 102.08 52.7 101.37 52.74 100.66 52.69 99.94 52.68 99.23 52.74 98.51 52.83 97.75 52.78 97.71 52.02 97.82 51.3 97.71 50.58 97.7 49.86 97.8 49.14 97.86 48.42 97.81 47.7 97.78 46.97 97.83 46.25 97.81 45.53 97.73 44.81 97.78 44.09 97.74 43.37 97.72 42.65 97.86 41.93 97.86 41.2 97.82 40.48 97.72 39.76 97.85 39.04 97.82 38.31 97.84 37.59 97.69 36.87 97.73 36.14 97.81 35.42 97.79 34.7 97.75 33.97 97.86 33.26 97.85 32.54 97.82 31.82 97.89 31.09 97.83 30.37 97.8 29.65 97.84 28.92 97.73 28.2 97.76 27.47 97.85 26.75 97.7 26.02 97.73 25.3 97.74 24.57 97.84 23.84 97.72 23.12 97.75 22.39 97.82 21.66 97.73 20.93 97.76 20.17 98.5 20.12 99.21 20.22 99.93 20.22 100.64 20.23 101.36 20.16 102.07 20.17 102.75 20.24 102.76 20.92 102.71 21.64 102.79 22.36 102.79 23.08 102.74 23.8 102.76 24.53 102.86 25.25 102.72 25.97 102.74 26.69 102.85 27.41 102.85 28.13 102.85 28.85 102.86 29.57 102.82 30.29 102.76 31.02 102.87 31.74 102.71 32.46 102.89 33.18 102.83 33.91 102.85 34.63 102.79 35.35 102.81 36.07 102.69 36.8 102.78 37.52 102.83 38.24 102.87 38.97 102.81 39.69 102.76 40.4 102.82 41.12 102.71 41.85 102.83 42.57 102.76 43.3 102.7 44.02 102.88 44.74 102.82 45.47 102.75 46.19 102.83 46.92 102.72 47.65 102.87 48.37 102.77 49.1 102.86 49.82 102.88 50.55 102.76 51.28 102.7 52.01 102.77 52.72"/>
      <polygon class="cls-1" points="79.26 79.96 78.54 79.89 77.83 80 77.12 79.95 76.41 80 75.7 79.97 74.99 79.98 74.28 79.95 73.58 79.93 72.87 79.93 72.16 79.95 71.46 79.92 70.75 79.91 70.04 79.95 69.33 80 68.63 79.98 67.92 80 67.21 79.93 66.5 80 65.79 80.01 65.08 79.95 64.36 79.91 63.65 79.94 62.94 79.96 62.23 79.92 61.52 79.94 60.8 79.99 60.08 79.95 59.35 79.97 59.33 79.24 59.41 78.53 59.41 77.82 59.39 77.1 59.33 76.39 59.4 75.67 59.38 74.96 60.08 74.98 60.78 74.89 61.49 74.91 62.2 74.96 62.91 74.95 63.62 74.93 64.33 74.99 65.03 74.99 65.74 74.97 66.45 75.01 67.15 74.97 67.86 74.96 68.57 74.98 69.28 74.91 69.99 74.93 70.69 74.99 71.4 74.9 72.11 74.91 72.82 74.92 73.53 74.98 74.25 74.91 74.96 74.93 75.67 74.97 76.38 74.91 77.09 74.92 77.81 74.9 78.53 74.96 79.24 74.96 79.22 75.66 79.27 76.37 79.26 77.09 79.2 77.8 79.22 78.51 79.19 79.23 79.26 79.96"/>
      <polygon class="cls-1" points="79.24 114.98 78.52 115.04 77.8 115.01 77.07 115.05 76.35 114.97 75.62 114.95 74.9 114.89 74.18 115.01 73.45 115.05 72.73 114.99 72.01 115.09 71.29 115.08 70.57 114.92 69.84 115.02 69.12 114.98 68.4 114.93 67.67 115.07 66.94 115.02 66.22 115 65.49 115.04 64.76 115.09 64.04 114.91 63.31 115.01 62.58 115.07 61.86 114.96 61.13 115.02 60.39 114.89 59.6 115.05 59.65 114.26 59.57 113.54 59.62 112.82 59.61 112.09 59.66 111.37 59.69 110.64 59.7 109.91 59.67 109.18 59.72 108.46 59.72 107.73 59.66 107.01 59.57 106.28 59.6 105.55 59.58 104.82 59.69 104.1 59.58 103.37 59.57 102.64 59.67 101.92 59.73 101.2 59.68 100.48 59.65 99.75 59.71 99.02 59.68 98.29 59.6 97.57 59.65 96.84 59.61 96.11 59.59 95.38 59.73 94.65 59.74 93.92 59.7 93.19 59.59 92.46 59.72 91.73 59.69 91 59.72 90.27 59.56 89.53 59.62 88.75 60.39 88.81 61.11 88.8 61.83 88.75 62.56 88.86 63.28 88.86 64.01 88.83 64.74 88.89 65.47 88.83 66.2 88.8 66.93 88.85 67.66 88.73 68.38 88.76 69.12 88.85 69.85 88.7 70.58 88.74 71.31 88.74 72.04 88.85 72.77 88.72 73.51 88.76 74.26 88.82 74.18 88.06 74.2 87.32 74.19 86.64 73.54 86.56 72.83 86.57 72.13 86.56 71.43 86.63 70.72 86.62 70.01 86.52 69.31 86.56 68.6 86.5 67.89 86.59 67.19 86.59 66.48 86.53 65.77 86.56 65.06 86.66 64.35 86.51 63.64 86.53 62.93 86.65 62.22 86.65 61.51 86.65 60.8 86.66 60.08 86.62 59.39 86.57 59.29 85.88 59.45 85.16 59.27 84.45 59.33 83.74 59.31 83.02 59.37 82.31 59.35 81.57 60.08 81.69 60.78 81.6 61.49 81.54 62.2 81.51 62.91 81.57 63.62 81.62 64.33 81.56 65.03 81.67 65.74 81.55 66.45 81.62 67.15 81.68 67.86 81.5 68.57 81.56 69.28 81.63 69.99 81.55 70.69 81.66 71.4 81.51 72.11 81.61 72.82 81.52 73.53 81.5 74.25 81.62 74.96 81.68 75.67 81.63 76.38 81.6 77.09 81.58 77.81 81.54 78.53 81.62 79.2 81.63 79.22 82.3 79.21 83.02 79.19 83.73 79.3 84.45 79.29 85.16 79.26 85.88 79.15 86.6 79.32 87.32 79.25 88.03 79.16 88.75 79.2 89.47 79.29 90.19 79.32 90.91 79.32 91.63 79.25 92.35 79.25 93.07 79.28 93.83 78.52 93.76 77.79 93.89 77.07 93.77 76.35 93.85 75.62 93.72 74.89 93.85 74.16 93.8 73.44 93.79 72.71 93.77 71.98 93.7 71.25 93.74 70.52 93.88 69.79 93.71 69.06 93.85 68.33 93.86 67.6 93.84 66.87 93.71 66.13 93.76 65.4 93.74 64.69 93.82 64.6 94.53 64.66 95.26 64.75 96 64.7 96.73 64.58 97.46 64.6 98.19 64.75 98.92 64.59 99.66 64.66 100.39 64.71 101.13 64.7 101.86 64.61 102.6 64.66 103.34 64.62 104.07 64.72 104.81 64.64 105.55 64.75 106.29 64.56 107.02 64.64 107.76 64.7 108.5 64.63 109.24 64.68 109.97 65.39 110 66.11 109.98 66.83 109.9 67.56 109.9 68.28 110.06 69.01 109.98 69.74 110.02 70.47 109.93 71.2 110.01 71.93 110 72.66 109.92 73.38 110.01 74.12 109.92 74.85 110 75.58 109.92 76.31 109.98 77.04 110.01 77.77 109.95 78.51 109.99 79.3 109.93 79.16 110.7 79.18 111.41 79.29 112.12 79.29 112.84 79.25 113.55 79.32 114.27 79.24 114.98"/>
      <polygon class="cls-1" points="72.02 115.03 71.26 114.99 70.55 114.95 69.84 114.98 69.13 114.94 68.41 115.04 67.69 115.06 67 114.96 67.04 114.26 67 113.54 66.99 112.82 66.93 112.09 66.96 111.37 66.93 110.64 66.99 109.91 67.01 109.18 67.05 108.46 66.96 107.73 66.93 107.01 66.98 106.28 66.9 105.55 66.91 104.82 67.03 104.1 66.95 103.37 66.98 102.64 67.02 101.92 66.92 101.2 66.95 100.48 66.96 99.75 66.93 99.02 66.9 98.29 67.04 97.57 66.96 96.84 66.91 96.11 66.99 95.38 66.95 94.65 67.05 93.92 66.91 93.19 66.97 92.46 66.91 91.73 66.95 91 66.94 90.27 66.98 89.53 66.99 88.81 67.69 88.83 68.4 88.8 69.11 88.84 69.83 88.84 70.54 88.8 71.26 88.73 72.01 88.76 72.04 89.52 71.95 90.24 72.04 90.97 72.05 91.69 71.97 92.42 71.92 93.14 71.96 93.87 71.99 94.6 71.94 95.32 71.96 96.05 72.03 96.78 71.98 97.5 72.02 98.23 72.03 98.96 71.92 99.69 71.92 100.41 71.95 101.14 72.03 101.86 71.93 102.58 71.96 103.31 71.93 104.03 72.06 104.76 72.02 105.49 71.97 106.22 71.97 106.94 72.01 107.67 71.92 108.4 71.93 109.13 71.95 109.86 71.9 110.59 71.95 111.32 71.97 112.05 71.93 112.78 72.03 113.52 72 114.25 72.02 115.03"/>
      <polygon class="cls-1" points="79.22 108.08 78.5 108.1 77.76 108.09 77.02 108.13 76.29 108.08 75.55 108.12 74.81 108.08 74.07 108.1 73.33 108.13 72.58 108.1 71.84 108.08 71.1 108.09 70.36 108.07 69.62 108.12 68.87 108.13 68.12 108.08 67.4 108.07 67.39 107.38 67.38 106.67 67.36 105.96 67.37 105.24 67.36 104.53 67.38 103.81 67.39 103.1 68.06 103.13 68.75 103.08 69.43 103.07 70.12 103.09 70.8 103.06 71.49 103.06 72.17 103.12 72.86 103.08 73.55 103.1 74.26 103.11 74.21 102.35 74.23 101.6 74.24 100.85 74.22 100.1 74.21 99.36 74.27 98.61 74.23 97.86 74.21 97.11 74.25 96.36 74.23 95.59 74.96 95.64 75.67 95.57 76.38 95.6 77.09 95.57 77.81 95.59 78.53 95.59 79.24 95.6 79.23 96.33 79.23 97.06 79.24 97.8 79.22 98.53 79.22 99.26 79.24 99.99 79.28 100.73 79.26 101.46 79.27 102.2 79.23 102.93 79.27 103.67 79.28 104.4 79.24 105.14 79.22 105.87 79.24 106.61 79.25 107.35 79.22 108.08"/>
      <polygon class="cls-1" points="114.75 79.97 114.02 79.93 113.31 80 112.59 80 111.88 79.91 111.16 79.87 110.45 79.99 109.73 79.96 109.01 80.03 108.29 80.01 107.58 79.93 106.86 79.85 106.15 79.88 105.43 79.97 104.72 79.94 104 80.04 103.28 79.93 102.57 80.02 101.85 79.9 101.13 79.97 100.41 80.03 99.7 79.96 98.98 79.91 98.26 79.94 97.54 79.89 96.82 80.02 96.11 80.04 95.39 79.9 94.67 79.86 93.96 79.92 93.24 79.94 92.53 80.01 91.81 79.98 91.09 80.01 90.37 79.94 89.66 79.91 88.94 79.85 88.22 79.98 87.5 80.01 86.78 79.95 86.05 80.05 85.33 80.04 84.61 79.88 83.89 79.98 83.17 79.95 82.45 79.89 81.72 80.03 80.97 79.97 80.98 79.24 80.94 78.53 80.89 77.82 81.07 77.1 80.97 76.39 80.91 75.67 81.01 74.97 81.71 74.92 82.42 75.05 83.13 74.86 83.85 74.94 84.56 74.86 85.28 74.91 86 74.9 86.71 74.95 87.43 74.98 88.15 74.99 88.86 74.96 89.58 75.01 90.29 75.01 91.01 74.95 91.72 74.86 92.44 74.89 93.16 74.86 93.88 74.98 94.59 74.87 95.31 74.85 96.03 74.95 96.74 75.02 97.46 74.97 98.18 74.94 98.9 75 99.62 74.97 100.34 74.88 101.05 74.94 101.77 74.9 102.48 74.88 103.2 75.02 103.91 75.03 104.63 74.98 105.35 74.88 106.07 75.01 106.79 74.98 107.51 75.01 108.23 74.85 108.95 74.89 109.67 74.97 110.39 74.95 111.11 74.91 111.83 75.02 112.55 75.01 113.28 74.98 114 75.05 114.7 74.98 114.72 75.66 114.68 76.37 114.8 77.09 114.76 77.8 114.67 78.51 114.82 79.23 114.75 79.97"/>
      <polygon class="cls-1" points="114.69 86.58 113.99 86.6 113.28 86.5 112.57 86.64 111.85 86.65 111.14 86.51 110.42 86.61 109.7 86.59 108.98 86.68 108.27 86.55 107.55 86.5 106.84 86.64 106.12 86.61 105.41 86.57 104.69 86.64 103.97 86.64 103.26 86.55 102.54 86.51 101.82 86.63 101.1 86.6 100.39 86.67 99.67 86.65 98.95 86.56 98.23 86.49 97.52 86.52 96.8 86.6 96.08 86.58 95.36 86.68 94.64 86.56 93.93 86.66 93.22 86.54 92.5 86.61 91.78 86.67 91.06 86.6 90.35 86.55 89.63 86.58 88.91 86.53 88.19 86.66 87.47 86.68 86.75 86.54 86.03 86.5 85.31 86.55 84.58 86.58 83.87 86.65 83.14 86.62 82.42 86.65 81.69 86.57 80.99 86.56 81.06 85.88 80.94 85.16 80.9 84.45 80.97 83.74 80.87 83.02 80.88 82.31 81.01 81.64 81.68 81.56 82.39 81.59 83.11 81.65 83.82 81.51 84.53 81.56 85.25 81.57 85.97 81.53 86.69 81.49 87.4 81.66 88.12 81.57 88.83 81.5 89.55 81.61 90.27 81.55 90.98 81.68 91.7 81.5 92.41 81.58 93.13 81.5 93.85 81.55 94.57 81.54 95.28 81.59 96 81.62 96.72 81.63 97.44 81.59 98.15 81.65 98.87 81.65 99.59 81.59 100.31 81.5 101.03 81.53 101.74 81.5 102.45 81.62 103.17 81.5 103.89 81.49 104.61 81.59 105.32 81.66 106.04 81.61 106.76 81.58 107.48 81.63 108.2 81.6 108.92 81.52 109.64 81.58 110.36 81.54 111.09 81.52 111.8 81.66 112.53 81.66 113.25 81.62 113.98 81.52 114.66 81.63 114.68 82.3 114.65 83.01 114.81 83.72 114.77 84.44 114.69 85.15 114.7 85.87 114.69 86.58"/>
      <polygon class="cls-1" points="100.22 115.01 99.48 115.07 98.77 115.07 98.06 115.02 97.34 114.97 96.63 115.02 95.91 115.02 95.25 114.94 95.21 114.27 95.11 113.54 95.28 112.82 95.19 112.1 95.21 111.37 95.18 110.65 95.28 109.92 95.15 109.2 95.13 108.47 95.27 107.75 95.17 107.03 95.19 106.3 95.11 105.58 95.23 104.86 95.28 104.13 95.14 103.41 95.17 102.68 95.21 101.95 95.14 101.23 95.14 100.5 95.23 99.78 95.27 99.05 95.15 98.33 95.18 97.6 95.11 96.87 95.13 96.15 95.22 95.42 95.29 94.7 95.26 93.98 95.18 93.25 95.2 92.53 95.11 91.8 95.22 91.07 95.12 90.35 95.24 89.62 95.17 88.89 95.11 88.16 95.19 87.44 95.24 86.71 95.2 85.98 95.25 85.25 95.12 84.52 95.1 83.79 95.24 83.06 95.28 82.32 95.22 81.61 95.91 81.6 96.62 81.53 97.33 81.56 98.04 81.53 98.76 81.6 99.48 81.63 100.13 81.66 100.22 82.31 100.26 83.03 100.19 83.75 100.29 84.48 100.28 85.2 100.12 85.93 100.22 86.65 100.19 87.38 100.14 88.1 100.27 88.83 100.22 89.55 100.21 90.27 100.25 91 100.29 91.72 100.12 92.44 100.22 93.17 100.28 93.9 100.17 94.62 100.23 95.35 100.1 96.07 100.28 96.8 100.2 97.52 100.28 98.25 100.23 98.98 100.24 99.7 100.19 100.43 100.16 101.16 100.15 101.88 100.19 102.6 100.14 103.32 100.13 104.05 100.19 104.78 100.28 105.5 100.25 106.23 100.28 106.95 100.16 107.68 100.28 108.41 100.29 109.14 100.19 109.87 100.12 110.6 100.17 111.33 100.21 112.06 100.15 112.79 100.18 113.52 100.26 114.25 100.22 115.01"/>
      <polygon class="cls-1" points="114.75 100.83 113.99 100.83 113.28 100.82 112.57 100.77 111.85 100.71 111.14 100.83 110.42 100.81 109.7 100.73 108.98 100.69 108.27 100.8 107.55 100.88 106.84 100.75 106.12 100.76 105.41 100.73 104.69 100.8 103.97 100.85 103.26 100.83 102.54 100.72 101.82 100.88 101.1 100.86 100.39 100.85 99.67 100.83 98.95 100.83 98.23 100.87 97.52 100.87 96.8 100.82 96.08 100.77 95.36 100.82 94.64 100.83 93.93 100.71 93.22 100.77 92.5 100.87 91.78 100.7 91.06 100.79 90.35 100.77 89.63 100.8 88.91 100.7 88.19 100.84 87.47 100.85 86.75 100.71 86.03 100.81 85.31 100.79 84.58 100.88 83.87 100.75 83.14 100.7 82.42 100.84 81.69 100.81 80.98 100.77 80.92 100.09 80.91 99.38 81 98.68 81.05 97.98 80.92 97.27 80.96 96.57 80.88 95.87 80.9 95.16 80.99 94.46 81.06 93.75 81.03 93.04 80.95 92.34 80.97 91.63 80.88 90.93 80.99 90.22 80.9 89.51 81 88.83 81.68 88.78 82.41 88.71 83.13 88.79 83.85 88.84 84.57 88.81 85.3 88.85 86.02 88.72 86.74 88.7 87.47 88.84 88.19 88.88 88.92 88.83 89.64 88.81 90.37 88.74 91.09 88.77 91.82 88.74 92.55 88.81 93.26 88.82 93.19 89.51 93.31 90.22 93.35 90.93 93.28 91.64 93.38 92.36 93.37 93.08 93.23 93.75 92.55 93.82 91.82 93.79 91.09 93.74 90.36 93.87 89.63 93.82 88.9 93.81 88.17 93.85 87.44 93.89 86.7 93.72 85.98 93.81 86.05 94.46 85.94 95.12 85.99 95.76 86.68 95.88 87.4 95.7 88.12 95.78 88.84 95.7 89.55 95.75 90.27 95.74 90.99 95.79 91.71 95.82 92.42 95.83 93.14 95.79 93.86 95.85 94.58 95.85 95.3 95.79 96.02 95.7 96.73 95.73 97.45 95.7 98.16 95.82 98.88 95.7 99.6 95.69 100.32 95.79 101.04 95.86 101.76 95.81 102.48 95.78 103.2 95.83 103.92 95.8 104.64 95.72 105.36 95.78 106.08 95.73 106.8 95.72 107.53 95.86 108.25 95.86 108.98 95.82 109.66 95.74 109.76 95.12 109.73 94.46 109.74 93.75 108.97 93.9 108.23 93.86 107.5 93.78 106.76 93.79 106.02 93.84 105.29 93.73 104.55 93.73 103.81 93.76 103.07 93.69 102.35 93.77 102.33 93.08 102.38 92.37 102.26 91.66 102.29 90.95 102.39 90.23 102.23 89.51 102.28 88.75 103.05 88.74 103.77 88.85 104.5 88.72 105.23 88.75 105.95 88.83 106.68 88.73 107.41 88.75 108.13 88.72 108.86 88.82 109.59 88.81 110.32 88.83 111.05 88.75 111.77 88.76 112.51 88.86 113.24 88.83 113.97 88.88 114.71 88.79 114.71 89.49 114.65 90.2 114.67 90.9 114.78 91.61 114.63 92.31 114.65 93.01 114.76 93.72 114.77 94.42 114.77 95.13 114.78 95.83 114.73 96.54 114.68 97.25 114.78 97.95 114.62 98.66 114.81 99.37 114.74 100.08 114.75 100.83"/>
      <polygon class="cls-1" points="93.25 114.96 92.57 114.99 91.84 114.99 91.12 114.97 90.4 115.02 89.68 115 88.96 114.96 88.24 114.98 87.52 114.98 86.79 114.94 86.07 114.96 85.35 115.01 84.62 114.96 83.9 115.02 83.18 115.01 82.45 115.01 81.72 114.97 81.02 114.96 80.97 114.27 80.98 113.54 81.02 112.82 81.05 112.09 80.99 111.37 80.94 110.65 81.01 109.92 81.01 109.19 81.02 108.47 80.99 107.74 80.96 107.01 80.97 106.29 81.03 105.56 80.94 104.83 80.95 104.1 80.96 103.37 80.98 102.62 81.71 102.62 82.42 102.59 83.13 102.59 83.84 102.62 84.56 102.65 85.28 102.62 86.01 102.62 85.95 103.37 85.98 104.1 86.04 104.84 85.94 105.57 85.99 106.31 85.98 107.04 86 107.77 85.94 108.51 86.02 109.25 86.02 109.96 86.75 110.03 87.52 109.98 88.28 109.99 88.23 109.28 88.3 108.58 88.33 107.87 88.26 107.17 88.27 106.46 88.3 105.75 88.25 105.04 88.25 104.33 88.3 103.62 88.33 102.91 88.26 102.2 88.28 101.49 88.24 100.78 88.25 100.07 88.3 99.36 88.34 98.65 88.32 97.93 88.27 97.22 88.29 96.5 88.25 95.75 89 95.8 89.71 95.75 90.42 95.82 91.13 95.78 91.85 95.74 92.57 95.78 93.27 95.81 93.28 96.5 93.25 97.21 93.32 97.91 93.34 98.62 93.26 99.34 93.23 100.05 93.26 100.76 93.28 101.47 93.32 102.17 93.3 102.88 93.32 103.58 93.27 104.29 93.26 105 93.23 105.71 93.3 106.42 93.32 107.13 93.28 107.85 93.34 108.56 93.33 109.27 93.24 109.98 93.3 110.7 93.28 111.41 93.25 112.12 93.33 112.84 93.3 113.55 93.29 114.27 93.25 114.96"/>
      <polygon class="cls-1" points="114.61 115.01 113.85 115.04 113.12 114.99 112.38 115.02 111.64 115.02 110.9 115 110.17 114.98 109.43 114.96 108.69 114.95 107.95 115.04 107.21 114.99 106.47 115 105.73 114.99 104.99 114.94 104.25 114.99 103.5 115 102.76 114.97 101.99 115.01 102 114.28 102.04 113.57 102.02 112.86 102.02 112.15 102.06 111.44 102.04 110.73 101.99 110.02 102.04 109.31 101.98 108.61 101.99 107.9 102 107.19 102.03 106.48 102.06 105.77 101.99 105.06 102 104.35 102.05 103.64 102.07 102.93 102.01 102.22 101.96 101.51 102.04 100.79 102.03 100.08 102.05 99.37 102.01 98.66 101.98 97.94 101.99 97.22 102.05 96.51 101.98 95.75 102.73 95.75 103.44 95.75 104.15 95.77 104.86 95.77 105.58 95.74 106.3 95.74 107.03 95.77 107.01 96.5 107.03 97.2 107.04 97.9 106.97 98.61 107.01 99.32 107.06 100.03 106.96 100.74 107.01 101.44 107 102.15 107.02 102.86 106.96 103.57 107.04 104.28 107.05 105 106.97 105.71 107.03 106.42 107.02 107.13 107.06 107.84 106.99 108.56 106.96 109.27 107.03 109.97 107.66 109.98 108.3 110 108.94 109.96 109.56 109.97 109.61 109.26 109.63 108.52 109.56 107.79 109.58 107.05 109.54 106.32 109.55 105.59 109.6 104.85 109.64 104.12 109.63 103.38 109.58 102.63 110.3 102.64 111.01 102.59 111.72 102.65 112.44 102.6 113.15 102.67 113.87 102.63 114.62 102.61 114.59 103.36 114.56 104.08 114.58 104.81 114.56 105.53 114.63 106.26 114.64 106.98 114.56 107.71 114.54 108.43 114.57 109.16 114.58 109.89 114.62 110.61 114.6 111.34 114.62 112.07 114.58 112.79 114.57 113.52 114.53 114.26 114.61 115.01"/>
      <polygon class="cls-1" points="26.79 12 26.06 11.95 25.36 11.98 24.65 11.99 23.94 11.93 23.23 11.94 22.52 11.92 21.81 11.98 21.11 12.01 20.4 12.04 19.69 11.98 18.99 12.01 18.28 12.02 17.57 11.99 16.86 11.97 16.15 11.95 15.45 11.94 14.74 12.03 14.03 11.99 13.32 11.99 12.6 11.98 11.89 11.93 11.18 11.99 10.47 11.99 9.76 11.96 9.05 12.02 8.33 12 7.61 11.95 6.9 11.98 6.9 11.27 6.94 10.56 6.93 9.84 6.87 9.13 6.93 8.41 6.86 7.7 6.88 6.96 7.6 6.96 8.31 6.99 9.02 7.02 9.73 6.96 10.44 6.97 11.15 7.01 11.86 7.04 12.56 6.97 13.27 6.92 13.98 7 14.68 7 15.39 7.01 16.09 6.97 16.81 6.94 17.51 6.95 18.22 7.02 18.93 6.92 19.64 6.94 20.35 6.94 21.06 6.96 21.78 6.96 22.49 6.93 23.2 6.93 23.91 6.96 24.62 6.99 25.34 6.96 26.06 6.96 26.74 7.01 26.76 7.69 26.82 8.4 26.72 9.11 26.77 9.83 26.76 10.54 26.78 11.26 26.79 12"/>
      <polygon class="cls-1" points="58.05 46.2 57.35 46.14 56.64 46.28 55.92 46.35 55.2 46.08 54.49 46.12 53.78 46.33 53.07 46.21 52.36 46.15 51.65 46.35 50.93 46.2 50.22 46.06 49.51 46.07 48.79 46.35 48.07 46.17 47.36 46.26 46.64 46.36 45.93 46.23 45.21 46.32 44.5 46.11 43.79 46.28 43.07 46.15 42.36 46.36 41.65 46.25 40.93 46.33 40.22 46.14 39.51 46.22 38.79 46.12 38.08 46.33 37.36 46.15 36.65 46.25 35.93 46.22 35.21 46.16 34.5 46.29 33.78 46.14 33.06 46.23 32.35 46.24 31.63 46.1 30.92 46.12 30.2 46.08 29.49 46.21 28.77 46.3 28.05 46.37 27.33 46.23 26.61 46.29 25.9 46.31 25.18 46.25 24.46 46.2 23.74 46.15 23.02 46.11 22.31 46.35 21.59 46.23 20.87 46.24 20.16 46.21 19.44 46.1 18.73 46.23 18.01 46.24 17.29 46.17 16.57 46.31 15.85 46.26 15.14 46.14 14.41 46.2 13.69 46.2 12.97 46.1 12.25 46.14 11.53 46.29 10.81 46.14 10.09 46.31 9.37 46.28 8.64 46.27 7.92 46.18 7.27 46.14 7.13 45.51 7.16 44.8 7.28 44.1 7.33 43.39 7.17 42.68 7.05 41.97 7.25 41.26 7.23 40.55 7.27 39.84 7.18 39.13 7.09 38.42 7.13 37.71 7.3 37 7.05 36.29 7.09 35.58 7.1 34.87 7.13 34.16 7.13 33.45 7.07 32.75 7.07 32.04 7.14 31.33 7.21 30.61 7.14 29.9 7.13 29.19 7.3 28.48 7.21 27.77 7.06 27.06 7.32 26.35 7.19 25.63 7.22 24.92 7.17 24.21 7.32 23.49 7.12 22.78 7.09 22.06 7.31 21.34 7.17 20.6 7.92 20.62 8.64 20.49 9.36 20.68 10.09 20.76 10.81 20.55 11.54 20.59 12.27 20.66 13 20.55 13.72 20.54 14.46 20.68 15.18 20.75 15.91 20.56 16.65 20.61 17.38 20.5 18.11 20.53 18.83 20.66 19.57 20.77 20.3 20.73 21.04 20.6 21.78 20.63 21.64 19.96 21.81 19.29 21.7 18.69 21.07 18.54 20.36 18.65 19.66 18.75 18.96 18.63 18.25 18.55 17.54 18.6 16.84 18.53 16.13 18.72 15.42 18.76 14.72 18.55 14.01 18.49 13.3 18.57 12.59 18.6 11.88 18.71 11.17 18.66 10.46 18.71 9.75 18.6 9.04 18.56 8.33 18.47 7.61 18.66 6.83 18.69 6.9 17.91 6.75 17.19 6.76 16.48 7 15.77 6.85 15.05 6.9 14.34 6.96 13.68 7.6 13.5 8.31 13.57 9.02 13.59 9.73 13.53 10.44 13.47 11.15 13.73 11.86 13.58 12.56 13.49 13.27 13.65 13.98 13.57 14.68 13.76 15.39 13.48 16.09 13.61 16.81 13.48 17.51 13.56 18.22 13.54 18.93 13.62 19.64 13.66 20.35 13.68 21.06 13.63 21.78 13.71 22.49 13.72 23.2 13.62 23.91 13.49 24.62 13.53 25.34 13.49 26.06 13.66 26.86 13.53 26.92 14.32 26.76 15.02 26.66 15.73 26.74 16.43 26.79 17.14 26.7 17.84 26.75 18.55 26.87 19.25 26.78 19.96 26.85 20.67 26.88 21.37 26.67 22.08 26.66 22.78 26.72 23.49 26.88 24.2 26.68 24.91 26.74 25.6 26.04 25.54 25.32 25.78 24.6 25.72 23.88 25.6 23.15 25.62 22.42 25.69 21.69 25.52 20.96 25.53 20.24 25.57 19.51 25.47 18.78 25.56 18.05 25.61 17.32 25.54 16.59 25.73 15.86 25.67 15.13 25.53 14.39 25.77 13.66 25.72 12.93 25.71 12.13 25.57 12.3 26.33 12.25 27.04 12.14 27.75 12.29 28.45 12.26 29.15 12.31 29.86 12.15 30.56 12.16 31.27 12.14 31.98 12.26 32.69 12.24 33.39 12.09 34.1 12.14 34.81 12.06 35.52 12.19 36.23 12.2 36.94 12.11 37.65 12.14 38.36 12.3 39.07 12.07 39.79 12.1 40.5 12.25 41.16 12.9 41.12 13.61 41.12 14.33 41.11 15.04 41.17 15.75 41.26 16.47 41.1 17.19 41.35 17.9 41.06 18.62 41.16 19.33 41.12 20.05 41.22 20.76 41.18 21.47 41.37 22.19 41.24 22.9 41.15 23.61 41.1 24.32 41.19 25.04 41.27 25.75 41.17 26.46 41.35 27.18 41.16 27.89 41.26 28.61 41.36 29.33 41.08 30.05 41.18 30.76 41.29 31.48 41.16 32.2 41.33 32.91 41.1 33.63 41.25 34.34 41.11 35.06 41.08 35.77 41.27 36.49 41.36 37.21 41.28 37.93 41.24 38.65 41.21 39.36 41.15 40.08 41.27 40.8 41.3 41.52 41.26 42.23 41.26 42.95 41.29 43.67 41.13 44.39 41.15 45.1 41.19 45.82 41.35 46.53 41.09 47.25 41.21 47.97 41.34 48.69 41.29 49.4 41.15 50.12 41.1 50.84 41.1 51.56 41.2 52.28 41.2 53.01 41.14 53.73 41.27 54.45 41.07 55.17 41.25 55.89 41.13 56.62 41.34 57.34 41.14 58.07 41.22 58.07 41.93 58.03 42.64 57.93 43.35 57.98 44.07 58.19 44.78 57.94 45.5 58.05 46.2"/>
      <polygon class="cls-1" points="19.68 46.19 18.99 46.25 18.28 46.19 17.57 46.17 16.86 46.16 16.14 46.26 15.42 46.17 14.66 46.26 14.68 45.51 14.67 44.8 14.72 44.1 14.75 43.39 14.68 42.68 14.64 41.97 14.77 41.26 14.76 40.55 14.65 39.84 14.71 39.13 14.74 38.42 14.64 37.71 14.71 37 14.78 36.29 14.78 35.58 14.64 34.87 14.73 34.16 14.68 33.45 14.64 32.75 14.7 32.04 14.65 31.33 14.76 30.61 14.68 29.9 14.74 29.19 14.64 28.48 14.69 27.77 14.65 27.06 14.75 26.35 14.71 25.63 14.76 24.92 14.65 24.21 14.74 23.49 14.69 22.78 14.7 22.06 14.74 21.34 14.68 20.6 15.42 20.66 16.13 20.62 16.84 20.61 17.56 20.68 18.27 20.67 18.99 20.7 19.7 20.63 19.75 21.33 19.78 22.04 19.71 22.75 19.74 23.46 19.75 24.16 19.72 24.87 19.7 25.59 19.67 26.3 19.65 27.01 19.77 27.71 19.71 28.42 19.72 29.13 19.7 29.84 19.65 30.56 19.71 31.27 19.72 31.98 19.68 32.69 19.75 33.39 19.73 34.1 19.67 34.8 19.7 35.52 19.7 36.23 19.65 36.94 19.67 37.65 19.74 38.36 19.67 39.07 19.75 39.78 19.74 40.5 19.73 41.21 19.69 41.92 19.65 42.64 19.74 43.35 19.72 44.06 19.66 44.78 19.63 45.5 19.68 46.19"/>
      <polygon class="cls-1" points="26.77 39.32 26.03 39.32 25.29 39.31 24.55 39.31 23.82 39.35 23.08 39.36 22.34 39.34 21.6 39.34 20.85 39.3 20.11 39.34 19.37 39.31 18.63 39.3 17.89 39.3 17.15 39.34 16.4 39.3 15.65 39.35 14.9 39.33 14.89 38.61 14.91 37.9 14.93 37.19 14.89 36.47 14.88 35.76 14.94 35.04 14.92 34.34 15.59 34.3 16.28 34.32 16.96 34.34 17.65 34.29 18.33 34.33 19.02 34.36 19.7 34.36 20.39 34.29 21.08 34.34 21.76 34.32 21.74 33.58 21.77 32.84 21.75 32.1 21.8 31.36 21.76 30.62 21.79 29.87 21.74 29.13 21.77 28.38 21.75 27.62 22.48 27.65 23.2 27.63 23.91 27.66 24.62 27.61 25.34 27.65 26.05 27.63 26.77 27.63 26.76 28.36 26.79 29.09 26.75 29.82 26.77 30.55 26.78 31.27 26.75 32 26.75 32.73 26.74 33.46 26.77 34.2 26.79 34.93 26.81 35.66 26.77 36.39 26.79 37.12 26.79 37.85 26.78 38.59 26.77 39.32"/>
      <polygon class="cls-1" points="58.08 18.62 57.35 18.53 56.62 18.55 55.9 18.58 55.18 18.58 54.46 18.53 53.74 18.69 53.02 18.52 52.3 18.66 51.58 18.66 50.85 18.59 50.13 18.59 49.41 18.58 48.68 18.57 47.96 18.68 47.24 18.69 46.52 18.64 45.79 18.64 45.07 18.56 44.34 18.65 43.62 18.57 42.9 18.55 42.17 18.54 41.46 18.65 40.74 18.55 40.02 18.68 39.29 18.64 38.57 18.64 37.84 18.59 37.12 18.56 36.4 18.64 35.67 18.68 34.94 18.53 34.22 18.55 33.49 18.67 32.76 18.6 32.04 18.57 31.31 18.68 30.59 18.6 29.86 18.52 29.12 18.52 28.34 18.66 28.42 17.89 28.37 17.18 28.31 16.47 28.38 15.76 28.33 15.04 28.46 14.32 28.37 13.58 29.12 13.64 29.84 13.52 30.56 13.59 31.28 13.54 32 13.65 32.72 13.61 33.44 13.66 34.16 13.54 34.89 13.64 35.61 13.59 36.33 13.6 37.06 13.64 37.78 13.56 38.5 13.65 39.22 13.6 39.95 13.59 40.67 13.67 41.39 13.66 42.12 13.69 42.84 13.61 43.56 13.56 44.29 13.52 45.01 13.6 45.72 13.56 46.45 13.55 47.17 13.59 47.89 13.61 48.62 13.64 49.34 13.67 50.06 13.53 50.79 13.6 51.52 13.59 52.24 13.61 52.97 13.68 53.7 13.6 54.42 13.59 55.15 13.63 55.88 13.55 56.61 13.58 57.34 13.65 58.06 13.61 58.06 14.32 58 15.03 58.02 15.74 58.11 16.46 58.02 17.17 58.12 17.89 58.08 18.62"/>
      <polygon class="cls-1" points="42.7 18.5 41.99 18.48 41.27 18.55 40.56 18.53 39.85 18.52 39.13 18.5 38.42 18.52 37.71 18.5 37.69 17.78 37.74 17.06 37.73 16.33 37.71 15.61 37.71 14.89 37.74 14.16 37.66 13.44 37.74 12.71 37.68 12 36.99 12.01 36.27 11.97 35.56 11.97 34.84 11.97 34.13 11.96 33.41 12.02 32.7 12.02 31.98 12 31.27 12 30.55 11.96 29.83 12 29.11 11.96 28.41 11.96 28.42 11.27 28.37 10.56 28.42 9.84 28.36 9.13 28.38 8.41 28.37 7.7 28.4 6.98 29.11 7 29.81 6.96 30.52 6.94 31.23 7.02 31.95 7.01 32.66 6.95 33.38 6.98 34.09 7 34.8 6.94 35.52 6.98 36.24 7.02 36.95 7.02 37.67 6.94 38.39 6.99 39.1 6.97 39.82 6.94 40.54 6.98 41.26 6.95 41.98 7.01 42.71 6.97 42.68 7.7 42.74 8.42 42.71 9.13 42.73 9.85 42.68 10.57 42.7 11.29 42.67 12.01 42.73 12.73 42.68 13.45 42.71 14.17 42.7 14.89 42.68 15.61 42.72 16.33 42.68 17.05 42.7 17.78 42.7 18.5"/>
      <polygon class="cls-1" points="49.1 18.61 48.39 18.66 47.68 18.62 46.97 18.65 46.26 18.63 45.54 18.61 44.82 18.6 44.12 18.61 44.11 17.89 44.13 17.17 44.07 16.44 44.09 15.72 44.09 14.99 44.11 14.27 44.09 13.54 44.12 12.81 44.1 12.09 44.14 11.36 44.13 10.63 44.12 9.91 44.12 9.18 44.14 8.45 44.07 7.71 44.14 7.01 44.83 6.95 45.56 6.95 46.29 6.99 47.03 6.99 47.76 6.99 48.49 7 49.23 6.94 49.96 6.94 50.7 6.96 51.43 6.96 52.17 7 52.9 6.96 53.64 7 54.37 7 55.11 7.01 55.85 6.96 56.59 7.01 57.33 6.95 58.08 6.97 58.09 7.69 58.06 8.4 58.05 9.11 58.09 9.83 58.1 10.54 58.03 11.26 58.05 11.96 57.33 12.01 56.58 11.98 55.83 11.96 55.09 12.02 54.34 11.98 53.6 11.94 52.85 11.94 52.11 12.02 51.36 11.97 50.61 11.99 49.86 12.02 49.11 11.98 49.14 12.71 49.08 13.45 49.12 14.19 49.09 14.92 49.15 15.66 49.11 16.4 49.14 17.14 49.09 17.88 49.1 18.61"/>
      <polygon class="cls-1" points="45.73 24.92 45.02 24.91 44.31 24.93 43.6 24.9 42.88 24.95 42.17 24.91 41.45 24.91 40.71 24.94 40.73 24.21 40.7 23.5 40.72 22.79 40.73 22.08 40.75 21.37 40.74 20.65 40.73 19.94 40.75 19.23 40.7 18.51 40.71 17.8 40.72 17.09 40.73 16.37 40.72 15.66 40.74 14.94 40.72 14.22 40.75 13.53 41.44 13.53 42.16 13.52 42.87 13.52 43.58 13.53 44.3 13.47 45.01 13.54 45.75 13.49 45.75 14.22 45.73 14.93 45.72 15.64 45.72 16.35 45.72 17.06 45.76 17.77 45.76 18.49 45.75 19.2 45.75 19.91 45.71 20.63 45.75 21.34 45.72 22.05 45.71 22.77 45.71 23.48 45.75 24.2 45.73 24.92"/>
      <path class="cls-1" d="M58.06,39.21l-.7-.04-.72.05-.72.07-.72-.12-.72-.03-.72.11h-.72s-.72.05-.72.05l-.72-.05-.72-.08-.72.11-.72-.13-.72.13-.72-.05-.72-.03-.72.05-.72-.06-.72.11-.72-.1h-.72s-.72.12-.72.12l-.72-.08-.72.06-.72-.05-.72-.03-.72-.03h-.72s-.72.04-.72.04l-.72-.05-.72.14-.73-.04h-.72s-.72-.05-.72-.05l-.73.03-.73-.05-.72.04-.72-.09-.73.02-.73.03h-.73s-.68-.03-.68-.03l-.14-.67.17-.72-.14-.73v-.73s.07-.73.07-.73v-.72s0-.73,0-.73l.02-.72-.11-.72v-.72s.04-.73.04-.73v-.73s.09-.73.09-.73l-.09-.72.08-.73v-.73s.03-.73.03-.73l-.11-.73.1-.73-.13-.73.04-.73v-.73s.05-.73.05-.73l.04-.73-.08-.73-.02-.79.78.13.72-.02.72-.12.72.07.72.04.72-.11.72.08.72.08h.72s.72-.17.72-.17l.72.11.72-.05.72-.06.72.07.72-.05.72.12.72-.1.72.07.72-.12.72.07.72-.05.72.11.72-.05.72.06.72-.12.72.1.72-.06.72.02.72.04.72-.07.73.09.72-.05h.72s.73.07.73.07h.73s.72.01.72.01l.72-.08.73-.05.73-.04.73.08.76-.03.02.76-.03.72-.03.73-.03.73-.02.73.14.72-.07.73v.72s-.01.72-.01.72l-.07.72.08.73v.73s-.04.73-.04.73l.08.72-.03.73-.07.73.04.73v.73s-.06.73-.06.73l.02.73.09.73-.09.73.1.73-.02.73v.73s-.06.71-.06.71ZM33.43,34.26l.75.04.72-.05.73-.07.73.12.73.03.73-.11h.73s.73-.05.73-.05l.72.05.72.08.72-.11.73.13.73-.13.73.05.72.03.73-.05.73.06.73-.11.73.1h.73s.73-.12.73-.12l.73.08.73-.06.73.05.73.03.73.03.76-.02-.02-.76.05-.74-.14-.74.04-.74v-.74s.05-.74.05-.74l-.03-.74.05-.74-.04-.74.09-.74-.02-.75-.04-.76h-.74s-.72-.06-.72-.06l-.73.16-.73-.17-.73.14h-.73s-.73-.07-.73-.07h-.73s-.72,0-.72,0l-.72-.02-.72.11h-.73s-.73-.04-.73-.04h-.73s-.72-.09-.72-.09l-.73.09-.73-.08h-.73s-.73-.03-.73-.03l-.73.11-.73-.1-.73.13-.73-.04h-.73s-.73-.05-.73-.05l-.73-.04-.71.07.05.71-.15.74.02.74.12.74-.07.74-.04.74.11.74-.08.74-.08.74v.74s.17.75.17.75l-.11.77Z"/>
      <polygon class="cls-1" points="51.57 38.77 50.88 38.76 50.16 38.76 49.45 38.8 48.74 38.8 48.02 38.8 47.31 38.77 46.59 38.78 46.55 38.1 46.58 37.41 46.56 36.71 46.61 36.02 46.63 35.33 46.6 34.64 46.56 33.94 46.62 33.25 46.64 32.55 46.58 31.86 45.86 31.87 45.12 31.89 44.39 31.86 43.65 31.82 42.92 31.88 42.18 31.81 41.45 31.88 40.71 31.85 39.96 31.84 39.98 32.58 39.95 33.31 40.01 34.03 39.95 34.76 39.95 35.49 40.02 36.22 39.97 36.95 40 37.71 39.26 37.69 38.54 37.68 37.83 37.66 37.12 37.66 36.4 37.68 35.69 37.65 34.93 37.72 34.94 36.96 34.95 36.24 34.97 35.52 34.95 34.8 34.98 34.08 34.96 33.36 35.01 32.64 35 31.92 34.98 31.2 34.99 30.47 35.01 29.75 34.92 29.03 35.02 28.3 34.94 27.58 34.95 26.83 35.69 26.86 36.41 26.86 37.13 26.86 37.85 26.87 38.57 26.81 39.29 26.8 40 26.83 40.73 26.83 41.45 26.88 42.17 26.83 42.89 26.87 43.61 26.88 44.34 26.88 45.06 26.82 45.78 26.88 46.51 26.81 47.23 26.83 47.95 26.83 48.68 26.86 49.4 26.88 50.13 26.83 50.86 26.81 51.56 26.88 51.56 27.55 51.63 28.25 51.59 28.95 51.57 29.65 51.63 30.35 51.58 31.05 51.54 31.75 51.54 32.45 51.63 33.15 51.57 33.86 51.6 34.56 51.63 35.26 51.59 35.96 51.62 36.67 51.55 37.37 51.61 38.08 51.57 38.77"/>
      <polygon class="cls-1" points="57.96 114.9 57.34 115.02 56.63 114.79 55.92 114.9 55.21 114.83 54.49 114.98 53.77 115.02 53.12 114.93 53.1 114.27 52.88 113.55 53.18 112.83 53.12 112.11 53.24 111.38 53.22 110.66 53.17 109.94 52.9 109.22 52.91 108.5 52.99 107.78 52.89 107.06 52.94 106.34 53.18 105.62 53.16 104.91 53.18 104.19 53.03 103.47 53.03 102.75 53.02 102.03 53.12 101.31 53.08 100.59 52.88 99.87 53.03 99.14 52.93 98.42 53.14 97.7 53.21 96.98 53.09 96.26 52.93 95.54 53.19 94.82 53.25 94.1 53.01 93.39 52.99 92.67 52.89 91.95 53.01 91.23 53.19 90.51 52.94 89.79 53.23 89.07 52.94 88.35 53.05 87.63 53.12 86.91 53.01 86.19 53.15 85.47 52.9 84.75 53.14 84.04 53.12 83.32 52.87 82.6 53.05 81.88 52.9 81.16 53.01 80.45 53.08 79.73 53.15 79.01 53.13 78.29 53.07 77.57 53.18 76.84 52.86 76.12 52.96 75.4 52.97 74.68 53.06 73.96 53 73.23 53.12 72.51 53.02 71.79 53.23 71.07 53.18 70.35 53.11 69.63 53.12 68.9 53.23 68.18 52.86 67.46 53.25 66.74 52.94 66.01 52.92 65.29 53.09 64.57 53.09 63.84 53.11 63.12 53.14 62.4 52.89 61.67 52.86 60.96 52.97 60.24 52.97 59.52 53.17 58.79 52.97 58.07 53.14 57.34 53.17 56.62 53.2 55.9 52.95 55.17 53.18 54.45 52.89 53.72 52.98 52.99 52.97 52.27 53.08 51.54 53.16 50.82 52.98 50.09 52.89 49.36 53.23 48.63 53.15 47.99 53.77 47.75 54.48 47.9 55.19 47.98 55.91 47.72 56.62 47.91 57.34 48.1 57.92 48.03 58.24 48.62 57.99 49.34 58.12 50.06 58.24 50.78 58.08 51.5 58.19 52.22 57.91 52.94 58.14 53.66 57.97 54.38 58.24 55.1 58.09 55.82 58.2 56.54 57.95 57.26 58.06 57.98 57.93 58.7 58.2 59.42 57.97 60.14 58.1 60.86 58.06 61.58 57.98 62.3 58.15 63.02 57.95 63.74 58.07 64.46 58.09 65.18 57.9 65.9 57.93 66.62 57.87 67.34 58.05 68.06 58.17 68.78 58.25 69.5 58.07 70.21 58.16 70.93 58.18 71.65 58.1 72.37 58.04 73.09 57.97 73.81 57.92 74.53 58.23 75.25 58.08 75.97 58.09 76.69 58.05 77.41 57.9 78.13 58.07 78.85 58.08 79.57 57.99 80.28 58.18 81 58.11 81.72 57.95 82.44 58.04 83.16 58.03 83.88 57.91 84.6 57.95 85.32 58.15 86.04 57.95 86.76 58.18 87.49 58.14 88.21 58.12 88.93 58.01 89.65 57.91 90.37 58.13 91.09 58.1 91.81 57.94 92.53 57.87 93.26 58.08 93.98 58.25 94.7 57.98 95.43 58 96.15 57.95 96.87 58.08 97.59 58.19 98.32 58.14 99.04 57.92 99.76 58.24 100.49 58.19 101.21 58.18 101.93 58.13 102.65 58.13 103.37 58.21 104.09 58.21 104.82 58.13 105.54 58.03 106.26 58.13 106.99 58.13 107.71 57.91 108.44 58.03 109.16 58.23 109.89 57.88 110.62 58.05 111.34 58.02 112.07 58.08 112.79 57.88 113.52 58.15 114.26 57.96 114.9"/>
      <polygon class="cls-1" points="51.17 114.91 50.53 114.89 49.81 114.87 49.1 114.92 48.38 115.12 47.66 114.94 46.94 115.07 46.22 114.98 45.5 115.06 44.78 115.02 44.07 114.99 43.35 115.06 42.63 115.02 41.92 115.05 41.2 114.96 40.49 115.1 39.77 114.95 39.05 115.07 38.33 114.99 37.62 114.94 36.9 115.09 36.17 114.97 35.45 115.01 34.73 115.09 34.01 115.12 33.29 115.02 32.58 114.9 31.86 114.88 31.14 114.94 30.42 115.07 29.7 114.93 28.98 114.93 28.26 114.95 27.53 114.9 26.81 115.01 26.09 114.86 25.37 114.93 24.65 114.88 23.93 114.98 23.21 115.01 22.49 114.93 21.76 114.96 21.04 115.11 20.33 114.9 19.61 114.94 18.89 114.86 18.17 114.88 17.44 114.91 16.72 115.09 16 115.09 15.28 115.03 14.56 115.1 13.83 115.07 13.11 114.91 12.38 114.92 11.66 114.91 10.93 115.01 10.21 115.01 9.48 115.01 8.76 114.95 8.03 114.97 7.22 115.07 7.28 114.27 7.21 113.55 7.35 112.83 7.4 112.11 7.32 111.39 7.21 110.67 7.39 109.95 7.42 109.23 7.26 108.51 7.25 107.79 7.19 107.07 7.27 106.35 7.38 105.63 7.22 104.91 7.41 104.18 7.22 103.46 7.29 102.74 7.34 102.01 7.26 101.29 7.36 100.57 7.2 99.85 7.35 99.13 7.34 98.41 7.18 97.68 7.29 96.96 7.19 96.23 7.27 95.51 7.31 94.79 7.36 94.06 7.35 93.34 7.3 92.62 7.38 91.89 7.17 91.16 7.23 90.44 7.24 89.72 7.3 88.99 7.26 88.27 7.34 87.55 7.27 86.83 7.41 86.11 7.38 85.38 7.34 84.66 7.34 83.93 7.41 83.21 7.17 82.48 7.43 81.75 7.22 81.03 7.21 80.3 7.32 79.57 7.32 78.84 7.33 78.12 7.35 77.39 7.19 76.66 7.17 75.93 7.26 75.15 8.01 75.14 8.72 75.26 9.43 75.13 10.15 75.25 10.86 75.27 11.58 75.28 12.35 75.14 12.22 75.91 12.41 76.63 12.35 77.35 12.35 78.07 12.28 78.79 12.23 79.52 12.35 80.24 12.41 80.97 12.18 81.69 12.21 82.41 12.39 83.14 12.29 83.86 12.24 84.58 12.41 85.3 12.29 86.03 12.17 86.75 12.17 87.47 12.42 88.2 12.26 88.92 12.34 89.65 12.42 90.37 12.31 91.1 12.39 91.82 12.2 92.55 12.35 93.27 12.24 94 12.42 94.72 12.32 95.45 12.39 96.17 12.23 96.89 12.3 97.61 12.21 98.34 12.39 99.06 12.24 99.79 12.33 100.51 12.3 101.24 12.25 101.96 12.36 102.69 12.23 103.42 12.31 104.15 12.32 104.88 12.2 105.6 12.21 106.33 12.18 107.06 12.29 107.79 12.37 108.52 12.43 109.25 12.3 109.98 13.01 109.92 13.73 109.91 14.45 109.96 15.17 110 15.89 110.04 16.61 110.08 17.33 109.87 18.05 109.97 18.78 109.97 19.5 109.99 20.22 110.09 20.94 109.98 21.66 109.97 22.38 110.03 23.1 109.9 23.82 109.95 24.54 110.06 25.26 110 25.99 110 26.71 110.09 27.43 110.06 28.15 109.93 28.87 110.06 29.59 109.91 30.32 109.94 31.04 109.95 31.76 110.02 32.49 110.08 33.2 109.94 33.92 109.96 34.64 110.06 35.36 110.11 36.09 109.97 36.81 109.86 37.53 110.04 38.25 110.03 38.98 110.06 39.71 109.98 40.43 109.9 41.16 109.93 41.88 110.08 42.61 109.86 43.33 109.9 44.06 109.91 44.79 109.94 45.52 109.94 46.18 109.91 46.15 109.26 46.2 108.54 46.27 107.81 46.2 107.09 46.2 106.36 46.35 105.64 46.27 104.91 46.14 104.18 46.36 103.46 46.25 102.73 46.27 102 46.23 101.27 46.36 100.55 46.19 99.82 46.17 99.09 46.35 98.36 46.22 97.64 46.24 96.91 46.14 96.18 46.29 95.45 46.36 94.73 46.19 94.01 46.22 93.28 46.28 92.55 46.19 91.82 46.18 91.1 46.3 90.37 46.36 89.64 46.19 88.91 46.24 88.18 46.14 87.45 46.17 86.72 46.28 85.99 46.38 85.26 46.34 84.53 46.23 83.79 46.26 83.06 46.13 82.32 46.27 81.61 46.96 81.5 47.67 81.65 48.38 81.56 49.1 81.48 49.81 81.58 50.53 81.64 51.24 81.6 51.18 82.31 51.34 83.03 51.37 83.75 51.19 84.48 51.14 85.2 51.2 85.93 51.24 86.65 51.32 87.38 51.29 88.1 51.33 88.83 51.23 89.55 51.2 90.27 51.12 91 51.28 91.72 51.33 92.44 51.25 93.17 51.38 93.9 51.37 94.62 51.16 95.35 51.29 96.07 51.25 96.8 51.17 97.52 51.35 98.25 51.29 98.98 51.27 99.7 51.32 100.43 51.38 101.16 51.15 101.88 51.28 102.6 51.36 103.32 51.22 104.05 51.3 104.78 51.12 105.5 51.37 106.23 51.26 106.95 51.37 107.68 51.3 108.41 51.31 109.14 51.25 109.87 51.21 110.6 51.2 111.33 51.24 112.06 51.17 112.79 51.17 113.52 51.25 114.25 51.17 114.91"/>
      <path class="cls-1" d="M12.27,73.38l-.69.09-.71-.05-.71.04-.71-.04-.72-.03h-.72s-.74.03-.74.03l-.05-.75.1-.73v-.73s-.1-.73-.1-.73l.09-.73-.05-.73.02-.73.08-.73v-.73s0-.73,0-.73l-.03-.73-.12-.73.11-.73-.08-.73.05-.73-.05-.73.03-.72.02-.72-.04-.73.02-.73-.02-.73.05-.73-.08-.73.09-.73-.07-.73.05-.73.03-.73-.09-.73.07-.73-.02-.73-.05-.73-.02-.73.06-.73.07-.74v-.69s.66-.02.66-.02l.71-.07.71.08h.71s.71-.01.71-.01l.71.03.71-.06.71.09.71-.04.71.03.71-.06.71-.02.71.05.71-.02.71-.08.71.12.71-.02.71.05h.71s.72-.03.72-.03l.71-.1h.71s.71.03.71.03l.72-.04.72.02.72.09h.72s.72,0,.72,0l.72-.06h.71s.72,0,.72,0l.72.04h.72s.77-.07.77-.07l-.04.77.04.73-.08.73-.03.73.04.73.06.73-.1.73-.02.72.09.72v.73s.04.73.04.73l-.04.73-.07.73.09.73-.11.73.11.73-.04.73-.03.73.04.73-.05.73.09.73-.09.73v.73s.1.73.1.73l-.07.74.04.78-.75-.03-.71-.02-.71-.03h-.71s-.71.03-.71.03l-.71-.04-.71.12-.71-.04h-.71s-.71-.04-.71-.04l-.71.02-.71-.05-.71.04-.71-.08-.71.02-.71.03h-.72s-.71-.04-.71-.04l-.71.14-.72-.15-.72.12h-.72s-.71-.06-.71-.06h-.72s-.72,0-.72,0h-.72s-.67.07-.67.07l.03.68-.04.72v.72s-.07.72-.07.72l.08.72-.07.73v.73s-.02.73-.02.73l.03.71ZM12.27,61.9l.74-.09.71.05.71-.04.71.04.71.03h.71s.71-.04.71-.04l.71-.04.71.1h.72s.71-.1.71-.1l.71.09.72-.05.72.02.71.08h.71s.72,0,.72,0l.72-.03.72-.12.74.1-.07-.77.05-.75-.05-.75.03-.75.02-.75-.04-.75.02-.75-.02-.75.05-.75-.08-.75.09-.75-.06-.72-.68-.03-.71-.03-.71.09-.71-.07-.71.02-.71.05-.71.02-.71-.06-.71-.07h-.72s-.71.02-.71.02l-.71.07-.72-.08h-.72s-.71.01-.71.01l-.71-.03-.72.06-.72-.09-.72.04h-.76s.04.78.04.78l.02.75-.05.75.02.75.08.75-.12.75.02.75-.05.75v.75s.03.75.03.75l.1.75-.08.78Z"/>
      <polygon class="cls-1" points="31.61 59.9 30.86 59.82 30.15 59.89 29.44 59.86 28.73 59.92 28.01 59.86 27.3 59.87 26.59 59.82 25.87 59.82 25.16 59.92 24.45 59.88 23.74 59.92 23.02 59.88 22.31 59.85 21.6 59.84 20.88 59.89 20.17 59.93 19.47 59.84 18.76 59.84 18.04 59.93 17.33 59.85 16.61 59.9 15.9 59.87 15.19 59.8 14.47 59.8 13.76 59.79 13.04 59.82 12.32 59.93 11.61 59.83 10.89 59.9 10.18 59.85 9.46 59.9 8.74 59.87 8.02 59.86 7.27 59.88 7.28 59.14 7.26 58.43 7.31 57.72 7.23 57.01 7.32 56.29 7.25 55.57 7.3 54.86 8.01 54.88 8.72 54.8 9.43 54.87 10.14 54.85 10.86 54.8 11.57 54.78 12.28 54.84 12.99 54.9 13.71 54.92 14.42 54.88 15.13 54.81 15.85 54.89 16.56 54.89 17.27 54.88 17.99 54.9 18.69 54.84 19.4 54.93 20.11 54.89 20.83 54.92 21.54 54.86 22.26 54.84 22.97 54.89 23.68 54.87 24.4 54.79 25.11 54.9 25.83 54.88 26.55 54.92 27.26 54.92 27.98 54.9 28.69 54.8 29.41 54.8 30.13 54.83 30.85 54.8 31.6 54.83 31.53 55.57 31.54 56.28 31.53 56.99 31.58 57.71 31.58 58.42 31.58 59.14 31.61 59.9"/>
      <polygon class="cls-1" points="58.03 66.85 57.34 66.89 56.62 66.88 55.9 66.91 55.18 66.91 54.46 66.91 53.74 66.84 53.02 66.87 52.31 66.87 51.59 66.91 50.87 66.92 50.15 66.95 49.43 66.87 48.71 66.93 47.99 66.88 47.27 66.87 46.55 66.92 45.84 66.91 45.12 66.94 44.4 66.84 43.68 66.91 42.96 66.88 42.24 66.94 41.52 66.87 40.8 66.89 40.08 66.83 39.35 66.84 38.63 66.94 37.91 66.9 37.19 66.94 36.46 66.9 35.74 66.87 35.01 66.86 34.29 66.91 33.51 66.93 33.58 66.15 33.58 65.42 33.49 64.69 33.57 63.96 33.52 63.23 33.54 62.5 33.62 61.78 33.61 61.05 33.62 60.33 33.6 59.6 33.48 58.87 33.59 58.14 33.51 57.41 33.56 56.69 33.52 55.96 33.54 55.23 33.56 54.49 33.52 53.76 33.54 53.03 33.52 52.3 33.57 51.57 33.49 50.84 33.58 50.1 33.51 49.37 33.56 48.63 33.58 47.91 34.27 47.84 34.99 47.91 35.71 47.89 36.43 47.84 37.15 47.82 37.87 47.88 38.59 47.94 39.31 47.96 40.03 47.92 40.74 47.85 41.46 47.93 42.19 47.93 42.91 47.92 43.62 47.94 44.34 47.88 45.06 47.97 45.77 47.93 46.49 47.95 47.21 47.9 47.93 47.88 48.65 47.93 49.37 47.91 50.09 47.83 50.82 47.94 51.54 47.92 52.26 47.96 52.98 47.96 53.71 47.94 54.43 47.84 55.15 47.84 55.87 47.87 56.6 47.84 57.33 47.85 58.02 47.93 58.02 48.61 58.01 49.32 58.07 50.03 58.07 50.75 58.07 51.46 58.03 52.18 58.05 52.89 57.34 52.96 56.62 52.91 55.9 52.94 55.17 52.87 54.45 52.84 53.73 52.88 53.01 52.94 52.29 52.85 51.57 52.83 50.86 52.91 50.14 52.92 49.42 52.96 48.7 52.91 47.97 52.85 47.25 52.94 46.53 52.83 45.81 52.94 45.09 52.9 44.36 52.87 43.64 52.91 42.91 52.86 42.19 52.95 41.47 52.87 40.74 52.87 40.02 52.96 39.29 52.9 38.6 52.94 38.57 53.64 38.55 54.39 38.52 55.13 38.53 55.88 38.55 56.63 38.51 57.38 38.63 58.12 38.59 58.87 38.59 59.62 38.55 60.37 38.58 61.12 38.54 61.89 39.28 61.86 40 61.94 40.72 61.92 41.44 61.9 42.16 61.9 42.88 61.94 43.6 61.81 44.32 61.95 45.04 61.83 45.75 61.83 46.47 61.89 47.19 61.89 47.92 61.89 48.64 61.91 49.36 61.81 50.08 61.8 50.8 61.84 51.53 61.84 52.25 61.92 52.97 61.84 53.7 61.91 54.42 61.92 55.14 61.93 55.87 61.83 56.6 61.92 57.33 61.81 58.08 61.85 58.09 62.59 58.05 63.3 58.02 64.01 58.08 64.72 58.12 65.44 57.99 66.16 58.03 66.85"/>
      <polygon class="cls-1" points="58.05 59.85 57.34 59.9 56.62 59.9 55.9 59.9 55.18 59.9 54.46 59.89 53.74 59.88 53.02 59.87 52.31 59.83 51.59 59.87 50.87 59.86 50.15 59.89 49.43 59.9 48.71 59.89 47.99 59.82 47.27 59.85 46.55 59.85 45.84 59.89 45.12 59.9 44.4 59.93 43.68 59.85 42.96 59.91 42.24 59.86 41.52 59.85 40.8 59.9 40.08 59.89 39.35 59.92 38.63 59.82 37.91 59.89 37.19 59.86 36.46 59.92 35.74 59.86 35.01 59.87 34.29 59.82 33.58 59.83 33.49 59.14 33.53 58.43 33.49 57.72 33.54 57.01 33.57 56.29 33.57 55.57 33.53 54.83 34.27 54.79 34.99 54.88 35.71 54.87 36.43 54.79 37.15 54.87 37.87 54.82 38.59 54.84 39.31 54.92 40.03 54.91 40.74 54.92 41.46 54.9 42.19 54.78 42.91 54.89 43.62 54.81 44.34 54.86 45.06 54.82 45.77 54.84 46.49 54.86 47.21 54.82 47.93 54.84 48.65 54.82 49.37 54.87 50.09 54.79 50.82 54.88 51.54 54.81 52.26 54.85 52.98 54.88 53.71 54.8 54.43 54.87 55.15 54.85 55.87 54.8 56.6 54.78 57.33 54.84 58.02 54.89 57.99 55.57 58.03 56.28 58.1 56.99 58.02 57.71 58.02 58.42 58.03 59.14 58.05 59.85"/>
      <polygon class="cls-1" points="51.29 79.99 50.53 79.89 49.81 79.97 49.1 79.9 48.38 79.97 47.66 79.95 46.94 79.87 46.22 79.93 45.5 79.92 44.78 80.02 44.07 79.96 43.35 80 42.63 79.97 41.92 79.94 41.2 80.04 40.49 79.91 39.77 79.83 39.05 79.98 38.33 79.84 37.62 79.88 36.9 79.98 36.17 79.91 35.45 79.83 34.73 80.05 34.01 79.85 33.29 79.98 32.58 79.85 31.86 79.93 31.14 80.02 30.42 80.03 29.7 80.03 28.98 80.02 28.26 80.01 27.53 79.99 26.81 79.98 26.09 79.9 25.37 79.98 24.65 79.96 23.93 80.01 23.21 80.02 22.49 80.01 21.76 79.89 21.04 79.94 20.33 79.94 19.61 80.01 18.89 80.03 18.17 80.08 17.44 79.94 16.72 80.05 16 79.96 15.28 79.94 14.56 80.03 13.83 80.02 13.11 80.06 12.38 79.89 11.66 80.01 10.93 79.96 10.21 80.07 9.48 79.95 8.76 79.98 8.03 79.88 7.34 79.91 7.18 79.24 7.25 78.53 7.18 77.82 7.26 77.1 7.31 76.39 7.32 75.67 7.26 74.91 8.02 74.82 8.73 74.99 9.45 74.98 10.17 74.82 10.88 74.97 11.6 74.88 12.32 74.92 13.03 75.06 13.75 75.05 14.47 75.07 15.19 75.02 15.91 74.82 16.63 75 17.35 74.87 18.07 74.96 18.79 74.88 19.51 74.92 20.23 74.95 20.95 74.88 21.67 74.92 22.39 74.89 23.11 74.97 23.83 74.84 24.55 74.99 25.27 74.87 26 74.95 26.72 75 27.44 74.85 28.16 74.97 28.88 74.93 29.6 74.85 30.33 74.82 31.05 74.92 31.77 75.04 32.49 75.06 33.21 75 33.93 74.87 34.65 75.01 35.37 75.01 36.09 74.99 36.82 75.04 37.54 74.93 38.26 75.08 38.99 75.01 39.71 75.06 40.43 74.96 41.16 74.93 41.88 75.01 42.61 74.98 43.33 74.83 44.06 75.03 44.79 74.99 45.52 75.07 46.33 75.02 46.33 74.18 46.17 73.47 45.53 73.5 44.81 73.44 44.1 73.51 43.38 73.48 42.66 73.32 41.95 73.33 41.23 73.32 40.51 73.42 39.8 73.42 39.08 73.42 38.36 73.36 37.64 73.38 36.92 73.52 36.2 73.42 35.48 73.49 34.76 73.35 34.04 73.3 33.32 73.38 32.6 73.49 31.88 73.31 31.16 73.27 30.44 73.43 29.72 73.44 29 73.51 28.27 73.43 27.55 73.31 26.83 73.47 26.11 73.29 25.39 73.47 24.67 73.4 23.94 73.36 23.22 73.43 22.5 73.34 21.78 73.5 21.05 73.35 20.34 73.36 19.62 73.52 18.9 73.41 18.18 73.5 17.45 73.43 16.73 73.39 16.01 73.34 15.29 73.35 14.56 73.39 13.84 73.32 13.11 73.53 12.39 73.47 11.66 73.46 10.94 73.4 10.21 73.44 9.49 73.36 8.76 73.43 8.03 73.29 7.36 73.34 7.34 72.69 7.34 71.98 7.41 71.27 7.17 70.55 7.43 69.84 7.22 69.12 7.24 68.34 8.01 68.42 8.73 68.42 9.45 68.44 10.17 68.46 10.89 68.29 11.61 68.27 12.33 68.34 13.05 68.35 13.76 68.47 14.48 68.34 15.2 68.45 15.91 68.48 16.63 68.49 17.34 68.33 18.06 68.48 18.78 68.29 19.49 68.35 20.21 68.35 20.93 68.42 21.65 68.47 22.37 68.35 23.09 68.29 23.81 68.52 24.53 68.49 25.25 68.3 25.97 68.4 26.69 68.46 27.41 68.29 28.13 68.41 28.85 68.53 29.57 68.53 30.29 68.28 31.01 68.44 31.73 68.36 32.45 68.28 33.17 68.39 33.9 68.31 34.62 68.5 35.34 68.35 36.06 68.45 36.78 68.28 37.5 68.38 38.22 68.31 38.94 68.47 39.66 68.4 40.38 68.49 41.1 68.31 41.82 68.46 42.54 68.37 43.27 68.4 43.99 68.45 44.71 68.34 45.44 68.47 46.16 68.39 46.89 68.38 47.61 68.5 48.34 68.49 49.06 68.52 49.79 68.41 50.52 68.33 51.34 68.31 51.26 69.12 51.32 69.84 51.33 70.56 51.28 71.28 51.24 72 51.19 72.72 51.16 73.44 51.36 74.16 51.26 74.88 51.27 75.61 51.25 76.33 51.15 77.05 51.26 77.77 51.27 78.5 51.21 79.22 51.29 79.99"/>
    </g>
  </g>
</svg>